<svg xmlns="http://www.w3.org/2000/svg" viewBox="0 0 512 512"><path d="M132.863 169.456s-29.184-39.317-28.36-95.396c0 0 16.5 3.927 31.063 0 28.544-7.697 56.629-64.326 106.111-65.976s59.077 21.442 59.077 21.442 18.203-10.821 45.384-7.147c40.685 5.498 76.422 67.48 40.1 152.627" fill="#565e75"/><path d="M341.142 135.727c-17.663-16.294-37.326-44.484-45.224-56.256-1.814-2.703-5.661-2.955-7.86-.554-39.844 43.518-91.456 58.02-114.551 62.531-7.036 1.374-12.1 7.547-12.1 14.716v46.586c0 52.244 42.352 94.596 94.596 94.596 52.244 0 94.596-42.352 94.596-94.596v-45.16c0-8.281-3.371-16.249-9.457-21.863z" fill="#fdd4bb"/><path d="M256.003 279.346c-52.244 0-94.596-42.352-94.596-94.596v18c0 52.244 42.352 94.596 94.596 94.596 52.244 0 94.596-42.352 94.596-94.596v-18c0 52.243-42.352 94.596-94.596 94.596z" fill="#f7c4a8"/><path d="M161.407 202.75v-33.408a29.329 29.329 0 00-14.173-3.631c-16.27 0-29.46 13.19-29.46 29.46s13.19 29.46 29.46 29.46c5.798 0 11.2-1.682 15.758-4.574a95.162 95.162 0 01-1.585-17.307zM350.599 202.75v-33.408a29.329 29.329 0 0114.173-3.631c16.27 0 29.46 13.19 29.46 29.46s-13.19 29.46-29.46 29.46c-5.798 0-11.2-1.682-15.758-4.574a95.073 95.073 0 001.585-17.307z" fill="#ebbaa1"/><path d="M147.235 206.631c-13.131 0-24.25-8.592-28.055-20.46a29.42 29.42 0 00-1.406 9c0 16.27 13.19 29.46 29.46 29.46 5.798 0 11.2-1.682 15.758-4.574a95.158 95.158 0 01-1.58-17.072 29.283 29.283 0 01-14.177 3.646zM364.772 206.631a29.284 29.284 0 01-14.178-3.646 95.067 95.067 0 01-1.58 17.072 29.314 29.314 0 0015.758 4.574c16.27 0 29.46-13.19 29.46-29.46 0-3.14-.496-6.162-1.405-9-3.805 11.868-14.924 20.46-28.055 20.46z" fill="#e8a990"/><path d="M300.307 286.343c-13.218 7.02-28.295 11.003-44.304 11.003s-31.087-3.983-44.304-11.003c-63.834 13.363-111.777 69.965-111.777 137.77V504h312.163v-79.887c0-67.805-47.943-124.406-111.778-137.77z" fill="#adf0ff"/><path d="M99.922 486h312.163v18H99.922z" fill="#8deaf5"/><path d="M256.003 297.346c-16.129 0-31.312-4.041-44.601-11.159a45.044 45.044 0 00-.151 3.521c0 24.716 20.036 44.751 44.751 44.751s44.751-20.036 44.751-44.751c0-1.186-.06-2.358-.151-3.521-13.286 7.118-28.47 11.159-44.599 11.159z" fill="#ebbaa1"/><path d="M340.366 458.367h71.719V504h-71.719zM171.641 504H99.922v-45.633h71.719z" fill="#fdd4bb"/><path d="M340.366 486h71.719v18h-71.719zM171.641 504H99.922v-18h71.719z" fill="#f7c4a8"/><g fill="#ffde91"><circle cx="54.828" cy="169.203" transform="rotate(-45 54.802 169.226)" r="18.103"/><circle cx="457.172" cy="147.608" transform="rotate(-13.34 456.49 147.866)" r="18.103"/></g><g><path d="M213.246 496.957H179v-81.166c0-4.155-3.367-7.522-7.522-7.522s-7.522 3.367-7.522 7.522v35.446h-56.814v-26.799c0-30.838 10.761-60.917 30.302-84.697 17.275-21.023 40.66-36.311 66.586-43.714 3.103 25.932 25.219 46.105 51.973 46.105 26.757 0 48.876-20.18 51.974-46.117 21.044 5.988 40.328 17.104 56.216 32.478a7.498 7.498 0 005.23 2.116 7.522 7.522 0 005.232-12.927c-16.043-15.524-35.209-27.129-56.125-34.126 17.066-13.22 29.858-31.705 35.904-53.003a36.992 36.992 0 0010.548 1.539c20.423 0 37.038-16.615 37.038-37.038a36.827 36.827 0 00-6.874-21.453c6.841-16.981 11.159-33.789 12.969-49.884 46.212-12.434 56.967-28.091 56.967-39.958 0-13.977-14.292-25.926-42.479-35.517a7.526 7.526 0 00-9.544 4.698 7.523 7.523 0 004.698 9.544c23.827 8.106 32.281 16.527 32.281 21.275 0 4.923-9.39 14.847-40.95 24.048.167-21.41-4.436-41.118-13.849-57.687-11.408-20.08-28.874-33.073-47.919-35.647-20.016-2.704-35.653 1.785-43.901 5.107-2.14-2.489-5.204-5.384-9.49-8.163C281.2 3.162 263.524-.648 241.399.087c-18.371.613-35.641 7.87-54.348 22.839a7.52 7.52 0 00-1.174 10.572 7.521 7.521 0 0010.572 1.174c16.045-12.84 30.488-19.052 45.451-19.55 41.432-1.376 51.351 15.672 52.027 16.94.77 2.052 2.354 3.498 4.421 4.252 2.099.764 4.375.38 6.304-.741.164-.094 16.597-9.44 40.653-6.192 14.353 1.939 27.785 12.206 36.854 28.169 4.913 8.648 12.775 26.943 11.836 54.179-6.337 1.471-13.33 2.899-21.045 4.258a7.522 7.522 0 002.61 14.814 439.307 439.307 0 0016.977-3.323c-1.592 10.703-4.537 22.495-9.339 35.344a36.8 36.8 0 00-24.896-4.193V157.4c0-10.46-4.337-20.459-11.896-27.433-17.168-15.837-36.605-43.758-44.165-55.027a12.431 12.431 0 00-9.441-5.502c-3.887-.3-7.6 1.189-10.227 4.06-38.977 42.569-90.377 56.385-110.668 60.348-10.547 2.061-18.202 11.366-18.202 22.126v2.661a37.028 37.028 0 00-6.678-.616c-4.048 0-7.943.662-11.592 1.868-3.678-5.981-9.831-17.174-14.952-32.177a451.94 451.94 0 0018.413 3.523 7.523 7.523 0 008.68-6.147 7.52 7.52 0 00-6.148-8.68c-9.595-1.639-18.107-3.385-25.652-5.19-2.021-8.779-3.482-18.4-3.921-28.703 6.812.696 16.371.907 25.439-1.539 13.15-3.545 25.443-15.27 37.332-26.607a7.522 7.522 0 00-10.381-10.887c-10.527 10.04-21.412 20.42-30.867 22.969-12.496 3.369-27.288-.024-27.424-.055a7.517 7.517 0 00-6.36 1.381 7.516 7.516 0 00-2.902 5.825c-.175 11.867.932 22.981 2.792 33.194C70.704 97.91 61.961 88.543 61.961 83.76c0-3.93 5.456-9.132 14.596-13.913 11.18-5.85 27.917-11.239 48.403-15.588a7.524 7.524 0 005.796-8.92 7.526 7.526 0 00-8.92-5.796C72.125 50.096 46.918 64.973 46.918 83.76c0 11.877 10.732 27.454 56.471 39.836 5.819 20.48 14.052 35.784 18.998 43.833-7.603 6.788-12.401 16.654-12.401 27.624 0 20.423 16.615 37.038 37.038 37.038a36.98 36.98 0 0010.547-1.539c6.047 21.298 18.839 39.784 35.906 53.004-26.28 8.825-49.88 24.999-67.656 46.632-21.747 26.464-33.723 59.935-33.723 94.248v80.041a7.522 7.522 0 007.522 7.522h113.625a7.522 7.522 0 00.001-15.042zm42.757-169.868c-17.65 0-32.467-12.321-36.327-28.811 11.295 4.305 23.539 6.671 36.327 6.671s25.031-2.366 36.326-6.67c-3.86 16.489-18.676 28.81-36.326 28.81zM364.982 173.06c12.128 0 21.995 9.867 21.995 21.995s-9.867 21.995-21.995 21.995c-2.58 0-5.118-.454-7.512-1.325.549-4.283.833-8.647.833-13.077V174.1a22.077 22.077 0 016.679-1.04zm-217.957 43.99c-12.128 0-21.995-9.867-21.995-21.995s9.867-21.995 21.995-21.995c2.273 0 4.529.357 6.678 1.04v28.548c0 4.43.284 8.794.833 13.077a21.948 21.948 0 01-7.511 1.325zm21.722-14.402v-46.676c0-3.582 2.542-6.677 6.044-7.362 21.384-4.177 75.025-18.587 116.737-62.655 8.837 12.993 27.587 39.303 44.678 55.07 4.483 4.135 7.053 10.104 7.053 16.376v45.247c0 48.114-39.143 87.257-87.256 87.257-48.114 0-87.256-39.143-87.256-87.257zm-4.791 294.309h-56.814V466.28h56.814zM382.061 336.738a7.52 7.52 0 00-1.777 10.487c16.079 22.64 24.58 49.339 24.58 77.212v26.799H348.05V415.79a7.521 7.521 0 00-7.522-7.522 7.522 7.522 0 00-7.522 7.522v81.166h-89.703a7.522 7.522 0 100 15.044h169.081a7.521 7.521 0 007.522-7.522v-80.041c0-31.012-9.461-60.724-27.359-85.923a7.517 7.517 0 00-10.486-1.776zm22.802 160.219H348.05V466.28h56.814v30.677z"/><path d="M217.09 228.233c-2.6 3.241-2.101 7.999 1.14 10.598 3.239 2.599 7.954 2.105 10.554-1.135 1.011-1.215 3.785-3.684 6.122-3.839.573.342 1.729 1.437 2.514 2.181 3.545 3.359 8.904 8.436 18.584 8.436 9.678 0 15.037-5.077 18.583-8.436.786-.744 1.941-1.839 2.515-2.181 2.332.155 5.101 2.616 6.115 3.833a7.52 7.52 0 0010.54 1.118 7.52 7.52 0 001.16-10.573c-.774-.965-7.859-9.428-18.042-9.428-5.971 0-9.822 3.648-12.634 6.312-2.991 2.834-4.717 4.313-8.237 4.313-3.521 0-5.246-1.479-8.238-4.313-2.811-2.664-6.662-6.312-12.633-6.312-10.184-.001-17.269 8.462-18.043 9.426zM195.531 194.282c1.469 1.468 3.395 2.203 5.319 2.203s3.85-.735 5.319-2.203l3.974-3.974 3.974 3.974c1.469 1.468 3.395 2.203 5.319 2.203s3.85-.735 5.319-2.203a7.523 7.523 0 000-10.638l-3.974-3.974 3.974-3.974a7.523 7.523 0 00-10.638-10.638l-3.974 3.974-3.974-3.974a7.523 7.523 0 00-10.638 10.638l3.974 3.974-3.974 3.974a7.521 7.521 0 000 10.638zM287.254 194.282a7.5 7.5 0 005.318 2.203 7.5 7.5 0 005.319-2.204l3.973-3.974 3.973 3.974a7.497 7.497 0 005.319 2.204 7.521 7.521 0 005.319-12.84l-3.975-3.975 3.975-3.975a7.521 7.521 0 10-10.638-10.636l-3.973 3.974-3.973-3.974a7.522 7.522 0 00-10.638 10.636l3.975 3.975-3.975 3.975a7.52 7.52 0 00.001 10.637zM54.44 143.378c-14.149 0-25.66 11.511-25.66 25.659 0 14.149 11.511 25.66 25.66 25.66s25.66-11.511 25.66-25.66-11.511-25.659-25.66-25.659zm0 36.275c-5.854 0-10.617-4.763-10.617-10.616 0-5.854 4.763-10.616 10.617-10.616s10.617 4.762 10.617 10.616c0 5.853-4.763 10.616-10.617 10.616zM457.56 121.741c-14.149 0-25.66 11.511-25.66 25.659 0 14.149 11.511 25.66 25.66 25.66s25.66-11.511 25.66-25.66c0-14.148-11.511-25.659-25.66-25.659zm0 36.276c-5.854 0-10.616-4.763-10.616-10.617s4.763-10.615 10.616-10.615c5.854 0 10.617 4.762 10.617 10.615 0 5.854-4.763 10.617-10.617 10.617z"/></g></svg>