<svg xmlns="http://www.w3.org/2000/svg" viewBox="0 0 512 512"><path d="M284.971 28.971a16.972 16.972 0 00-12-4.971h-1.942a16.972 16.972 0 00-12 4.971l-22.745 22.745a16.972 16.972 0 00-4.884 10.312L224.8 128a16.971 16.971 0 004.887 13.689l43.646 43.646L296 160l-37-36.5 5-51.5 12-12a16.971 16.971 0 000 24 16.971 16.971 0 0024 0l8-8a16.971 16.971 0 000-24zM483.029 227.745L460 204.716a16.97 16.97 0 00-24 0l-8 8a16.971 16.971 0 0024 24l-12 12-51.5 5-31.858-32.358-28.333 19.667 42 42A16.971 16.971 0 00384 287.916l65.97-6.6a16.977 16.977 0 0010.312-4.887l22.745-22.746a16.968 16.968 0 004.971-12v-1.941a16.97 16.97 0 00-4.969-11.997z" fill="#fa9f0c"/><path d="M464 176l-31.15 31.15A169.682 169.682 0 01296 256l-40-40q-.555-5.595-.74-11.18a169.645 169.645 0 0149.59-125.67L336 48l105.71 105.71z" fill="#ffb531"/><path d="M330.343 87.6l-8.522 8.522a149.433 149.433 0 00-3.475 3.595l11.689 10.925a134.222 134.222 0 013.1-3.206l8.522-8.522zM280.009 183.132l15.9 1.736a129.11 129.11 0 0124.991-63.325l-12.8-9.589a145.09 145.09 0 00-28.091 71.178z" fill="#ffc361"/><path d="M135.957 335.985L255.94 216.003l39.995 39.994L175.95 375.98z" fill="#fa9f0c"/><path d="M185.94 400a33.846 33.846 0 01-9.94 24l-8 8-36.48-36.48L80 344l8-8a33.95 33.95 0 0148 0l40 40a2.291 2.291 0 01.21.23 33.812 33.812 0 019.73 23.77z" fill="#ffb531"/><path d="M184 448l-40 40L24 368l40-40 87.08 87.08z" fill="#92563a"/><path d="M193.373 393.373L168 368l96-96 25.373 25.373a32 32 0 010 45.254l-50.746 50.746a32 32 0 01-45.254 0z" fill="#feb784"/><path d="M213.657 221.657l44.686 44.686A19.315 19.315 0 01264 280a19.315 19.315 0 01-5.657 13.657l-68.686 68.686A19.315 19.315 0 01176 368a19.315 19.315 0 01-13.657-5.657l-44.686-44.686A19.315 19.315 0 01112 304a19.315 19.315 0 015.657-13.657l68.686-68.686A19.315 19.315 0 01200 216a19.315 19.315 0 0113.657 5.657z" fill="#fec9a3"/><g fill="#feb784"><path d="M186.295 253.654l11.312-11.312 55.992 55.992-11.312 11.312zM162.295 277.65l11.312-11.313L229.6 322.33l-11.312 11.312zM138.295 301.644l11.312-11.312 55.992 55.992-11.312 11.312z"/></g><path d="M248 256l-48 48 3.6 3.6A35.185 35.185 0 00248 312a35.185 35.185 0 004.4 44.4L264 368l25.373-25.373a32 32 0 000-45.254z" fill="#ffd5b8"/><path d="M464 488H304l-40-40 80-80z" fill="#4d5e78"/><path d="M223.937 407.986L303.925 328l39.994 39.994-79.988 79.988z" fill="#e0e0de"/><path d="M256 400h16v16h-16z" fill="#4d5e78"/><path d="M128 56a50.6 50.6 0 0032-32 50.6 50.6 0 0032 32 50.6 50.6 0 00-32 32 50.6 50.6 0 00-32-32z" fill="#ffb531"/><path d="M184 448l-40 40-33.26-33.26 40.34-39.66z" fill="#804a32"/><path d="M464 176l-31.15 31.15A169.682 169.682 0 01296 256l-40-40q-.555-5.595-.74-11.18c61.74-4.22 125.42-19.6 186.45-51.11zM185.94 400a33.846 33.846 0 01-9.94 24l-8 8-36.48-36.48q22.515-8.52 44.69-19.29a33.812 33.812 0 019.73 23.77z" fill="#fcac1f"/><path d="M464 488H304l-26.32-26.32h160z" fill="#485870"/></svg>