<svg fill="none" xmlns="http://www.w3.org/2000/svg" viewBox="0 0 1040 360"><path d="M190.842 19h-2.344V9.088h-.136l-3.897 9.365h-1.797l-3.896-9.365h-.137V19h-2.344V4.908h2.95l4.238 10.264h.176l4.238-10.264h2.949V19Zm13.186 0V8.98h-.166L197.055 19h-2.441V4.908h2.51v10.04h.166l6.797-10.04h2.441V19h-2.5Zm18.176 0h-2.509v-6.084h-6.856V19h-2.519V4.908h2.519v5.83h6.856v-5.83h2.509V19Zm13.196 0V8.98h-.166L228.427 19h-2.441V4.908h2.51v10.04h.166l6.797-10.04h2.441V19h-2.5Zm12.17.352c-1.998 0-3.577-.661-4.736-1.983-1.159-1.328-1.738-3.131-1.738-5.41 0-2.292.576-4.098 1.728-5.42 1.159-1.322 2.738-1.982 4.737-1.982 1.601 0 2.959.472 4.072 1.416 1.113.937 1.745 2.142 1.894 3.613h-2.48c-.176-.846-.58-1.52-1.211-2.022-.632-.507-1.39-.761-2.275-.761-1.198 0-2.146.462-2.842 1.386-.697.918-1.045 2.172-1.045 3.76 0 1.589.348 2.845 1.045 3.77.696.924 1.647 1.386 2.851 1.386.892 0 1.654-.23 2.285-.693a3.074 3.074 0 0 0 1.202-1.885h2.48c-.169 1.446-.801 2.611-1.894 3.496-1.094.886-2.452 1.329-4.073 1.329ZM262.075 19h-2.52V7.086h-4.336V4.908h11.201v2.178h-4.345V19Zm16.398-2.178V19h-9.121V4.908h9.121v2.178h-6.601v3.74h6.24v2.051h-6.24v3.945h6.601Zm3.421-11.914h5.683c1.407 0 2.546.44 3.418 1.319.879.878 1.319 2.028 1.319 3.447 0 1.393-.453 2.526-1.358 3.398-.898.873-2.06 1.309-3.486 1.309h-3.057V19h-2.519V4.908Zm2.519 2.11v5.273h2.491c.904 0 1.604-.228 2.099-.684.501-.455.752-1.1.752-1.933 0-.86-.247-1.517-.742-1.973-.488-.456-1.188-.683-2.1-.683h-2.5Zm16.858 12.334c-1.999 0-3.577-.661-4.736-1.983-1.159-1.328-1.738-3.131-1.738-5.41 0-2.292.576-4.098 1.728-5.42 1.159-1.322 2.738-1.982 4.736-1.982 1.602 0 2.959.472 4.073 1.416 1.113.937 1.744 2.142 1.894 3.613h-2.48c-.176-.846-.58-1.52-1.211-2.022-.632-.507-1.39-.761-2.276-.761-1.198 0-2.145.462-2.841 1.386-.697.918-1.045 2.172-1.045 3.76 0 1.589.348 2.845 1.045 3.77.696.924 1.647 1.386 2.851 1.386.892 0 1.654-.23 2.285-.693a3.068 3.068 0 0 0 1.201-1.885h2.481c-.169 1.446-.801 2.611-1.895 3.496-1.093.886-2.451 1.329-4.072 1.329ZM315.775 19h-2.519V7.086h-4.336V4.908h11.201v2.178h-4.346V19Zm13.304 0h-6.026V4.908h5.889c1.334 0 2.383.316 3.144.947.762.625 1.143 1.482 1.143 2.569 0 .742-.241 1.403-.723 1.982-.482.58-1.077.925-1.787 1.035v.176c.951.091 1.722.45 2.315 1.074.592.619.888 1.387.888 2.305 0 1.237-.433 2.214-1.299 2.93-.859.716-2.041 1.074-3.544 1.074Zm-3.506-12.09v3.926h2.431c.892 0 1.569-.166 2.032-.498.468-.339.703-.827.703-1.465 0-.618-.212-1.1-.635-1.445-.423-.345-1.016-.518-1.777-.518h-2.754Zm0 10.088h2.929c.931 0 1.638-.186 2.119-.557.482-.377.723-.924.723-1.64 0-.703-.251-1.237-.752-1.602-.495-.364-1.224-.547-2.187-.547h-2.832v4.346Zm17.473-12.441c2.044 0 3.662.664 4.853 1.992 1.198 1.328 1.797 3.128 1.797 5.4 0 2.272-.596 4.076-1.787 5.41-1.191 1.328-2.813 1.993-4.863 1.993-2.064 0-3.695-.665-4.893-1.993-1.191-1.328-1.787-3.131-1.787-5.41 0-2.272.599-4.072 1.797-5.4 1.204-1.328 2.832-1.992 4.883-1.992Zm0 2.236c-1.257 0-2.256.465-2.998 1.396-.736.931-1.104 2.185-1.104 3.76 0 1.582.365 2.839 1.094 3.77.736.93 1.738 1.396 3.008 1.396 1.25 0 2.239-.465 2.968-1.396.736-.938 1.104-2.194 1.104-3.77 0-1.575-.368-2.829-1.104-3.76-.729-.93-1.718-1.396-2.968-1.396Zm17.885 6.074v-2.07h1.885c.742 0 1.344-.195 1.807-.586.462-.397.693-.912.693-1.543 0-.625-.221-1.12-.664-1.484-.443-.372-1.055-.557-1.836-.557-.781 0-1.413.192-1.894.576-.476.378-.739.895-.792 1.553h-2.363c.065-1.29.554-2.311 1.465-3.067.918-.755 2.139-1.132 3.662-1.132 1.432 0 2.601.354 3.506 1.064.911.703 1.367 1.618 1.367 2.744 0 .781-.241 1.472-.722 2.07a3.198 3.198 0 0 1-1.856 1.143v.166c.938.098 1.696.45 2.275 1.055.58.605.87 1.383.87 2.334 0 1.217-.518 2.226-1.553 3.027-1.035.794-2.328 1.192-3.877 1.192-1.569 0-2.848-.388-3.838-1.163-.983-.78-1.507-1.813-1.572-3.095h2.422c.052.644.348 1.159.888 1.543.541.384 1.244.576 2.11.576.853 0 1.536-.205 2.05-.615a1.98 1.98 0 0 0 .782-1.621c0-.658-.254-1.172-.762-1.543-.508-.378-1.217-.567-2.129-.567h-1.924Zm13.733.44c-.052.833-.146 1.513-.283 2.04-.13.528-.345.967-.645 1.319v.156h6.123V7.086h-4.795l-.4 6.22ZM372.193 19v2.783h-2.295v-4.96h1.006c.476-.307.817-.746 1.026-1.32.215-.579.351-1.366.41-2.362l.498-8.233h9.531v11.914h1.758v4.961h-2.285V19h-9.649Zm14.563-14.092h5.684c1.406 0 2.545.44 3.418 1.319.879.878 1.318 2.028 1.318 3.447 0 1.393-.452 2.526-1.357 3.398-.899.873-2.061 1.309-3.487 1.309h-3.056V19h-2.52V4.908Zm2.52 2.11v5.273h2.49c.905 0 1.605-.228 2.1-.684.501-.455.752-1.1.752-1.933 0-.86-.248-1.517-.743-1.973-.488-.456-1.188-.683-2.099-.683h-2.5ZM408.136 19l-1.192-3.604h-5.185L400.548 19h-2.549l5-14.092h2.832L410.841 19h-2.705Zm-3.858-11.406-1.933 5.81h4.013l-1.914-5.81h-.166ZM419.583 19h-6.025V4.908h5.888c1.335 0 2.383.316 3.145.947.762.625 1.143 1.482 1.143 2.569 0 .742-.241 1.403-.723 1.982-.482.58-1.078.925-1.787 1.035v.176c.95.091 1.722.45 2.314 1.074.593.619.889 1.387.889 2.305 0 1.237-.433 2.214-1.299 2.93-.859.716-2.041 1.074-3.545 1.074Zm-3.506-12.09v3.926h2.432c.892 0 1.569-.166 2.031-.498.469-.339.703-.827.703-1.465 0-.618-.211-1.1-.634-1.445-.424-.345-1.016-.518-1.778-.518h-2.754Zm0 10.088h2.93c.931 0 1.637-.186 2.119-.557.482-.377.723-.924.723-1.64 0-.703-.251-1.237-.752-1.602-.495-.364-1.224-.547-2.188-.547h-2.832v4.346ZM433.55 4.557c2.045 0 3.663.664 4.854 1.992 1.198 1.328 1.797 3.128 1.797 5.4 0 2.272-.596 4.076-1.787 5.41-1.192 1.328-2.813 1.993-4.864 1.993-2.063 0-3.694-.665-4.892-1.993-1.192-1.328-1.787-3.131-1.787-5.41 0-2.272.599-4.072 1.797-5.4 1.204-1.328 2.832-1.992 4.882-1.992Zm0 2.236c-1.256 0-2.255.465-2.998 1.396-.735.931-1.103 2.185-1.103 3.76 0 1.582.364 2.839 1.094 3.77.735.93 1.738 1.396 3.007 1.396 1.25 0 2.24-.465 2.969-1.396.736-.938 1.104-2.194 1.104-3.77 0-1.575-.368-2.829-1.104-3.76-.729-.93-1.719-1.396-2.969-1.396Zm15.921-2.236c2.044 0 3.662.664 4.853 1.992 1.198 1.328 1.797 3.128 1.797 5.4 0 2.272-.596 4.076-1.787 5.41-1.191 1.328-2.813 1.993-4.863 1.993-2.064 0-3.695-.665-4.893-1.993-1.191-1.328-1.787-3.131-1.787-5.41 0-2.272.599-4.072 1.797-5.4 1.204-1.328 2.832-1.992 4.883-1.992Zm0 2.236c-1.257 0-2.256.465-2.998 1.396-.736.931-1.104 2.185-1.104 3.76 0 1.582.365 2.839 1.094 3.77.736.93 1.738 1.396 3.008 1.396 1.25 0 2.239-.465 2.968-1.396.736-.938 1.104-2.194 1.104-3.77 0-1.575-.368-2.829-1.104-3.76-.729-.93-1.718-1.396-2.968-1.396ZM457.911 19l4.609-7.1-4.57-6.992h2.978l3.213 5.176h.166l3.262-5.176h2.832l-4.727 7.051L470.323 19h-2.91l-3.272-5.059h-.166L460.655 19h-2.744Zm15.383-14.092h5.683c1.407 0 2.546.44 3.418 1.319.879.878 1.319 2.028 1.319 3.447 0 1.393-.453 2.526-1.358 3.398-.898.873-2.06 1.309-3.486 1.309h-3.057V19h-2.519V4.908Zm2.519 2.11v5.273h2.491c.904 0 1.604-.228 2.099-.684.501-.455.752-1.1.752-1.933 0-.86-.247-1.517-.742-1.973-.488-.456-1.188-.683-2.1-.683h-2.5ZM494.673 19l-1.191-3.604h-5.186L487.085 19h-2.549l5-14.092h2.832L497.378 19h-2.705Zm-3.857-11.406-1.934 5.81h4.014l-1.914-5.81h-.166ZM511.98 19h-2.51v-6.084h-6.855V19h-2.52V4.908h2.52v5.83h6.855v-5.83h2.51V19Zm12.903-2.178V19h-9.121V4.908h9.121v2.178h-6.602v3.74h6.24v2.051h-6.24v3.945h6.602ZM540.188 19h-2.51v-6.084h-6.855V19h-2.52V4.908h2.52v5.83h6.855v-5.83h2.51V19Zm13.196 0V8.98h-.166L546.411 19h-2.441V4.908h2.509v10.04h.166l6.797-10.04h2.442V19h-2.5Zm14.016-7.197V7.008h-2.608c-.866 0-1.543.211-2.031.635-.482.416-.723 1.002-.723 1.757 0 .762.241 1.355.723 1.778.482.416 1.159.625 2.031.625h2.608Zm-2.246 2.011L561.609 19h-2.832l3.828-5.537c-.951-.273-1.713-.772-2.285-1.494-.573-.723-.86-1.582-.86-2.578 0-1.335.449-2.416 1.348-3.243.898-.826 2.083-1.24 3.555-1.24h5.537V19h-2.5v-5.185h-2.246Zm13.959-8.906h5.684c1.406 0 2.545.44 3.418 1.319.879.878 1.318 2.028 1.318 3.447 0 1.393-.452 2.526-1.357 3.398-.899.873-2.061 1.309-3.487 1.309h-3.056V19h-2.52V4.908Zm2.52 2.11v5.273h2.49c.905 0 1.605-.228 2.1-.684.501-.455.752-1.1.752-1.933 0-.86-.248-1.517-.743-1.973-.488-.456-1.188-.683-2.099-.683h-2.5Zm17.063-2.461c2.044 0 3.662.664 4.853 1.992 1.198 1.328 1.797 3.128 1.797 5.4 0 2.272-.596 4.076-1.787 5.41-1.191 1.328-2.813 1.993-4.863 1.993-2.064 0-3.695-.665-4.893-1.993-1.191-1.328-1.787-3.131-1.787-5.41 0-2.272.599-4.072 1.797-5.4 1.204-1.328 2.832-1.992 4.883-1.992Zm0 2.236c-1.257 0-2.256.465-2.998 1.396-.736.931-1.104 2.185-1.104 3.76 0 1.582.365 2.839 1.094 3.77.736.93 1.738 1.396 3.008 1.396 1.25 0 2.239-.465 2.968-1.396.736-.938 1.104-2.194 1.104-3.77 0-1.575-.368-2.829-1.104-3.76-.729-.93-1.718-1.396-2.968-1.396Zm15.715 12.559c-1.999 0-3.578-.661-4.736-1.983-1.159-1.328-1.739-3.131-1.739-5.41 0-2.292.577-4.098 1.729-5.42 1.159-1.322 2.737-1.982 4.736-1.982 1.602 0 2.959.472 4.072 1.416 1.114.937 1.745 2.142 1.895 3.613h-2.48c-.176-.846-.58-1.52-1.211-2.022-.632-.507-1.39-.761-2.276-.761-1.198 0-2.145.462-2.842 1.386-.696.918-1.045 2.172-1.045 3.76 0 1.589.349 2.845 1.045 3.77.697.924 1.648 1.386 2.852 1.386.892 0 1.654-.23 2.285-.693a3.068 3.068 0 0 0 1.201-1.885h2.481c-.17 1.446-.801 2.611-1.895 3.496-1.094.886-2.451 1.329-4.072 1.329Zm14.807 0c-1.999 0-3.577-.661-4.736-1.983-1.159-1.328-1.739-3.131-1.739-5.41 0-2.292.577-4.098 1.729-5.42 1.159-1.322 2.738-1.982 4.736-1.982 1.602 0 2.959.472 4.073 1.416 1.113.937 1.744 2.142 1.894 3.613h-2.48c-.176-.846-.58-1.52-1.211-2.022-.632-.507-1.39-.761-2.276-.761-1.198 0-2.145.462-2.842 1.386-.696.918-1.044 2.172-1.044 3.76 0 1.589.348 2.845 1.044 3.77.697.924 1.648 1.386 2.852 1.386.892 0 1.654-.23 2.285-.693a3.068 3.068 0 0 0 1.201-1.885h2.481c-.169 1.446-.801 2.611-1.895 3.496-1.093.886-2.451 1.329-4.072 1.329ZM647.697 19V8.98h-.166L640.724 19h-2.441V4.908h2.51v10.04h.166l6.796-10.04h2.442V19h-2.5ZM656.439.436h1.905c.006.488.163.878.468 1.171.313.293.707.44 1.182.44.482 0 .879-.147 1.192-.44.312-.293.472-.683.478-1.171h1.904c0 .937-.325 1.682-.976 2.236-.651.553-1.517.83-2.598.83-1.074 0-1.937-.277-2.588-.83-.644-.554-.967-1.299-.967-2.236ZM663.402 19V8.98h-.166L656.43 19h-2.442V4.908h2.51v10.04h.166l6.797-10.04h2.441V19h-2.5Zm12.171.352c-1.999 0-3.578-.661-4.737-1.983-1.159-1.328-1.738-3.131-1.738-5.41 0-2.292.576-4.098 1.729-5.42 1.158-1.322 2.737-1.982 4.736-1.982 1.601 0 2.959.472 4.072 1.416 1.113.937 1.745 2.142 1.895 3.613h-2.481c-.176-.846-.579-1.52-1.211-2.022-.631-.507-1.39-.761-2.275-.761-1.198 0-2.145.462-2.842 1.386-.697.918-1.045 2.172-1.045 3.76 0 1.589.348 2.845 1.045 3.77.697.924 1.647 1.386 2.852 1.386.892 0 1.653-.23 2.285-.693a3.072 3.072 0 0 0 1.201-1.885h2.48c-.169 1.446-.8 2.611-1.894 3.496-1.094.886-2.451 1.329-4.072 1.329Zm11.584-8.39h.43l5.293-6.054h2.89l-6.045 6.856L696.22 19h-3.106l-5.518-6.035h-.439V19h-2.519V4.908h2.519v6.055Zm16.829-6.405c2.044 0 3.662.664 4.853 1.992 1.198 1.328 1.797 3.128 1.797 5.4 0 2.272-.596 4.076-1.787 5.41-1.192 1.328-2.813 1.993-4.863 1.993-2.064 0-3.695-.665-4.893-1.993-1.191-1.328-1.787-3.131-1.787-5.41 0-2.272.599-4.072 1.797-5.4 1.204-1.328 2.832-1.992 4.883-1.992Zm0 2.236c-1.257 0-2.256.465-2.998 1.396-.736.931-1.104 2.185-1.104 3.76 0 1.582.365 2.839 1.094 3.77.735.93 1.738 1.396 3.008 1.396 1.25 0 2.239-.465 2.968-1.396.736-.938 1.104-2.194 1.104-3.77 0-1.575-.368-2.829-1.104-3.76-.729-.93-1.718-1.396-2.968-1.396ZM716.273.436h1.904c.007.488.163.878.469 1.171.313.293.706.44 1.182.44.482 0 .879-.147 1.191-.44.313-.293.472-.683.479-1.171h1.904c0 .937-.326 1.682-.977 2.236-.651.553-1.517.83-2.597.83-1.074 0-1.937-.277-2.588-.83-.645-.554-.967-1.299-.967-2.236ZM723.236 19V8.98h-.166L716.263 19h-2.441V4.908h2.51v10.04h.166l6.797-10.04h2.441V19h-2.5Zm17.475-3.36V8.21c-1.178.052-2.119.407-2.822 1.064-.703.658-1.055 1.54-1.055 2.647 0 1.113.349 1.999 1.045 2.656.697.658 1.641 1.012 2.832 1.065Zm6.309-3.71c0-1.114-.348-1.999-1.045-2.657-.697-.664-1.637-1.018-2.822-1.064v7.432c1.178-.053 2.116-.407 2.812-1.065.703-.657 1.055-1.54 1.055-2.646Zm-6.338 5.84c-1.94-.053-3.49-.596-4.648-1.631-1.159-1.042-1.739-2.448-1.739-4.22 0-1.77.583-3.17 1.748-4.198 1.166-1.035 2.712-1.582 4.639-1.64V4.644h2.49V6.08c1.94.052 3.49.596 4.649 1.63 1.159 1.036 1.738 2.442 1.738 4.22 0 1.178-.27 2.204-.811 3.076a5.279 5.279 0 0 1-2.246 2.002c-.95.462-2.06.716-3.33.762v1.494h-2.49V17.77Zm21.116-.948V19h-9.121V4.908h9.121v2.178h-6.602v3.74h6.24v2.051h-6.24v3.945h6.602Zm6.74-3.515c-.052.833-.146 1.513-.283 2.04-.13.528-.345.967-.644 1.319v.156h6.123V7.086h-4.795l-.401 6.22ZM766.068 19v2.783h-2.295v-4.96h1.006c.475-.307.817-.746 1.025-1.32.215-.579.352-1.366.41-2.362l.498-8.233h9.531v11.914h1.758v4.961h-2.285V19h-9.648Zm23.684-2.178V19h-9.122V4.908h9.122v2.178h-6.602v3.74h6.24v2.051h-6.24v3.945h6.602Zm3.42-11.914h5.683c1.407 0 2.546.44 3.418 1.319.879.878 1.319 2.028 1.319 3.447 0 1.393-.453 2.526-1.358 3.398-.898.873-2.06 1.309-3.486 1.309h-3.057V19h-2.519V4.908Zm2.519 2.11v5.273h2.491c.905 0 1.604-.228 2.099-.684.502-.455.752-1.1.752-1.933 0-.86-.247-1.517-.742-1.973-.488-.456-1.188-.683-2.1-.683h-2.5ZM814.551 19l-1.191-3.604h-5.186L806.963 19h-2.549l5-14.092h2.832L817.256 19h-2.705Zm-3.857-11.406-1.934 5.81h4.014l-1.914-5.81h-.166Zm22.756 14.19h-2.285V19h-11.192V4.908h2.52v11.914h6.689V4.908h2.51v11.914h1.758v4.961ZM845.484 19V8.98h-.166L838.511 19h-2.441V4.908h2.509v10.04h.166l6.797-10.04h2.442V19h-2.5Zm15.705 0V8.98h-.166L854.216 19h-2.441V4.908h2.51v10.04h.166l6.797-10.04h2.441V19h-2.5Zm-451.45 59V59.965h-.298L397.189 78h-4.395V52.635h4.518v18.07h.299l12.234-18.07h4.394V78h-4.5Zm32.638 0h-4.518V67.049h-12.34V78h-4.535V52.635h4.535v10.494h12.34V52.635h4.518V78Zm17.309.633c-3.598 0-6.44-1.19-8.526-3.569-2.086-2.39-3.129-5.636-3.129-9.738 0-4.125 1.037-7.377 3.112-9.756 2.086-2.379 4.927-3.568 8.525-3.568 2.883 0 5.326.85 7.33 2.549 2.004 1.687 3.141 3.855 3.41 6.504h-4.465c-.316-1.524-1.043-2.737-2.179-3.639-1.137-.914-2.502-1.371-4.096-1.371-2.156 0-3.861.832-5.115 2.496-1.254 1.652-1.881 3.908-1.881 6.768 0 2.859.627 5.12 1.881 6.785 1.254 1.664 2.965 2.496 5.133 2.496 1.605 0 2.976-.416 4.113-1.248 1.137-.844 1.857-1.975 2.162-3.393h4.465c-.305 2.602-1.442 4.7-3.41 6.293-1.969 1.594-4.412 2.39-7.33 2.39ZM485.713 78h-4.535V56.555h-7.805v-3.92h20.163v3.92h-7.823V78Zm13.02-25.365h10.231c2.531 0 4.582.79 6.152 2.373 1.582 1.582 2.373 3.65 2.373 6.205 0 2.508-.814 4.547-2.443 6.117-1.618 1.57-3.709 2.356-6.276 2.356h-5.502V78h-4.535V52.635Zm4.535 3.797v9.492h4.483c1.629 0 2.888-.41 3.779-1.23.902-.821 1.354-1.981 1.354-3.481 0-1.547-.446-2.73-1.336-3.55-.879-.821-2.139-1.231-3.78-1.231h-4.5Zm21.827 21.779c-.914 0-1.553-.082-1.916-.246V74.08c.48.106.978.158 1.494.158.867 0 1.6-.158 2.197-.474.61-.328 1.143-.867 1.6-1.617l-8.508-19.512h4.799l5.959 14.8h.299l5.765-14.8h4.746l-7.769 18.105c-.551 1.29-1.084 2.356-1.6 3.2a12.17 12.17 0 0 1-1.775 2.302 6.158 6.158 0 0 1-2.303 1.494c-.867.317-1.863.475-2.988.475Zm25.764-14.678h.773l9.528-10.898h5.203l-10.881 12.34L567.172 78h-5.59l-9.932-10.863h-.791V78h-4.535V52.635h4.535v10.898Zm45.1 19.477h-4.113V78h-20.145V52.635h4.535V74.08h12.041V52.635h4.518V74.08h3.164v8.93Zm21.58-5.01V59.965h-.298L604.989 78h-4.395V52.635h4.518v18.07h.299l12.234-18.07h4.394V78h-4.5Zm25.149-12.955v-8.63h-4.693c-1.559 0-2.777.38-3.656 1.142-.868.75-1.301 1.804-1.301 3.164 0 1.37.433 2.437 1.301 3.199.867.75 2.086 1.125 3.656 1.125h4.693Zm-4.043 3.621L632.264 78h-5.097l6.89-9.967c-1.711-.492-3.082-1.389-4.113-2.69-1.031-1.3-1.547-2.847-1.547-4.64 0-2.402.809-4.348 2.426-5.836 1.617-1.488 3.75-2.232 6.398-2.232h9.967V78h-4.5v-9.334h-4.043ZM137.844 118v-8.75h-4.522V118H130.9v-10.684h9.366V118h-2.422Zm10.295.215c-1.601 0-2.858-.492-3.769-1.475-.912-.989-1.368-2.35-1.368-4.082 0-1.719.459-3.073 1.377-4.062.918-.996 2.172-1.494 3.76-1.494 1.595 0 2.848.494 3.76 1.484.918.99 1.377 2.347 1.377 4.072 0 1.732-.459 3.093-1.377 4.082-.912.983-2.165 1.475-3.76 1.475Zm-1.963-2.949c.462.612 1.117.918 1.963.918.846 0 1.497-.306 1.953-.918.462-.619.694-1.488.694-2.608 0-1.113-.232-1.979-.694-2.597-.462-.619-1.113-.928-1.953-.928-.846 0-1.501.309-1.963.928-.462.618-.693 1.484-.693 2.597 0 1.12.231 1.989.693 2.608ZM168.378 118v-8.75h-4.521V118h-2.422v-10.684h9.365V118h-2.422Zm11.497-10.859c1.354 0 2.425.491 3.212 1.474.795.983 1.192 2.331 1.192 4.043 0 1.706-.394 3.054-1.182 4.043-.781.983-1.845 1.475-3.193 1.475-.762 0-1.429-.156-2.002-.469a2.997 2.997 0 0 1-1.26-1.328h-.166v5.176h-2.422v-14.239h2.334v1.768h.166a3.407 3.407 0 0 1 1.338-1.426 3.868 3.868 0 0 1 1.983-.517Zm-.762 8.974c.84 0 1.494-.306 1.963-.918.475-.612.713-1.458.713-2.539 0-1.081-.238-1.927-.713-2.539-.469-.612-1.12-.918-1.953-.918-.827 0-1.481.309-1.963.928-.482.618-.726 1.461-.733 2.529.007 1.068.248 1.911.723 2.53.482.618 1.136.927 1.963.927ZM189.418 118h-2.393v-10.684h2.393v7.071h.166l4.648-7.071h2.383V118h-2.383v-7.119h-.175L189.418 118Zm12.756 0h-2.314v-10.684h3.086l3.164 7.354h.176l3.173-7.354h3.028V118h-2.324v-7.266h-.176l-2.949 6.768h-1.739l-2.939-6.768h-.186V118Zm18.059-8.975c-.722 0-1.318.238-1.787.713-.469.476-.729 1.104-.781 1.885h5.029c-.026-.794-.26-1.426-.703-1.894-.443-.469-1.029-.704-1.758-.704Zm2.481 6.036h2.295c-.228.976-.765 1.748-1.612 2.314-.84.56-1.885.84-3.135.84-1.569 0-2.802-.488-3.701-1.465-.892-.983-1.338-2.334-1.338-4.053 0-1.718.45-3.079 1.348-4.082.899-1.009 2.122-1.513 3.672-1.513 1.523 0 2.715.478 3.574 1.435.866.951 1.299 2.269 1.299 3.955v.781h-7.461v.127c.033.892.287 1.599.762 2.12.482.514 1.12.771 1.914.771 1.224 0 2.018-.41 2.383-1.23Zm12.16 2.939v-4.531h-4.619V118h-2.422v-10.684h2.422v4.219h4.619v-4.219h2.422V118h-2.422Zm10.169-8.975c-.723 0-1.319.238-1.788.713-.468.476-.729 1.104-.781 1.885h5.03c-.027-.794-.261-1.426-.704-1.894-.442-.469-1.028-.704-1.757-.704Zm2.48 6.036h2.295c-.228.976-.765 1.748-1.611 2.314-.84.56-1.885.84-3.135.84-1.569 0-2.803-.488-3.701-1.465-.892-.983-1.338-2.334-1.338-4.053 0-1.718.449-3.079 1.347-4.082.899-1.009 2.123-1.513 3.672-1.513 1.524 0 2.715.478 3.575 1.435.865.951 1.298 2.269 1.298 3.955v.781h-7.461v.127c.033.892.287 1.599.762 2.12.482.514 1.12.771 1.914.771 1.224 0 2.018-.41 2.383-1.23ZM259.684 118v-4.531h-4.62V118h-2.421v-10.684h2.421v4.219h4.62v-4.219h2.421V118h-2.421Zm8.068 0h-2.392v-10.684h2.392v7.071h.166l4.649-7.071h2.383V118h-2.383v-7.119h-.176L267.752 118Zm19.593.215c-1.446 0-2.611-.417-3.497-1.25-.885-.84-1.396-2.005-1.533-3.496h-1.699V118h-2.422v-10.684h2.422v4.219h1.738c.189-1.4.723-2.487 1.602-3.262.879-.781 2.008-1.171 3.389-1.171 1.569 0 2.806.494 3.71 1.484.905.983 1.358 2.34 1.358 4.072 0 1.738-.453 3.099-1.358 4.082-.898.983-2.135 1.475-3.71 1.475Zm-1.924-2.949c.449.612 1.087.918 1.914.918s1.465-.306 1.914-.918c.449-.612.674-1.481.674-2.608 0-1.12-.228-1.985-.684-2.597-.449-.619-1.084-.928-1.904-.928-.821 0-1.459.309-1.914.928-.45.612-.674 1.477-.674 2.597 0 1.127.224 1.996.674 2.608Zm18.325-2.237a16.136 16.136 0 0 1-.205 1.719 7.033 7.033 0 0 1-.401 1.397 3.587 3.587 0 0 1-.635 1.074c-.253.28-.566.498-.937.654-.371.156-.801.234-1.289.234a2.46 2.46 0 0 1-.811-.117v-2.148c.17.045.365.068.586.068.489 0 .843-.26 1.065-.781.228-.521.371-1.266.429-2.236l.352-5.577h7.656V118h-2.412v-8.75h-3.135l-.263 3.779Zm13.557-4.004c-.723 0-1.319.238-1.787.713-.469.476-.73 1.104-.782 1.885h5.03c-.026-.794-.261-1.426-.703-1.894-.443-.469-1.029-.704-1.758-.704Zm2.48 6.036h2.295c-.228.976-.765 1.748-1.611 2.314-.84.56-1.885.84-3.135.84-1.569 0-2.803-.488-3.701-1.465-.892-.983-1.338-2.334-1.338-4.053 0-1.718.449-3.079 1.348-4.082.898-1.009 2.122-1.513 3.671-1.513 1.524 0 2.715.478 3.575 1.435.866.951 1.299 2.269 1.299 3.955v.781h-7.461v.127c.032.892.286 1.599.761 2.12.482.514 1.12.771 1.914.771 1.224 0 2.019-.41 2.383-1.23Zm8.03-1.651h-.488V118h-2.422v-10.684h2.422v4.278h.468l3.584-4.278h2.793l-4.384 4.932 4.589 5.752h-2.939l-3.623-4.59Zm12.141 2.861c.729 0 1.338-.208 1.826-.625.488-.423.733-.944.733-1.562v-.85l-2.413.157c-1.328.084-1.992.566-1.992 1.445 0 .443.169.794.508 1.055.345.254.791.38 1.338.38Zm-.713 1.905c-1.042 0-1.891-.293-2.549-.879-.657-.586-.986-1.361-.986-2.324 0-.964.348-1.719 1.045-2.266.703-.547 1.706-.859 3.008-.937l2.754-.166v-.899c0-.527-.173-.931-.518-1.211-.345-.28-.843-.42-1.494-.42-.56 0-1.022.098-1.387.293-.365.189-.602.462-.713.821h-2.285c.098-.945.553-1.693 1.367-2.247.821-.559 1.865-.839 3.135-.839 1.367 0 2.422.315 3.164.947.749.631 1.123 1.517 1.123 2.656V118h-2.334v-1.465h-.166a3.132 3.132 0 0 1-1.289 1.211c-.553.287-1.178.43-1.875.43Zm14.69-11.035c1.354 0 2.425.491 3.213 1.474.794.983 1.191 2.331 1.191 4.043 0 1.706-.394 3.054-1.181 4.043-.782.983-1.846 1.475-3.194 1.475-.762 0-1.429-.156-2.002-.469a2.997 2.997 0 0 1-1.26-1.328h-.166v5.176h-2.421v-14.239h2.334v1.768h.166a3.405 3.405 0 0 1 1.337-1.426 3.87 3.87 0 0 1 1.983-.517Zm-.762 8.974c.84 0 1.494-.306 1.963-.918.475-.612.713-1.458.713-2.539 0-1.081-.238-1.927-.713-2.539-.469-.612-1.12-.918-1.953-.918-.827 0-1.481.309-1.963.928-.482.618-.726 1.461-.732 2.529.006 1.068.247 1.911.722 2.53.482.618 1.136.927 1.963.927Zm17.151-5.205h-2.305c-.117-.54-.377-.97-.781-1.289-.404-.325-.928-.488-1.572-.488-.834 0-1.485.306-1.953.918-.463.612-.694 1.471-.694 2.578 0 1.12.235 1.992.703 2.617.469.625 1.117.938 1.944.938.631 0 1.149-.147 1.552-.44.411-.293.678-.716.801-1.269h2.305c-.137 1.139-.615 2.047-1.436 2.724-.813.677-1.884 1.016-3.213 1.016-1.608 0-2.861-.492-3.759-1.475-.899-.983-1.348-2.353-1.348-4.111 0-1.738.449-3.093 1.348-4.063.898-.976 2.148-1.464 3.75-1.464 1.341 0 2.418.348 3.232 1.044.82.691 1.296 1.612 1.426 2.764Zm10.325-3.594v1.934h-3.291V118h-2.422v-8.75h-3.291v-1.934h9.004Zm6.887 1.7h-2.1v2.666h1.904c1.192 0 1.787-.45 1.787-1.348 0-.41-.133-.732-.4-.967-.267-.234-.664-.351-1.191-.351Zm-.049 4.257h-2.051v3.028h2.266c.599 0 1.058-.13 1.377-.391.319-.26.478-.635.478-1.123 0-1.009-.69-1.514-2.07-1.514ZM383.039 118v-10.684h5.049c1.068 0 1.901.245 2.5.733.606.482.908 1.139.908 1.972 0 .547-.179 1.039-.537 1.475-.351.43-.791.69-1.318.781v.176c.697.072 1.26.339 1.689.801.43.456.645 1.009.645 1.66 0 .938-.342 1.686-1.025 2.246-.684.56-1.615.84-2.793.84h-5.118Zm16.097-8.975c-.723 0-1.319.238-1.788.713-.468.476-.729 1.104-.781 1.885h5.029c-.026-.794-.26-1.426-.703-1.894-.442-.469-1.028-.704-1.757-.704Zm2.48 6.036h2.295c-.228.976-.765 1.748-1.611 2.314-.84.56-1.885.84-3.135.84-1.569 0-2.803-.488-3.701-1.465-.892-.983-1.338-2.334-1.338-4.053 0-1.718.449-3.079 1.347-4.082.899-1.009 2.123-1.513 3.672-1.513 1.524 0 2.715.478 3.575 1.435.865.951 1.298 2.269 1.298 3.955v.781h-7.461v.127c.033.892.287 1.599.762 2.12.482.514 1.12.771 1.914.771 1.224 0 2.018-.41 2.383-1.23ZM413.777 118v-4.531h-4.62V118h-2.421v-10.684h2.421v4.219h4.62v-4.219h2.421V118h-2.421Zm12.717 0v-4.531h-4.619V118h-2.422v-10.684h2.422v4.219h4.619v-4.219h2.422V118h-2.422Zm10.295.215c-1.601 0-2.858-.492-3.769-1.475-.912-.989-1.368-2.35-1.368-4.082 0-1.719.459-3.073 1.377-4.062.918-.996 2.172-1.494 3.76-1.494 1.595 0 2.848.494 3.76 1.484.918.99 1.377 2.347 1.377 4.072 0 1.732-.459 3.093-1.377 4.082-.912.983-2.165 1.475-3.76 1.475Zm-1.963-2.949c.462.612 1.117.918 1.963.918.846 0 1.497-.306 1.953-.918.462-.619.694-1.488.694-2.608 0-1.113-.232-1.979-.694-2.597-.462-.619-1.113-.928-1.953-.928-.846 0-1.501.309-1.963.928-.462.618-.693 1.484-.693 2.597 0 1.12.231 1.989.693 2.608Zm17.024-6.016h-4.775V118h-2.422v-10.684h7.197v1.934Zm6.838 8.965c-1.601 0-2.858-.492-3.769-1.475-.912-.989-1.367-2.35-1.367-4.082 0-1.719.459-3.073 1.377-4.062.917-.996 2.171-1.494 3.759-1.494 1.595 0 2.849.494 3.76 1.484.918.99 1.377 2.347 1.377 4.072 0 1.732-.459 3.093-1.377 4.082-.911.983-2.165 1.475-3.76 1.475Zm-1.963-2.949c.463.612 1.117.918 1.963.918.847 0 1.498-.306 1.953-.918.463-.619.694-1.488.694-2.608 0-1.113-.231-1.979-.694-2.597-.462-.619-1.113-.928-1.953-.928-.846 0-1.5.309-1.963.928-.462.618-.693 1.484-.693 2.597 0 1.12.231 1.989.693 2.608ZM478.927 118v-8.75h-4.521V118h-2.422v-10.684h9.365V118h-2.422Zm11.497-10.859c1.354 0 2.425.491 3.213 1.474.794.983 1.191 2.331 1.191 4.043 0 1.706-.394 3.054-1.182 4.043-.781.983-1.845 1.475-3.193 1.475-.762 0-1.429-.156-2.002-.469a2.997 2.997 0 0 1-1.26-1.328h-.166v5.176h-2.421v-14.239h2.334v1.768h.166a3.405 3.405 0 0 1 1.337-1.426 3.87 3.87 0 0 1 1.983-.517Zm-.762 8.974c.84 0 1.494-.306 1.963-.918.475-.612.713-1.458.713-2.539 0-1.081-.238-1.927-.713-2.539-.469-.612-1.12-.918-1.953-.918-.827 0-1.481.309-1.963.928-.482.618-.726 1.461-.732 2.529.006 1.068.247 1.911.722 2.53.482.618 1.136.927 1.963.927Zm12.405-7.09c-.723 0-1.319.238-1.787.713-.469.476-.729 1.104-.782 1.885h5.03c-.026-.794-.261-1.426-.703-1.894-.443-.469-1.029-.704-1.758-.704Zm2.48 6.036h2.295c-.228.976-.765 1.748-1.611 2.314-.84.56-1.885.84-3.135.84-1.569 0-2.803-.488-3.701-1.465-.892-.983-1.338-2.334-1.338-4.053 0-1.718.449-3.079 1.348-4.082.898-1.009 2.122-1.513 3.672-1.513 1.523 0 2.714.478 3.574 1.435.866.951 1.299 2.269 1.299 3.955v.781h-7.461v.127c.032.892.286 1.599.761 2.12.482.514 1.12.771 1.914.771 1.224 0 2.019-.41 2.383-1.23ZM516.61 118v-8.75h-4.521V118h-2.422v-10.684h9.365V118h-2.422Zm9.338-1.729c.73 0 1.338-.208 1.827-.625.488-.423.732-.944.732-1.562v-.85l-2.412.157c-1.328.084-1.992.566-1.992 1.445 0 .443.169.794.508 1.055.345.254.791.38 1.337.38Zm-.712 1.905c-1.042 0-1.892-.293-2.549-.879-.658-.586-.987-1.361-.987-2.324 0-.964.349-1.719 1.045-2.266.703-.547 1.706-.859 3.008-.937l2.754-.166v-.899c0-.527-.173-.931-.518-1.211-.345-.28-.843-.42-1.494-.42-.56 0-1.022.098-1.386.293-.365.189-.603.462-.713.821h-2.285c.097-.945.553-1.693 1.367-2.247.82-.559 1.865-.839 3.134-.839 1.368 0 2.422.315 3.165.947.748.631 1.123 1.517 1.123 2.656V118h-2.334v-1.465h-.166c-.3.514-.73.918-1.289 1.211-.554.287-1.179.43-1.875.43Zm14.689-11.035c1.355 0 2.426.491 3.213 1.474.795.983 1.192 2.331 1.192 4.043 0 1.706-.394 3.054-1.182 4.043-.781.983-1.846 1.475-3.193 1.475-.762 0-1.429-.156-2.002-.469a2.986 2.986 0 0 1-1.26-1.328h-.166v5.176h-2.422v-14.239h2.334v1.768h.166a3.407 3.407 0 0 1 1.338-1.426 3.864 3.864 0 0 1 1.982-.517Zm-.761 8.974c.84 0 1.494-.306 1.963-.918.475-.612.712-1.458.712-2.539 0-1.081-.237-1.927-.712-2.539-.469-.612-1.12-.918-1.954-.918-.826 0-1.481.309-1.962.928-.482.618-.726 1.461-.733 2.529.007 1.068.248 1.911.723 2.53.482.618 1.136.927 1.963.927Zm11.574.156c.729 0 1.338-.208 1.826-.625.489-.423.733-.944.733-1.562v-.85l-2.412.157c-1.328.084-1.992.566-1.992 1.445 0 .443.169.794.507 1.055.345.254.791.38 1.338.38Zm-.713 1.905c-1.041 0-1.891-.293-2.548-.879-.658-.586-.987-1.361-.987-2.324 0-.964.349-1.719 1.045-2.266.703-.547 1.706-.859 3.008-.937l2.754-.166v-.899c0-.527-.173-.931-.518-1.211-.345-.28-.843-.42-1.494-.42-.56 0-1.022.098-1.387.293-.364.189-.602.462-.712.821H546.9c.098-.945.554-1.693 1.368-2.247.82-.559 1.865-.839 3.134-.839 1.368 0 2.422.315 3.164.947.749.631 1.123 1.517 1.123 2.656V118h-2.334v-1.465h-.166a3.132 3.132 0 0 1-1.289 1.211c-.553.287-1.178.43-1.875.43Zm17.024-10.86v1.934h-3.291V118h-2.422v-8.75h-3.291v-1.934h9.004Zm5.881 8.955c.73 0 1.338-.208 1.827-.625.488-.423.732-.944.732-1.562v-.85l-2.412.157c-1.328.084-1.992.566-1.992 1.445 0 .443.169.794.508 1.055.345.254.791.38 1.337.38Zm-.712 1.905c-1.042 0-1.892-.293-2.549-.879-.658-.586-.987-1.361-.987-2.324 0-.964.349-1.719 1.045-2.266.703-.547 1.706-.859 3.008-.937l2.754-.166v-.899c0-.527-.172-.931-.518-1.211-.345-.28-.843-.42-1.494-.42-.56 0-1.022.098-1.386.293-.365.189-.603.462-.713.821h-2.285c.097-.945.553-1.693 1.367-2.247.82-.559 1.865-.839 3.135-.839 1.367 0 2.421.315 3.164.947.748.631 1.123 1.517 1.123 2.656V118h-2.334v-1.465h-.166c-.3.514-.73.918-1.289 1.211-.554.287-1.179.43-1.875.43Zm21.127-2.11v-6.826h-3.535l-.273 3.789c-.098 1.289-.365 2.243-.801 2.862v.175h4.609Zm-5.82 4.717h-2.227v-4.717h.84c.697-.416 1.104-1.474 1.221-3.173l.371-5.577h8.037v8.75h1.641v4.717h-2.227V118h-7.656v2.783Zm15.246-7.754a15.634 15.634 0 0 1-.205 1.719 6.966 6.966 0 0 1-.4 1.397 3.587 3.587 0 0 1-.635 1.074c-.254.28-.566.498-.937.654-.371.156-.801.234-1.289.234-.319 0-.59-.039-.811-.117v-2.148c.169.045.365.068.586.068.488 0 .843-.26 1.065-.781.227-.521.371-1.266.429-2.236l.352-5.577h7.656V118h-2.412v-8.75h-3.135l-.264 3.779Zm13.079-.439h1.836v-3.35h-1.836c-.586 0-1.055.156-1.406.469-.345.306-.518.726-.518 1.26 0 .475.176.866.527 1.172.352.299.818.449 1.397.449Zm1.836 5.41v-3.574h-1.397l-2.5 3.574h-2.773l2.861-3.994c-.729-.208-1.302-.583-1.718-1.123-.417-.547-.625-1.188-.625-1.924 0-1.12.374-2.005 1.123-2.656.755-.658 1.757-.987 3.007-.987h4.405V118h-2.383Zm13.384 0h-2.315v-10.684h3.086l3.164 7.354h.176l3.174-7.354h3.027V118h-2.324v-7.266h-.176l-2.949 6.768h-1.738l-2.94-6.768h-.185V118Zm18.059-8.975c-.723 0-1.319.238-1.788.713-.468.476-.729 1.104-.781 1.885h5.029c-.026-.794-.26-1.426-.703-1.894-.442-.469-1.028-.704-1.757-.704Zm2.48 6.036h2.295c-.228.976-.765 1.748-1.611 2.314-.84.56-1.885.84-3.135.84-1.569 0-2.803-.488-3.701-1.465-.892-.983-1.338-2.334-1.338-4.053 0-1.718.449-3.079 1.347-4.082.899-1.009 2.123-1.513 3.672-1.513 1.524 0 2.715.478 3.575 1.435.865.951 1.298 2.269 1.298 3.955v.781h-7.461v.127c.033.892.287 1.599.762 2.12.482.514 1.12.771 1.914.771 1.224 0 2.018-.41 2.383-1.23Zm11.868 1.005v-6.826h-3.536l-.273 3.789c-.098 1.289-.365 2.243-.801 2.862v.175h4.61Zm-5.821 4.717h-2.226v-4.717h.84c.696-.416 1.103-1.474 1.22-3.173l.371-5.577h8.037v8.75h1.641v4.717h-2.227V118h-7.656v2.783ZM672.092 118H669.7v-10.684h2.392v7.071h.166l4.649-7.071h2.382V118h-2.382v-7.119h-.176L672.092 118Zm21.379 2.783h-2.226V118h-8.711v-10.684h2.422v8.75h4.453v-8.75h2.422v8.75h1.64v4.717Zm4.563-2.783h-2.392v-10.684h2.392v7.071h.166l4.649-7.071h2.383V118h-2.383v-7.119h-.176L698.034 118Zm17.483 0v-4.531h-4.619V118h-2.422v-10.684h2.422v4.219h4.619v-4.219h2.422V118h-2.422Zm14.915-7.09h-2.305c-.117-.54-.378-.97-.781-1.289-.404-.325-.928-.488-1.573-.488-.833 0-1.484.306-1.953.918-.462.612-.693 1.471-.693 2.578 0 1.12.234 1.992.703 2.617s1.117.938 1.943.938c.632 0 1.15-.147 1.553-.44.41-.293.677-.716.801-1.269h2.305c-.137 1.139-.616 2.047-1.436 2.724-.814.677-1.885 1.016-3.213 1.016-1.608 0-2.861-.492-3.76-1.475-.898-.983-1.347-2.353-1.347-4.111 0-1.738.449-3.093 1.347-4.063.899-.976 2.149-1.464 3.75-1.464 1.342 0 2.419.348 3.233 1.044.82.691 1.295 1.612 1.426 2.764Zm5.51 2.5h-.489V118h-2.421v-10.684h2.421v4.278h.469l3.584-4.278h2.793l-4.385 4.932 4.59 5.752h-2.939l-3.623-4.59Zm12.961 4.805c-1.601 0-2.858-.492-3.769-1.475-.912-.989-1.368-2.35-1.368-4.082 0-1.719.459-3.073 1.377-4.062.918-.996 2.172-1.494 3.76-1.494 1.595 0 2.848.494 3.76 1.484.918.99 1.377 2.347 1.377 4.072 0 1.732-.459 3.093-1.377 4.082-.912.983-2.165 1.475-3.76 1.475Zm-1.963-2.949c.462.612 1.117.918 1.963.918.846 0 1.498-.306 1.953-.918.463-.619.694-1.488.694-2.608 0-1.113-.231-1.979-.694-2.597-.462-.619-1.113-.928-1.953-.928-.846 0-1.501.309-1.963.928-.462.618-.693 1.484-.693 2.597 0 1.12.231 1.989.693 2.608Zm17.024-6.016h-4.775V118h-2.422v-10.684h7.197v1.934Zm6.838 8.965c-1.601 0-2.858-.492-3.769-1.475-.912-.989-1.367-2.35-1.367-4.082 0-1.719.459-3.073 1.377-4.062.918-.996 2.171-1.494 3.759-1.494 1.595 0 2.849.494 3.76 1.484.918.99 1.377 2.347 1.377 4.072 0 1.732-.459 3.093-1.377 4.082-.911.983-2.165 1.475-3.76 1.475Zm-1.963-2.949c.463.612 1.117.918 1.963.918.847 0 1.498-.306 1.953-.918.463-.619.694-1.488.694-2.608 0-1.113-.231-1.979-.694-2.597-.462-.619-1.113-.928-1.953-.928-.846 0-1.5.309-1.963.928-.462.618-.693 1.484-.693 2.597 0 1.12.231 1.989.693 2.608ZM791.041 118v-8.75h-4.521V118h-2.422v-10.684h9.365V118h-2.422Zm11.497-10.859c1.354 0 2.425.491 3.213 1.474.794.983 1.191 2.331 1.191 4.043 0 1.706-.394 3.054-1.181 4.043-.782.983-1.846 1.475-3.194 1.475-.762 0-1.429-.156-2.002-.469a2.997 2.997 0 0 1-1.26-1.328h-.166v5.176h-2.421v-14.239h2.334v1.768h.166a3.411 3.411 0 0 1 1.337-1.426 3.87 3.87 0 0 1 1.983-.517Zm-.762 8.974c.84 0 1.494-.306 1.963-.918.475-.612.713-1.458.713-2.539 0-1.081-.238-1.927-.713-2.539-.469-.612-1.12-.918-1.953-.918-.827 0-1.481.309-1.963.928-.482.618-.726 1.461-.732 2.529.006 1.068.247 1.911.722 2.53.482.618 1.136.927 1.963.927ZM812.081 118h-2.392v-10.684h2.392v7.071h.166l4.649-7.071h2.383V118h-2.383v-7.119h-.176L812.081 118Zm12.757 0h-2.315v-10.684h3.086l3.164 7.354h.176l3.174-7.354h3.027V118h-2.324v-7.266h-.176l-2.949 6.768h-1.738l-2.94-6.768h-.185V118Zm18.058-8.975c-.722 0-1.318.238-1.787.713-.468.476-.729 1.104-.781 1.885h5.029c-.026-.794-.26-1.426-.703-1.894-.442-.469-1.028-.704-1.758-.704Zm2.481 6.036h2.295c-.228.976-.765 1.748-1.611 2.314-.84.56-1.885.84-3.135.84-1.569 0-2.803-.488-3.701-1.465-.892-.983-1.338-2.334-1.338-4.053 0-1.718.449-3.079 1.347-4.082.899-1.009 2.123-1.513 3.672-1.513 1.524 0 2.715.478 3.574 1.435.866.951 1.299 2.269 1.299 3.955v.781h-7.461v.127c.033.892.287 1.599.762 2.12.482.514 1.12.771 1.914.771 1.224 0 2.018-.41 2.383-1.23Zm12.16 2.939v-4.531h-4.619V118h-2.422v-10.684h2.422v4.219h4.619v-4.219h2.422V118h-2.422Zm10.169-8.975c-.723 0-1.318.238-1.787.713-.469.476-.729 1.104-.781 1.885h5.029c-.026-.794-.261-1.426-.703-1.894-.443-.469-1.029-.704-1.758-.704Zm2.48 6.036h2.295c-.228.976-.765 1.748-1.611 2.314-.84.56-1.885.84-3.135.84-1.569 0-2.803-.488-3.701-1.465-.892-.983-1.338-2.334-1.338-4.053 0-1.718.449-3.079 1.348-4.082.898-1.009 2.122-1.513 3.672-1.513 1.523 0 2.714.478 3.574 1.435.866.951 1.299 2.269 1.299 3.955v.781h-7.461v.127c.032.892.286 1.599.761 2.12.482.514 1.12.771 1.915.771 1.223 0 2.018-.41 2.382-1.23ZM882.347 118v-4.531h-4.619V118h-2.422v-10.684h2.422v4.219h4.619v-4.219h2.422V118h-2.422Zm8.069 0h-2.393v-10.684h2.393v7.071h.166l4.648-7.071h2.383V118h-2.383v-7.119h-.176L890.416 118Zm14.455-5.41h1.836v-3.35h-1.836c-.586 0-1.055.156-1.406.469-.345.306-.518.726-.518 1.26 0 .475.176.866.528 1.172.351.299.817.449 1.396.449Zm1.836 5.41v-3.574h-1.396l-2.5 3.574h-2.774l2.861-3.994c-.729-.208-1.302-.583-1.718-1.123-.417-.547-.625-1.188-.625-1.924 0-1.12.374-2.005 1.123-2.656.755-.658 1.758-.987 3.008-.987h4.404V118h-2.383Zm-451.434 47.961v-3.727h3.393c1.336 0 2.42-.351 3.252-1.054.832-.715 1.248-1.641 1.248-2.778 0-1.125-.398-2.015-1.195-2.672-.797-.668-1.899-1.001-3.305-1.001-1.406 0-2.543.345-3.41 1.037-.856.679-1.33 1.611-1.424 2.795h-4.254c.117-2.321.996-4.161 2.637-5.52 1.652-1.359 3.849-2.039 6.592-2.039 2.578 0 4.681.639 6.31 1.916 1.641 1.266 2.461 2.912 2.461 4.939 0 1.407-.433 2.649-1.301 3.727-.855 1.066-1.968 1.752-3.339 2.057v.298c1.687.176 3.052.809 4.095 1.899 1.043 1.09 1.565 2.49 1.565 4.201 0 2.191-.932 4.008-2.795 5.449-1.864 1.43-4.19 2.145-6.979 2.145-2.824 0-5.127-.697-6.908-2.092-1.77-1.406-2.713-3.264-2.83-5.572h4.359c.094 1.16.627 2.086 1.6 2.777.973.692 2.238 1.037 3.797 1.037 1.535 0 2.765-.369 3.691-1.107.938-.75 1.406-1.723 1.406-2.918 0-1.184-.457-2.11-1.371-2.778-.914-.679-2.191-1.019-3.832-1.019h-3.463Zm29.614-14.959c3.68 0 6.592 1.195 8.736 3.586 2.157 2.391 3.235 5.631 3.235 9.721 0 4.089-1.072 7.336-3.217 9.738-2.145 2.391-5.062 3.586-8.754 3.586-3.715 0-6.65-1.195-8.807-3.586-2.144-2.391-3.216-5.637-3.216-9.738 0-4.09 1.078-7.33 3.234-9.721 2.168-2.391 5.098-3.586 8.789-3.586Zm0 4.025c-2.262 0-4.06.838-5.396 2.514-1.325 1.676-1.987 3.932-1.987 6.768 0 2.847.657 5.109 1.969 6.785 1.324 1.676 3.129 2.513 5.414 2.513 2.25 0 4.031-.837 5.344-2.513 1.324-1.688 1.986-3.949 1.986-6.785 0-2.836-.662-5.092-1.986-6.768-1.313-1.676-3.094-2.514-5.344-2.514Zm26.977 22.606c-3 0-5.508-.791-7.523-2.373-2.016-1.582-3.17-3.645-3.463-6.188h4.447c.305 1.371 1.049 2.467 2.232 3.287 1.196.821 2.637 1.231 4.325 1.231 1.98 0 3.597-.68 4.851-2.039 1.266-1.36 1.981-3.217 2.145-5.572h-10.494v-3.745h10.476c-.222-2.238-.961-3.996-2.215-5.273-1.242-1.277-2.824-1.916-4.746-1.916-1.664 0-3.094.445-4.289 1.336-1.195.89-1.951 2.074-2.267 3.551h-4.465c.269-2.602 1.429-4.741 3.48-6.416 2.051-1.676 4.559-2.514 7.524-2.514 3.597 0 6.439 1.189 8.525 3.568 2.098 2.368 3.147 5.608 3.147 9.721 0 4.125-1.049 7.383-3.147 9.773-2.086 2.379-4.934 3.569-8.543 3.569Zm35.977-.633h-4.535v-21.445h-8.069l-.685 11.584c-.094 1.617-.287 3.023-.58 4.218-.293 1.184-.715 2.227-1.266 3.129a5.306 5.306 0 0 1-2.144 2.022c-.879.457-1.928.685-3.147.685-.668 0-1.224-.07-1.67-.211v-4.095c.352.082.721.123 1.108.123.644 0 1.189-.147 1.634-.44.446-.293.792-.732 1.038-1.318a8.47 8.47 0 0 0 .562-1.916c.117-.68.205-1.506.264-2.479l.808-15.222h16.682V177Zm23.672 0v-18.035h-.299L558.963 177h-4.395v-25.365h4.518v18.07h.298l12.235-18.07h4.394V177h-4.5Zm17.38-17.4a5.487 5.487 0 0 1-2.795.738 5.543 5.543 0 0 1-2.806-.738 5.542 5.542 0 0 1-2.753-4.83 5.578 5.578 0 0 1 1.614-3.934 5.51 5.51 0 0 1 1.772-1.182 5.463 5.463 0 0 1 2.173-.443c.759 0 1.48.148 2.162.443a5.372 5.372 0 0 1 1.772 1.182 5.355 5.355 0 0 1 1.181 1.771 5.39 5.39 0 0 1 .443 2.163 5.542 5.542 0 0 1-.738 2.805 5.494 5.494 0 0 1-2.025 2.025Zm-5.822-1.804c.829.823 1.838 1.234 3.027 1.234 1.188 0 2.197-.411 3.027-1.234.829-.829 1.244-1.838 1.244-3.026 0-1.189-.415-2.194-1.244-3.017-.823-.823-1.832-1.234-3.027-1.234-1.189 0-2.198.411-3.027 1.234-.83.823-1.245 1.828-1.245 3.017 0 1.188.415 2.197 1.245 3.026Zm2.067-.527h-1.213v-5.178h2.668c.549 0 .999.154 1.35.464.352.302.528.692.528 1.17 0 .401-.099.739-.296 1.013-.196.267-.478.45-.843.548l1.381 1.983h-1.455l-1.245-1.803h-.875v1.803Zm0-4.145v1.361h1.139c.584 0 .875-.229.875-.686 0-.45-.281-.675-.843-.675h-1.171ZM1.836 223.908H7.52c1.406 0 2.545.44 3.418 1.319.878.878 1.318 2.028 1.318 3.447 0 1.393-.453 2.526-1.358 3.398-.898.873-2.06 1.309-3.486 1.309H4.355V238h-2.52v-14.092Zm2.52 2.11v5.273h2.49c.905 0 1.605-.228 2.1-.684.5-.455.751-1.1.751-1.933 0-.86-.247-1.517-.742-1.973-.488-.456-1.188-.683-2.1-.683h-2.5Zm20.1 9.804V238h-9.122v-14.092h9.122v2.178h-6.602v3.74h6.24v2.051h-6.24v3.945h6.602Zm5.95 2.178h-2.53v-14.092h8.818v2.188h-6.289V238Zm18.722 0v-10.02h-.166L42.156 238h-2.442v-14.092h2.51v10.039h.166l6.797-10.039h2.441V238h-2.5Zm12.17.352c-1.998 0-3.577-.661-4.736-1.983-1.159-1.328-1.738-3.131-1.738-5.41 0-2.292.576-4.098 1.728-5.42 1.16-1.322 2.738-1.982 4.737-1.982 1.601 0 2.959.472 4.072 1.416 1.113.937 1.745 2.142 1.894 3.613h-2.48c-.176-.846-.58-1.52-1.21-2.022-.632-.507-1.39-.761-2.276-.761-1.198 0-2.145.462-2.842 1.386-.697.918-1.045 2.172-1.045 3.76 0 1.589.348 2.845 1.045 3.77.697.924 1.647 1.386 2.851 1.386.892 0 1.654-.231 2.286-.693a3.073 3.073 0 0 0 1.2-1.885h2.481c-.169 1.446-.8 2.611-1.894 3.496-1.094.886-2.451 1.329-4.073 1.329ZM75.803 238h-2.52v-11.914h-4.336v-2.178h11.201v2.178h-4.345V238Zm7.278-14.092h5.683c1.406 0 2.546.44 3.418 1.319.879.878 1.318 2.028 1.318 3.447 0 1.393-.452 2.526-1.357 3.398-.898.873-2.06 1.309-3.486 1.309H85.6V238h-2.52v-14.092Zm2.519 2.11v5.273h2.49c.905 0 1.605-.228 2.1-.684.501-.455.752-1.1.752-1.933 0-.86-.248-1.517-.742-1.973-.489-.456-1.189-.683-2.1-.683h-2.5ZM104.46 238l-1.192-3.604h-5.185L96.872 238h-2.549l5-14.092h2.832l5.01 14.092h-2.705Zm-3.858-11.406-1.933 5.81h4.013l-1.914-5.81h-.166Zm22.757 14.189h-2.286V238h-11.191v-14.092h2.52v11.914h6.689v-11.914h2.51v11.914h1.758v4.961ZM135.392 238v-10.02h-.166L128.42 238h-2.442v-14.092h2.51v10.039h.166l6.797-10.039h2.441V238h-2.5Zm12.376-14.443c2.044 0 3.662.664 4.853 1.992 1.198 1.328 1.797 3.128 1.797 5.4 0 2.272-.596 4.076-1.787 5.41-1.192 1.329-2.813 1.993-4.863 1.993-2.064 0-3.695-.664-4.893-1.993-1.191-1.328-1.787-3.131-1.787-5.41 0-2.272.599-4.072 1.797-5.4 1.204-1.328 2.832-1.992 4.883-1.992Zm0 2.236c-1.257 0-2.256.465-2.998 1.396-.736.931-1.104 2.185-1.104 3.76 0 1.582.365 2.839 1.094 3.77.735.931 1.738 1.396 3.008 1.396 1.25 0 2.239-.465 2.968-1.396.736-.938 1.104-2.194 1.104-3.77 0-1.575-.368-2.829-1.104-3.76-.729-.931-1.718-1.396-2.968-1.396ZM169.489 238h-2.51v-6.084h-6.856V238h-2.519v-14.092h2.519v5.83h6.856v-5.83h2.51V238Zm15.666 0h-2.51v-6.084h-6.855V238h-2.52v-14.092h2.52v5.83h6.855v-5.83h2.51V238Zm18.391 0h-2.519v-14.092h2.519V238Zm-14.609 0v-14.092h2.519v4.883h2.989c1.432 0 2.597.426 3.496 1.279.905.847 1.357 1.953 1.357 3.321 0 1.373-.439 2.487-1.318 3.339-.879.847-2.022 1.27-3.428 1.27h-5.615Zm2.519-2.119h2.432c.898 0 1.595-.215 2.09-.645.495-.429.742-1.045.742-1.845 0-.801-.247-1.416-.742-1.846-.495-.436-1.195-.654-2.1-.654h-2.422v4.99Zm18.313-16.445h1.904c.007.488.163.878.469 1.171.313.293.707.44 1.182.44.482 0 .879-.147 1.191-.44.313-.293.472-.683.479-1.171h1.904c0 .937-.325 1.682-.977 2.236-.651.553-1.516.83-2.597.83-1.074 0-1.937-.277-2.588-.83-.645-.554-.967-1.299-.967-2.236ZM216.732 238v-10.02h-.166L209.759 238h-2.441v-14.092h2.51v10.039h.166l6.797-10.039h2.441V238h-2.5Zm23.608 0h-2.51v-6.084h-6.855V238h-2.52v-14.092h2.52v5.83h6.855v-5.83h2.51V238Zm9.866-14.443c2.044 0 3.662.664 4.853 1.992 1.198 1.328 1.797 3.128 1.797 5.4 0 2.272-.595 4.076-1.787 5.41-1.191 1.329-2.812 1.993-4.863 1.993-2.064 0-3.695-.664-4.893-1.993-1.191-1.328-1.787-3.131-1.787-5.41 0-2.272.599-4.072 1.797-5.4 1.204-1.328 2.832-1.992 4.883-1.992Zm0 2.236c-1.257 0-2.256.465-2.998 1.396-.736.931-1.104 2.185-1.104 3.76 0 1.582.365 2.839 1.094 3.77.736.931 1.738 1.396 3.008 1.396 1.25 0 2.239-.465 2.969-1.396.735-.938 1.103-2.194 1.103-3.77 0-1.575-.368-2.829-1.103-3.76-.73-.931-1.719-1.396-2.969-1.396ZM274.593 238h-2.344v-9.912h-.137l-3.896 9.365h-1.797l-3.896-9.365h-.137V238h-2.344v-14.092h2.949l4.239 10.264h.175l4.239-10.264h2.949V238Zm12.893-2.178V238h-9.121v-14.092h9.121v2.178h-6.602v3.74h6.241v2.051h-6.241v3.945h6.602Zm3.42-11.914h5.684c1.406 0 2.545.44 3.418 1.319.879.878 1.318 2.028 1.318 3.447 0 1.393-.452 2.526-1.357 3.398-.899.873-2.061 1.309-3.487 1.309h-3.056V238h-2.52v-14.092Zm2.52 2.11v5.273h2.49c.905 0 1.605-.228 2.1-.684.501-.455.752-1.1.752-1.933 0-.86-.248-1.517-.743-1.973-.488-.456-1.188-.683-2.099-.683h-2.5Zm12.434 12.187c-.456 0-.83-.146-1.123-.439-.293-.293-.44-.661-.44-1.104 0-.449.147-.817.44-1.103.293-.293.667-.44 1.123-.44.462 0 .836.147 1.123.44.293.286.439.654.439 1.103 0 .443-.146.811-.439 1.104-.287.293-.661.439-1.123.439Zm0-7.324c-.456 0-.83-.143-1.123-.43-.293-.293-.44-.661-.44-1.103 0-.45.147-.817.44-1.104.293-.293.667-.439 1.123-.439.462 0 .836.146 1.123.439.293.287.439.654.439 1.104 0 .442-.146.81-.439 1.103-.287.287-.661.43-1.123.43ZM7.861 270h-2.52v-11.914H1.007v-2.178h11.201v2.178H7.861V270Zm12.776-14.443c2.044 0 3.662.664 4.854 1.992 1.198 1.328 1.797 3.128 1.797 5.4 0 2.272-.596 4.076-1.788 5.41-1.191 1.329-2.812 1.993-4.863 1.993-2.064 0-3.695-.664-4.893-1.993-1.19-1.328-1.787-3.131-1.787-5.41 0-2.272.6-4.072 1.797-5.4 1.205-1.328 2.832-1.992 4.883-1.992Zm0 2.236c-1.256 0-2.256.465-2.998 1.396-.736.931-1.104 2.185-1.104 3.76 0 1.582.365 2.839 1.094 3.77.736.931 1.739 1.396 3.008 1.396 1.25 0 2.24-.465 2.969-1.396.735-.938 1.103-2.194 1.103-3.77 0-1.575-.367-2.829-1.103-3.76-.73-.931-1.719-1.396-2.969-1.396Zm9.836-1.885h5.684c1.406 0 2.546.44 3.418 1.319.879.878 1.318 2.028 1.318 3.447 0 1.393-.452 2.526-1.357 3.398-.898.873-2.06 1.309-3.486 1.309h-3.057V270h-2.52v-14.092Zm2.52 2.11v5.273h2.49c.905 0 1.605-.228 2.1-.684.501-.455.752-1.1.752-1.933 0-.86-.248-1.517-.742-1.973-.489-.456-1.189-.683-2.1-.683h-2.5ZM46.501 270h-2.53v-14.092h8.82v2.188H46.5V270Zm14.768-14.443c2.044 0 3.662.664 4.854 1.992 1.198 1.328 1.796 3.128 1.796 5.4 0 2.272-.595 4.076-1.787 5.41-1.191 1.329-2.812 1.993-4.863 1.993-2.064 0-3.694-.664-4.892-1.993-1.192-1.328-1.788-3.131-1.788-5.41 0-2.272.6-4.072 1.797-5.4 1.205-1.328 2.832-1.992 4.883-1.992Zm0 2.236c-1.256 0-2.256.465-2.998 1.396-.736.931-1.103 2.185-1.103 3.76 0 1.582.364 2.839 1.093 3.77.736.931 1.739 1.396 3.008 1.396 1.25 0 2.24-.465 2.969-1.396.736-.938 1.103-2.194 1.103-3.77 0-1.575-.367-2.829-1.103-3.76-.73-.931-1.719-1.396-2.969-1.396ZM77.131 270h-6.025v-14.092h5.888c1.335 0 2.383.316 3.145.947.761.625 1.142 1.482 1.142 2.569 0 .742-.24 1.403-.722 1.982-.482.58-1.078.925-1.787 1.035v.176c.95.091 1.721.449 2.314 1.074.592.619.889 1.387.889 2.305 0 1.237-.433 2.214-1.3 2.93-.859.716-2.04 1.074-3.544 1.074Zm-3.506-12.09v3.926h2.432c.892 0 1.569-.166 2.03-.498.47-.339.704-.827.704-1.465 0-.618-.212-1.1-.635-1.445-.423-.345-1.015-.518-1.777-.518h-2.754Zm0 10.088h2.93c.93 0 1.637-.186 2.119-.557.482-.377.722-.924.722-1.64 0-.703-.25-1.237-.752-1.602-.494-.364-1.223-.547-2.187-.547h-2.832v4.346Zm17.473-12.441c2.044 0 3.662.664 4.854 1.992 1.198 1.328 1.796 3.128 1.796 5.4 0 2.272-.595 4.076-1.787 5.41-1.191 1.329-2.812 1.993-4.863 1.993-2.064 0-3.695-.664-4.892-1.993-1.192-1.328-1.788-3.131-1.788-5.41 0-2.272.6-4.072 1.797-5.4 1.205-1.328 2.832-1.992 4.883-1.992Zm0 2.236c-1.257 0-2.256.465-2.998 1.396-.736.931-1.103 2.185-1.103 3.76 0 1.582.364 2.839 1.093 3.77.736.931 1.739 1.396 3.008 1.396 1.25 0 2.24-.465 2.969-1.396.736-.938 1.103-2.194 1.103-3.77 0-1.575-.368-2.829-1.103-3.76-.73-.931-1.719-1.396-2.969-1.396Zm18.957 10.029V270h-9.121v-14.092h9.121v2.178h-6.601v3.74h6.24v2.051h-6.24v3.945h6.601ZM130.793 270h-2.51v-6.084h-6.856V270h-2.519v-14.092h2.519v5.83h6.856v-5.83h2.51V270Zm12.873 0-1.191-3.604h-5.186L136.078 270h-2.549l5-14.092h2.832l5.01 14.092h-2.705Zm-3.857-11.406-1.934 5.81h4.014l-1.914-5.81h-.166ZM158.502 270v-10.02h-.166L151.53 270h-2.442v-14.092h2.51v10.039h.166l6.797-10.039h2.441V270h-2.5Zm20.843 0h-2.344v-9.912h-.137l-3.896 9.365h-1.797l-3.897-9.365h-.137V270h-2.343v-14.092h2.949l4.238 10.264h.176l4.238-10.264h2.95V270Zm12.893-2.178V270h-9.122v-14.092h9.122v2.178h-6.602v3.74h6.24v2.051h-6.24v3.945h6.602ZM207.543 270h-2.51v-6.084h-6.856V270h-2.519v-14.092h2.519v5.83h6.856v-5.83h2.51V270Zm9.865-14.443c2.044 0 3.662.664 4.854 1.992 1.198 1.328 1.797 3.128 1.797 5.4 0 2.272-.596 4.076-1.788 5.41-1.191 1.329-2.812 1.993-4.863 1.993-2.064 0-3.694-.664-4.892-1.993-1.192-1.328-1.787-3.131-1.787-5.41 0-2.272.598-4.072 1.796-5.4 1.205-1.328 2.832-1.992 4.883-1.992Zm0 2.236c-1.256 0-2.256.465-2.998 1.396-.736.931-1.103 2.185-1.103 3.76 0 1.582.364 2.839 1.093 3.77.736.931 1.739 1.396 3.008 1.396 1.25 0 2.24-.465 2.969-1.396.736-.938 1.103-2.194 1.103-3.77 0-1.575-.367-2.829-1.103-3.76-.729-.931-1.719-1.396-2.969-1.396ZM233.27 270h-6.025v-14.092h5.888c1.335 0 2.383.316 3.145.947.761.625 1.142 1.482 1.142 2.569 0 .742-.241 1.403-.722 1.982-.482.58-1.078.925-1.787 1.035v.176c.95.091 1.722.449 2.314 1.074.592.619.889 1.387.889 2.305 0 1.237-.433 2.214-1.299 2.93-.86.716-2.041 1.074-3.545 1.074Zm-3.506-12.09v3.926h2.432c.892 0 1.569-.166 2.031-.498.469-.339.703-.827.703-1.465 0-.618-.212-1.1-.635-1.445-.423-.345-1.015-.518-1.777-.518h-2.754Zm0 10.088h2.93c.931 0 1.637-.186 2.119-.557.482-.377.723-.924.723-1.64 0-.703-.251-1.237-.752-1.602-.495-.364-1.224-.547-2.188-.547h-2.832v4.346ZM250.069 270l-1.191-3.604h-5.186L242.481 270h-2.549l5-14.092h2.832l5.01 14.092h-2.705Zm-3.857-11.406-1.934 5.81h4.014l-1.914-5.81h-.166ZM267.376 270h-2.51v-6.084h-6.855V270h-2.52v-14.092h2.52v5.83h6.855v-5.83h2.51V270Zm13.196 0v-10.02h-.166L273.599 270h-2.441v-14.092h2.51v10.039h.166l6.796-10.039h2.442V270h-2.5Zm15.412-2.178V270h-9.121v-14.092h9.121v2.178h-6.601v3.74h6.24v2.051h-6.24v3.945h6.601Zm4.876 2.383c-.456 0-.83-.146-1.123-.439-.293-.293-.44-.661-.44-1.104 0-.449.147-.817.44-1.103.293-.293.667-.44 1.123-.44.462 0 .836.147 1.123.44.293.286.439.654.439 1.103 0 .443-.146.811-.439 1.104-.287.293-.661.439-1.123.439Zm0-7.324c-.456 0-.83-.143-1.123-.43-.293-.293-.44-.661-.44-1.103 0-.45.147-.817.44-1.104.293-.293.667-.439 1.123-.439.462 0 .836.146 1.123.439.293.287.439.654.439 1.104 0 .442-.146.81-.439 1.103-.287.287-.661.43-1.123.43ZM16.387 302h-2.344v-9.912h-.137l-3.896 9.365H8.213l-3.897-9.365H4.18V302H1.836v-14.092h2.95l4.237 10.264H9.2l4.239-10.264h2.949V302Zm12.893-2.178V302h-9.121v-14.092h9.12v2.178h-6.6v3.74h6.24v2.051h-6.24v3.945h6.6Zm13.225-5.83h.459l4.834-6.084h2.822l-5.586 6.875L51.079 302h-3.057l-5.049-6.055h-.468V302h-2.48v-6.055h-.46L34.507 302h-3.018l6.016-7.168-5.616-6.924h2.852l4.834 6.084h.45v-6.084h2.48v6.084Zm14.397 2.315c-.053.833-.147 1.513-.284 2.041-.13.527-.345.966-.644 1.318v.156h6.123v-9.736h-4.795l-.4 6.221ZM54.43 302v2.783h-2.295v-4.961h1.006c.475-.306.817-.745 1.025-1.318.215-.58.352-1.367.41-2.363l.498-8.233h9.532v11.914h1.758v4.961h-2.286V302h-9.648Zm16.34.117c-.508 0-.862-.045-1.064-.137v-2.158c.267.059.543.088.83.088.481 0 .888-.088 1.22-.264.339-.182.635-.481.89-.898l-4.728-10.84h2.666l3.311 8.223h.166l3.203-8.223h2.637l-4.317 10.059a14.055 14.055 0 0 1-.888 1.777c-.28.469-.609.895-.987 1.279a3.42 3.42 0 0 1-1.279.831c-.481.175-1.035.263-1.66.263ZM94.494 302h-2.51v-6.084H85.13V302h-2.52v-14.092h2.52v5.83h6.855v-5.83h2.51V302Zm12.874 0-1.192-3.604h-5.185L99.78 302h-2.55l5.001-14.092h2.832l5.01 14.092h-2.705Zm-3.858-11.406-1.933 5.81h4.013l-1.914-5.81h-.166Zm9.28-2.686h5.683c1.407 0 2.546.44 3.418 1.319.879.878 1.319 2.028 1.319 3.447 0 1.393-.453 2.526-1.358 3.398-.898.873-2.06 1.309-3.486 1.309h-3.057V302h-2.519v-14.092Zm2.519 2.11v5.273h2.491c.905 0 1.604-.228 2.099-.684.502-.455.752-1.1.752-1.933 0-.86-.247-1.517-.742-1.973-.488-.456-1.188-.683-2.1-.683h-2.5Zm17.063-2.461c2.045 0 3.662.664 4.854 1.992 1.198 1.328 1.797 3.128 1.797 5.4 0 2.272-.596 4.076-1.787 5.41-1.192 1.329-2.813 1.993-4.864 1.993-2.064 0-3.694-.664-4.892-1.993-1.192-1.328-1.787-3.131-1.787-5.41 0-2.272.599-4.072 1.796-5.4 1.205-1.328 2.832-1.992 4.883-1.992Zm0 2.236c-1.256 0-2.256.465-2.998 1.396-.735.931-1.103 2.185-1.103 3.76 0 1.582.364 2.839 1.093 3.77.736.931 1.739 1.396 3.008 1.396 1.25 0 2.24-.465 2.969-1.396.736-.938 1.104-2.194 1.104-3.77 0-1.575-.368-2.829-1.104-3.76-.729-.931-1.719-1.396-2.969-1.396Zm12.825 6.514c-.052.833-.147 1.513-.283 2.041-.131.527-.345.966-.645 1.318v.156h6.123v-9.736h-4.795l-.4 6.221ZM142.726 302v2.783h-2.295v-4.961h1.006c.475-.306.817-.745 1.025-1.318.215-.58.352-1.367.411-2.363l.498-8.233h9.531v11.914h1.758v4.961h-2.285V302h-9.649Zm26.448 0h-2.51v-6.084h-6.855V302h-2.52v-14.092h2.52v5.83h6.855v-5.83h2.51V302Zm9.865-14.443c2.045 0 3.663.664 4.854 1.992 1.198 1.328 1.797 3.128 1.797 5.4 0 2.272-.596 4.076-1.787 5.41-1.192 1.329-2.813 1.993-4.864 1.993-2.063 0-3.694-.664-4.892-1.993-1.192-1.328-1.787-3.131-1.787-5.41 0-2.272.599-4.072 1.797-5.4 1.204-1.328 2.832-1.992 4.882-1.992Zm0 2.236c-1.256 0-2.255.465-2.998 1.396-.735.931-1.103 2.185-1.103 3.76 0 1.582.364 2.839 1.094 3.77.735.931 1.738 1.396 3.007 1.396 1.25 0 2.24-.465 2.969-1.396.736-.938 1.104-2.194 1.104-3.77 0-1.575-.368-2.829-1.104-3.76-.729-.931-1.719-1.396-2.969-1.396Zm18.958 10.029V302h-9.121v-14.092h9.121v2.178h-6.602v3.74h6.241v2.051h-6.241v3.945h6.602ZM218.734 302h-2.51v-6.084h-6.855V302h-2.52v-14.092h2.52v5.83h6.855v-5.83h2.51V302Zm12.903-2.178V302h-9.121v-14.092h9.121v2.178h-6.602v3.74h6.24v2.051h-6.24v3.945h6.602ZM246.776 302h-2.51v-11.904h-6.68V302h-2.529v-14.092h11.719V302Zm12.863 0-1.191-3.604h-5.186l-1.21 3.604h-2.549l5-14.092h2.832l5.01 14.092h-2.706Zm-3.857-11.406-1.934 5.81h4.014l-1.914-5.81h-.166ZM269.642 302h-2.52v-11.914h-4.336v-2.178h11.201v2.178h-4.345V302Zm16.399-2.178V302h-9.121v-14.092h9.121v2.178h-6.602v3.74h6.24v2.051h-6.24v3.945h6.602ZM301.346 302h-2.51v-6.084h-6.856V302h-2.519v-14.092h2.519v5.83h6.856v-5.83h2.51V302Zm9.807 0h-2.52v-11.914h-4.336v-2.178h11.201v2.178h-4.345V302Zm12.776-14.443c2.044 0 3.662.664 4.853 1.992 1.198 1.328 1.797 3.128 1.797 5.4 0 2.272-.596 4.076-1.787 5.41-1.192 1.329-2.813 1.993-4.863 1.993-2.064 0-3.695-.664-4.893-1.993-1.191-1.328-1.787-3.131-1.787-5.41 0-2.272.599-4.072 1.797-5.4 1.204-1.328 2.832-1.992 4.883-1.992Zm0 2.236c-1.257 0-2.256.465-2.999 1.396-.735.931-1.103 2.185-1.103 3.76 0 1.582.365 2.839 1.094 3.77.735.931 1.738 1.396 3.008 1.396 1.25 0 2.239-.465 2.968-1.396.736-.938 1.104-2.194 1.104-3.77 0-1.575-.368-2.829-1.104-3.76-.729-.931-1.718-1.396-2.968-1.396ZM339.79 302h-6.025v-14.092h5.889c1.334 0 2.382.316 3.144.947.762.625 1.143 1.482 1.143 2.569 0 .742-.241 1.403-.723 1.982-.482.58-1.078.925-1.787 1.035v.176c.95.091 1.722.449 2.314 1.074.593.619.889 1.387.889 2.305 0 1.237-.433 2.214-1.299 2.93-.859.716-2.041 1.074-3.545 1.074Zm-3.506-12.09v3.926h2.432c.892 0 1.569-.166 2.031-.498.469-.339.703-.827.703-1.465 0-.618-.211-1.1-.634-1.445-.424-.345-1.016-.518-1.778-.518h-2.754Zm0 10.088h2.93c.931 0 1.637-.186 2.119-.557.482-.377.723-.924.723-1.64 0-.703-.251-1.237-.752-1.602-.495-.364-1.224-.547-2.188-.547h-2.832v4.346ZM356.589 302l-1.191-3.604h-5.186l-1.21 3.604h-2.549l5-14.092h2.832l5.01 14.092h-2.706Zm-3.857-11.406-1.934 5.81h4.014l-1.914-5.81h-.166ZM373.896 302h-2.509v-6.084h-6.856V302h-2.519v-14.092h2.519v5.83h6.856v-5.83h2.509V302Zm15.667 0h-2.51v-6.084h-6.855V302h-2.52v-14.092h2.52v5.83h6.855v-5.83h2.51V302Zm9.866-14.443c2.044 0 3.662.664 4.853 1.992 1.198 1.328 1.797 3.128 1.797 5.4 0 2.272-.596 4.076-1.787 5.41-1.192 1.329-2.813 1.993-4.863 1.993-2.064 0-3.695-.664-4.893-1.993-1.191-1.328-1.787-3.131-1.787-5.41 0-2.272.599-4.072 1.797-5.4 1.204-1.328 2.832-1.992 4.883-1.992Zm0 2.236c-1.257 0-2.256.465-2.999 1.396-.735.931-1.103 2.185-1.103 3.76 0 1.582.365 2.839 1.094 3.77.735.931 1.738 1.396 3.008 1.396 1.25 0 2.239-.465 2.968-1.396.736-.938 1.104-2.194 1.104-3.77 0-1.575-.368-2.829-1.104-3.76-.729-.931-1.718-1.396-2.968-1.396Zm18.957 10.029V302h-9.121v-14.092h9.121v2.178h-6.602v3.74h6.241v2.051h-6.241v3.945h6.602ZM436.652 302v-10.02h-.166L429.68 302h-2.442v-14.092h2.51v10.039h.166l6.797-10.039h2.441V302h-2.5Zm17.18 0h-2.519v-11.914h-4.483l-.38 6.435c-.052.899-.16 1.68-.323 2.344a6.137 6.137 0 0 1-.703 1.739 2.948 2.948 0 0 1-1.191 1.123c-.488.253-1.071.38-1.748.38-.371 0-.681-.039-.928-.117v-2.275c.195.045.4.068.615.068.358 0 .661-.081.908-.244.248-.163.44-.407.577-.732.143-.332.247-.687.312-1.065.065-.377.114-.836.147-1.377l.449-8.457h9.267V302Zm13.196 0v-10.02h-.166L460.055 302h-2.441v-14.092h2.51v10.039h.166l6.797-10.039h2.441V302h-2.5Zm14.253 0h-2.529v-14.092h8.818v2.188h-6.289V302Zm9.309-14.092h5.683c1.407 0 2.546.44 3.418 1.319.879.878 1.319 2.028 1.319 3.447 0 1.393-.453 2.526-1.358 3.398-.898.873-2.06 1.309-3.486 1.309h-3.057V302h-2.519v-14.092Zm2.519 2.11v5.273h2.491c.905 0 1.604-.228 2.099-.684.502-.455.752-1.1.752-1.933 0-.86-.247-1.517-.742-1.973-.488-.456-1.188-.683-2.1-.683h-2.5Zm12.171 12.099c-.508 0-.863-.045-1.065-.137v-2.158c.267.059.544.088.83.088.482 0 .889-.088 1.221-.264.339-.182.635-.481.889-.898l-4.727-10.84h2.666l3.311 8.223h.166l3.203-8.223h2.637l-4.317 10.059a13.984 13.984 0 0 1-.889 1.777 6.696 6.696 0 0 1-.986 1.279 3.416 3.416 0 0 1-1.279.831c-.482.175-1.035.263-1.66.263Zm23.557-.117h-2.51v-11.904h-6.68V302h-2.529v-14.092h11.719V302Zm15.49 0h-2.509v-11.904h-6.68V302h-2.529v-14.092h11.718V302Zm13.186 0v-10.02h-.166L550.541 302h-2.442v-14.092h2.51v10.039h.166l6.797-10.039h2.441V302h-2.5Zm6.292-14.092h5.683c1.407 0 2.546.44 3.418 1.319.879.878 1.319 2.028 1.319 3.447 0 1.393-.453 2.526-1.358 3.398-.898.873-2.06 1.309-3.486 1.309h-3.057V302h-2.519v-14.092Zm2.519 2.11v5.273h2.49c.905 0 1.605-.228 2.1-.684.501-.455.752-1.1.752-1.933 0-.86-.247-1.517-.742-1.973-.488-.456-1.188-.683-2.1-.683h-2.5Zm17.063-2.461c2.044 0 3.662.664 4.854 1.992 1.198 1.328 1.796 3.128 1.796 5.4 0 2.272-.595 4.076-1.787 5.41-1.191 1.329-2.812 1.993-4.863 1.993-2.064 0-3.695-.664-4.892-1.993-1.192-1.328-1.788-3.131-1.788-5.41 0-2.272.599-4.072 1.797-5.4 1.205-1.328 2.832-1.992 4.883-1.992Zm0 2.236c-1.256 0-2.256.465-2.998 1.396-.736.931-1.103 2.185-1.103 3.76 0 1.582.364 2.839 1.093 3.77.736.931 1.739 1.396 3.008 1.396 1.25 0 2.24-.465 2.969-1.396.736-.938 1.103-2.194 1.103-3.77 0-1.575-.367-2.829-1.103-3.76-.729-.931-1.719-1.396-2.969-1.396ZM599.249 302h-6.026v-14.092h5.889c1.335 0 2.383.316 3.145.947.761.625 1.142 1.482 1.142 2.569 0 .742-.241 1.403-.722 1.982-.482.58-1.078.925-1.788 1.035v.176c.951.091 1.722.449 2.315 1.074.592.619.889 1.387.889 2.305 0 1.237-.433 2.214-1.299 2.93-.86.716-2.041 1.074-3.545 1.074Zm-3.506-12.09v3.926h2.432c.892 0 1.569-.166 2.031-.498.469-.339.703-.827.703-1.465 0-.618-.212-1.1-.635-1.445-.423-.345-1.015-.518-1.777-.518h-2.754Zm0 10.088h2.93c.931 0 1.637-.186 2.119-.557.482-.377.722-.924.722-1.64 0-.703-.25-1.237-.751-1.602-.495-.364-1.224-.547-2.188-.547h-2.832v4.346Zm17.473-12.441c2.044 0 3.662.664 4.854 1.992 1.197 1.328 1.796 3.128 1.796 5.4 0 2.272-.595 4.076-1.787 5.41-1.191 1.329-2.812 1.993-4.863 1.993-2.064 0-3.695-.664-4.893-1.993-1.191-1.328-1.787-3.131-1.787-5.41 0-2.272.599-4.072 1.797-5.4 1.205-1.328 2.832-1.992 4.883-1.992Zm0 2.236c-1.257 0-2.256.465-2.998 1.396-.736.931-1.104 2.185-1.104 3.76 0 1.582.365 2.839 1.094 3.77.736.931 1.738 1.396 3.008 1.396 1.25 0 2.24-.465 2.969-1.396.735-.938 1.103-2.194 1.103-3.77 0-1.575-.368-2.829-1.103-3.76-.729-.931-1.719-1.396-2.969-1.396ZM633.892 302h-2.519v-5.977h-.166c-.86.671-1.966 1.006-3.321 1.006-1.66 0-2.962-.481-3.906-1.445-.944-.97-1.416-2.227-1.416-3.77v-3.906h2.51v3.76c0 .977.277 1.738.83 2.285.553.54 1.341.811 2.363.811.658 0 1.253-.104 1.787-.313.541-.215.98-.495 1.319-.84v-5.703h2.519V302Zm15.657 0h-2.51v-6.084h-6.855V302h-2.52v-14.092h2.52v5.83h6.855v-5.83h2.51V302Zm9.865-14.443c2.045 0 3.663.664 4.854 1.992 1.198 1.328 1.797 3.128 1.797 5.4 0 2.272-.596 4.076-1.787 5.41-1.192 1.329-2.813 1.993-4.864 1.993-2.063 0-3.694-.664-4.892-1.993-1.192-1.328-1.787-3.131-1.787-5.41 0-2.272.599-4.072 1.797-5.4 1.204-1.328 2.832-1.992 4.882-1.992Zm0 2.236c-1.256 0-2.255.465-2.998 1.396-.735.931-1.103 2.185-1.103 3.76 0 1.582.364 2.839 1.094 3.77.735.931 1.738 1.396 3.007 1.396 1.25 0 2.24-.465 2.969-1.396.736-.938 1.104-2.194 1.104-3.77 0-1.575-.368-2.829-1.104-3.76-.729-.931-1.719-1.396-2.969-1.396Zm18.958 10.029V302h-9.121v-14.092h9.121v2.178h-6.602v3.74h6.241v2.051h-6.241v3.945h6.602ZM699.109 302h-2.51v-6.084h-6.855V302h-2.52v-14.092h2.52v5.83h6.855v-5.83h2.51V302Zm12.873 0-1.191-3.604h-5.186l-1.21 3.604h-2.549l5-14.092h2.832l5.01 14.092h-2.706Zm-3.857-11.406-1.934 5.81h4.014l-1.914-5.81h-.166ZM726.819 302v-10.02h-.166L719.846 302h-2.441v-14.092h2.509v10.039h.166l6.797-10.039h2.442V302h-2.5Zm20.842 0h-2.344v-9.912h-.137l-3.896 9.365h-1.797l-3.896-9.365h-.137V302h-2.344v-14.092h2.949l4.239 10.264h.175l4.239-10.264h2.949V302Zm12.893-2.178V302h-9.121v-14.092h9.121v2.178h-6.602v3.74h6.241v2.051h-6.241v3.945h6.602ZM775.859 302h-2.51v-6.084h-6.855V302h-2.52v-14.092h2.52v5.83h6.855v-5.83h2.51V302Zm9.866-14.443c2.044 0 3.662.664 4.853 1.992 1.198 1.328 1.797 3.128 1.797 5.4 0 2.272-.596 4.076-1.787 5.41-1.192 1.329-2.813 1.993-4.863 1.993-2.064 0-3.695-.664-4.893-1.993-1.191-1.328-1.787-3.131-1.787-5.41 0-2.272.599-4.072 1.797-5.4 1.204-1.328 2.832-1.992 4.883-1.992Zm0 2.236c-1.257 0-2.256.465-2.998 1.396-.736.931-1.104 2.185-1.104 3.76 0 1.582.365 2.839 1.094 3.77.735.931 1.738 1.396 3.008 1.396 1.25 0 2.239-.465 2.968-1.396.736-.938 1.104-2.194 1.104-3.77 0-1.575-.368-2.829-1.104-3.76-.729-.931-1.718-1.396-2.968-1.396ZM801.586 302h-6.025v-14.092h5.889c1.334 0 2.382.316 3.144.947.762.625 1.143 1.482 1.143 2.569 0 .742-.241 1.403-.723 1.982-.482.58-1.077.925-1.787 1.035v.176c.95.091 1.722.449 2.314 1.074.593.619.889 1.387.889 2.305 0 1.237-.433 2.214-1.299 2.93-.859.716-2.041 1.074-3.545 1.074Zm-3.506-12.09v3.926h2.432c.892 0 1.569-.166 2.031-.498.469-.339.703-.827.703-1.465 0-.618-.211-1.1-.634-1.445-.423-.345-1.016-.518-1.778-.518h-2.754Zm0 10.088h2.93c.931 0 1.638-.186 2.119-.557.482-.377.723-.924.723-1.64 0-.703-.251-1.237-.752-1.602-.495-.364-1.224-.547-2.188-.547h-2.832v4.346ZM818.386 302l-1.192-3.604h-5.185L810.798 302h-2.549l5-14.092h2.832l5.01 14.092h-2.705Zm-3.858-11.406-1.933 5.81h4.013l-1.914-5.81h-.166ZM835.693 302h-2.51v-6.084h-6.856V302h-2.519v-14.092h2.519v5.83h6.856v-5.83h2.51V302Zm13.195 0v-10.02h-.166L841.916 302h-2.442v-14.092h2.51v10.039h.166l6.797-10.039h2.441V302h-2.5Zm15.413-2.178V302h-9.121v-14.092h9.121v2.178h-6.602v3.74h6.24v2.051h-6.24v3.945h6.602Zm4.875 2.383c-.456 0-.83-.146-1.123-.439-.293-.293-.439-.661-.439-1.104 0-.449.146-.817.439-1.103.293-.293.667-.44 1.123-.44.462 0 .837.147 1.123.44.293.286.44.654.44 1.103 0 .443-.147.811-.44 1.104-.286.293-.661.439-1.123.439Zm0-7.324c-.456 0-.83-.143-1.123-.43-.293-.293-.439-.661-.439-1.103 0-.45.146-.817.439-1.104.293-.293.667-.439 1.123-.439.462 0 .837.146 1.123.439.293.287.44.654.44 1.104 0 .442-.147.81-.44 1.103-.286.287-.661.43-1.123.43ZM12.725 356h-2.52v-11.914H5.723l-.381 6.435c-.052.899-.16 1.68-.322 2.344a6.16 6.16 0 0 1-.704 1.739c-.3.494-.696.869-1.191 1.123-.488.253-1.071.38-1.748.38a3.13 3.13 0 0 1-.928-.117v-2.275c.196.045.4.068.615.068.359 0 .661-.081.909-.244.247-.163.44-.407.576-.732.143-.332.247-.687.312-1.065.065-.377.114-.836.147-1.377l.449-8.457h9.268V356Zm12.902-2.178V356h-9.12v-14.092h9.12v2.178h-6.601v3.74h6.24v2.051h-6.24v3.945h6.601Zm5.94-5.859h.43l5.293-6.055h2.89l-6.044 6.856L40.63 356h-3.106l-5.517-6.035h-.44V356h-2.52v-14.092h2.52v6.055ZM52.087 356l-1.191-3.604H45.71L44.5 356h-2.55l5-14.092h2.832L54.792 356h-2.705Zm-3.857-11.406-1.934 5.81h4.014l-1.914-5.81h-.166Zm9.28-2.686h5.683c1.406 0 2.546.44 3.418 1.319.879.878 1.318 2.028 1.318 3.447 0 1.393-.452 2.526-1.357 3.398-.899.873-2.06 1.309-3.486 1.309h-3.057V356h-2.52v-14.092Zm2.519 2.11v5.273h2.49c.905 0 1.605-.228 2.1-.684.501-.455.752-1.1.752-1.933 0-.86-.248-1.517-.742-1.973-.489-.456-1.189-.683-2.1-.683h-2.5Zm16.858 12.334c-1.999 0-3.578-.661-4.737-1.983-1.159-1.328-1.738-3.131-1.738-5.41 0-2.292.576-4.098 1.729-5.42 1.158-1.322 2.737-1.982 4.736-1.982 1.602 0 2.959.472 4.072 1.416 1.114.937 1.745 2.142 1.895 3.613h-2.48c-.177-.846-.58-1.52-1.212-2.022-.631-.507-1.39-.761-2.275-.761-1.198 0-2.145.462-2.842 1.386-.697.918-1.045 2.172-1.045 3.76 0 1.589.349 2.845 1.045 3.77.697.924 1.647 1.386 2.852 1.386.892 0 1.653-.231 2.285-.693a3.072 3.072 0 0 0 1.201-1.885h2.48c-.169 1.446-.8 2.611-1.894 3.496-1.094.886-2.451 1.329-4.072 1.329ZM91.39 356h-2.52v-11.914h-4.335v-2.178h11.2v2.178h-4.345V356Zm13.303 0h-6.025v-14.092h5.888c1.335 0 2.383.316 3.145.947.762.625 1.143 1.482 1.143 2.569 0 .742-.241 1.403-.723 1.982-.482.58-1.078.925-1.787 1.035v.176c.95.091 1.722.449 2.314 1.074.593.619.889 1.387.889 2.305 0 1.237-.433 2.214-1.299 2.93-.859.716-2.041 1.074-3.545 1.074Zm-3.506-12.09v3.926h2.432c.892 0 1.569-.166 2.031-.498.469-.339.703-.827.703-1.465 0-.618-.211-1.1-.634-1.445-.424-.345-1.016-.518-1.778-.518h-2.754Zm0 10.088h2.93c.931 0 1.637-.186 2.119-.557.482-.377.723-.924.723-1.64 0-.703-.251-1.237-.752-1.602-.495-.364-1.224-.547-2.188-.547h-2.832v4.346Zm20.51-.176V356h-9.121v-14.092h9.121v2.178h-6.601v3.74h6.24v2.051h-6.24v3.945h6.601ZM137.004 356h-2.51v-6.084h-6.856V356h-2.519v-14.092h2.519v5.83h6.856v-5.83h2.51V356Zm15.666 0h-2.51v-6.084h-6.855V356h-2.52v-14.092h2.52v5.83h6.855v-5.83h2.51V356Zm12.873 0-1.191-3.604h-5.186L157.955 356h-2.548l5-14.092h2.832L168.248 356h-2.705Zm-3.857-11.406-1.934 5.81h4.014l-1.914-5.81h-.166Zm16.868 4.209v-4.795h-2.608c-.866 0-1.543.211-2.031.635-.482.416-.723 1.002-.723 1.757 0 .762.241 1.355.723 1.778.482.416 1.159.625 2.031.625h2.608Zm-2.247 2.011L172.762 356h-2.832l3.829-5.537c-.951-.274-1.713-.772-2.286-1.494-.572-.723-.859-1.582-.859-2.578 0-1.335.449-2.416 1.348-3.243.898-.826 2.083-1.24 3.554-1.24h5.538V356h-2.5v-5.186h-2.247Zm19.712 1.827v-7.432c-1.178.052-2.119.407-2.822 1.064-.703.658-1.055 1.54-1.055 2.647 0 1.113.348 1.999 1.045 2.656.697.658 1.641 1.013 2.832 1.065Zm6.309-3.711c0-1.114-.349-1.999-1.045-2.657-.697-.664-1.638-1.018-2.822-1.064v7.432c1.178-.052 2.115-.407 2.812-1.065.703-.657 1.055-1.54 1.055-2.646Zm-6.338 5.84c-1.94-.053-3.49-.596-4.649-1.631-1.158-1.042-1.738-2.448-1.738-4.219 0-1.771.583-3.171 1.748-4.199 1.166-1.035 2.712-1.582 4.639-1.641v-1.435h2.49v1.435c1.94.052 3.49.596 4.649 1.631 1.158 1.035 1.738 2.441 1.738 4.219 0 1.178-.27 2.203-.811 3.076a5.28 5.28 0 0 1-2.246 2.002c-.95.462-2.06.716-3.33.762v1.494h-2.49v-1.494Zm18.078-13.213c2.045 0 3.662.664 4.854 1.992 1.198 1.328 1.797 3.128 1.797 5.4 0 2.272-.596 4.076-1.787 5.41-1.192 1.329-2.813 1.993-4.864 1.993-2.063 0-3.694-.664-4.892-1.993-1.192-1.328-1.787-3.131-1.787-5.41 0-2.272.599-4.072 1.797-5.4 1.204-1.328 2.832-1.992 4.882-1.992Zm0 2.236c-1.256 0-2.256.465-2.998 1.396-.735.931-1.103 2.185-1.103 3.76 0 1.582.364 2.839 1.094 3.77.735.931 1.738 1.396 3.007 1.396 1.25 0 2.24-.465 2.969-1.396.736-.938 1.104-2.194 1.104-3.77 0-1.575-.368-2.829-1.104-3.76-.729-.931-1.719-1.396-2.969-1.396Zm9.837-1.885h5.683c1.407 0 2.546.44 3.418 1.319.879.878 1.319 2.028 1.319 3.447 0 1.393-.453 2.526-1.358 3.398-.898.873-2.06 1.309-3.486 1.309h-3.057V356h-2.519v-14.092Zm2.519 2.11v5.273h2.49c.905 0 1.605-.228 2.1-.684.501-.455.752-1.1.752-1.933 0-.86-.247-1.517-.742-1.973-.488-.456-1.188-.683-2.1-.683h-2.5ZM251.954 356h-2.344v-9.912h-.137l-3.896 9.365h-1.797l-3.896-9.365h-.137V356h-2.344v-14.092h2.949l4.239 10.264h.175l4.239-10.264h2.949V356Zm12.864 0-1.192-3.604h-5.185L257.23 356h-2.549l5-14.092h2.832l5.01 14.092h-2.705Zm-3.858-11.406-1.933 5.81h4.013l-1.914-5.81h-.166Zm10.735 11.611c-.456 0-.83-.146-1.123-.439-.293-.293-.44-.661-.44-1.104 0-.449.147-.817.44-1.103.293-.293.667-.44 1.123-.44.462 0 .837.147 1.123.44.293.286.439.654.439 1.103 0 .443-.146.811-.439 1.104-.286.293-.661.439-1.123.439Zm0-7.324c-.456 0-.83-.143-1.123-.43-.293-.293-.44-.661-.44-1.103 0-.45.147-.817.44-1.104.293-.293.667-.439 1.123-.439.462 0 .837.146 1.123.439.293.287.439.654.439 1.104 0 .442-.146.81-.439 1.103-.286.287-.661.43-1.123.43Z" fill="#F9D2D6"/><path d="M326.704 238h-1.758v-12.51H319.8l-.449 7.237c-.111 1.79-.44 3.131-.987 4.023-.546.892-1.416 1.338-2.607 1.338-.273 0-.501-.033-.684-.098v-1.572c.144.039.319.059.528.059.312 0 .582-.062.81-.186.235-.13.427-.299.576-.508.15-.215.274-.491.372-.83.097-.338.169-.683.214-1.035.053-.358.092-.778.118-1.26l.507-8.75h8.506V238Zm14.944 0h-1.738v-12.49h-7.539V238h-1.768v-14.092h11.045V238Zm9.924-4.873h-6.406v-1.592h6.406v1.592Zm7.923 5.205c-1.589 0-2.819-.644-3.692-1.934-.872-1.289-1.308-3.105-1.308-5.449 0-2.324.439-4.134 1.318-5.429.879-1.296 2.106-1.944 3.682-1.944 1.569 0 2.789.651 3.662 1.953.879 1.302 1.318 3.119 1.318 5.45 0 2.337-.436 4.147-1.309 5.429-.865 1.283-2.089 1.924-3.671 1.924Zm-2.403-3.047c.56 1.009 1.361 1.514 2.403 1.514 1.041 0 1.835-.501 2.382-1.504.554-1.009.83-2.458.83-4.346 0-1.868-.28-3.307-.839-4.316-.554-1.009-1.345-1.514-2.373-1.514-1.029 0-1.827.508-2.393 1.524-.56 1.009-.84 2.444-.84 4.306 0 1.882.277 3.327.83 4.336Zm15.1 3.047c-1.588 0-2.819-.644-3.691-1.934-.873-1.289-1.309-3.105-1.309-5.449 0-2.324.44-4.134 1.319-5.429.878-1.296 2.106-1.944 3.681-1.944 1.569 0 2.79.651 3.662 1.953.879 1.302 1.319 3.119 1.319 5.45 0 2.337-.437 4.147-1.309 5.429-.866 1.283-2.09 1.924-3.672 1.924Zm-2.402-3.047c.56 1.009 1.361 1.514 2.402 1.514 1.042 0 1.836-.501 2.383-1.504.553-1.009.83-2.458.83-4.346 0-1.868-.28-3.307-.84-4.316-.553-1.009-1.344-1.514-2.373-1.514-1.028 0-1.826.508-2.392 1.524-.56 1.009-.84 2.444-.84 4.306 0 1.882.276 3.327.83 4.336ZM383.523 238v-12.139h-.157l-3.584 2.598v-1.855l3.75-2.696h1.748V238h-1.757Zm11.047.322c-1.061 0-1.986-.273-2.774-.82-.787-.553-1.403-1.348-1.845-2.383-.456-1.068-.684-2.376-.684-3.926 0-2.422.472-4.297 1.416-5.625.944-1.328 2.279-1.992 4.004-1.992 1.198 0 2.21.332 3.037.996.834.658 1.361 1.553 1.582 2.686H397.5c-.189-.658-.538-1.175-1.045-1.553-.502-.378-1.097-.566-1.787-.566-1.146 0-2.038.494-2.676 1.484-.632.99-.97 2.422-1.016 4.297h.156a3.741 3.741 0 0 1 1.504-1.592c.658-.384 1.407-.576 2.246-.576 1.342 0 2.448.446 3.321 1.338.872.885 1.308 2.012 1.308 3.379 0 1.419-.462 2.584-1.386 3.496-.925.905-2.11 1.357-3.555 1.357Zm-2.295-2.49c.612.632 1.37.947 2.275.947.905 0 1.661-.309 2.266-.927.612-.625.918-1.4.918-2.325 0-.963-.296-1.744-.889-2.343-.586-.606-1.344-.909-2.275-.909-.931 0-1.699.3-2.305.899-.599.599-.898 1.364-.898 2.295 0 .944.303 1.732.908 2.363Zm10.08-7.959c0-1.25.424-2.279 1.27-3.086.853-.807 1.934-1.211 3.242-1.211 1.263 0 2.321.381 3.174 1.143.859.755 1.289 1.692 1.289 2.812 0 .736-.208 1.459-.625 2.168-.417.71-1.201 1.683-2.353 2.92l-3.389 3.643v.156h6.601V238h-9.121v-1.211l4.873-5.322c.905-.983 1.508-1.732 1.807-2.246.3-.515.449-1.055.449-1.621 0-.704-.267-1.293-.801-1.768-.527-.482-1.178-.723-1.953-.723-.826 0-1.494.254-2.002.762-.507.508-.761 1.175-.761 2.002v.01h-1.7v-.01ZM418.002 238v-12.139h-.156l-3.584 2.598v-1.855l3.75-2.696h1.748V238h-1.758Zm-104.257 25.584v-1.563h1.905c.826 0 1.504-.234 2.031-.703.534-.475.801-1.08.801-1.816 0-.716-.248-1.289-.743-1.719-.494-.429-1.181-.644-2.06-.644-.873 0-1.579.211-2.119.634-.534.417-.837 1-.908 1.748h-1.709c.091-1.223.563-2.187 1.416-2.89.859-.703 1.989-1.055 3.388-1.055 1.322 0 2.406.355 3.252 1.065.847.703 1.27 1.604 1.27 2.705a3.28 3.28 0 0 1-.703 2.06 3.178 3.178 0 0 1-1.817 1.172v.156c.925.098 1.677.456 2.256 1.075.579.612.869 1.409.869 2.392 0 1.159-.488 2.139-1.465 2.94-.976.794-2.174 1.191-3.593 1.191-1.491 0-2.709-.365-3.653-1.094-.937-.735-1.439-1.705-1.504-2.91h1.7c.078.742.426 1.335 1.045 1.777.625.443 1.422.665 2.392.665.983 0 1.774-.245 2.373-.733.599-.488.899-1.116.899-1.885 0-.8-.293-1.429-.879-1.884-.586-.456-1.407-.684-2.461-.684h-1.983Zm17.854 5.146c-.866.971-2.047 1.456-3.545 1.456-1.497 0-2.682-.485-3.554-1.456-.866-.976-1.299-2.307-1.299-3.994 0-1.692.433-3.024 1.299-3.994.865-.97 2.05-1.455 3.554-1.455s2.689.485 3.555 1.455c.866.97 1.299 2.302 1.299 3.994 0 1.687-.436 3.018-1.309 3.994Zm-5.849-1.084c.54.684 1.308 1.026 2.304 1.026.996 0 1.765-.342 2.305-1.026.54-.69.811-1.66.811-2.91 0-1.25-.271-2.216-.811-2.9-.54-.69-1.309-1.035-2.305-1.035-.996 0-1.764.345-2.304 1.035-.541.684-.811 1.65-.811 2.9s.27 2.22.811 2.91Zm11.086-.83c.156.593.472 1.049.947 1.368.475.319 1.074.478 1.797.478.879 0 1.602-.309 2.168-.928.566-.618.885-1.442.957-2.47h-4.902v-1.407h4.873c-.098-.931-.43-1.673-.996-2.226-.567-.554-1.267-.83-2.1-.83-.736 0-1.341.179-1.816.537a2.39 2.39 0 0 0-.928 1.357h-1.699c.156-.983.625-1.797 1.406-2.441.788-.645 1.8-.967 3.037-.967 1.478 0 2.66.492 3.545 1.475.885.983 1.328 2.295 1.328 3.935 0 1.673-.446 3.005-1.338 3.994-.885.99-2.067 1.485-3.545 1.485-1.237 0-2.246-.309-3.027-.928a3.756 3.756 0 0 1-1.406-2.432h1.699Zm12.971-1.435a15.708 15.708 0 0 1-.195 1.601 7.105 7.105 0 0 1-.362 1.299 3.145 3.145 0 0 1-.566.996 2.275 2.275 0 0 1-.83.596 2.866 2.866 0 0 1-1.143.215c-.241 0-.446-.036-.615-.108v-1.542c.156.052.332.078.527.078.495 0 .863-.267 1.104-.801.247-.541.407-1.332.478-2.373l.411-5.869h6.884V270h-1.679v-9.121h-3.682l-.332 4.502ZM360.62 270h-1.68v-10.527h1.68v7.851h.156l5.244-7.851h1.68V270h-1.68v-7.852h-.156L360.62 270Zm15.012-4.385c-1.419 0-2.624-.495-3.613-1.484-.99-.99-1.485-2.194-1.485-3.613 0-.938.225-1.797.674-2.579a4.994 4.994 0 0 1 1.856-1.845 5.062 5.062 0 0 1 2.568-.674c.703 0 1.367.133 1.992.4a4.96 4.96 0 0 1 1.621 1.084c.456.45.817.99 1.084 1.621.267.625.401 1.289.401 1.993 0 .931-.225 1.787-.674 2.568a4.994 4.994 0 0 1-1.846 1.855 5.07 5.07 0 0 1-2.578.674Zm-2.9-2.197c.794.788 1.761 1.182 2.9 1.182s2.103-.394 2.891-1.182c.794-.794 1.191-1.761 1.191-2.9 0-1.14-.394-2.103-1.182-2.891-.787-.794-1.754-1.191-2.9-1.191-1.139 0-2.106.397-2.9 1.191-.788.788-1.182 1.751-1.182 2.891 0 1.139.394 2.106 1.182 2.9Zm1.894-.576h-.957v-4.873h2.432c.488 0 .892.143 1.211.429.325.28.488.635.488 1.065 0 .794-.378 1.282-1.133 1.465l1.348 1.914h-1.172l-1.26-1.787h-.957v1.787Zm0-4.004v1.396h1.211c.599 0 .899-.241.899-.722 0-.45-.29-.674-.87-.674h-1.24ZM886.603 302v-4.766h-5.254V302h-1.68v-10.527h1.68v4.355h5.254v-4.355h1.679V302h-1.679Zm13-1.27c-.866.971-2.047 1.456-3.545 1.456-1.497 0-2.682-.485-3.554-1.456-.866-.976-1.299-2.307-1.299-3.994 0-1.692.433-3.024 1.299-3.994.865-.97 2.05-1.455 3.554-1.455s2.689.485 3.555 1.455c.866.97 1.299 2.302 1.299 3.994 0 1.687-.436 3.018-1.309 3.994Zm-5.849-1.084c.54.684 1.308 1.026 2.304 1.026.996 0 1.765-.342 2.305-1.026.54-.69.81-1.66.81-2.91 0-1.25-.27-2.216-.81-2.9-.54-.69-1.309-1.035-2.305-1.035-.996 0-1.764.345-2.304 1.035-.541.684-.811 1.65-.811 2.9s.27 2.22.811 2.91Zm11.76 2.354h-1.68v-10.527h2.041l3.77 8.164h.156l3.779-8.164h1.963V302h-1.689v-7.49h-.186l-3.33 7.197h-1.309l-3.33-7.197h-.185V302Zm17.688-9.229c-.84 0-1.53.284-2.071.85-.54.567-.843 1.315-.908 2.246h5.801c-.02-.931-.287-1.679-.801-2.246-.514-.566-1.188-.85-2.021-.85Zm2.773 6.504h1.68a3.651 3.651 0 0 1-1.553 2.139c-.775.514-1.735.772-2.881.772-1.458 0-2.614-.489-3.467-1.465-.853-.983-1.279-2.308-1.279-3.975 0-1.66.43-2.985 1.289-3.975.859-.989 2.012-1.484 3.457-1.484 1.419 0 2.536.472 3.35 1.416.813.944 1.22 2.236 1.22 3.877v.645h-7.568v.078c.046 1.041.339 1.868.879 2.48.547.612 1.266.918 2.158.918 1.361 0 2.266-.475 2.715-1.426Zm11.477-6.396h-5.059V302h-1.679v-10.527h6.738v1.406Zm3.567 5.937c.156.593.472 1.049.947 1.368.475.319 1.074.478 1.797.478.879 0 1.601-.309 2.168-.928.566-.618.885-1.442.957-2.47h-4.902v-1.407h4.873c-.098-.931-.43-1.673-.997-2.226-.566-.554-1.266-.83-2.099-.83-.736 0-1.341.179-1.817.537a2.392 2.392 0 0 0-.927 1.357h-1.699c.156-.983.625-1.797 1.406-2.441.788-.645 1.8-.967 3.037-.967 1.478 0 2.659.492 3.545 1.475.885.983 1.328 2.295 1.328 3.935 0 1.673-.446 3.005-1.338 3.994-.885.99-2.067 1.485-3.545 1.485-1.237 0-2.246-.309-3.027-.928a3.756 3.756 0 0 1-1.406-2.432h1.699Zm19.26-4.121h-1.699a2.399 2.399 0 0 0-.928-1.357c-.469-.358-1.064-.537-1.787-.537-.944 0-1.696.351-2.256 1.054-.553.704-.83 1.651-.83 2.842 0 1.211.28 2.178.84 2.901.56.716 1.308 1.074 2.246 1.074.71 0 1.299-.16 1.767-.479.476-.319.791-.774.948-1.367h1.699a3.77 3.77 0 0 1-1.397 2.432c-.774.618-1.777.928-3.007.928-1.478 0-2.653-.495-3.526-1.485-.872-.996-1.308-2.331-1.308-4.004 0-1.64.436-2.952 1.308-3.935.873-.983 2.045-1.475 3.516-1.475 1.23 0 2.233.322 3.008.967.781.644 1.25 1.458 1.406 2.441Zm9.905-3.222v1.406h-3.418V302h-1.68v-9.121h-3.418v-1.406h8.516Zm7.678-.186c1.341 0 2.412.495 3.213 1.484.807.99 1.211 2.312 1.211 3.965 0 1.647-.404 2.969-1.211 3.965-.808.99-1.879 1.485-3.213 1.485-.749 0-1.413-.153-1.992-.459a3.034 3.034 0 0 1-1.299-1.309h-.157v5.098h-1.679v-14.043h1.601v1.757h.157a3.718 3.718 0 0 1 1.396-1.425 3.885 3.885 0 0 1 1.973-.518Zm-.401 9.385c.964 0 1.719-.348 2.266-1.045.547-.697.82-1.66.82-2.891 0-1.23-.273-2.194-.82-2.89-.54-.697-1.292-1.045-2.256-1.045-.95 0-1.706.355-2.266 1.064-.559.703-.839 1.66-.839 2.871 0 1.205.276 2.162.83 2.871.56.71 1.315 1.065 2.265 1.065Zm15.637.058c-.865.971-2.047 1.456-3.544 1.456-1.498 0-2.683-.485-3.555-1.456-.866-.976-1.299-2.307-1.299-3.994 0-1.692.433-3.024 1.299-3.994.866-.97 2.051-1.455 3.555-1.455 1.503 0 2.688.485 3.554 1.455.866.97 1.299 2.302 1.299 3.994 0 1.687-.436 3.018-1.309 3.994Zm-5.849-1.084c.54.684 1.308 1.026 2.305 1.026.996 0 1.764-.342 2.304-1.026.541-.69.811-1.66.811-2.91 0-1.25-.27-2.216-.811-2.9-.54-.69-1.308-1.035-2.304-1.035-.997 0-1.765.345-2.305 1.035-.541.684-.811 1.65-.811 2.9s.27 2.22.811 2.91Zm12.512-2.265a15.708 15.708 0 0 1-.195 1.601 7.105 7.105 0 0 1-.362 1.299 3.145 3.145 0 0 1-.566.996 2.275 2.275 0 0 1-.83.596 2.866 2.866 0 0 1-1.143.215c-.241 0-.446-.036-.615-.108v-1.542c.156.052.332.078.527.078.495 0 .863-.267 1.104-.801.247-.541.407-1.332.478-2.373l.411-5.869h6.88V302h-1.68v-9.121h-3.68l-.329 4.502Zm20.419-.322v4.248h-1.45v-4.248h-4.25v-1.446h4.25v-4.248h1.45v4.248h4.24v1.446h-4.24ZM2.773 320.816c.157.593.472 1.049.948 1.368.475.319 1.074.478 1.797.478.878 0 1.601-.309 2.168-.928.566-.618.885-1.442.957-2.47H3.74v-1.407h4.873c-.097-.931-.43-1.673-.996-2.226-.566-.554-1.266-.83-2.1-.83-.735 0-1.34.179-1.816.537a2.393 2.393 0 0 0-.928 1.357H1.074c.156-.983.625-1.797 1.406-2.441.788-.645 1.8-.967 3.038-.967 1.477 0 2.66.492 3.545 1.475.885.983 1.328 2.295 1.328 3.935 0 1.673-.446 3.005-1.338 3.994-.886.99-2.067 1.485-3.545 1.485-1.237 0-2.246-.309-3.028-.928a3.756 3.756 0 0 1-1.406-2.432h1.7Zm19.26-4.121h-1.699a2.394 2.394 0 0 0-.927-1.357c-.47-.358-1.065-.537-1.788-.537-.944 0-1.695.351-2.255 1.054-.554.704-.83 1.651-.83 2.842 0 1.211.28 2.178.84 2.901.56.716 1.308 1.074 2.245 1.074.71 0 1.3-.16 1.768-.479.475-.319.791-.774.947-1.367h1.7c-.157.996-.622 1.807-1.397 2.432-.775.618-1.777.928-3.008.928-1.478 0-2.653-.495-3.525-1.485-.872-.996-1.309-2.331-1.309-4.004 0-1.64.437-2.952 1.309-3.935.872-.983 2.044-1.475 3.515-1.475 1.231 0 2.234.322 3.008.967.782.644 1.25 1.458 1.407 2.441Zm9.905-3.222v1.406H28.52V324h-1.68v-9.121h-3.417v-1.406h8.515Zm7.678-.186c1.342 0 2.413.495 3.213 1.484.808.99 1.211 2.312 1.211 3.965 0 1.647-.403 2.969-1.21 3.965-.808.99-1.879 1.485-3.214 1.485-.748 0-1.412-.153-1.992-.459a3.039 3.039 0 0 1-1.299-1.309h-.156v5.098h-1.68v-14.043h1.602v1.757h.156a3.72 3.72 0 0 1 1.397-1.425 3.883 3.883 0 0 1 1.972-.518Zm-.4 9.385c.964 0 1.719-.348 2.266-1.045.547-.697.82-1.66.82-2.891 0-1.23-.273-2.194-.82-2.89-.54-.697-1.293-1.045-2.256-1.045-.95 0-1.706.355-2.266 1.064-.56.703-.84 1.66-.84 2.871 0 1.205.277 2.162.83 2.871.56.71 1.316 1.065 2.266 1.065Zm11.008.039c.866 0 1.582-.251 2.149-.752a2.4 2.4 0 0 0 .859-1.885v-.967l-2.832.186c-.794.052-1.377.218-1.748.498s-.557.687-.557 1.221c0 .527.199.944.596 1.25.397.299.908.449 1.533.449Zm-.312 1.475c-1.035 0-1.888-.284-2.559-.85-.664-.573-.996-1.335-.996-2.285 0-.938.332-1.673.996-2.207.664-.534 1.611-.837 2.842-.908l3.037-.186v-.957c0-.651-.202-1.149-.605-1.494-.404-.345-.997-.518-1.778-.518-.631 0-1.155.114-1.572.342-.417.228-.684.55-.8.967h-1.7c.11-.84.544-1.517 1.299-2.031.761-.515 1.706-.772 2.832-.772 1.276 0 2.262.309 2.959.928.696.618 1.045 1.478 1.045 2.578V324H53.31v-1.553h-.156c-.339.56-.788.99-1.348 1.289-.56.3-1.191.45-1.894.45Zm15.09-1.592v-7.715h-3.994l-.332 4.502c-.11 1.419-.4 2.438-.87 3.057v.156h5.196Zm-6.455 4.189h-1.582v-4.189h.879c.364-.241.65-.651.86-1.231.207-.586.338-1.259.39-2.021l.41-5.869h7.178v9.121h1.68v4.189h-1.583V324h-8.232v2.783ZM72.348 324h-1.68v-10.527h1.68v7.851h.156l5.244-7.851h1.68V324h-1.68v-7.852h-.156L72.348 324Zm18.41-1.27c-.865.971-2.047 1.456-3.544 1.456-1.498 0-2.683-.485-3.555-1.456-.866-.976-1.299-2.307-1.299-3.994 0-1.692.433-3.024 1.299-3.994.866-.97 2.05-1.455 3.555-1.455 1.504 0 2.689.485 3.554 1.455.866.97 1.3 2.302 1.3 3.994 0 1.687-.437 3.018-1.31 3.994Zm-5.849-1.084c.54.684 1.309 1.026 2.305 1.026.996 0 1.764-.342 2.304-1.026.54-.69.81-1.66.81-2.91 0-1.25-.27-2.216-.81-2.9-.54-.69-1.308-1.035-2.304-1.035-.996 0-1.765.345-2.305 1.035-.54.684-.81 1.65-.81 2.9s.27 2.22.81 2.91Zm12.512-2.265c-.046.605-.11 1.139-.195 1.601a7.145 7.145 0 0 1-.361 1.299c-.15.404-.34.736-.567.996a2.278 2.278 0 0 1-.83.596 2.865 2.865 0 0 1-1.143.215 1.57 1.57 0 0 1-.615-.108v-1.542c.156.052.332.078.528.078.494 0 .862-.267 1.103-.801.247-.541.407-1.332.479-2.373l.41-5.869h6.884V324h-1.679v-9.121h-3.682l-.332 4.502Zm192.394 26.092v1.406h-3.418V356h-1.68v-9.121h-3.418v-1.406h8.516Zm5.647 9.238c.866 0 1.582-.251 2.148-.752.573-.501.86-1.13.86-1.885v-.967l-2.832.186c-.795.052-1.377.218-1.749.498-.371.28-.556.687-.556 1.221 0 .527.198.944.596 1.25.397.299.908.449 1.533.449Zm-.313 1.475c-1.035 0-1.888-.284-2.558-.85-.664-.573-.996-1.335-.996-2.285 0-.938.332-1.673.996-2.207.664-.534 1.611-.837 2.841-.908l3.038-.186v-.957c0-.651-.202-1.149-.606-1.494-.404-.345-.996-.518-1.777-.518-.632 0-1.156.114-1.573.342-.416.228-.683.55-.8.967h-1.7c.111-.84.544-1.517 1.299-2.031.762-.515 1.706-.772 2.832-.772 1.276 0 2.263.309 2.959.928.697.618 1.045 1.478 1.045 2.578V356h-1.601v-1.553h-.157c-.338.56-.787.99-1.347 1.289-.56.3-1.192.45-1.895.45Zm10.432-2.52c.554.671 1.335 1.006 2.344 1.006s1.787-.335 2.334-1.006c.553-.671.83-1.615.83-2.832 0-1.159-.277-2.054-.83-2.686-.547-.638-1.325-.957-2.334-.957-1.009 0-1.79.319-2.344.957-.547.632-.82 1.527-.82 2.686 0 1.217.273 2.161.82 2.832Zm-1.123-6.035h.156a3.808 3.808 0 0 1 1.407-1.416c.599-.352 1.318-.527 2.158-.527 1.4 0 2.523.462 3.369 1.386.853.918 1.279 2.171 1.279 3.76 0 1.66-.439 2.969-1.318 3.926-.872.95-2.067 1.426-3.584 1.426-1.582 0-2.796-.528-3.643-1.582-.839-1.062-1.259-2.653-1.259-4.776 0-1.009.048-1.901.146-2.676.104-.774.277-1.494.518-2.158.247-.67.569-1.224.967-1.66.397-.436.901-.781 1.513-1.035.619-.261 1.341-.41 2.168-.449l1.055-.049a9.926 9.926 0 0 0 2.412-.43 2.46 2.46 0 0 0 .332-.137v1.504c-.046.039-.12.091-.225.157-.104.058-.384.146-.839.263-.456.111-.99.179-1.602.205l-1.074.049c-.69.033-1.273.147-1.748.342-.476.189-.86.472-1.153.85a4.203 4.203 0 0 0-.673 1.279c-.157.475-.277 1.058-.362 1.748Zm13.723 3.75c-.045.605-.11 1.139-.195 1.601a7.185 7.185 0 0 1-.361 1.299c-.15.404-.339.736-.567.996a2.275 2.275 0 0 1-.83.596 2.865 2.865 0 0 1-1.142.215c-.241 0-.446-.036-.616-.108v-1.542c.157.052.332.078.528.078.494 0 .862-.267 1.103-.801.248-.541.407-1.332.479-2.373l.41-5.869h6.885V356h-1.68v-9.121h-3.682l-.332 4.502Zm13.342-4.61c-.839 0-1.53.284-2.07.85-.54.567-.843 1.315-.908 2.246h5.801c-.02-.931-.287-1.679-.801-2.246-.514-.566-1.188-.85-2.022-.85Zm2.774 6.504h1.68a3.651 3.651 0 0 1-1.553 2.139c-.775.514-1.735.772-2.881.772-1.458 0-2.614-.489-3.467-1.465-.853-.983-1.279-2.308-1.279-3.975 0-1.66.43-2.985 1.289-3.975.859-.989 2.012-1.484 3.457-1.484 1.419 0 2.536.472 3.35 1.416.813.944 1.22 2.236 1.22 3.877v.645h-7.568v.078c.045 1.041.338 1.868.879 2.48.547.612 1.266.918 2.158.918 1.361 0 2.266-.475 2.715-1.426Zm11.584-7.802v1.406h-3.418V356h-1.679v-9.121h-3.418v-1.406h8.515Zm4.69 5.732h-.459V356h-1.68v-10.527h1.68v4.404h.459l4.17-4.404h2.041l-4.824 4.961 5.01 5.566h-2.178l-4.219-4.795Zm10.52 4.795h-1.68v-10.527h1.68v7.851h.156l5.244-7.851h1.68V356h-1.68v-7.852h-.156L361.091 356Zm23.11 0v-9.121h-5.156V356h-1.68v-10.527h8.516V356h-1.68Zm13.001-1.27c-.866.971-2.048 1.456-3.545 1.456-1.498 0-2.683-.485-3.555-1.456-.866-.976-1.299-2.307-1.299-3.994 0-1.692.433-3.024 1.299-3.994.866-.97 2.051-1.455 3.555-1.455s2.688.485 3.554 1.455c.866.97 1.299 2.302 1.299 3.994 0 1.687-.436 3.018-1.308 3.994Zm-5.85-1.084c.54.684 1.309 1.026 2.305 1.026.996 0 1.764-.342 2.304-1.026.541-.69.811-1.66.811-2.91 0-1.25-.27-2.216-.811-2.9-.54-.69-1.308-1.035-2.304-1.035-.996 0-1.765.345-2.305 1.035-.54.684-.811 1.65-.811 2.9s.271 2.22.811 2.91Zm12.219-2.441h-.459V356h-1.68v-10.527h1.68v4.404h.459l4.17-4.404h2.041l-4.824 4.961 5.01 5.566h-2.178l-4.219-4.795Zm13.967-5.918c1.341 0 2.412.495 3.213 1.484.807.99 1.211 2.312 1.211 3.965 0 1.647-.404 2.969-1.211 3.965-.807.99-1.878 1.485-3.213 1.485-.748 0-1.412-.153-1.992-.459a3.045 3.045 0 0 1-1.299-1.309h-.156v5.098h-1.68v-14.043h1.602v1.757h.156a3.72 3.72 0 0 1 1.397-1.425 3.88 3.88 0 0 1 1.972-.518Zm-.4 9.385c.963 0 1.719-.348 2.266-1.045.546-.697.82-1.66.82-2.891 0-1.23-.274-2.194-.82-2.89-.541-.697-1.293-1.045-2.256-1.045-.951 0-1.706.355-2.266 1.064-.56.703-.84 1.66-.84 2.871 0 1.205.277 2.162.83 2.871.56.71 1.315 1.065 2.266 1.065ZM434.103 356v-10.527h1.68V356h-1.68Zm-5.449-5.742h-2.08v4.336h2.08c.69 0 1.24-.196 1.65-.586.417-.397.625-.925.625-1.582 0-.658-.208-1.182-.625-1.572-.41-.398-.96-.596-1.65-.596Zm-3.76 5.742v-10.527h1.68v3.379h2.08c1.204 0 2.165.322 2.881.966.716.645 1.074 1.514 1.074 2.608s-.358 1.963-1.074 2.607c-.716.645-1.677.967-2.881.967h-3.76Zm21.965-10.527v1.406h-3.418V356h-1.679v-9.121h-3.418v-1.406h8.515ZM458.62 356v-10.527h1.679V356h-1.679Zm-5.45-5.742h-2.08v4.336h2.08c.69 0 1.241-.196 1.651-.586.416-.397.625-.925.625-1.582 0-.658-.209-1.182-.625-1.572-.41-.398-.961-.596-1.651-.596ZM449.411 356v-10.527h1.679v3.379h2.08c1.205 0 2.165.322 2.881.966.716.645 1.074 1.514 1.074 2.608s-.358 1.963-1.074 2.607c-.716.645-1.676.967-2.881.967h-3.759Zm18.547-9.229c-.84 0-1.53.284-2.07.85-.541.567-.844 1.315-.909 2.246h5.801c-.019-.931-.286-1.679-.801-2.246-.514-.566-1.188-.85-2.021-.85Zm2.773 6.504h1.68a3.651 3.651 0 0 1-1.553 2.139c-.775.514-1.735.772-2.881.772-1.458 0-2.614-.489-3.466-1.465-.853-.983-1.28-2.308-1.28-3.975 0-1.66.43-2.985 1.289-3.975.86-.989 2.012-1.484 3.457-1.484 1.42 0 2.536.472 3.35 1.416.814.944 1.221 2.236 1.221 3.877v.645h-7.569v.078c.046 1.041.339 1.868.879 2.48.547.612 1.266.918 2.158.918 1.361 0 2.266-.475 2.715-1.426ZM488.05 356v-9.121h-5.156V356h-1.68v-10.527h8.516V356h-1.68Zm7.649-4.619c-.045.605-.11 1.139-.195 1.601a7.185 7.185 0 0 1-.361 1.299c-.15.404-.339.736-.567.996a2.275 2.275 0 0 1-.83.596 2.865 2.865 0 0 1-1.142.215c-.241 0-.446-.036-.616-.108v-1.542c.157.052.332.078.528.078.494 0 .862-.267 1.103-.801.248-.541.407-1.332.479-2.373l.41-5.869h6.885V356h-1.68v-9.121h-3.682l-.332 4.502Zm13.342-4.61c-.839 0-1.53.284-2.07.85-.54.567-.843 1.315-.908 2.246h5.801c-.02-.931-.287-1.679-.801-2.246-.514-.566-1.188-.85-2.022-.85Zm2.774 6.504h1.68a3.651 3.651 0 0 1-1.553 2.139c-.775.514-1.735.772-2.881.772-1.458 0-2.614-.489-3.467-1.465-.853-.983-1.279-2.308-1.279-3.975 0-1.66.43-2.985 1.289-3.975.859-.989 2.012-1.484 3.457-1.484 1.419 0 2.536.472 3.35 1.416.813.944 1.22 2.236 1.22 3.877v.645h-7.568v.078c.045 1.041.338 1.868.879 2.48.547.612 1.266.918 2.158.918 1.361 0 2.266-.475 2.715-1.426ZM523.487 356v-4.766h-5.254V356h-1.679v-10.527h1.679v4.355h5.254v-4.355h1.68V356h-1.68Zm13-1.27c-.865.971-2.047 1.456-3.544 1.456-1.498 0-2.683-.485-3.555-1.456-.866-.976-1.299-2.307-1.299-3.994 0-1.692.433-3.024 1.299-3.994.866-.97 2.051-1.455 3.555-1.455 1.503 0 2.688.485 3.554 1.455.866.97 1.299 2.302 1.299 3.994 0 1.687-.436 3.018-1.309 3.994Zm-5.849-1.084c.54.684 1.308 1.026 2.305 1.026.996 0 1.764-.342 2.304-1.026.541-.69.811-1.66.811-2.91 0-1.25-.27-2.216-.811-2.9-.54-.69-1.308-1.035-2.304-1.035-.997 0-1.765.345-2.305 1.035-.54.684-.811 1.65-.811 2.9s.271 2.22.811 2.91ZM548.55 356h-1.679v-4.551h-.157c-.618.534-1.464.801-2.539.801-1.237 0-2.187-.339-2.851-1.016-.664-.683-.996-1.601-.996-2.754v-3.007h1.679v3.007c0 .71.186 1.267.557 1.67.378.404.918.606 1.621.606 1.172 0 2.067-.345 2.686-1.035v-4.248h1.679V356Zm10.374 0v-4.766h-5.254V356h-1.68v-10.527h1.68v4.355h5.254v-4.355h1.68V356h-1.68Zm13-1.27c-.866.971-2.047 1.456-3.545 1.456-1.497 0-2.682-.485-3.554-1.456-.866-.976-1.299-2.307-1.299-3.994 0-1.692.433-3.024 1.299-3.994.865-.97 2.05-1.455 3.554-1.455s2.689.485 3.555 1.455c.866.97 1.299 2.302 1.299 3.994 0 1.687-.436 3.018-1.309 3.994Zm-5.849-1.084c.54.684 1.308 1.026 2.304 1.026.996 0 1.765-.342 2.305-1.026.54-.69.811-1.66.811-2.91 0-1.25-.271-2.216-.811-2.9-.54-.69-1.309-1.035-2.305-1.035-.996 0-1.764.345-2.304 1.035-.541.684-.811 1.65-.811 2.9s.27 2.22.811 2.91Zm11.76 2.354h-1.68v-10.527h1.68v7.851h.156l5.244-7.851h1.68V356h-1.68v-7.852h-.156L577.835 356Zm-.694-15.195h1.524c0 .56.166 1.041.498 1.445.332.404.771.605 1.318.605.554 0 .996-.201 1.328-.605.339-.404.508-.885.508-1.445h1.524c0 .918-.313 1.683-.938 2.295-.618.605-1.426.908-2.422.908-.989 0-1.793-.303-2.412-.908-.618-.606-.928-1.371-.928-2.295Zm24.849 13.925c-.866.971-2.048 1.456-3.545 1.456-1.497 0-2.682-.485-3.555-1.456-.866-.976-1.299-2.307-1.299-3.994 0-1.692.433-3.024 1.299-3.994.866-.97 2.051-1.455 3.555-1.455s2.689.485 3.555 1.455c.866.97 1.298 2.302 1.298 3.994 0 1.687-.436 3.018-1.308 3.994Zm-5.85-1.084c.541.684 1.309 1.026 2.305 1.026.996 0 1.764-.342 2.305-1.026.54-.69.81-1.66.81-2.91 0-1.25-.27-2.216-.81-2.9-.541-.69-1.309-1.035-2.305-1.035-.996 0-1.764.345-2.305 1.035-.54.684-.81 1.65-.81 2.9s.27 2.22.81 2.91Zm12.122.02c.553.671 1.334 1.006 2.343 1.006 1.01 0 1.788-.335 2.334-1.006.554-.671.831-1.615.831-2.832 0-1.159-.277-2.054-.831-2.686-.546-.638-1.324-.957-2.334-.957-1.009 0-1.79.319-2.343.957-.547.632-.821 1.527-.821 2.686 0 1.217.274 2.161.821 2.832Zm-1.123-6.035h.156a3.798 3.798 0 0 1 1.406-1.416c.599-.352 1.319-.527 2.158-.527 1.4 0 2.523.462 3.37 1.386.852.918 1.279 2.171 1.279 3.76 0 1.66-.44 2.969-1.319 3.926-.872.95-2.067 1.426-3.584 1.426-1.582 0-2.796-.528-3.642-1.582-.84-1.062-1.26-2.653-1.26-4.776 0-1.009.049-1.901.147-2.676.104-.774.276-1.494.517-2.158.248-.67.57-1.224.967-1.66.397-.436.902-.781 1.514-1.035.618-.261 1.341-.41 2.168-.449l1.054-.049a9.89 9.89 0 0 0 2.412-.43c.209-.078.319-.124.332-.137v1.504a2.06 2.06 0 0 1-.224.157c-.104.058-.384.146-.84.263-.456.111-.99.179-1.602.205l-1.074.049c-.69.033-1.273.147-1.748.342a2.674 2.674 0 0 0-1.152.85 4.205 4.205 0 0 0-.674 1.279c-.156.475-.277 1.058-.361 1.748Zm19.172 7.099c-.866.971-2.048 1.456-3.545 1.456-1.497 0-2.682-.485-3.555-1.456-.866-.976-1.299-2.307-1.299-3.994 0-1.692.433-3.024 1.299-3.994.866-.97 2.051-1.455 3.555-1.455s2.689.485 3.555 1.455c.866.97 1.299 2.302 1.299 3.994 0 1.687-.437 3.018-1.309 3.994Zm-5.85-1.084c.541.684 1.309 1.026 2.305 1.026.996 0 1.764-.342 2.305-1.026.54-.69.81-1.66.81-2.91 0-1.25-.27-2.216-.81-2.9-.541-.69-1.309-1.035-2.305-1.035-.996 0-1.764.345-2.305 1.035-.54.684-.81 1.65-.81 2.9s.27 2.22.81 2.91Zm12.512-2.265c-.045.605-.11 1.139-.195 1.601a7.105 7.105 0 0 1-.361 1.299c-.15.404-.339.736-.567.996a2.275 2.275 0 0 1-.83.596 2.865 2.865 0 0 1-1.142.215c-.241 0-.446-.036-.615-.108v-1.542c.156.052.332.078.527.078.495 0 .862-.267 1.103-.801.248-.541.407-1.332.479-2.373l.41-5.869h6.885V356h-1.68v-9.121h-3.682l-.332 4.502Zm17.014 3.349c-.865.971-2.047 1.456-3.544 1.456-1.498 0-2.683-.485-3.555-1.456-.866-.976-1.299-2.307-1.299-3.994 0-1.692.433-3.024 1.299-3.994.866-.97 2.051-1.455 3.555-1.455 1.503 0 2.688.485 3.554 1.455.866.97 1.299 2.302 1.299 3.994 0 1.687-.436 3.018-1.309 3.994Zm-5.849-1.084c.54.684 1.308 1.026 2.305 1.026.996 0 1.764-.342 2.304-1.026.541-.69.811-1.66.811-2.91 0-1.25-.27-2.216-.811-2.9-.54-.69-1.308-1.035-2.304-1.035-.997 0-1.765.345-2.305 1.035-.54.684-.811 1.65-.811 2.9s.271 2.22.811 2.91ZM662.05 356h-1.679v-4.551h-.157c-.618.534-1.464.801-2.539.801-1.237 0-2.187-.339-2.851-1.016-.664-.683-.996-1.601-.996-2.754v-3.007h1.679v3.007c0 .71.186 1.267.557 1.67.378.404.918.606 1.621.606 1.172 0 2.067-.345 2.686-1.035v-4.248h1.679V356Zm5.579-4.795h-.459V356h-1.68v-10.527h1.68v4.404h.459l4.17-4.404h2.041l-4.824 4.961 5.009 5.566h-2.177l-4.219-4.795Zm16.233 3.525c-.866.971-2.048 1.456-3.545 1.456-1.498 0-2.683-.485-3.555-1.456-.866-.976-1.299-2.307-1.299-3.994 0-1.692.433-3.024 1.299-3.994.866-.97 2.051-1.455 3.555-1.455s2.689.485 3.554 1.455c.866.97 1.299 2.302 1.299 3.994 0 1.687-.436 3.018-1.308 3.994Zm-5.85-1.084c.54.684 1.309 1.026 2.305 1.026.996 0 1.764-.342 2.304-1.026.541-.69.811-1.66.811-2.91 0-1.25-.27-2.216-.811-2.9-.54-.69-1.308-1.035-2.304-1.035-.996 0-1.765.345-2.305 1.035-.54.684-.81 1.65-.81 2.9s.27 2.22.81 2.91Zm11.76 2.354h-1.679v-10.527h1.679v7.851h.157l5.244-7.851h1.679V356h-1.679v-7.852h-.157L689.772 356Zm-.693-15.195h1.523c0 .56.166 1.041.498 1.445.332.404.772.605 1.319.605.553 0 .996-.201 1.328-.605.338-.404.508-.885.508-1.445h1.523c0 .918-.312 1.683-.937 2.295-.619.605-1.426.908-2.422.908-.99 0-1.794-.303-2.412-.908-.619-.606-.928-1.371-.928-2.295Zm12.336 18.779h-1.465l.938-5.557h1.973l-1.446 5.557Zm10.483-13.711c0-1.25.424-2.279 1.27-3.086.853-.807 1.934-1.211 3.242-1.211 1.263 0 2.321.381 3.174 1.143.859.755 1.289 1.692 1.289 2.812 0 .736-.208 1.459-.625 2.168-.417.71-1.201 1.683-2.353 2.92l-3.389 3.643v.156h6.601V356h-9.121v-1.211l4.873-5.322c.905-.983 1.508-1.732 1.807-2.246a3.181 3.181 0 0 0 .449-1.621c0-.704-.267-1.293-.801-1.768-.527-.482-1.178-.723-1.953-.723-.826 0-1.494.254-2.002.762-.507.508-.761 1.175-.761 2.002v.01h-1.7v-.01Zm13.196 13.711h-1.465l.938-5.557h1.972l-1.445 5.557Zm8.831-3.252c-1.335 0-2.439-.374-3.311-1.123-.872-.755-1.348-1.742-1.426-2.959h1.729c.078.762.394 1.377.947 1.846.56.462 1.253.693 2.08.693.944 0 1.703-.296 2.276-.889.579-.592.869-1.37.869-2.334 0-.963-.29-1.744-.869-2.343-.573-.606-1.322-.909-2.247-.909-.638 0-1.21.14-1.718.42a2.975 2.975 0 0 0-1.192 1.162h-1.65l.771-7.988h7.862v1.572h-6.485l-.4 4.522h.156c.684-.801 1.677-1.201 2.979-1.201 1.341 0 2.435.439 3.281 1.318.846.879 1.269 2.012 1.269 3.399 0 1.432-.455 2.594-1.367 3.486-.911.885-2.096 1.328-3.554 1.328Zm15.356-.332h-1.68v-10.527h2.041l3.77 8.164h.156l3.779-8.164h1.963V356h-1.689v-7.49h-.186l-3.33 7.197h-1.308l-3.331-7.197h-.185V356Zm20.217-9.121h-5.059V356h-1.679v-10.527h6.738v1.406Zm13.94 4.18v4.248h-1.445v-4.248h-4.248v-1.446h4.248v-4.248h1.445v4.248h4.248v1.446h-4.248ZM799.986 356v-12.139h-.156l-3.584 2.598v-1.855l3.75-2.696h1.748V356h-1.758Zm6.789 3.584h-1.464l.937-5.557h1.973l-1.446 5.557Zm8.831-3.252c-1.335 0-2.438-.374-3.311-1.123-.872-.755-1.347-1.742-1.425-2.959h1.728c.078.762.394 1.377.947 1.846.56.462 1.254.693 2.08.693.944 0 1.703-.296 2.276-.889.579-.592.869-1.37.869-2.334 0-.963-.29-1.744-.869-2.343-.573-.606-1.322-.909-2.246-.909-.638 0-1.211.14-1.719.42a2.966 2.966 0 0 0-1.191 1.162h-1.651l.772-7.988h7.861v1.572h-6.484l-.401 4.522h.156c.684-.801 1.677-1.201 2.979-1.201 1.341 0 2.435.439 3.281 1.318.847.879 1.27 2.012 1.27 3.399 0 1.432-.456 2.594-1.367 3.486-.912.885-2.097 1.328-3.555 1.328Zm15.356-.332h-1.68v-10.527h2.041l3.77 8.164h.156l3.78-8.164h1.962V356h-1.689v-7.49h-.186l-3.33 7.197h-1.308l-3.33-7.197h-.186V356Zm20.217-9.121h-5.058V356h-1.68v-10.527h6.738v1.406Z" fill="#fff"/></svg>