<svg fill="none" xmlns="http://www.w3.org/2000/svg" viewBox="0 0 541 47"><path d="M1.922 5.68h.328L6.984.727H8.75l-5.29 5.43L9.204 12h-1.86L2.25 6.805h-.328V12H.516V.727h1.406V5.68Zm14.85 5.304c-.693.776-1.638 1.164-2.836 1.164s-2.146-.388-2.844-1.164c-.693-.78-1.039-1.846-1.039-3.195 0-1.354.346-2.42 1.04-3.195.692-.776 1.64-1.164 2.843-1.164s2.151.388 2.844 1.164c.692.776 1.039 1.84 1.039 3.195 0 1.349-.35 2.414-1.047 3.195Zm-4.68-.867c.432.547 1.047.82 1.844.82.797 0 1.411-.273 1.844-.82.432-.552.648-1.328.648-2.328 0-1-.216-1.773-.648-2.32-.433-.552-1.047-.828-1.844-.828-.797 0-1.412.276-1.844.828-.432.547-.648 1.32-.648 2.32 0 1 .216 1.776.648 2.328ZM25.723 12V8.187H21.52V12h-1.343V3.578h1.343v3.485h4.203V3.578h1.344V12h-1.344Zm10.218-8.422v1.125h-2.735V12h-1.344V4.703h-2.734V3.578h6.813Zm6.162-.148c1.073 0 1.93.396 2.57 1.187.646.792.97 1.85.97 3.172 0 1.318-.324 2.375-.97 3.172-.645.792-1.502 1.187-2.57 1.187-.599 0-1.13-.122-1.594-.367a2.429 2.429 0 0 1-1.039-1.047h-.125v4.079h-1.343V3.578h1.28v1.406h.126c.27-.484.643-.864 1.117-1.14a3.106 3.106 0 0 1 1.578-.414Zm-.32 7.508c.77 0 1.375-.28 1.812-.836.438-.558.657-1.329.657-2.313 0-.984-.22-1.755-.657-2.312-.432-.558-1.033-.836-1.804-.836-.76 0-1.365.283-1.813.851-.448.563-.672 1.328-.672 2.297 0 .964.222 1.73.664 2.297.448.568 1.052.851 1.813.851Zm8.826.03c.693 0 1.266-.2 1.72-.6a1.92 1.92 0 0 0 .687-1.509v-.773l-2.266.148c-.635.042-1.102.175-1.398.399-.297.224-.446.55-.446.976 0 .422.16.756.477 1 .317.24.726.36 1.226.36Zm-.25 1.18c-.828 0-1.51-.226-2.047-.68-.53-.458-.796-1.067-.796-1.827 0-.75.265-1.339.797-1.766.53-.427 1.289-.67 2.273-.727L53.016 7v-.766c0-.52-.162-.919-.485-1.195-.323-.276-.797-.414-1.422-.414-.505 0-.924.091-1.257.273-.334.183-.547.44-.641.774h-1.36c.09-.672.435-1.214 1.04-1.625.609-.412 1.364-.617 2.265-.617 1.021 0 1.81.247 2.367.742.558.495.836 1.182.836 2.062V12h-1.28v-1.242h-.126a2.77 2.77 0 0 1-1.078 1.031c-.448.24-.953.36-1.516.36Zm14.811 2.079h-1.265V12h-6.813V3.578h1.344v7.297h4.047V3.578h1.344v7.297h1.343v3.352Zm5.233-9.61c-.672 0-1.224.227-1.656.68-.432.453-.675 1.052-.727 1.797h4.64c-.015-.745-.228-1.344-.64-1.797-.411-.453-.95-.68-1.617-.68Zm2.219 5.203h1.344a2.92 2.92 0 0 1-1.243 1.711c-.62.412-1.388.617-2.304.617-1.167 0-2.091-.39-2.774-1.171-.682-.787-1.023-1.847-1.023-3.18 0-1.328.344-2.388 1.031-3.18.688-.791 1.61-1.187 2.766-1.187 1.135 0 2.028.377 2.68 1.132.65.756.976 1.79.976 3.102v.516H68.02v.062c.037.834.271 1.495.703 1.985.438.49 1.014.734 1.727.734 1.088 0 1.813-.38 2.172-1.14Zm9.28 2.18V4.703h-4.125V12h-1.344V3.578h6.812V12h-1.343Zm10.217-8.422v1.125h-2.735V12h-1.343V4.703h-2.735V3.578h6.813ZM95.523 12H94.18V3.578h1.343V9.86h.125l4.196-6.28h1.344V12h-1.344V5.719h-.125L95.523 12Zm11.843-7.297h-2.055v2.375h1.836c1.057 0 1.586-.4 1.586-1.203 0-.365-.115-.651-.344-.86-.224-.208-.565-.312-1.023-.312Zm-.102 3.5h-1.953v2.672h2.211c.515 0 .906-.112 1.172-.336.271-.23.406-.557.406-.984 0-.464-.154-.805-.461-1.024-.302-.219-.76-.328-1.375-.328ZM103.967 12V3.578h3.57c.787 0 1.404.195 1.852.586.448.385.672.909.672 1.57 0 .417-.133.797-.399 1.141-.26.339-.585.55-.976.633v.125c.531.073.956.289 1.273.648.318.354.477.787.477 1.297 0 .74-.255 1.328-.766 1.766-.51.437-1.216.656-2.117.656h-3.586Zm14.413 0V8.187h-4.203V12h-1.344V3.578h1.344v3.485h4.203V3.578h1.343V12h-1.343Zm10.42-1.016c-.693.776-1.638 1.164-2.836 1.164s-2.146-.388-2.844-1.164c-.692-.78-1.039-1.846-1.039-3.195 0-1.354.347-2.42 1.039-3.195.693-.776 1.641-1.164 2.844-1.164 1.203 0 2.151.388 2.844 1.164.693.776 1.039 1.84 1.039 3.195 0 1.349-.349 2.414-1.047 3.195Zm-4.68-.867c.433.547 1.047.82 1.844.82.797 0 1.412-.273 1.844-.82.432-.552.648-1.328.648-2.328 0-1-.216-1.773-.648-2.32-.432-.552-1.047-.828-1.844-.828-.797 0-1.411.276-1.844.828-.432.547-.648 1.32-.648 2.32 0 1 .216 1.776.648 2.328Zm11.452-5.5c-.672 0-1.224.227-1.656.68-.433.453-.675 1.052-.727 1.797h4.641c-.016-.745-.229-1.344-.641-1.797-.411-.453-.95-.68-1.617-.68Zm2.219 5.203h1.343a2.92 2.92 0 0 1-1.242 1.711c-.62.412-1.388.617-2.305.617-1.166 0-2.091-.39-2.773-1.171-.682-.787-1.023-1.847-1.023-3.18 0-1.328.343-2.388 1.031-3.18.687-.791 1.609-1.187 2.765-1.187 1.136 0 2.029.377 2.68 1.132.651.756.977 1.79.977 3.102v.516h-6.055v.062c.037.834.271 1.495.703 1.985.438.49 1.013.734 1.727.734 1.088 0 1.812-.38 2.172-1.14Zm15.403-3.664h-1.36a1.914 1.914 0 0 0-.742-1.086c-.375-.286-.851-.43-1.429-.43-.756 0-1.357.282-1.805.844-.443.563-.664 1.32-.664 2.274 0 .969.224 1.742.672 2.32.448.573 1.047.86 1.797.86.567 0 1.039-.128 1.414-.383.38-.255.632-.62.757-1.094h1.36a3.019 3.019 0 0 1-1.117 1.945c-.62.495-1.422.742-2.407.742-1.182 0-2.122-.395-2.82-1.187-.698-.797-1.047-1.865-1.047-3.203 0-1.313.349-2.362 1.047-3.149.698-.786 1.635-1.18 2.813-1.18.984 0 1.786.259 2.406.774.625.516 1 1.167 1.125 1.953Zm6.334-2.726c1.073 0 1.93.396 2.57 1.187.646.792.969 1.85.969 3.172 0 1.318-.323 2.375-.969 3.172-.645.792-1.502 1.187-2.57 1.187-.599 0-1.13-.122-1.594-.367a2.43 2.43 0 0 1-1.039-1.047h-.125v4.079h-1.343V3.578h1.281v1.406h.125a2.976 2.976 0 0 1 1.117-1.14 3.104 3.104 0 0 1 1.578-.414Zm-.32 7.508c.771 0 1.375-.28 1.812-.836.438-.558.657-1.329.657-2.313 0-.984-.219-1.755-.657-2.312-.432-.558-1.034-.836-1.804-.836-.761 0-1.365.283-1.813.851-.448.563-.672 1.328-.672 2.297 0 .964.222 1.73.664 2.297.448.568 1.052.851 1.813.851Zm9.592-6.32c-.672 0-1.224.226-1.656.679-.433.453-.675 1.052-.727 1.797h4.641c-.016-.745-.229-1.344-.641-1.797-.411-.453-.95-.68-1.617-.68Zm2.219 5.202h1.344c-.204.73-.618 1.3-1.243 1.711-.619.412-1.388.617-2.304.617-1.167 0-2.092-.39-2.774-1.171-.682-.787-1.023-1.847-1.023-3.18 0-1.328.344-2.388 1.031-3.18.688-.791 1.609-1.187 2.766-1.187 1.135 0 2.028.377 2.679 1.132.651.756.977 1.79.977 3.102v.516h-6.055v.062c.037.834.271 1.495.703 1.985.438.49 1.013.734 1.727.734 1.088 0 1.812-.38 2.172-1.14Zm9.092 1.055V4.703h-3.195l-.266 3.602c-.089 1.135-.32 1.95-.695 2.445v.125h4.156Zm-5.164 3.352h-1.266v-3.352h.703c.292-.193.521-.52.688-.984a6.026 6.026 0 0 0 .312-1.618l.328-4.695h5.743v7.297h1.343v3.352h-1.265V12h-6.586v2.227Zm16.694-8.07h-1.36a1.914 1.914 0 0 0-.742-1.087c-.375-.286-.851-.43-1.43-.43-.755 0-1.356.282-1.804.844-.443.563-.664 1.32-.664 2.274 0 .969.224 1.742.671 2.32.448.573 1.047.86 1.797.86.568 0 1.039-.128 1.414-.383.381-.255.633-.62.758-1.094h1.36a3.016 3.016 0 0 1-1.118 1.945c-.619.495-1.421.742-2.406.742-1.182 0-2.122-.395-2.82-1.187-.698-.797-1.047-1.865-1.047-3.203 0-1.313.349-2.362 1.047-3.149.698-.786 1.635-1.18 2.812-1.18.985 0 1.787.259 2.407.774.625.516 1 1.167 1.125 1.953Zm7.943-2.579v1.125h-2.734V12h-1.344V4.703h-2.734V3.578h6.812Zm5.46 1.125h-2.055v2.375h1.836c1.057 0 1.586-.4 1.586-1.203 0-.365-.115-.651-.344-.86-.224-.208-.565-.312-1.023-.312Zm-.102 3.5h-1.953v2.672h2.211c.516 0 .906-.112 1.172-.336.271-.23.406-.557.406-.984 0-.464-.154-.805-.461-1.024-.302-.219-.76-.328-1.375-.328ZM201.645 12V3.578h3.571c.786 0 1.403.195 1.851.586.448.385.672.909.672 1.57 0 .417-.133.797-.398 1.141-.261.339-.586.55-.977.633v.125c.531.073.956.289 1.273.648.318.354.477.787.477 1.297 0 .74-.255 1.328-.766 1.766-.51.437-1.216.656-2.117.656h-3.586Zm15.093-1.016c-.693.776-1.639 1.164-2.836 1.164-1.198 0-2.146-.388-2.844-1.164-.693-.78-1.039-1.846-1.039-3.195 0-1.354.346-2.42 1.039-3.195.693-.776 1.64-1.164 2.844-1.164 1.203 0 2.151.388 2.843 1.164.693.776 1.039 1.84 1.039 3.195 0 1.349-.349 2.414-1.046 3.195Zm-4.68-.867c.432.547 1.047.82 1.844.82.796 0 1.411-.273 1.843-.82.433-.552.649-1.328.649-2.328 0-1-.216-1.773-.649-2.32-.432-.552-1.047-.828-1.843-.828-.797 0-1.412.276-1.844.828-.432.547-.649 1.32-.649 2.32 0 1 .217 1.776.649 2.328Zm14.411-1.953h-.367V12h-1.344V3.578h1.344v3.524h.367l3.336-3.524h1.633l-3.86 3.969L231.586 12h-1.742l-3.375-3.836Zm13.006 2.82c-.693.776-1.638 1.164-2.836 1.164s-2.146-.388-2.844-1.164c-.692-.78-1.039-1.846-1.039-3.195 0-1.354.347-2.42 1.039-3.195.693-.776 1.641-1.164 2.844-1.164 1.203 0 2.151.388 2.844 1.164.693.776 1.039 1.84 1.039 3.195 0 1.349-.349 2.414-1.047 3.195Zm-4.68-.867c.433.547 1.047.82 1.844.82.797 0 1.412-.273 1.844-.82.432-.552.648-1.328.648-2.328 0-1-.216-1.773-.648-2.32-.432-.552-1.047-.828-1.844-.828-.797 0-1.411.276-1.844.828-.432.547-.648 1.32-.648 2.32 0 1 .216 1.776.648 2.328ZM244.223 12h-1.343V3.578h1.632l3.016 6.531h.125l3.024-6.53h1.57V12h-1.352V6.008h-.148l-2.664 5.758h-1.047l-2.664-5.758h-.149V12Zm12.436-1.867c.443.536 1.068.805 1.875.805.808 0 1.43-.269 1.868-.805.442-.537.664-1.292.664-2.266 0-.927-.222-1.643-.664-2.148-.438-.51-1.06-.766-1.868-.766-.807 0-1.432.255-1.875.766-.437.505-.656 1.221-.656 2.148 0 .974.219 1.73.656 2.266Zm-.898-4.828h.125a3.051 3.051 0 0 1 1.125-1.133c.479-.281 1.055-.422 1.727-.422 1.119 0 2.018.37 2.695 1.11.682.734 1.023 1.736 1.023 3.007 0 1.328-.351 2.375-1.054 3.14-.698.761-1.654 1.141-2.868 1.141-1.265 0-2.237-.421-2.914-1.265-.672-.85-1.007-2.123-1.007-3.82 0-.808.039-1.521.117-2.141.083-.62.221-1.195.414-1.727.198-.536.455-.979.773-1.328a3.345 3.345 0 0 1 1.211-.828c.495-.208 1.073-.328 1.735-.36l.843-.038a7.925 7.925 0 0 0 1.93-.344c.167-.063.255-.1.266-.11v1.204a1.703 1.703 0 0 1-.18.125c-.083.046-.307.117-.672.21a6.691 6.691 0 0 1-1.281.165l-.86.039c-.552.026-1.018.117-1.398.273-.38.151-.688.378-.922.68a3.382 3.382 0 0 0-.539 1.023c-.125.38-.221.847-.289 1.399ZM266.158 12h-1.344V3.578h1.344V9.86h.125l4.195-6.28h1.344V12h-1.344V5.719h-.125L266.158 12Zm13.99 0V8.187h-4.203V12h-1.343V3.578h1.343v3.485h4.203V3.578h1.344V12h-1.344Zm5.46 0h-1.344V3.578h1.344V9.86h.125l4.195-6.28h1.344V12h-1.344V5.719h-.125L285.608 12Zm12.545-8.57c1.073 0 1.93.396 2.57 1.187.646.792.969 1.85.969 3.172 0 1.318-.323 2.375-.969 3.172-.645.792-1.502 1.187-2.57 1.187-.599 0-1.13-.122-1.594-.367a2.43 2.43 0 0 1-1.039-1.047h-.125v4.079h-1.343V3.578h1.281v1.406h.125a2.976 2.976 0 0 1 1.117-1.14 3.104 3.104 0 0 1 1.578-.414Zm-.32 7.508c.771 0 1.375-.28 1.812-.836.438-.558.657-1.329.657-2.313 0-.984-.219-1.755-.657-2.312-.432-.558-1.034-.836-1.804-.836-.761 0-1.365.283-1.813.851-.448.563-.672 1.328-.672 2.297 0 .964.222 1.73.664 2.297.448.568 1.052.851 1.813.851Zm12.529.046c-.692.776-1.638 1.164-2.835 1.164-1.198 0-2.146-.388-2.844-1.164-.693-.78-1.039-1.846-1.039-3.195 0-1.354.346-2.42 1.039-3.195.693-.776 1.64-1.164 2.844-1.164 1.203 0 2.151.388 2.843 1.164.693.776 1.039 1.84 1.039 3.195 0 1.349-.349 2.414-1.047 3.195Zm-4.679-.867c.432.547 1.047.82 1.844.82.796 0 1.411-.273 1.843-.82.433-.552.649-1.328.649-2.328 0-1-.216-1.773-.649-2.32-.432-.552-1.047-.828-1.843-.828-.797 0-1.412.276-1.844.828-.432.547-.649 1.32-.649 2.32 0 1 .217 1.776.649 2.328Zm11.483-5.414h-2.055v2.375h1.836c1.057 0 1.586-.4 1.586-1.203 0-.365-.115-.651-.344-.86-.224-.208-.565-.312-1.023-.312Zm-.102 3.5h-1.953v2.672h2.211c.515 0 .906-.112 1.172-.336.271-.23.406-.557.406-.984 0-.464-.154-.805-.461-1.024-.302-.219-.76-.328-1.375-.328ZM313.767 12V3.578h3.57c.787 0 1.404.195 1.852.586.448.385.672.909.672 1.57 0 .417-.133.797-.399 1.141-.26.339-.585.55-.976.633v.125c.531.073.956.289 1.273.648.318.354.477.787.477 1.297 0 .74-.255 1.328-.766 1.766-.51.437-1.216.656-2.117.656h-3.586Zm11.467-1.031c.693 0 1.266-.2 1.719-.602.458-.4.688-.903.688-1.508v-.773l-2.266.148c-.635.042-1.102.175-1.398.399-.297.224-.446.55-.446.976 0 .422.159.756.477 1 .318.24.726.36 1.226.36Zm-.25 1.18c-.828 0-1.51-.227-2.046-.68-.532-.459-.797-1.068-.797-1.828 0-.75.265-1.339.797-1.766.531-.427 1.289-.67 2.273-.727l2.43-.148v-.766c0-.52-.162-.919-.485-1.195-.323-.276-.797-.414-1.422-.414-.505 0-.924.091-1.257.273-.334.183-.547.44-.641.774h-1.359c.088-.672.434-1.214 1.039-1.625.609-.412 1.364-.617 2.265-.617 1.021 0 1.81.247 2.367.742.558.495.836 1.182.836 2.062V12h-1.281v-1.242h-.125a2.77 2.77 0 0 1-1.078 1.031c-.448.24-.953.36-1.516.36Zm12.28-.149V8.187h-4.203V12h-1.344V3.578h1.344v3.485h4.203V3.578h1.344V12h-1.344Zm9.663 0V8.187h-4.204V12h-1.343V3.578h1.343v3.485h4.204V3.578h1.343V12h-1.343Zm10.42-1.016c-.693.776-1.638 1.164-2.836 1.164s-2.146-.388-2.844-1.164c-.693-.78-1.039-1.846-1.039-3.195 0-1.354.346-2.42 1.039-3.195.693-.776 1.641-1.164 2.844-1.164 1.203 0 2.151.388 2.844 1.164.692.776 1.039 1.84 1.039 3.195 0 1.349-.349 2.414-1.047 3.195Zm-4.68-.867c.432.547 1.047.82 1.844.82.797 0 1.411-.273 1.844-.82.432-.552.648-1.328.648-2.328 0-1-.216-1.773-.648-2.32-.433-.552-1.047-.828-1.844-.828-.797 0-1.412.276-1.844.828-.432.547-.648 1.32-.648 2.32 0 1 .216 1.776.648 2.328Zm11.452-5.5c-.672 0-1.224.227-1.657.68-.432.453-.674 1.052-.726 1.797h4.641c-.016-.745-.23-1.344-.641-1.797-.412-.453-.951-.68-1.617-.68Zm2.218 5.203h1.344a2.92 2.92 0 0 1-1.242 1.711c-.62.412-1.388.617-2.305.617-1.166 0-2.091-.39-2.773-1.171-.682-.787-1.024-1.847-1.024-3.18 0-1.328.344-2.388 1.032-3.18.687-.791 1.609-1.187 2.765-1.187 1.136 0 2.029.377 2.68 1.132.651.756.977 1.79.977 3.102v.516h-6.055v.062c.036.834.271 1.495.703 1.985.438.49 1.013.734 1.727.734 1.088 0 1.812-.38 2.171-1.14Zm11.786 4.344h-1.187c-.672-.838-1.193-1.854-1.563-3.047a13.017 13.017 0 0 1-.546-3.805c0-1.333.171-2.515.515-3.546.344-1.037.901-2.047 1.672-3.032h1.133c-.568.667-1.034 1.615-1.399 2.844a13.257 13.257 0 0 0-.539 3.735c0 1.218.151 2.375.454 3.468.307 1.089.794 2.216 1.46 3.383Zm3.311-4.71c.125.473.378.838.758 1.093s.86.383 1.438.383c.703 0 1.281-.248 1.734-.742.453-.495.708-1.154.766-1.977h-3.922V7.086h3.898c-.078-.745-.343-1.339-.797-1.781-.453-.443-1.013-.664-1.679-.664-.589 0-1.073.143-1.453.43a1.915 1.915 0 0 0-.743 1.085h-1.359c.125-.786.5-1.437 1.125-1.953.63-.516 1.44-.773 2.43-.773 1.182 0 2.127.393 2.836 1.18.708.786 1.062 1.835 1.062 3.148 0 1.338-.357 2.404-1.07 3.195-.709.792-1.654 1.188-2.836 1.188-.99 0-1.797-.248-2.422-.743-.625-.5-1-1.148-1.125-1.945h1.359Zm15.428-3.298h-1.359a1.914 1.914 0 0 0-.742-1.086c-.375-.286-.852-.43-1.43-.43-.755 0-1.357.282-1.804.844-.443.563-.665 1.32-.665 2.274 0 .969.224 1.742.672 2.32.448.573 1.047.86 1.797.86.568 0 1.039-.128 1.414-.383.381-.255.633-.62.758-1.094h1.359a3.015 3.015 0 0 1-1.117 1.945c-.619.495-1.422.742-2.406.742-1.182 0-2.122-.395-2.82-1.187-.698-.797-1.047-1.865-1.047-3.203 0-1.313.349-2.362 1.047-3.149.698-.786 1.635-1.18 2.812-1.18.985 0 1.787.259 2.406.774.625.516 1 1.167 1.125 1.953Zm7.944-2.578v1.125h-2.734V12h-1.344V4.703h-2.734V3.578h6.812Zm6.163-.148c1.073 0 1.929.396 2.57 1.187.646.792.969 1.85.969 3.172 0 1.318-.323 2.375-.969 3.172-.646.792-1.503 1.187-2.57 1.187-.599 0-1.13-.122-1.594-.367a2.425 2.425 0 0 1-1.039-1.047h-.125v4.079h-1.344V3.578h1.281v1.406h.125a2.978 2.978 0 0 1 1.118-1.14 3.104 3.104 0 0 1 1.578-.414Zm-.321 7.508c.771 0 1.375-.28 1.813-.836.437-.558.656-1.329.656-2.313 0-.984-.219-1.755-.656-2.312-.432-.558-1.034-.836-1.805-.836-.76 0-1.364.283-1.812.851-.448.563-.672 1.328-.672 2.297 0 .964.221 1.73.664 2.297.448.568 1.052.851 1.812.851Zm12.53.046c-.693.776-1.638 1.164-2.836 1.164s-2.146-.388-2.844-1.164c-.692-.78-1.039-1.846-1.039-3.195 0-1.354.347-2.42 1.039-3.195.693-.776 1.641-1.164 2.844-1.164 1.203 0 2.151.388 2.844 1.164.693.776 1.039 1.84 1.039 3.195 0 1.349-.349 2.414-1.047 3.195Zm-4.68-.867c.433.547 1.047.82 1.844.82.797 0 1.412-.273 1.844-.82.432-.552.648-1.328.648-2.328 0-1-.216-1.773-.648-2.32-.432-.552-1.047-.828-1.844-.828-.797 0-1.411.276-1.844.828-.432.547-.648 1.32-.648 2.32 0 1 .216 1.776.648 2.328Zm13.475-5.414h-4.046V12h-1.344V3.578h5.39v1.125Zm5.28-.086c-.672 0-1.224.227-1.656.68-.432.453-.675 1.052-.727 1.797h4.641c-.016-.745-.229-1.344-.641-1.797-.411-.453-.95-.68-1.617-.68Zm2.219 5.203h1.344c-.204.73-.618 1.3-1.243 1.711-.619.412-1.388.617-2.304.617-1.167 0-2.091-.39-2.774-1.171-.682-.787-1.023-1.847-1.023-3.18 0-1.328.344-2.388 1.031-3.18.688-.791 1.609-1.187 2.766-1.187 1.135 0 2.028.377 2.679 1.132.651.756.977 1.79.977 3.102v.516h-6.055v.062c.037.834.271 1.495.703 1.985.438.49 1.013.734 1.727.734 1.089 0 1.812-.38 2.172-1.14ZM448.83 12V8.187h-4.203V12h-1.344V3.578h1.344v3.485h4.203V3.578h1.343V12h-1.343Zm8.545-3.953v3.398h-1.156V8.047h-3.399V6.89h3.399V3.492h1.156v3.399h3.398v1.156h-3.398Zm11.436-3.344h-4.047V12h-1.344V3.578h5.391v1.125Zm5.28-.086c-.672 0-1.224.227-1.657.68-.432.453-.674 1.052-.726 1.797h4.64c-.015-.745-.229-1.344-.64-1.797-.412-.453-.951-.68-1.617-.68Zm2.218 5.203h1.344a2.92 2.92 0 0 1-1.242 1.711c-.62.412-1.388.617-2.305.617-1.166 0-2.091-.39-2.773-1.171-.682-.787-1.024-1.847-1.024-3.18 0-1.328.344-2.388 1.032-3.18.687-.791 1.609-1.187 2.765-1.187 1.136 0 2.029.377 2.68 1.132.651.756.977 1.79.977 3.102v.516h-6.055v.062c.036.834.271 1.495.703 1.985.437.49 1.013.734 1.727.734 1.088 0 1.812-.38 2.171-1.14Zm10.788-3.664h-1.36a1.91 1.91 0 0 0-.742-1.086c-.375-.286-.851-.43-1.429-.43-.756 0-1.357.282-1.805.844-.443.563-.664 1.32-.664 2.274 0 .969.224 1.742.672 2.32.448.573 1.047.86 1.797.86.567 0 1.039-.128 1.414-.383.38-.255.632-.62.757-1.094h1.36a3.019 3.019 0 0 1-1.117 1.945c-.62.495-1.422.742-2.407.742-1.182 0-2.122-.395-2.82-1.187-.698-.797-1.047-1.865-1.047-3.203 0-1.313.349-2.362 1.047-3.149.698-.786 1.636-1.18 2.813-1.18.984 0 1.786.259 2.406.774.625.516 1 1.167 1.125 1.953Zm7.944-2.578v1.125h-2.735V12h-1.344V4.703h-2.734V3.578h6.813Zm4.537 7.39c.693 0 1.266-.2 1.719-.6a1.92 1.92 0 0 0 .687-1.509v-.773l-2.265.148c-.636.042-1.102.175-1.399.399-.297.224-.445.55-.445.976 0 .422.159.756.477 1 .317.24.726.36 1.226.36Zm-.25 1.18c-.828 0-1.51-.226-2.047-.68-.531-.458-.797-1.067-.797-1.827 0-.75.266-1.339.797-1.766.531-.427 1.289-.67 2.274-.727L501.984 7v-.766c0-.52-.161-.919-.484-1.195-.323-.276-.797-.414-1.422-.414-.505 0-.924.091-1.258.273-.333.183-.547.44-.64.774h-1.36c.089-.672.435-1.214 1.039-1.625.61-.412 1.365-.617 2.266-.617 1.021 0 1.81.247 2.367.742.557.495.836 1.182.836 2.062V12h-1.281v-1.242h-.125a2.77 2.77 0 0 1-1.078 1.031c-.448.24-.953.36-1.516.36Zm12.124-7.445h-4.047V12h-1.344V3.578h5.391v1.125Zm5.279-.086c-.672 0-1.224.227-1.656.68-.432.453-.674 1.052-.727 1.797h4.641c-.016-.745-.229-1.344-.641-1.797-.411-.453-.95-.68-1.617-.68Zm2.219 5.203h1.344a2.92 2.92 0 0 1-1.242 1.711c-.62.412-1.388.617-2.305.617-1.167 0-2.091-.39-2.774-1.171-.682-.787-1.023-1.847-1.023-3.18 0-1.328.344-2.388 1.031-3.18.688-.791 1.61-1.187 2.766-1.187 1.135 0 2.029.377 2.68 1.132.651.756.976 1.79.976 3.102v.516h-6.055v.062c.037.834.271 1.495.704 1.985.437.49 1.013.734 1.726.734 1.089 0 1.813-.38 2.172-1.14Zm9.358 2.18V8.187h-4.203V12h-1.344V3.578h1.344v3.485h4.203V3.578h1.344V12h-1.344Zm3.764 2.164c.667-1.167 1.151-2.294 1.453-3.383.307-1.094.461-2.25.461-3.469 0-1.27-.18-2.518-.539-3.742-.359-1.229-.823-2.174-1.391-2.836h1.141c.771.985 1.325 1.993 1.664 3.024.344 1.031.516 2.216.516 3.554 0 1.334-.185 2.597-.555 3.79-.365 1.192-.883 2.213-1.555 3.062h-1.195Zm7.178-2.086a.996.996 0 0 1-.719-.297.996.996 0 0 1-.297-.719c0-.28.099-.52.297-.718a.996.996 0 0 1 .719-.297.98.98 0 0 1 .719.297.979.979 0 0 1 .297.719.996.996 0 0 1-.297.718.98.98 0 0 1-.719.297ZM3.756 35.895h.45l4.93-5.987h3.282l-5.723 6.895L12.81 44H9.244l-5.02-5.772h-.468V44H.806V29.908h2.95v5.986Zm16.887-6.348c2.083 0 3.73.664 4.941 1.992 1.218 1.328 1.826 3.132 1.826 5.41 0 2.285-.608 4.092-1.826 5.42-1.21 1.328-2.858 1.992-4.941 1.992-2.09 0-3.744-.664-4.961-1.992-1.217-1.328-1.826-3.135-1.826-5.42 0-2.278.612-4.082 1.836-5.41 1.224-1.328 2.874-1.992 4.951-1.992Zm2.734 3.896c-.677-.872-1.588-1.308-2.734-1.308s-2.06.436-2.744 1.308c-.684.866-1.026 2.035-1.026 3.506 0 1.472.339 2.643 1.016 3.516.684.872 1.602 1.308 2.754 1.308 1.146 0 2.057-.436 2.734-1.308.684-.873 1.026-2.044 1.026-3.516 0-1.471-.342-2.64-1.026-3.506Zm10.5 4.58c-.051.814-.143 1.482-.273 2.002-.13.521-.335.948-.615 1.28v.175h5.703v-9.062H34.25l-.371 5.605ZM31.467 44v2.783H28.79V41.48h.986c.469-.332.801-.777.996-1.337.196-.56.326-1.348.39-2.364l.49-7.87h9.99V41.48h1.757v5.302h-2.666V44h-9.267Zm28.832 0-1.064-3.36h-4.951L53.199 44h-2.96l4.893-14.092H58.6L63.492 44h-3.194Zm-3.613-11.162-1.767 5.527h3.691l-1.748-5.527h-.176ZM71.131 44h-2.95V32.428h-4.228v-2.52H75.36v2.52h-4.228V44Zm6.281 0 4.502-7.1-4.472-6.992h3.467l2.939 4.932h.176l2.969-4.932h3.3l-4.638 7.041L90.225 44h-3.36l-3.027-4.775h-.175L80.595 44h-3.184Zm18.655-.205c-.312.312-.729.469-1.25.469-.52 0-.94-.157-1.26-.47-.312-.318-.468-.728-.468-1.23 0-.494.156-.898.468-1.21.32-.32.74-.479 1.26-.479.521 0 .938.156 1.25.469.32.312.479.72.479 1.22 0 .502-.16.912-.479 1.23Zm0-7.207c-.312.312-.729.469-1.25.469-.52 0-.94-.157-1.26-.47-.312-.318-.468-.728-.468-1.23 0-.494.156-.898.468-1.21.32-.32.74-.479 1.26-.479.521 0 .938.156 1.25.469.32.312.479.72.479 1.22 0 .502-.16.912-.479 1.23Zm21.206 1.963c0 1.738-.547 3.138-1.641 4.199-1.093 1.055-2.542 1.582-4.345 1.582-1.947 0-3.5-.667-4.658-2.002-1.153-1.335-1.729-3.128-1.729-5.38 0-2.227.583-4.011 1.748-5.352 1.165-1.348 2.712-2.022 4.639-2.022 1.562 0 2.871.407 3.926 1.22 1.061.815 1.718 1.918 1.972 3.311h-1.787c-.306-.95-.807-1.673-1.504-2.168-.696-.494-1.566-.742-2.607-.742-1.394 0-2.507.521-3.34 1.563-.827 1.041-1.24 2.438-1.24 4.19 0 1.777.41 3.183 1.23 4.218.827 1.029 1.947 1.543 3.359 1.543 1.264 0 2.282-.368 3.057-1.104.781-.735 1.172-1.699 1.172-2.89v-.342h-3.965v-1.543h5.713v1.719ZM125 44.332c-1.589 0-2.819-.645-3.691-1.934-.873-1.289-1.309-3.105-1.309-5.449 0-2.324.439-4.134 1.318-5.43.879-1.295 2.106-1.943 3.682-1.943 1.569 0 2.79.651 3.662 1.953.879 1.302 1.318 3.119 1.318 5.45 0 2.337-.436 4.147-1.308 5.43-.866 1.282-2.09 1.923-3.672 1.923Zm-2.402-3.047c.56 1.01 1.36 1.514 2.402 1.514s1.836-.502 2.383-1.504c.553-1.01.83-2.458.83-4.346 0-1.868-.28-3.307-.84-4.316-.553-1.01-1.344-1.514-2.373-1.514-1.029 0-1.826.508-2.393 1.524-.559 1.009-.839 2.444-.839 4.306 0 1.882.276 3.327.83 4.336Zm13.244-3.78v-1.503h1.709c.801 0 1.455-.234 1.963-.703.514-.469.772-1.068.772-1.797 0-.716-.248-1.292-.743-1.729-.494-.442-1.149-.664-1.963-.664-.813 0-1.471.215-1.972.645-.501.423-.788 1.012-.86 1.768h-1.709c.092-1.224.547-2.188 1.368-2.891.82-.703 1.901-1.055 3.242-1.055.807 0 1.549.166 2.226.498.684.326 1.221.772 1.612 1.338.39.567.586 1.185.586 1.856 0 .84-.218 1.55-.655 2.129-.436.579-1.041.963-1.816 1.152v.156c.957.124 1.709.498 2.256 1.123.547.619.82 1.41.82 2.373 0 1.159-.478 2.139-1.435 2.94-.957.794-2.133 1.191-3.526 1.191-1.432 0-2.601-.365-3.506-1.094-.905-.735-1.39-1.705-1.455-2.91h1.699c.079.749.411 1.348.997 1.797.586.45 1.334.674 2.246.674.924 0 1.683-.248 2.275-.742.599-.495.898-1.13.898-1.905 0-.813-.289-1.458-.869-1.933-.579-.476-1.37-.713-2.373-.713h-1.787ZM154.887 44l-1.416-4.033h-5.605L146.45 44h-1.846l5.196-14.092h1.738L156.733 44h-1.846Zm-4.296-11.816-2.207 6.289h4.57l-2.207-6.29h-.156ZM168.464 44l-1.416-4.033h-5.605L160.027 44h-1.846l5.195-14.092h1.738L170.31 44h-1.846Zm-4.297-11.816-2.207 6.289h4.57l-2.207-6.29h-.156ZM175.341 44V31.861h-.156l-3.584 2.598v-1.856l3.75-2.695h1.748V44h-1.758Zm12.503 0v-2.92h-6.865v-1.602c1.289-2.291 3.3-5.481 6.035-9.57h2.548v9.6h2.002v1.572h-2.002V44h-1.718Zm-5.069-4.6v.118h5.079v-7.979h-.118c-1.523 2.214-3.177 4.834-4.961 7.861Z" fill="#fff"/></svg>