<svg fill="none" xmlns="http://www.w3.org/2000/svg" viewBox="0 0 711 112"><path d="M6.258.46c1.599 0 2.857.532 3.773 1.595.922 1.057 1.383 2.492 1.383 4.304 0 1.813-.46 3.25-1.383 4.313-.916 1.062-2.174 1.594-3.773 1.594-1.61 0-2.875-.532-3.797-1.594-.922-1.063-1.383-2.5-1.383-4.313 0-1.812.464-3.247 1.39-4.304C3.402.992 4.665.46 6.259.46Zm0 1.298c-1.146 0-2.055.414-2.727 1.242-.672.828-1.008 1.948-1.008 3.36 0 1.41.331 2.533.993 3.367.666.828 1.58 1.242 2.742 1.242 1.15 0 2.057-.417 2.719-1.25.661-.834.992-1.953.992-3.36 0-1.416-.331-2.536-.992-3.359-.662-.828-1.568-1.242-2.72-1.242ZM18.858.46c1.599 0 2.857.531 3.773 1.594.922 1.057 1.383 2.492 1.383 4.304 0 1.813-.46 3.25-1.383 4.313-.916 1.062-2.174 1.594-3.773 1.594-1.61 0-2.875-.532-3.797-1.594-.922-1.063-1.383-2.5-1.383-4.313 0-1.812.464-3.247 1.39-4.304C16.002.992 17.265.46 18.859.46Zm0 1.297c-1.146 0-2.055.414-2.727 1.242-.672.828-1.008 1.948-1.008 3.36 0 1.41.331 2.533.993 3.367.666.828 1.58 1.242 2.742 1.242 1.15 0 2.057-.417 2.719-1.25.661-.834.992-1.953.992-3.36 0-1.416-.331-2.536-.992-3.359-.662-.828-1.568-1.242-2.72-1.242ZM31.458.46c1.599 0 2.857.531 3.773 1.594.922 1.057 1.383 2.492 1.383 4.304 0 1.813-.46 3.25-1.383 4.313-.916 1.062-2.174 1.594-3.773 1.594-1.61 0-2.875-.532-3.797-1.594-.922-1.063-1.383-2.5-1.383-4.313 0-1.812.464-3.247 1.39-4.304C28.602.992 29.865.46 31.459.46Zm0 1.297c-1.146 0-2.055.414-2.727 1.242-.672.828-1.008 1.948-1.008 3.36 0 1.41.331 2.533.993 3.367.666.828 1.58 1.242 2.742 1.242 1.15 0 2.057-.417 2.719-1.25.661-.834.992-1.953.992-3.36 0-1.416-.331-2.536-.992-3.359-.662-.828-1.568-1.242-2.72-1.242ZM45.4 7.523v.125l2.742 3.22h-1.594l-2.734-3.25v-.063l2.734-3.25h1.594L45.4 7.523Zm3.742 0v.125l2.742 3.22h-1.601l-2.735-3.25v-.063l2.743-3.25h1.593l-2.742 3.218ZM66.016 12h-1.313V3.39h-.094l-3.554 8.532h-1.188L56.313 3.39h-.094V12h-1.313V.727h1.633l3.86 9.328h.124l3.86-9.328h1.633V12Zm7.67.266c-1.531 0-2.745-.529-3.64-1.586-.891-1.058-1.337-2.495-1.337-4.313 0-1.818.446-3.255 1.336-4.312C70.935.992 72.147.46 73.678.46c1.188 0 2.203.338 3.047 1.016.844.677 1.349 1.56 1.516 2.648h-1.43c-.188-.73-.563-1.305-1.125-1.727-.563-.427-1.232-.64-2.008-.64-1.083 0-1.943.414-2.578 1.242-.63.828-.945 1.95-.945 3.367s.317 2.54.953 3.367c.635.823 1.495 1.235 2.578 1.235.786 0 1.458-.188 2.016-.563.562-.38.932-.896 1.109-1.547h1.43c-.188 1.037-.696 1.865-1.524 2.485-.823.614-1.833.922-3.031.922Zm9.178-4.414c-.042.692-.12 1.252-.234 1.68-.11.426-.295.796-.555 1.109v.093h5.469V1.992H83.23l-.367 5.86ZM80.802 12v2.227h-1.305v-3.493h.836c.39-.208.677-.55.86-1.023.187-.48.304-1.11.35-1.89l.43-7.094h6.977v10.007h1.406v3.493h-1.304V12h-8.25Zm20.762-2.281v-6.79c-1.088.042-1.956.365-2.601.97-.641.598-.961 1.406-.961 2.421 0 1.016.317 1.828.953 2.438.64.604 1.51.924 2.609.96Zm3.984-.961c.641-.604.961-1.414.961-2.43 0-1.016-.32-1.825-.961-2.43-.635-.609-1.5-.932-2.593-.968v6.789c1.088-.042 1.953-.362 2.593-.961Zm-3.984 2.219c-1.51-.037-2.719-.47-3.625-1.297-.906-.834-1.36-1.953-1.36-3.36 0-1.406.454-2.52 1.36-3.343.912-.829 2.12-1.263 3.625-1.305V.57h1.391v1.102c1.51.036 2.716.471 3.617 1.305.906.828 1.359 1.945 1.359 3.351s-.455 2.524-1.367 3.352c-.906.823-2.109 1.255-3.609 1.297v1.18h-1.391v-1.18Zm11.374-.008c.692 0 1.265-.2 1.718-.602.459-.4.688-.903.688-1.508v-.773l-2.266.148c-.635.042-1.101.175-1.398.399-.297.224-.446.55-.446.976 0 .422.159.756.477 1 .318.24.727.36 1.227.36Zm-.25 1.18c-.829 0-1.511-.227-2.047-.68-.532-.459-.797-1.068-.797-1.828 0-.75.265-1.339.797-1.766.531-.427 1.289-.67 2.273-.727l2.43-.148v-.766c0-.52-.162-.919-.485-1.195-.323-.276-.797-.414-1.421-.414-.506 0-.925.091-1.258.273-.334.183-.547.44-.641.774h-1.359c.088-.672.435-1.214 1.039-1.625.609-.412 1.364-.617 2.265-.617 1.021 0 1.81.247 2.368.742.557.495.836 1.182.836 2.062V12h-1.282v-1.242h-.125a2.77 2.77 0 0 1-1.078 1.031c-.448.24-.953.36-1.515.36Zm10.834-8.72c1.073 0 1.93.397 2.57 1.188.646.792.969 1.85.969 3.172 0 1.318-.323 2.375-.969 3.172-.646.792-1.502 1.187-2.57 1.187-.599 0-1.13-.122-1.594-.367a2.43 2.43 0 0 1-1.039-1.047h-.125v4.079h-1.344V3.578h1.282v1.406h.125c.27-.484.643-.864 1.117-1.14a3.104 3.104 0 0 1 1.578-.414Zm-.32 7.508c.77 0 1.375-.278 1.812-.835.438-.558.656-1.329.656-2.313 0-.984-.218-1.755-.656-2.312-.432-.558-1.034-.836-1.805-.836-.76 0-1.364.283-1.812.851-.448.563-.672 1.328-.672 2.297 0 .964.221 1.73.664 2.297.448.568 1.052.851 1.813.851ZM130.77 12h-1.343V3.578h1.632l3.016 6.531h.125l3.023-6.53h1.571V12h-1.352V6.008h-.148l-2.664 5.758h-1.047l-2.664-5.758h-.149V12Zm13.405-1.031c.693 0 1.266-.2 1.719-.602a1.92 1.92 0 0 0 .687-1.508v-.773l-2.265.148c-.636.042-1.102.175-1.399.399-.297.224-.445.55-.445.976 0 .422.159.756.476 1 .318.24.727.36 1.227.36Zm-.25 1.18c-.828 0-1.51-.227-2.047-.68-.531-.459-.797-1.068-.797-1.828 0-.75.266-1.339.797-1.766.531-.427 1.289-.67 2.274-.727L146.581 7v-.766c0-.52-.161-.919-.484-1.195-.323-.276-.797-.414-1.422-.414-.505 0-.924.091-1.258.273-.333.183-.547.44-.64.774h-1.36c.089-.672.435-1.214 1.039-1.625.61-.412 1.365-.617 2.266-.617 1.021 0 1.81.247 2.367.742.557.495.836 1.182.836 2.062V12h-1.281v-1.242h-.125a2.77 2.77 0 0 1-1.078 1.031c-.448.24-.953.36-1.516.36Zm13.709-5.993h-1.359a1.919 1.919 0 0 0-.742-1.086c-.375-.286-.852-.43-1.43-.43-.755 0-1.357.282-1.805.844-.442.563-.664 1.32-.664 2.274 0 .969.224 1.742.672 2.32.448.573 1.047.86 1.797.86.568 0 1.039-.128 1.414-.383.38-.255.633-.62.758-1.094h1.359a3.015 3.015 0 0 1-1.117 1.945c-.62.495-1.422.742-2.406.742-1.182 0-2.122-.395-2.82-1.187-.698-.797-1.047-1.865-1.047-3.203 0-1.313.349-2.362 1.047-3.149.698-.786 1.635-1.18 2.812-1.18.984 0 1.787.259 2.406.774.625.516 1 1.167 1.125 1.953Zm5.241 1.25h-1.664v3.469h1.664c.552 0 .992-.156 1.32-.469.334-.318.5-.74.5-1.265 0-.526-.166-.946-.5-1.258-.328-.318-.768-.477-1.32-.477ZM159.867 12V3.578h1.344v2.703h1.664c.964 0 1.732.258 2.305.774.573.515.859 1.21.859 2.086 0 .875-.286 1.57-.859 2.086-.573.515-1.341.773-2.305.773h-3.008Zm15.038.148c-1.115 0-2.008-.351-2.68-1.054-.672-.703-1.044-1.672-1.117-2.906h-1.531V12h-1.344V3.578h1.344v3.485h1.562c.12-1.141.51-2.032 1.172-2.672.667-.641 1.531-.961 2.594-.961 1.177 0 2.104.388 2.781 1.164.682.776 1.023 1.84 1.023 3.195 0 1.349-.341 2.414-1.023 3.195-.677.776-1.604 1.164-2.781 1.164Zm-1.789-2.03c.422.546 1.018.82 1.789.82.771 0 1.364-.274 1.781-.82.422-.553.633-1.329.633-2.329 0-1-.211-1.773-.633-2.32-.417-.552-1.01-.828-1.781-.828-.771 0-1.367.276-1.789.828-.417.547-.625 1.32-.625 2.32 0 1 .208 1.776.625 2.328Zm13.506-6.54v1.125h-2.735V12h-1.343V4.703h-2.735V3.578h6.813ZM190.027 12h-1.344V3.578h1.344V9.86h.125l4.195-6.28h1.344V12h-1.344V5.719h-.125L190.027 12Zm10.154-3.836h-.367V12h-1.344V3.578h1.344v3.524h.367l3.336-3.524h1.633l-3.859 3.969L205.298 12h-1.742l-3.375-3.836Zm9.46 2.805c.692 0 1.265-.2 1.718-.602.459-.4.688-.903.688-1.508v-.773l-2.266.148c-.635.042-1.101.175-1.398.399-.297.224-.445.55-.445.976 0 .422.158.756.476 1 .318.24.727.36 1.227.36Zm-.25 1.18c-.829 0-1.511-.227-2.047-.68-.532-.459-.797-1.068-.797-1.828 0-.75.265-1.339.797-1.766.531-.427 1.289-.67 2.273-.727l2.43-.148v-.766c0-.52-.162-.919-.485-1.195-.322-.276-.796-.414-1.421-.414-.506 0-.925.091-1.258.273-.334.183-.547.44-.641.774h-1.359c.088-.672.435-1.214 1.039-1.625.609-.412 1.364-.617 2.266-.617 1.02 0 1.809.247 2.367.742.557.495.836 1.182.836 2.062V12h-1.282v-1.242h-.125c-.27.448-.63.792-1.078 1.031-.448.24-.953.36-1.515.36Zm8.756-3.844c-.037.484-.089.911-.156 1.28-.068.37-.164.717-.289 1.04a2.53 2.53 0 0 1-.454.797 1.82 1.82 0 0 1-.664.476c-.265.115-.57.172-.914.172-.192 0-.356-.028-.492-.086V10.75c.125.042.266.063.422.063.396 0 .69-.214.883-.641.198-.432.325-1.065.383-1.899l.328-4.695h5.508V12h-1.344V4.703h-2.945l-.266 3.602Zm14.303-2.149h-1.359a1.915 1.915 0 0 0-.743-1.086c-.375-.286-.851-.43-1.429-.43-.755 0-1.357.282-1.805.844-.443.563-.664 1.32-.664 2.274 0 .969.224 1.742.672 2.32.448.573 1.047.86 1.797.86.567 0 1.039-.128 1.414-.383.38-.255.633-.62.758-1.094h1.359a3.015 3.015 0 0 1-1.117 1.945c-.62.495-1.422.742-2.406.742-1.183 0-2.123-.395-2.821-1.187-.698-.797-1.047-1.865-1.047-3.203 0-1.313.349-2.362 1.047-3.149.698-.786 1.636-1.18 2.813-1.18.984 0 1.786.259 2.406.774.625.516 1 1.167 1.125 1.953Zm5.038 1.367-2.743-3.218h1.594l2.742 3.25v.062l-2.734 3.25h-1.602l2.743-3.219v-.125Zm3.742 0-2.742-3.218h1.593l2.735 3.25v.062l-2.735 3.25h-1.593l2.742-3.219v-.125ZM2.063 47.047c-.214 0-.415-.016-.602-.047v-1.148c.135.026.323.039.562.039.391 0 .701-.105.93-.313.235-.208.44-.565.617-1.07l.157-.5-3.118-8.43h1.454l2.312 6.93H4.5l2.305-6.93h1.43l-3.29 8.938c-.36.974-.742 1.638-1.148 1.992-.406.36-.985.539-1.735.539Zm9.928-6.742c-.037.484-.089.911-.157 1.28-.067.37-.164.717-.289 1.04-.12.323-.27.589-.453.797a1.824 1.824 0 0 1-.664.476c-.266.115-.57.172-.914.172-.193 0-.357-.028-.492-.086V42.75c.125.042.265.063.422.063.396 0 .69-.214.883-.641.197-.432.325-1.065.382-1.899l.329-4.695h5.507V44h-1.343v-7.297h-2.946l-.265 3.602Zm8.365 3.773a.996.996 0 0 1-.719-.297.996.996 0 0 1-.296-.718c0-.282.099-.521.296-.72a.996.996 0 0 1 .72-.296c.28 0 .52.099.718.297a.979.979 0 0 1 .297.718.996.996 0 0 1-.297.72.979.979 0 0 1-.719.296ZM37.798 44h-1.39v-9.992h-6.031V44h-1.415V32.727h8.836V44Zm5.561-1.031c.693 0 1.266-.2 1.72-.602a1.92 1.92 0 0 0 .687-1.508v-.773l-2.266.148c-.635.042-1.102.175-1.398.399-.297.224-.446.55-.446.976 0 .422.16.756.477 1 .317.24.726.36 1.226.36Zm-.25 1.18c-.828 0-1.51-.227-2.047-.68-.53-.459-.796-1.068-.796-1.828 0-.75.265-1.339.797-1.766.53-.427 1.289-.67 2.273-.727l2.43-.148v-.766c0-.52-.162-.919-.485-1.195-.323-.276-.797-.414-1.422-.414-.505 0-.924.091-1.257.273-.334.183-.547.44-.641.774H40.6c.09-.672.435-1.214 1.04-1.625.609-.412 1.364-.617 2.265-.617 1.021 0 1.81.247 2.367.742.558.495.836 1.182.836 2.062V44h-1.28v-1.242h-.126a2.77 2.77 0 0 1-1.078 1.031c-.448.24-.953.36-1.516.36Zm10.132-7.446h-2.055v2.375h1.836c1.057 0 1.586-.4 1.586-1.203 0-.365-.115-.651-.344-.86-.224-.208-.565-.312-1.023-.312Zm-.102 3.5h-1.953v2.672h2.21c.517 0 .907-.112 1.173-.336.27-.23.406-.557.406-.984 0-.464-.154-.805-.46-1.024-.303-.218-.761-.328-1.376-.328ZM49.842 44v-8.422h3.57c.787 0 1.404.195 1.852.586.448.386.672.909.672 1.57 0 .417-.133.797-.398 1.141-.26.339-.586.55-.977.633v.125c.531.073.956.289 1.273.648.318.354.477.787.477 1.297 0 .74-.255 1.328-.766 1.766-.51.437-1.216.656-2.117.656h-3.586Zm10.811-3.695c-.036.484-.088.911-.156 1.28-.068.37-.164.717-.29 1.04-.119.323-.27.589-.452.797a1.824 1.824 0 0 1-.664.476c-.266.115-.57.172-.914.172-.193 0-.357-.028-.493-.086V42.75c.125.042.266.063.422.063.396 0 .69-.214.883-.641.198-.432.326-1.065.383-1.899l.328-4.695h5.508V44h-1.344v-7.297H60.92l-.266 3.602Zm13.631 2.68c-.692.775-1.638 1.163-2.836 1.163-1.197 0-2.145-.388-2.843-1.164-.693-.78-1.04-1.846-1.04-3.195 0-1.354.347-2.42 1.04-3.195.692-.776 1.64-1.164 2.843-1.164 1.204 0 2.152.388 2.844 1.164.693.776 1.04 1.84 1.04 3.195 0 1.349-.35 2.414-1.048 3.195Zm-4.68-.868c.433.547 1.048.82 1.844.82.797 0 1.412-.273 1.844-.82.433-.552.649-1.328.649-2.328 0-1-.216-1.773-.649-2.32-.432-.552-1.047-.828-1.844-.828-.796 0-1.411.276-1.843.828-.433.547-.649 1.32-.649 2.32 0 1 .216 1.776.649 2.328Zm11.484-5.414h-2.055v2.375h1.836c1.057 0 1.586-.4 1.586-1.203 0-.365-.115-.651-.344-.86-.224-.208-.565-.312-1.023-.312Zm-.102 3.5h-1.953v2.672h2.21c.516 0 .907-.112 1.173-.336.27-.23.406-.557.406-.984 0-.464-.154-.805-.461-1.024-.302-.218-.76-.328-1.375-.328ZM77.689 44v-8.422h3.57c.787 0 1.404.195 1.852.586.448.386.672.909.672 1.57 0 .417-.133.797-.399 1.141-.26.339-.586.55-.976.633v.125c.531.073.956.289 1.273.648.318.354.477.787.477 1.297 0 .74-.255 1.328-.766 1.766-.51.437-1.216.656-2.117.656h-3.586Zm15.764-5.844h-1.36a1.916 1.916 0 0 0-.741-1.086c-.375-.286-.852-.43-1.43-.43-.755 0-1.357.282-1.805.844-.443.563-.664 1.32-.664 2.274 0 .969.224 1.742.672 2.32.448.573 1.047.86 1.797.86.568 0 1.039-.128 1.414-.383.38-.255.633-.62.758-1.094h1.36a3.016 3.016 0 0 1-1.118 1.945c-.62.495-1.422.742-2.406.742-1.183 0-2.123-.395-2.82-1.187-.698-.797-1.047-1.865-1.047-3.203 0-1.313.349-2.362 1.046-3.149.698-.786 1.636-1.18 2.813-1.18.984 0 1.786.258 2.406.774.625.516 1 1.167 1.125 1.953Zm3.944 2.008h-.367V44h-1.344v-8.422h1.344v3.524h.367l3.336-3.524h1.633l-3.86 3.969L102.514 44h-1.742l-3.375-3.836Zm9.459 2.805c.693 0 1.266-.2 1.719-.602a1.92 1.92 0 0 0 .687-1.508v-.773l-2.265.148c-.636.042-1.102.175-1.399.399-.296.224-.445.55-.445.976 0 .422.159.756.477 1 .317.24.726.36 1.226.36Zm-.25 1.18c-.828 0-1.51-.227-2.047-.68-.531-.459-.797-1.068-.797-1.828 0-.75.266-1.339.797-1.766.532-.427 1.289-.67 2.274-.727l2.429-.148v-.766c0-.52-.161-.919-.484-1.195-.323-.276-.797-.414-1.422-.414-.505 0-.924.091-1.258.273-.333.183-.546.44-.64.774h-1.36c.089-.672.435-1.214 1.039-1.625.61-.412 1.365-.617 2.266-.617 1.021 0 1.81.247 2.367.742.558.495.836 1.182.836 2.062V44h-1.281v-1.242h-.125a2.77 2.77 0 0 1-1.078 1.031c-.448.24-.953.36-1.516.36Zm9.632-4.29h1.585v-3.156h-1.585c-.558 0-1 .146-1.329.438-.328.286-.492.684-.492 1.195 0 .448.167.815.5 1.102.334.28.774.421 1.321.421ZM117.823 44v-3.016h-1.445L114.23 44h-1.602l2.352-3.266c-.594-.166-1.06-.458-1.399-.875-.338-.416-.508-.914-.508-1.492 0-.864.284-1.544.852-2.039.573-.5 1.344-.75 2.313-.75h2.929V44h-1.344Zm5.007 2.867h-1.172l.75-4.445h1.578l-1.156 4.445Zm13.934-3.992v-6.172h-3.195l-.266 3.602c-.088 1.135-.32 1.95-.695 2.445v.125h4.156Zm-5.164 3.352h-1.266v-3.352h.704c.291-.193.52-.52.687-.984a6.063 6.063 0 0 0 .313-1.618l.328-4.695h5.742v7.297h1.344v3.352h-1.266V44H131.6v2.227Zm11.069-2.149a.996.996 0 0 1-.719-.297.996.996 0 0 1-.297-.718c0-.282.099-.521.297-.72a.996.996 0 0 1 .719-.296c.281 0 .521.099.718.297a.979.979 0 0 1 .297.718.996.996 0 0 1-.297.72.976.976 0 0 1-.718.296Zm8.817-.078 5.062-9.906v-.11h-6.031v-1.257h7.461v1.304L152.962 44h-1.476Zm7.772 2.867h-1.172l.75-4.445h1.578l-1.156 4.445Zm15.551-8.71h-1.359a1.919 1.919 0 0 0-.742-1.087c-.375-.286-.852-.43-1.43-.43-.755 0-1.357.282-1.805.844-.442.563-.664 1.32-.664 2.274 0 .969.224 1.742.672 2.32.448.573 1.047.86 1.797.86.568 0 1.039-.128 1.414-.383.38-.255.633-.62.758-1.094h1.359a3.015 3.015 0 0 1-1.117 1.945c-.62.495-1.422.742-2.406.742-1.182 0-2.122-.395-2.82-1.187-.698-.797-1.047-1.865-1.047-3.203 0-1.313.349-2.362 1.047-3.149.698-.786 1.635-1.18 2.812-1.18.984 0 1.787.258 2.406.774.625.516 1 1.167 1.125 1.953Zm7.944-2.579v1.125h-2.734V44h-1.344v-7.297h-2.734v-1.125h6.812Zm6.163-.148c1.073 0 1.929.395 2.57 1.187.646.792.969 1.85.969 3.172 0 1.318-.323 2.375-.969 3.172-.646.792-1.503 1.187-2.57 1.187-.599 0-1.131-.122-1.594-.367a2.425 2.425 0 0 1-1.039-1.047h-.125v4.078h-1.344V35.578h1.281v1.406h.125a2.983 2.983 0 0 1 1.117-1.14 3.11 3.11 0 0 1 1.579-.414Zm-.321 7.508c.771 0 1.375-.28 1.813-.836.437-.558.656-1.329.656-2.313 0-.984-.219-1.755-.656-2.312-.432-.558-1.034-.836-1.805-.836-.76 0-1.364.284-1.812.851-.448.563-.672 1.328-.672 2.297 0 .964.221 1.73.664 2.297.448.568 1.052.852 1.812.852Zm6.952 1.14a.996.996 0 0 1-.719-.297.996.996 0 0 1-.297-.718c0-.282.099-.521.297-.72a.996.996 0 0 1 .719-.296.98.98 0 0 1 .719.297.978.978 0 0 1 .296.718.995.995 0 0 1-.296.72.98.98 0 0 1-.719.296ZM206.591 44v-9.71h-.125l-2.868 2.077v-1.484l3-2.156h1.399V44h-1.406Zm5.451 2.867h-1.172l.75-4.445h1.578l-1.156 4.445Zm13.966-10.164h-4.047V44h-1.344v-8.422h5.391v1.125Zm1.78 7.375a.994.994 0 0 1-.719-.297.996.996 0 0 1-.297-.718c0-.282.099-.521.297-.72a.994.994 0 0 1 .719-.296c.281 0 .52.099.718.297a.979.979 0 0 1 .297.718.996.996 0 0 1-.297.72.978.978 0 0 1-.718.296ZM247.503 44h-1.312v-8.61h-.094l-3.555 8.532h-1.187L237.8 35.39h-.094V44h-1.312V32.727h1.633l3.859 9.328h.125l3.859-9.328h1.633V44Zm9.256-1.016c-.692.776-1.638 1.164-2.836 1.164-1.197 0-2.145-.388-2.843-1.164-.693-.78-1.039-1.846-1.039-3.195 0-1.354.346-2.42 1.039-3.195.692-.776 1.64-1.164 2.843-1.164 1.204 0 2.151.388 2.844 1.164.693.776 1.039 1.84 1.039 3.195 0 1.349-.349 2.414-1.047 3.195Zm-4.679-.867c.432.547 1.047.82 1.843.82.797 0 1.412-.273 1.844-.82.432-.552.649-1.328.649-2.328 0-1-.217-1.773-.649-2.32-.432-.552-1.047-.828-1.844-.828-.796 0-1.411.276-1.843.828-.433.547-.649 1.32-.649 2.32 0 1 .216 1.776.649 2.328Zm15.061-3.96h-1.36a1.914 1.914 0 0 0-.742-1.087c-.375-.286-.851-.43-1.43-.43-.755 0-1.356.282-1.804.844-.443.563-.664 1.32-.664 2.274 0 .969.224 1.742.671 2.32.448.573 1.047.86 1.797.86.568 0 1.039-.128 1.414-.383.381-.255.633-.62.758-1.094h1.36a3.016 3.016 0 0 1-1.118 1.945c-.619.495-1.421.742-2.406.742-1.182 0-2.122-.395-2.82-1.187-.698-.797-1.047-1.865-1.047-3.203 0-1.313.349-2.362 1.047-3.149.698-.786 1.635-1.18 2.812-1.18.985 0 1.787.258 2.407.774.625.516 1 1.167 1.125 1.953Zm3.943 2.007h-.367V44h-1.344v-8.422h1.344v3.524h.367l3.336-3.524h1.633l-3.859 3.969L276.202 44h-1.743l-3.375-3.836Zm10.491-3.46h-2.055v2.374h1.836c1.058 0 1.586-.4 1.586-1.203 0-.365-.114-.651-.344-.86-.224-.208-.565-.312-1.023-.312Zm-.102 3.5h-1.953v2.671h2.211c.516 0 .907-.112 1.172-.336.271-.23.406-.557.406-.984 0-.464-.153-.805-.461-1.024-.302-.218-.76-.328-1.375-.328ZM278.177 44v-8.422h3.57c.786 0 1.404.195 1.851.586.448.386.672.909.672 1.57 0 .417-.132.797-.398 1.141-.261.339-.586.55-.977.633v.125c.532.073.956.289 1.274.648.317.354.476.787.476 1.297 0 .74-.255 1.328-.765 1.766-.511.437-1.216.656-2.117.656h-3.586Zm11.467-1.031c.692 0 1.265-.2 1.718-.602.459-.4.688-.903.688-1.508v-.773l-2.266.148c-.635.042-1.101.175-1.398.399-.297.224-.445.55-.445.976 0 .422.158.756.476 1 .318.24.727.36 1.227.36Zm-.25 1.18c-.828 0-1.511-.227-2.047-.68-.531-.459-.797-1.068-.797-1.828 0-.75.266-1.339.797-1.766.531-.427 1.289-.67 2.273-.727l2.43-.148v-.766c0-.52-.161-.919-.484-1.195-.323-.276-.797-.414-1.422-.414-.505 0-.925.091-1.258.273-.333.183-.547.44-.641.774h-1.359c.088-.672.435-1.214 1.039-1.625.609-.412 1.365-.617 2.266-.617 1.02 0 1.81.247 2.367.742.557.495.836 1.182.836 2.062V44h-1.282v-1.242h-.125c-.27.448-.63.791-1.078 1.031-.448.24-.953.36-1.515.36Zm7.623 2.718h-1.172l.75-4.445h1.578l-1.156 4.445Zm8.755-14.14h4.258c1.067 0 1.935.34 2.601 1.023.672.677 1.008 1.552 1.008 2.625 0 1.052-.341 1.917-1.023 2.594-.677.672-1.545 1.008-2.602 1.008h-2.836V44h-1.406V32.727Zm1.406 1.25v4.75h2.485c.802 0 1.424-.206 1.867-.618.442-.411.664-.99.664-1.734 0-.776-.219-1.37-.656-1.781-.433-.412-1.058-.617-1.875-.617h-2.485Zm14.991 9.007c-.693.776-1.638 1.164-2.836 1.164s-2.146-.388-2.844-1.164c-.693-.78-1.039-1.846-1.039-3.195 0-1.354.346-2.42 1.039-3.195.693-.776 1.641-1.164 2.844-1.164 1.203 0 2.151.388 2.844 1.164.692.776 1.039 1.84 1.039 3.195 0 1.349-.349 2.414-1.047 3.195Zm-4.68-.867c.432.547 1.047.82 1.844.82.797 0 1.411-.273 1.844-.82.432-.552.648-1.328.648-2.328 0-1-.216-1.773-.648-2.32-.433-.552-1.047-.828-1.844-.828-.797 0-1.412.276-1.844.828-.432.547-.648 1.32-.648 2.32 0 1 .216 1.776.648 2.328Zm15.061-3.96h-1.359a1.916 1.916 0 0 0-.743-1.087c-.375-.286-.851-.43-1.429-.43-.755 0-1.357.282-1.805.844-.443.563-.664 1.32-.664 2.274 0 .969.224 1.742.672 2.32.448.573 1.047.86 1.797.86.567 0 1.039-.128 1.414-.383.38-.255.633-.62.758-1.094h1.359a3.015 3.015 0 0 1-1.117 1.945c-.62.495-1.422.742-2.406.742-1.183 0-2.123-.395-2.821-1.187-.698-.797-1.047-1.865-1.047-3.203 0-1.313.349-2.362 1.047-3.149.698-.786 1.636-1.18 2.813-1.18.984 0 1.786.258 2.406.774.625.516 1 1.167 1.125 1.953Zm9.209 0H340.4a1.919 1.919 0 0 0-.742-1.087c-.375-.286-.852-.43-1.43-.43-.755 0-1.357.282-1.805.844-.442.563-.664 1.32-.664 2.274 0 .969.224 1.742.672 2.32.448.573 1.047.86 1.797.86.568 0 1.039-.128 1.414-.383.38-.255.633-.62.758-1.094h1.359a3.015 3.015 0 0 1-1.117 1.945c-.62.495-1.422.742-2.406.742-1.182 0-2.122-.395-2.82-1.187-.698-.797-1.047-1.865-1.047-3.203 0-1.313.349-2.362 1.047-3.149.698-.786 1.635-1.18 2.812-1.18.984 0 1.787.258 2.406.774.625.516 1 1.167 1.125 1.953ZM345.336 44h-1.344v-8.422h1.344v6.281h.125l4.195-6.28H351V44h-1.344v-6.281h-.125L345.336 44Zm11.342-4.14h1.586v-3.157h-1.586c-.557 0-1 .146-1.328.438-.328.286-.492.684-.492 1.195 0 .448.166.815.5 1.102.333.28.773.421 1.32.421Zm1.586 4.14v-3.016h-1.445L354.67 44h-1.601l2.351-3.266c-.593-.166-1.06-.458-1.398-.875-.339-.416-.508-.914-.508-1.492 0-.864.284-1.544.852-2.039.573-.5 1.343-.75 2.312-.75h2.93V44h-1.344Zm5.006 2.867h-1.172l.75-4.445h1.579l-1.157 4.445ZM374.462 44v-9.71h-.125l-2.867 2.077v-1.484l3-2.156h1.399V44h-1.407Zm7.569 0v-9.71h-.125l-2.867 2.077v-1.484l3-2.156h1.399V44h-1.407Zm8.592.266c-1.067 0-1.95-.3-2.648-.899-.698-.604-1.078-1.393-1.141-2.367h1.383c.063.61.315 1.102.758 1.477.448.37 1.003.554 1.664.554.755 0 1.362-.237 1.82-.71.464-.475.696-1.097.696-1.868 0-.77-.232-1.396-.696-1.875-.458-.484-1.057-.726-1.796-.726-.511 0-.969.112-1.375.336a2.375 2.375 0 0 0-.954.93h-1.32l.617-6.391h6.289v1.257h-5.187l-.32 3.618h.125c.546-.641 1.341-.961 2.382-.961 1.073 0 1.948.351 2.625 1.054.677.703 1.016 1.61 1.016 2.72 0 1.145-.365 2.075-1.094 2.788-.729.708-1.677 1.063-2.844 1.063Zm10.077 0c-1.271 0-2.255-.516-2.953-1.547-.698-1.032-1.047-2.485-1.047-4.36 0-1.859.352-3.307 1.055-4.343.703-1.037 1.685-1.555 2.945-1.555 1.255 0 2.232.52 2.93 1.562.703 1.042 1.054 2.495 1.054 4.36 0 1.87-.349 3.317-1.046 4.344-.693 1.026-1.672 1.539-2.938 1.539Zm-1.922-2.438c.448.807 1.089 1.211 1.922 1.211s1.469-.401 1.906-1.203c.443-.807.664-1.966.664-3.477 0-1.494-.224-2.645-.672-3.453-.442-.807-1.075-1.21-1.898-1.21s-1.461.406-1.914 1.218c-.448.807-.672 1.956-.672 3.445 0 1.506.221 2.662.664 3.47Zm11.913 2.43c-.959 0-1.771-.263-2.438-.79-.661-.53-1.081-1.25-1.258-2.156h1.446c.151.527.427.94.828 1.243.406.302.885.453 1.437.453.917 0 1.628-.396 2.133-1.188.51-.791.784-1.937.82-3.437h-.125a3.039 3.039 0 0 1-1.203 1.281c-.526.302-1.125.453-1.797.453-1.073 0-1.958-.354-2.656-1.062-.698-.714-1.047-1.617-1.047-2.711 0-1.136.37-2.065 1.11-2.79.739-.729 1.687-1.093 2.843-1.093.844 0 1.584.219 2.219.656.636.438 1.128 1.073 1.477 1.906.364.855.547 1.901.547 3.141 0 1.938-.378 3.438-1.133 4.5-.755 1.063-1.823 1.594-3.203 1.594Zm-1.735-6.078c.474.479 1.084.718 1.828.718.745 0 1.357-.24 1.836-.718.485-.48.727-1.091.727-1.836 0-.755-.245-1.386-.735-1.89-.484-.506-1.088-.759-1.812-.759s-1.331.25-1.82.75c-.485.495-.727 1.112-.727 1.852 0 .77.234 1.398.703 1.883Zm10.741.625v-1.203h1.367c.641 0 1.164-.188 1.57-.563.412-.375.618-.854.618-1.437 0-.573-.198-1.034-.594-1.383-.396-.354-.919-.532-1.571-.532-.651 0-1.177.172-1.578.516-.401.339-.63.81-.687 1.414h-1.367c.073-.979.437-1.75 1.093-2.312.657-.563 1.521-.844 2.594-.844.646 0 1.24.133 1.781.398.547.26.977.618 1.289 1.07.313.454.469.949.469 1.485 0 .672-.174 1.24-.523 1.703-.349.464-.834.771-1.453.922v.125c.765.099 1.367.398 1.804.898.438.495.657 1.128.657 1.899 0 .927-.383 1.71-1.149 2.352-.765.635-1.706.953-2.82.953-1.146 0-2.081-.292-2.805-.875-.724-.589-1.112-1.365-1.164-2.328h1.359c.063.598.329 1.078.797 1.437.469.36 1.068.54 1.797.54.74 0 1.347-.199 1.821-.595.479-.395.718-.903.718-1.523 0-.651-.231-1.167-.695-1.547-.464-.38-1.096-.57-1.898-.57h-1.43ZM7.437 67.578v1.125H4.704V76H3.36v-7.297H.625v-1.125h6.813Zm5.116 1.04c-.672 0-1.224.226-1.656.679-.432.453-.675 1.052-.727 1.797h4.64c-.015-.745-.228-1.344-.64-1.797-.411-.453-.95-.68-1.617-.68Zm2.219 5.202h1.344a2.92 2.92 0 0 1-1.243 1.711c-.62.412-1.388.617-2.304.617-1.167 0-2.091-.39-2.774-1.171-.682-.787-1.023-1.847-1.023-3.18 0-1.328.344-2.388 1.031-3.18.688-.791 1.61-1.187 2.766-1.187 1.135 0 2.028.377 2.68 1.132.65.756.976 1.79.976 3.102v.516H10.17v.062c.037.834.271 1.495.703 1.985.438.49 1.014.734 1.727.734 1.088 0 1.813-.38 2.172-1.14Zm5.6-1.515a12.34 12.34 0 0 1-.156 1.28c-.068.37-.164.717-.29 1.04-.12.323-.27.588-.453.797a1.823 1.823 0 0 1-.664.476c-.265.115-.57.172-.914.172-.192 0-.357-.028-.492-.086V74.75c.125.042.266.063.422.063.396 0 .69-.214.883-.641.198-.432.325-1.065.383-1.899l.328-4.695h5.508V76h-1.344v-7.297h-2.945l-.266 3.602Zm8.366 3.773a.996.996 0 0 1-.72-.297.996.996 0 0 1-.296-.719c0-.28.099-.52.297-.718a.996.996 0 0 1 .719-.297c.28 0 .52.099.718.297a.978.978 0 0 1 .297.719.995.995 0 0 1-.297.718.979.979 0 0 1-.718.297Zm4.85 0a.996.996 0 0 1-.72-.297.996.996 0 0 1-.296-.719c0-.28.099-.52.297-.718a.996.996 0 0 1 .718-.297c.282 0 .521.099.72.297a.978.978 0 0 1 .296.719.995.995 0 0 1-.297.718.979.979 0 0 1-.718.297Zm0-6.008a.996.996 0 0 1-.72-.297.996.996 0 0 1-.296-.718.98.98 0 0 1 .297-.72.996.996 0 0 1 .718-.296c.282 0 .521.099.72.297a.979.979 0 0 1 .296.719.995.995 0 0 1-.297.718.979.979 0 0 1-.718.297Zm11.785 8.094h-1.187c-.672-.838-1.193-1.854-1.563-3.047a13 13 0 0 1-.546-3.805c0-1.333.171-2.515.515-3.546.344-1.037.901-2.047 1.672-3.032h1.133c-.568.667-1.034 1.615-1.399 2.844a13.246 13.246 0 0 0-.539 3.734c0 1.22.151 2.376.453 3.47.308 1.088.795 2.215 1.461 3.382ZM52.872 76v-2.336H47.38v-1.281c1.03-1.834 2.64-4.386 4.828-7.656h2.039v7.68h1.601v1.257h-1.601V76h-1.375Zm-4.055-3.68v.094h4.063v-6.383h-.094c-1.219 1.771-2.542 3.867-3.969 6.29Zm12.905 3.938c-.959 0-1.771-.263-2.438-.79-.661-.53-1.08-1.25-1.257-2.156h1.445c.15.526.427.94.828 1.243.406.302.885.453 1.438.453.916 0 1.627-.396 2.132-1.188.51-.791.784-1.937.82-3.437h-.124a3.039 3.039 0 0 1-1.204 1.281c-.526.302-1.125.453-1.796.453-1.073 0-1.959-.354-2.657-1.062-.697-.714-1.047-1.618-1.047-2.711 0-1.136.37-2.065 1.11-2.79.74-.728 1.687-1.093 2.844-1.093.843 0 1.583.219 2.218.656.636.438 1.128 1.073 1.477 1.906.365.855.547 1.901.547 3.141 0 1.938-.378 3.438-1.133 4.5-.755 1.063-1.823 1.594-3.203 1.594Zm-1.735-6.078c.474.479 1.084.718 1.829.718.744 0 1.356-.24 1.836-.718.484-.48.726-1.092.726-1.836 0-.755-.245-1.386-.734-1.89-.485-.506-1.089-.759-1.813-.759s-1.33.25-1.82.75c-.484.495-.727 1.112-.727 1.852 0 .77.235 1.398.703 1.883Zm12.155 6.086c-1.067 0-1.95-.3-2.648-.899-.698-.604-1.078-1.393-1.14-2.367h1.382c.062.61.315 1.102.758 1.477.448.37 1.002.554 1.664.554.755 0 1.362-.237 1.82-.71.464-.475.695-1.097.695-1.868 0-.77-.231-1.396-.695-1.875-.458-.484-1.057-.726-1.797-.726a2.8 2.8 0 0 0-1.375.335 2.372 2.372 0 0 0-.953.93h-1.32l.617-6.39h6.29v1.257h-5.188l-.32 3.618h.124c.547-.641 1.341-.961 2.383-.961 1.073 0 1.948.351 2.625 1.054.677.703 1.016 1.61 1.016 2.72 0 1.145-.365 2.075-1.094 2.788-.73.709-1.677 1.063-2.844 1.063Zm6.014 1.898c.667-1.167 1.151-2.294 1.453-3.383.308-1.094.461-2.25.461-3.469 0-1.27-.18-2.518-.539-3.742-.36-1.229-.823-2.174-1.39-2.836h1.14c.771.985 1.326 1.993 1.664 3.024.344 1.031.516 2.216.516 3.555 0 1.333-.185 2.596-.555 3.789-.364 1.192-.883 2.213-1.554 3.062h-1.196Zm14.278-1.906c-.958 0-1.77-.263-2.437-.79-.662-.53-1.08-1.25-1.258-2.156h1.445c.151.526.428.94.829 1.243.406.302.885.453 1.437.453.917 0 1.628-.396 2.133-1.188.51-.791.784-1.937.82-3.437h-.124a3.039 3.039 0 0 1-1.204 1.281c-.526.302-1.125.453-1.797.453-1.073 0-1.958-.354-2.656-1.062-.698-.714-1.047-1.618-1.047-2.711 0-1.136.37-2.065 1.11-2.79.739-.728 1.687-1.093 2.843-1.093.844 0 1.584.219 2.219.656.635.438 1.127 1.073 1.476 1.906.365.855.547 1.901.547 3.141 0 1.938-.377 3.438-1.132 4.5-.756 1.063-1.823 1.594-3.204 1.594ZM90.7 70.18c.474.479 1.083.718 1.828.718.745 0 1.357-.24 1.836-.718.484-.48.727-1.092.727-1.836 0-.755-.245-1.386-.735-1.89-.484-.506-1.088-.759-1.812-.759s-1.331.25-1.82.75c-.485.495-.727 1.112-.727 1.852 0 .77.234 1.398.703 1.883ZM101.831 76v-9.71h-.125l-2.867 2.077v-1.484l3-2.156h1.399V76h-1.407Zm8.858.258c-.849 0-1.588-.219-2.219-.656-.63-.443-1.122-1.079-1.476-1.907-.365-.854-.547-1.9-.547-3.14 0-1.938.377-3.438 1.133-4.5.755-1.063 1.823-1.594 3.203-1.594.958 0 1.768.266 2.43.797.666.526 1.088 1.242 1.265 2.148h-1.445c-.151-.526-.43-.94-.836-1.242-.401-.302-.878-.453-1.43-.453-.916 0-1.63.396-2.14 1.187-.506.792-.776 1.938-.813 3.438h.125a2.99 2.99 0 0 1 1.203-1.273c.526-.308 1.125-.461 1.797-.461 1.073 0 1.958.356 2.656 1.07.698.708 1.047 1.61 1.047 2.703 0 1.135-.37 2.068-1.109 2.797-.74.724-1.688 1.086-2.844 1.086Zm-1.836-1.992c.49.505 1.096.757 1.82.757s1.329-.247 1.813-.742c.49-.5.734-1.12.734-1.86 0-.77-.237-1.395-.711-1.874-.468-.484-1.075-.727-1.82-.727-.745 0-1.359.24-1.844.72-.479.478-.718 1.09-.718 1.835 0 .755.242 1.385.726 1.89Zm13.233-2.164h-5.125v-1.274h5.125v1.274ZM125.123 76l5.063-9.906v-.11h-6.031v-1.257h7.461v1.304L126.6 76h-1.477Zm11.452 0v-9.71h-.125l-2.867 2.077v-1.484l3-2.156h1.398V76h-1.406Zm9.952-3.898h-5.125v-1.274h5.125v1.274Zm6.357 4.164c-1.27 0-2.255-.516-2.953-1.547s-1.047-2.485-1.047-4.36c0-1.859.352-3.307 1.055-4.343.703-1.037 1.685-1.555 2.945-1.555 1.256 0 2.232.52 2.93 1.562.703 1.042 1.055 2.495 1.055 4.36 0 1.87-.349 3.318-1.047 4.344-.693 1.026-1.672 1.539-2.938 1.539Zm-1.922-2.438c.448.807 1.089 1.211 1.922 1.211.834 0 1.469-.401 1.907-1.203.442-.807.664-1.966.664-3.477 0-1.494-.224-2.645-.672-3.453-.443-.807-1.076-1.21-1.899-1.21s-1.461.406-1.914 1.218c-.448.807-.672 1.956-.672 3.445 0 1.506.222 2.662.664 3.47Zm12.1 2.438c-1.27 0-2.255-.516-2.953-1.547s-1.047-2.485-1.047-4.36c0-1.859.352-3.307 1.055-4.343.703-1.037 1.685-1.555 2.945-1.555 1.256 0 2.232.52 2.93 1.562.703 1.042 1.055 2.495 1.055 4.36 0 1.87-.349 3.318-1.047 4.344-.693 1.026-1.672 1.539-2.938 1.539Zm-1.921-2.438c.448.807 1.088 1.211 1.921 1.211.834 0 1.469-.401 1.907-1.203.442-.807.664-1.966.664-3.477 0-1.494-.224-2.645-.672-3.453-.443-.807-1.076-1.21-1.899-1.21-.822 0-1.46.406-1.914 1.218-.447.807-.671 1.956-.671 3.445 0 1.506.221 2.662.664 3.47Zm8.654 5.04h-1.172l.75-4.446h1.579l-1.157 4.445Zm12.505-3.93V68.64c-.917.02-1.643.312-2.18.875-.531.557-.797 1.315-.797 2.273 0 .953.266 1.711.797 2.273.537.558 1.263.85 2.18.876Zm4.281-3.149c0-.953-.268-1.708-.804-2.266-.532-.562-1.253-.856-2.164-.882v6.296c.911-.02 1.632-.31 2.164-.867.536-.562.804-1.323.804-2.28Zm-4.281 4.313c-1.312-.026-2.365-.428-3.156-1.204-.792-.78-1.188-1.817-1.188-3.109 0-1.297.396-2.333 1.188-3.11.791-.78 1.844-1.182 3.156-1.202v-2.75h1.313v2.75c1.307.026 2.356.43 3.148 1.21.792.776 1.187 1.81 1.187 3.102 0 1.297-.395 2.336-1.187 3.117-.792.776-1.841 1.175-3.148 1.196v2.71H182.3v-2.71Zm10.616-1.133c.692 0 1.265-.2 1.718-.602.459-.4.688-.904.688-1.508v-.773l-2.266.148c-.635.042-1.101.175-1.398.399-.297.224-.446.55-.446.976 0 .422.159.756.477 1 .318.24.727.36 1.227.36Zm-.25 1.18c-.829 0-1.511-.227-2.047-.68-.532-.459-.797-1.068-.797-1.828 0-.75.265-1.339.797-1.766.531-.427 1.289-.67 2.273-.727l2.43-.148v-.766c0-.52-.162-.919-.485-1.195-.322-.276-.796-.414-1.421-.414-.506 0-.925.091-1.258.273-.334.183-.547.44-.641.774h-1.359c.088-.672.435-1.214 1.039-1.625.609-.412 1.364-.617 2.265-.617 1.021 0 1.81.247 2.368.742.557.495.836 1.182.836 2.062V76h-1.282v-1.242h-.125c-.27.448-.63.791-1.078 1.031-.448.24-.953.36-1.515.36Zm8.443-3.985h-.367V76h-1.344v-8.422h1.344v3.524h.367l3.336-3.524h1.633l-3.859 3.969L206.227 76h-1.743l-3.375-3.836Zm13.679-2.008h-1.36a1.914 1.914 0 0 0-.742-1.086c-.375-.286-.852-.43-1.43-.43-.755 0-1.357.282-1.804.844-.443.563-.664 1.32-.664 2.274 0 .969.223 1.742.671 2.32.448.573 1.047.86 1.797.86.568 0 1.039-.128 1.414-.383.381-.256.633-.62.758-1.094h1.36a3.016 3.016 0 0 1-1.118 1.945c-.619.495-1.422.742-2.406.742-1.182 0-2.122-.395-2.82-1.187-.698-.797-1.047-1.865-1.047-3.203 0-1.313.349-2.362 1.047-3.149.698-.786 1.635-1.18 2.812-1.18.985 0 1.787.258 2.407.774.625.516 1 1.167 1.125 1.953Zm3.271 5.922a.994.994 0 0 1-.718-.297.996.996 0 0 1-.297-.719c0-.28.099-.52.297-.718a.994.994 0 0 1 .718-.297c.282 0 .521.099.719.297a.979.979 0 0 1 .297.719.996.996 0 0 1-.297.718.978.978 0 0 1-.719.297Zm0-6.008a.994.994 0 0 1-.718-.297.996.996 0 0 1-.297-.718c0-.282.099-.521.297-.72a.994.994 0 0 1 .718-.296c.282 0 .521.099.719.297a.979.979 0 0 1 .297.719.996.996 0 0 1-.297.718.978.978 0 0 1-.719.297Zm11.786 8.094h-1.187c-.672-.838-1.193-1.854-1.563-3.047a13.018 13.018 0 0 1-.547-3.805c0-1.333.172-2.515.516-3.546.344-1.037.901-2.047 1.672-3.032h1.133c-.568.667-1.034 1.615-1.399 2.844a13.257 13.257 0 0 0-.539 3.734c0 1.22.151 2.376.453 3.47.308 1.088.795 2.215 1.461 3.382ZM237.344 76v-2.336h-5.492v-1.281c1.031-1.834 2.64-4.386 4.828-7.656h2.039v7.68h1.601v1.257h-1.601V76h-1.375Zm-4.055-3.68v.094h4.063v-6.383h-.094c-1.219 1.771-2.542 3.867-3.969 6.29Zm12.905 3.938c-.959 0-1.771-.263-2.438-.79-.661-.53-1.08-1.25-1.258-2.156h1.446c.151.526.427.94.828 1.243.406.302.885.453 1.437.453.917 0 1.628-.396 2.133-1.188.511-.791.784-1.937.821-3.437h-.125a3.047 3.047 0 0 1-1.204 1.281c-.526.302-1.125.453-1.796.453-1.073 0-1.959-.354-2.657-1.062-.698-.714-1.047-1.618-1.047-2.711 0-1.136.37-2.065 1.11-2.79.739-.728 1.687-1.093 2.844-1.093.843 0 1.583.219 2.218.656.636.438 1.128 1.073 1.477 1.906.364.855.547 1.901.547 3.141 0 1.938-.378 3.438-1.133 4.5-.755 1.063-1.823 1.594-3.203 1.594Zm-1.735-6.078c.474.479 1.084.718 1.829.718.744 0 1.356-.24 1.835-.718.485-.48.727-1.092.727-1.836 0-.755-.245-1.386-.734-1.89-.485-.506-1.089-.759-1.813-.759s-1.331.25-1.82.75c-.485.495-.727 1.112-.727 1.852 0 .77.235 1.398.703 1.883Zm12.155 6.086c-1.068 0-1.95-.3-2.648-.899-.698-.604-1.079-1.393-1.141-2.367h1.383c.062.61.315 1.102.758 1.477.448.37 1.002.554 1.664.554.755 0 1.362-.237 1.82-.71.464-.475.695-1.097.695-1.868 0-.77-.231-1.396-.695-1.875-.458-.484-1.057-.726-1.797-.726a2.8 2.8 0 0 0-1.375.335 2.372 2.372 0 0 0-.953.93h-1.32l.617-6.39h6.289v1.257h-5.188l-.32 3.618h.125c.547-.641 1.341-.961 2.383-.961 1.073 0 1.948.351 2.625 1.054.677.703 1.016 1.61 1.016 2.72 0 1.145-.365 2.075-1.094 2.788-.729.709-1.677 1.063-2.844 1.063Zm6.014 1.898c.667-1.167 1.151-2.294 1.453-3.383a12.74 12.74 0 0 0 .461-3.469c0-1.27-.18-2.518-.539-3.742-.359-1.229-.823-2.174-1.391-2.836h1.141c.771.985 1.326 1.993 1.664 3.024.344 1.031.516 2.216.516 3.555 0 1.333-.185 2.596-.555 3.789-.364 1.192-.883 2.213-1.555 3.062h-1.195Zm14.278-1.906c-.958 0-1.771-.263-2.437-.79-.662-.53-1.081-1.25-1.258-2.156h1.445c.151.526.427.94.828 1.243.407.302.886.453 1.438.453.917 0 1.627-.396 2.133-1.188.51-.791.784-1.937.82-3.437h-.125a3.039 3.039 0 0 1-1.203 1.281c-.526.302-1.125.453-1.797.453-1.073 0-1.958-.354-2.656-1.062-.698-.714-1.047-1.618-1.047-2.711 0-1.136.37-2.065 1.109-2.79.74-.728 1.688-1.093 2.844-1.093.844 0 1.583.219 2.219.656.635.438 1.127 1.073 1.476 1.906.365.855.547 1.901.547 3.141 0 1.938-.377 3.438-1.133 4.5-.755 1.063-1.823 1.594-3.203 1.594Zm-1.734-6.078c.474.479 1.083.718 1.828.718.745 0 1.357-.24 1.836-.718.484-.48.726-1.092.726-1.836 0-.755-.244-1.386-.734-1.89-.484-.506-1.088-.759-1.812-.759s-1.331.25-1.821.75c-.484.495-.726 1.112-.726 1.852 0 .77.234 1.398.703 1.883ZM286.303 76v-9.71h-.125l-2.867 2.077v-1.484l3-2.156h1.398V76h-1.406Zm8.858.258c-.849 0-1.589-.219-2.219-.656-.63-.443-1.122-1.079-1.476-1.907-.365-.854-.547-1.9-.547-3.14 0-1.938.377-3.438 1.133-4.5.755-1.063 1.822-1.594 3.203-1.594.958 0 1.768.266 2.429.797.667.526 1.089 1.242 1.266 2.148h-1.445c-.151-.526-.43-.94-.836-1.242-.401-.302-.878-.453-1.43-.453-.917 0-1.63.396-2.141 1.187-.505.792-.776 1.938-.812 3.438h.125a2.99 2.99 0 0 1 1.203-1.273c.526-.308 1.125-.461 1.797-.461 1.073 0 1.958.356 2.656 1.07.698.708 1.047 1.61 1.047 2.703 0 1.135-.37 2.068-1.109 2.797-.74.724-1.688 1.086-2.844 1.086Zm-1.836-1.992c.49.505 1.096.757 1.82.757s1.328-.247 1.813-.742c.489-.5.734-1.12.734-1.86 0-.77-.237-1.395-.711-1.874-.468-.484-1.075-.727-1.82-.727-.745 0-1.359.24-1.844.72-.479.478-.719 1.09-.719 1.835 0 .755.243 1.385.727 1.89Zm13.233-2.164h-5.125v-1.274h5.125v1.274ZM309.595 76l5.063-9.906v-.11h-6.031v-1.257h7.46v1.304L311.072 76h-1.477Zm12.311.266c-1.271 0-2.255-.516-2.953-1.547s-1.047-2.485-1.047-4.36c0-1.859.352-3.307 1.055-4.343.703-1.037 1.685-1.555 2.945-1.555 1.255 0 2.232.52 2.93 1.562.703 1.042 1.055 2.495 1.055 4.36 0 1.87-.349 3.318-1.047 4.344-.693 1.026-1.672 1.539-2.938 1.539Zm-1.922-2.438c.448.807 1.089 1.211 1.922 1.211.834 0 1.469-.401 1.906-1.203.443-.807.665-1.966.665-3.477 0-1.494-.224-2.645-.672-3.453-.443-.807-1.076-1.21-1.899-1.21s-1.461.406-1.914 1.218c-.448.807-.672 1.956-.672 3.445 0 1.506.222 2.662.664 3.47Zm13.389-1.726h-5.125v-1.274h5.125v1.274Zm6.171 4.156c-.959 0-1.771-.263-2.438-.79-.661-.53-1.08-1.25-1.258-2.156h1.446c.151.526.427.94.828 1.243.406.302.885.453 1.437.453.917 0 1.628-.396 2.133-1.188.511-.791.784-1.937.821-3.437h-.125a3.047 3.047 0 0 1-1.204 1.281c-.526.302-1.125.453-1.796.453-1.073 0-1.959-.354-2.657-1.062-.698-.714-1.047-1.618-1.047-2.711 0-1.136.37-2.065 1.11-2.79.739-.728 1.687-1.093 2.844-1.093.843 0 1.583.219 2.218.656.636.438 1.128 1.073 1.477 1.906.364.855.547 1.901.547 3.141 0 1.938-.378 3.438-1.133 4.5-.755 1.063-1.823 1.594-3.203 1.594Zm-1.735-6.078c.474.479 1.084.718 1.829.718.744 0 1.356-.24 1.835-.718.485-.48.727-1.092.727-1.836 0-.755-.245-1.386-.734-1.89-.485-.506-1.089-.759-1.813-.759s-1.331.25-1.82.75c-.485.495-.727 1.112-.727 1.852 0 .77.235 1.398.703 1.883ZM351.394 76v-2.336h-5.492v-1.281c1.031-1.834 2.64-4.386 4.828-7.656h2.039v7.68h1.601v1.257h-1.601V76h-1.375Zm-4.055-3.68v.094h4.063v-6.383h-.094c-1.219 1.771-2.542 3.867-3.969 6.29ZM6.055 108.266c-1.532 0-2.745-.529-3.64-1.586-.892-1.058-1.337-2.495-1.337-4.313 0-1.818.445-3.255 1.336-4.312.89-1.063 2.102-1.594 3.633-1.594 1.187 0 2.203.338 3.047 1.016.844.677 1.349 1.56 1.515 2.648H9.18c-.187-.73-.562-1.305-1.124-1.727-.563-.427-1.232-.64-2.008-.64-1.083 0-1.943.414-2.578 1.242-.63.828-.946 1.951-.946 3.367 0 1.417.318 2.539.954 3.367.635.823 1.494 1.235 2.578 1.235.786 0 1.458-.188 2.015-.563.563-.38.933-.896 1.11-1.547h1.43c-.188 1.037-.696 1.865-1.524 2.485-.823.614-1.833.922-3.031.922Zm12.46-.266v-7.297h-4.126V108h-1.344v-8.422h6.813V108h-1.344Zm7.482-7.383c-.672 0-1.224.227-1.656.68-.433.453-.675 1.052-.727 1.797h4.64c-.015-.745-.229-1.344-.64-1.797-.411-.453-.95-.68-1.617-.68Zm2.219 5.203h1.343a2.92 2.92 0 0 1-1.242 1.711c-.62.412-1.388.617-2.305.617-1.166 0-2.09-.39-2.773-1.171-.682-.787-1.023-1.847-1.023-3.18 0-1.328.343-2.388 1.03-3.18.688-.791 1.61-1.187 2.767-1.187 1.135 0 2.028.377 2.68 1.132.65.756.976 1.79.976 3.102v.516h-6.055v.062c.037.834.27 1.495.703 1.985.438.489 1.013.734 1.727.734 1.088 0 1.812-.38 2.172-1.141Zm11.889 4.407h-1.266V108h-6.812v-8.422h1.343v7.297h4.047v-7.297h1.344v7.297h1.344v3.352Zm3.21-2.227H41.97v-8.422h1.344v6.281h.125l4.195-6.28h1.344V108h-1.344v-6.281h-.125L43.314 108Zm11.044-1.031c.693 0 1.266-.201 1.72-.602.457-.401.687-.903.687-1.508v-.773l-2.266.148c-.635.042-1.102.175-1.398.399-.297.224-.446.549-.446.976 0 .422.16.756.477 1 .317.24.726.36 1.226.36Zm-.25 1.179c-.828 0-1.51-.226-2.047-.679-.53-.459-.796-1.068-.796-1.828 0-.75.265-1.339.797-1.766.53-.427 1.289-.669 2.273-.727l2.43-.148v-.766c0-.52-.162-.919-.485-1.195-.323-.276-.797-.414-1.422-.414-.505 0-.924.091-1.257.273-.334.183-.547.441-.641.774H51.6c.09-.672.435-1.214 1.04-1.625.609-.412 1.364-.617 2.265-.617 1.021 0 1.81.247 2.367.742.558.495.836 1.182.836 2.062V108h-1.28v-1.242h-.126a2.77 2.77 0 0 1-1.078 1.031c-.448.24-.953.359-1.516.359Zm8.757-3.843a12.33 12.33 0 0 1-.157 1.281c-.067.37-.164.716-.289 1.039-.12.323-.27.589-.453.797a1.819 1.819 0 0 1-.664.476c-.265.115-.57.172-.914.172-.193 0-.357-.028-.492-.086v-1.234c.125.042.266.062.422.062.396 0 .69-.213.883-.64.198-.432.325-1.065.382-1.899l.328-4.695h5.508V108h-1.343v-7.297H63.13l-.265 3.602Zm8.67 3.695h-1.344v-8.422h1.344v6.281h.125l4.195-6.28H77.2V108h-1.344v-6.281h-.125L71.536 108Zm15.42-5.844h-1.36a1.921 1.921 0 0 0-.741-1.086c-.375-.286-.852-.429-1.43-.429-.755 0-1.357.281-1.805.843-.442.563-.664 1.321-.664 2.274 0 .969.224 1.742.672 2.32.448.573 1.047.86 1.797.86.568 0 1.04-.128 1.414-.383.38-.256.633-.62.758-1.094h1.36a3.015 3.015 0 0 1-1.118 1.945c-.62.495-1.422.742-2.406.742-1.183 0-2.123-.395-2.82-1.187-.698-.797-1.047-1.865-1.047-3.203 0-1.313.349-2.362 1.046-3.149.698-.786 1.636-1.18 2.813-1.18.984 0 1.787.258 2.406.774.625.516 1 1.167 1.125 1.953Zm7.944-2.578v1.125h-2.734V108h-1.344v-7.297h-2.734v-1.125H94.9Zm12.981 7.406c-.692.776-1.638 1.164-2.836 1.164s-2.146-.388-2.843-1.164c-.693-.781-1.04-1.846-1.04-3.195 0-1.354.347-2.419 1.04-3.195.692-.776 1.64-1.164 2.843-1.164s2.151.388 2.844 1.164c.693.776 1.039 1.841 1.039 3.195 0 1.349-.349 2.414-1.047 3.195Zm-4.679-.867c.432.547 1.046.821 1.843.821.797 0 1.412-.274 1.844-.821.432-.552.648-1.328.648-2.328 0-1-.216-1.773-.648-2.32-.432-.552-1.047-.828-1.844-.828-.797 0-1.411.276-1.843.828-.433.547-.649 1.32-.649 2.32 0 1 .216 1.776.649 2.328Zm13.639-6.539v1.125h-2.735V108h-1.344v-7.297h-2.734v-1.125h6.813Zm7.107 7.297v-6.172h-3.195l-.265 3.602c-.089 1.135-.321 1.95-.696 2.445v.125h4.156Zm-5.164 3.352h-1.265v-3.352h.703c.292-.193.521-.521.687-.984a6.067 6.067 0 0 0 .313-1.618l.328-4.695h5.742v7.297h1.344v3.352h-1.266V108h-6.586v2.227Zm13.085-9.61c-.672 0-1.224.227-1.656.68-.433.453-.675 1.052-.727 1.797h4.641c-.016-.745-.23-1.344-.641-1.797-.412-.453-.951-.68-1.617-.68Zm2.219 5.203h1.343a2.92 2.92 0 0 1-1.242 1.711c-.62.412-1.388.617-2.305.617-1.166 0-2.091-.39-2.773-1.171-.682-.787-1.023-1.847-1.023-3.18 0-1.328.343-2.388 1.031-3.18.687-.791 1.609-1.187 2.765-1.187 1.136 0 2.029.377 2.68 1.132.651.756.977 1.79.977 3.102v.516h-6.055v.062c.036.834.271 1.495.703 1.985.438.489 1.013.734 1.727.734 1.088 0 1.812-.38 2.172-1.141Zm5.6-1.515c-.037.484-.089.911-.157 1.281-.067.37-.164.716-.289 1.039-.12.323-.271.589-.453.797a1.814 1.814 0 0 1-.664.476c-.266.115-.57.172-.914.172-.193 0-.357-.028-.492-.086v-1.234c.125.042.265.062.422.062.395 0 .69-.213.882-.64.198-.432.326-1.065.383-1.899l.328-4.695h5.508V108h-1.344v-7.297h-2.945l-.265 3.602Zm9.928 2.664c.692 0 1.265-.201 1.718-.602.459-.401.688-.903.688-1.508v-.773l-2.266.148c-.635.042-1.101.175-1.398.399-.297.224-.445.549-.445.976 0 .422.158.756.476 1 .318.24.727.36 1.227.36Zm-.25 1.179c-.828 0-1.511-.226-2.047-.679-.531-.459-.797-1.068-.797-1.828 0-.75.266-1.339.797-1.766.531-.427 1.289-.669 2.273-.727l2.43-.148v-.766c0-.52-.162-.919-.484-1.195-.323-.276-.797-.414-1.422-.414-.506 0-.925.091-1.258.273-.334.183-.547.441-.641.774h-1.359c.088-.672.435-1.214 1.039-1.625.609-.412 1.364-.617 2.266-.617 1.02 0 1.809.247 2.367.742.557.495.836 1.182.836 2.062V108h-1.282v-1.242h-.125c-.27.448-.63.791-1.078 1.031-.448.24-.953.359-1.515.359Zm16.817-.148v-7.297h-4.125V108h-1.344v-8.422h6.813V108h-1.344Zm10.42-1.016c-.693.776-1.638 1.164-2.836 1.164s-2.146-.388-2.844-1.164c-.692-.781-1.039-1.846-1.039-3.195 0-1.354.347-2.419 1.039-3.195.693-.776 1.641-1.164 2.844-1.164 1.203 0 2.151.388 2.844 1.164.693.776 1.039 1.841 1.039 3.195 0 1.349-.349 2.414-1.047 3.195Zm-4.68-.867c.433.547 1.047.821 1.844.821.797 0 1.412-.274 1.844-.821.432-.552.648-1.328.648-2.328 0-1-.216-1.773-.648-2.32-.432-.552-1.047-.828-1.844-.828-.797 0-1.411.276-1.844.828-.432.547-.648 1.32-.648 2.32 0 1 .216 1.776.648 2.328Zm16.802-6.687c1.073 0 1.93.395 2.57 1.187.646.792.969 1.849.969 3.172 0 1.318-.323 2.375-.969 3.172-.646.792-1.502 1.187-2.57 1.187-.599 0-1.13-.122-1.594-.367a2.43 2.43 0 0 1-1.039-1.047h-.125v4.078h-1.344V99.578h1.282v1.406h.125a2.979 2.979 0 0 1 1.117-1.14 3.104 3.104 0 0 1 1.578-.414Zm-.32 7.508c.771 0 1.375-.279 1.812-.836.438-.558.656-1.329.656-2.313 0-.984-.218-1.755-.656-2.312-.432-.558-1.034-.836-1.804-.836-.761 0-1.365.283-1.813.851-.448.563-.672 1.328-.672 2.297 0 .964.221 1.729.664 2.297.448.568 1.052.852 1.813.852Zm8.826.031c.693 0 1.266-.201 1.719-.602a1.92 1.92 0 0 0 .687-1.508v-.773l-2.265.148c-.636.042-1.102.175-1.399.399-.296.224-.445.549-.445.976 0 .422.159.756.477 1 .317.24.726.36 1.226.36Zm-.25 1.179c-.828 0-1.51-.226-2.047-.679-.531-.459-.797-1.068-.797-1.828 0-.75.266-1.339.797-1.766.532-.427 1.289-.669 2.274-.727l2.429-.148v-.766c0-.52-.161-.919-.484-1.195-.323-.276-.797-.414-1.422-.414-.505 0-.924.091-1.258.273-.333.183-.546.441-.64.774h-1.36c.089-.672.435-1.214 1.039-1.625.61-.412 1.365-.617 2.266-.617 1.021 0 1.81.247 2.367.742.558.495.836 1.182.836 2.062V108H199.7v-1.242h-.125c-.271.448-.63.791-1.078 1.031-.448.24-.953.359-1.516.359Zm8.366-2.015c.443.536 1.068.805 1.875.805.807 0 1.43-.269 1.867-.805.443-.537.664-1.292.664-2.266 0-.927-.221-1.643-.664-2.148-.437-.511-1.06-.766-1.867-.766-.807 0-1.432.255-1.875.766-.438.505-.656 1.221-.656 2.148 0 .974.218 1.729.656 2.266Zm-.899-4.828h.125a3.05 3.05 0 0 1 1.125-1.133c.48-.281 1.055-.422 1.727-.422 1.12 0 2.018.37 2.695 1.109.683.735 1.024 1.737 1.024 3.008 0 1.328-.352 2.375-1.055 3.141-.698.76-1.654 1.14-2.867 1.14-1.266 0-2.237-.421-2.914-1.265-.672-.849-1.008-2.123-1.008-3.821 0-.807.039-1.52.117-2.14.084-.62.222-1.195.414-1.727.198-.536.456-.979.774-1.328a3.327 3.327 0 0 1 1.211-.828c.494-.208 1.073-.328 1.734-.36l.844-.038a7.94 7.94 0 0 0 1.929-.344c.167-.063.256-.1.266-.11v1.204a1.51 1.51 0 0 1-.18.125c-.083.046-.307.117-.671.21a6.693 6.693 0 0 1-1.282.165l-.859.039c-.552.026-1.018.117-1.399.273-.38.151-.687.378-.921.68a3.36 3.36 0 0 0-.539 1.023 7.46 7.46 0 0 0-.29 1.399Zm15.358 5.679c-.692.776-1.638 1.164-2.836 1.164s-2.146-.388-2.843-1.164c-.693-.781-1.04-1.846-1.04-3.195 0-1.354.347-2.419 1.04-3.195.692-.776 1.64-1.164 2.843-1.164s2.151.388 2.844 1.164c.693.776 1.039 1.841 1.039 3.195 0 1.349-.349 2.414-1.047 3.195Zm-4.679-.867c.432.547 1.046.821 1.843.821.797 0 1.412-.274 1.844-.821.432-.552.648-1.328.648-2.328 0-1-.216-1.773-.648-2.32-.432-.552-1.047-.828-1.844-.828-.797 0-1.411.276-1.843.828-.433.547-.649 1.32-.649 2.32 0 1 .216 1.776.649 2.328Zm13.639-6.539v1.125h-2.735V108h-1.343v-7.297h-2.735v-1.125h6.813Zm5.115 1.039c-.672 0-1.224.227-1.656.68-.432.453-.674 1.052-.727 1.797h4.641c-.016-.745-.229-1.344-.641-1.797-.411-.453-.95-.68-1.617-.68Zm2.219 5.203h1.344a2.92 2.92 0 0 1-1.242 1.711c-.62.412-1.388.617-2.305.617-1.167 0-2.091-.39-2.774-1.171-.682-.787-1.023-1.847-1.023-3.18 0-1.328.344-2.388 1.031-3.18.688-.791 1.61-1.187 2.766-1.187 1.135 0 2.029.377 2.68 1.132.651.756.976 1.79.976 3.102v.516h-6.055v.062c.037.834.271 1.495.704 1.985.437.489 1.013.734 1.726.734 1.089 0 1.813-.38 2.172-1.141Zm15.403-3.664h-1.359a1.924 1.924 0 0 0-.742-1.086c-.375-.286-.852-.429-1.43-.429-.755 0-1.357.281-1.805.843-.443.563-.664 1.321-.664 2.274 0 .969.224 1.742.672 2.32.448.573 1.047.86 1.797.86.568 0 1.039-.128 1.414-.383.38-.256.633-.62.758-1.094h1.359a3.014 3.014 0 0 1-1.117 1.945c-.62.495-1.422.742-2.406.742-1.183 0-2.123-.395-2.821-1.187-.698-.797-1.046-1.865-1.046-3.203 0-1.313.348-2.362 1.046-3.149.698-.786 1.636-1.18 2.813-1.18.984 0 1.786.258 2.406.774.625.516 1 1.167 1.125 1.953Zm10.95-2.726c1.073 0 1.93.395 2.57 1.187.646.792.969 1.849.969 3.172 0 1.318-.323 2.375-.969 3.172-.645.792-1.502 1.187-2.57 1.187-.599 0-1.13-.122-1.594-.367a2.43 2.43 0 0 1-1.039-1.047h-.125v4.078h-1.343V99.578h1.281v1.406h.125a2.979 2.979 0 0 1 1.117-1.14 3.104 3.104 0 0 1 1.578-.414Zm-.32 7.508c.771 0 1.375-.279 1.812-.836.438-.558.657-1.329.657-2.313 0-.984-.219-1.755-.657-2.312-.432-.558-1.034-.836-1.804-.836-.761 0-1.365.283-1.813.851-.448.563-.672 1.328-.672 2.297 0 .964.222 1.729.664 2.297.448.568 1.052.852 1.813.852Zm9.592-6.321c-.672 0-1.224.227-1.656.68-.433.453-.675 1.052-.727 1.797h4.641c-.016-.745-.229-1.344-.641-1.797-.411-.453-.95-.68-1.617-.68Zm2.219 5.203h1.344a2.925 2.925 0 0 1-1.243 1.711c-.619.412-1.388.617-2.304.617-1.167 0-2.092-.39-2.774-1.171-.682-.787-1.023-1.847-1.023-3.18 0-1.328.344-2.388 1.031-3.18.688-.791 1.609-1.187 2.766-1.187 1.135 0 2.028.377 2.679 1.132.651.756.977 1.79.977 3.102v.516h-6.055v.062c.037.834.271 1.495.703 1.985.438.489 1.013.734 1.727.734 1.088 0 1.812-.38 2.172-1.141Zm9.201-5.117h-4.047V108h-1.343v-8.422h5.39v1.125Zm2.874 10.344c-.214 0-.414-.016-.602-.047v-1.148c.136.026.323.039.563.039.39 0 .7-.105.929-.313.235-.208.44-.565.618-1.07l.156-.5-3.117-8.43h1.453l2.312 6.93h.125l2.305-6.93h1.43l-3.289 8.938c-.36.974-.743 1.638-1.149 1.992-.406.359-.984.539-1.734.539Zm9.928-6.742a12.7 12.7 0 0 1-.156 1.281c-.068.37-.164.716-.289 1.039-.12.323-.271.589-.454.797a1.814 1.814 0 0 1-.664.476c-.265.115-.57.172-.914.172-.192 0-.356-.028-.492-.086v-1.234c.125.042.266.062.422.062.396 0 .69-.213.883-.64.198-.432.325-1.065.383-1.899l.328-4.695h5.508V108h-1.344v-7.297h-2.946l-.265 3.602Zm10.225-.446h1.586v-3.156h-1.586c-.557 0-1 .146-1.328.438-.328.286-.492.685-.492 1.195 0 .448.166.815.5 1.102.333.281.773.421 1.32.421Zm1.586 4.141v-3.016h-1.446L304.164 108h-1.602l2.352-3.266c-.594-.166-1.06-.458-1.398-.875-.339-.416-.508-.914-.508-1.492 0-.864.284-1.544.851-2.039.573-.5 1.344-.75 2.313-.75h2.93V108h-1.344Zm10.217-8.422v1.125h-2.734V108h-1.344v-7.297h-2.734v-1.125h6.812Zm8.053 7.406c-.693.776-1.638 1.164-2.836 1.164s-2.146-.388-2.844-1.164c-.692-.781-1.039-1.846-1.039-3.195 0-1.354.347-2.419 1.039-3.195.693-.776 1.641-1.164 2.844-1.164 1.203 0 2.151.388 2.844 1.164.693.776 1.039 1.841 1.039 3.195 0 1.349-.349 2.414-1.047 3.195Zm-4.68-.867c.433.547 1.047.821 1.844.821.797 0 1.412-.274 1.844-.821.432-.552.648-1.328.648-2.328 0-1-.216-1.773-.648-2.32-.432-.552-1.047-.828-1.844-.828-.797 0-1.411.276-1.844.828-.432.547-.648 1.32-.648 2.32 0 1 .216 1.776.648 2.328Zm12.186-6.687c1.073 0 1.93.395 2.571 1.187.646.792.968 1.849.968 3.172 0 1.318-.322 2.375-.968 3.172-.646.792-1.503 1.187-2.571 1.187-.599 0-1.13-.122-1.593-.367a2.425 2.425 0 0 1-1.039-1.047h-.125v4.078h-1.344V99.578h1.281v1.406h.125a2.979 2.979 0 0 1 1.117-1.14 3.104 3.104 0 0 1 1.578-.414Zm-.32 7.508c.771 0 1.375-.279 1.813-.836.437-.558.656-1.329.656-2.313 0-.984-.219-1.755-.656-2.312-.433-.558-1.034-.836-1.805-.836-.761 0-1.365.283-1.813.851-.448.563-.672 1.328-.672 2.297 0 .964.222 1.729.665 2.297.447.568 1.052.852 1.812.852ZM344.986 108v-3.812h-4.203V108h-1.344v-8.422h1.344v3.484h4.203v-3.484h1.344V108h-1.344Zm11.483 0v-8.422h1.343V108h-1.343Zm-4.36-4.594h-1.664v3.469h1.664c.552 0 .993-.156 1.321-.469.333-.317.5-.739.5-1.265 0-.526-.167-.946-.5-1.258-.328-.318-.769-.477-1.321-.477ZM349.102 108v-8.422h1.343v2.703h1.664c.964 0 1.732.258 2.305.774.573.515.859 1.211.859 2.086 0 .875-.286 1.57-.859 2.086-.573.515-1.341.773-2.305.773h-3.007Zm12.834 0h-1.344v-8.422h1.633l3.016 6.531h.125l3.023-6.53h1.57V108h-1.351v-5.992h-.149l-2.664 5.758h-1.047l-2.664-5.758h-.148V108Zm12.147 0h-1.344v-8.422h1.344v6.281h.125l4.195-6.28h1.344V108h-1.344v-6.281h-.125L374.083 108Zm19.364-1.016c-.693.776-1.638 1.164-2.836 1.164s-2.146-.388-2.844-1.164c-.693-.781-1.039-1.846-1.039-3.195 0-1.354.346-2.419 1.039-3.195.693-.776 1.641-1.164 2.844-1.164 1.203 0 2.151.388 2.844 1.164.692.776 1.039 1.841 1.039 3.195 0 1.349-.349 2.414-1.047 3.195Zm-4.68-.867c.432.547 1.047.821 1.844.821.797 0 1.411-.274 1.844-.821.432-.552.648-1.328.648-2.328 0-1-.216-1.773-.648-2.32-.433-.552-1.047-.828-1.844-.828-.797 0-1.412.276-1.844.828-.432.547-.648 1.32-.648 2.32 0 1 .216 1.776.648 2.328Zm12.186-6.687c1.073 0 1.93.395 2.57 1.187.646.792.969 1.849.969 3.172 0 1.318-.323 2.375-.969 3.172-.645.792-1.502 1.187-2.57 1.187-.599 0-1.13-.122-1.594-.367a2.43 2.43 0 0 1-1.039-1.047h-.125v4.078h-1.343V99.578h1.281v1.406h.125a2.979 2.979 0 0 1 1.117-1.14 3.104 3.104 0 0 1 1.578-.414Zm-.32 7.508c.771 0 1.375-.279 1.812-.836.438-.558.657-1.329.657-2.313 0-.984-.219-1.755-.657-2.312-.432-.558-1.034-.836-1.804-.836-.761 0-1.365.283-1.813.851-.448.563-.672 1.328-.672 2.297 0 .964.222 1.729.664 2.297.448.568 1.052.852 1.813.852Zm11.615-6.235h-4.046V108h-1.344v-8.422h5.39v1.125Zm4.515 6.266c.692 0 1.265-.201 1.718-.602.459-.401.688-.903.688-1.508v-.773l-2.266.148c-.635.042-1.101.175-1.398.399-.297.224-.446.549-.446.976 0 .422.159.756.477 1 .318.24.727.36 1.227.36Zm-.25 1.179c-.829 0-1.511-.226-2.047-.679-.532-.459-.797-1.068-.797-1.828 0-.75.265-1.339.797-1.766.531-.427 1.289-.669 2.273-.727l2.43-.148v-.766c0-.52-.162-.919-.485-1.195-.323-.276-.796-.414-1.421-.414-.506 0-.925.091-1.258.273-.334.183-.547.441-.641.774h-1.359c.088-.672.435-1.214 1.039-1.625.609-.412 1.364-.617 2.265-.617 1.021 0 1.81.247 2.368.742.557.495.836 1.182.836 2.062V108h-1.282v-1.242h-.125c-.271.448-.63.791-1.078 1.031-.448.24-.953.359-1.515.359Zm12.279-.148v-3.812h-4.203V108h-1.344v-8.422h1.344v3.484h4.203v-3.484h1.344V108h-1.344Zm6.717-1.031c.693 0 1.266-.201 1.719-.602a1.92 1.92 0 0 0 .688-1.508v-.773l-2.266.148c-.635.042-1.102.175-1.398.399-.297.224-.446.549-.446.976 0 .422.159.756.477 1 .318.24.726.36 1.226.36Zm-.25 1.179c-.828 0-1.51-.226-2.047-.679-.531-.459-.796-1.068-.796-1.828 0-.75.265-1.339.796-1.766.532-.427 1.29-.669 2.274-.727l2.43-.148v-.766c0-.52-.162-.919-.485-1.195-.323-.276-.797-.414-1.422-.414-.505 0-.924.091-1.257.273-.334.183-.547.441-.641.774h-1.359c.088-.672.434-1.214 1.039-1.625.609-.412 1.364-.617 2.265-.617 1.021 0 1.81.247 2.367.742.558.495.836 1.182.836 2.062V108h-1.281v-1.242h-.125c-.271.448-.63.791-1.078 1.031-.448.24-.953.359-1.516.359Zm8.077-.148h-1.344v-8.422h1.633l3.016 6.531h.125l3.023-6.53h1.57V108h-1.351v-5.992h-.149l-2.664 5.758h-1.047l-2.664-5.758h-.148V108Zm12.147 0h-1.344v-8.422h1.344v6.281h.125l4.195-6.28h1.344V108h-1.344v-6.281h-.125L455.483 108Zm17.981-11.54c1.599 0 2.857.532 3.773 1.595.922 1.057 1.383 2.492 1.383 4.304 0 1.813-.461 3.25-1.383 4.313-.916 1.062-2.174 1.594-3.773 1.594-1.609 0-2.875-.532-3.797-1.594-.922-1.063-1.383-2.5-1.383-4.313 0-1.812.464-3.247 1.391-4.304.932-1.063 2.195-1.594 3.789-1.594Zm0 1.298c-1.146 0-2.055.414-2.727 1.242-.671.828-1.007 1.948-1.007 3.359 0 1.412.33 2.534.992 3.368.667.828 1.581 1.242 2.742 1.242 1.151 0 2.057-.417 2.719-1.25.661-.834.992-1.953.992-3.36 0-1.416-.331-2.536-.992-3.359-.662-.828-1.568-1.242-2.719-1.242Zm12.6-1.297c1.599 0 2.857.531 3.773 1.594.922 1.057 1.383 2.492 1.383 4.304 0 1.813-.461 3.25-1.383 4.313-.916 1.062-2.174 1.594-3.773 1.594-1.609 0-2.875-.532-3.797-1.594-.922-1.063-1.383-2.5-1.383-4.313 0-1.812.464-3.247 1.391-4.304.932-1.063 2.195-1.594 3.789-1.594Zm0 1.297c-1.146 0-2.055.414-2.727 1.242-.671.828-1.007 1.948-1.007 3.359 0 1.412.33 2.534.992 3.368.667.828 1.581 1.242 2.742 1.242 1.151 0 2.057-.417 2.719-1.25.661-.834.992-1.953.992-3.36 0-1.416-.331-2.536-.992-3.359-.662-.828-1.568-1.242-2.719-1.242Zm12.6-1.297c1.599 0 2.857.531 3.774 1.594.921 1.057 1.382 2.492 1.382 4.304 0 1.813-.461 3.25-1.382 4.313-.917 1.062-2.175 1.594-3.774 1.594-1.609 0-2.875-.532-3.797-1.594-.922-1.063-1.383-2.5-1.383-4.313 0-1.812.464-3.247 1.391-4.304.932-1.063 2.195-1.594 3.789-1.594Zm0 1.297c-1.146 0-2.055.414-2.726 1.242-.672.828-1.008 1.948-1.008 3.359 0 1.412.33 2.534.992 3.368.667.828 1.581 1.242 2.742 1.242 1.151 0 2.057-.417 2.719-1.25.661-.834.992-1.953.992-3.36 0-1.416-.331-2.536-.992-3.359-.662-.828-1.568-1.242-2.719-1.242Zm13.942 5.765v.125l2.742 3.219h-1.593l-2.735-3.25v-.062l2.735-3.25h1.593l-2.742 3.218Zm3.742 0v.125l2.743 3.219h-1.602l-2.734-3.25v-.062l2.742-3.25h1.594l-2.743 3.218ZM533.222 108h-1.313v-8.61h-.093l-3.555 8.532h-1.188l-3.554-8.531h-.094V108h-1.313V96.727h1.633l3.86 9.328h.125l3.859-9.328h1.633V108Zm7.67.266c-1.531 0-2.745-.529-3.64-1.586-.891-1.058-1.336-2.495-1.336-4.313 0-1.818.445-3.255 1.336-4.312.89-1.063 2.101-1.594 3.632-1.594 1.188 0 2.204.338 3.047 1.016.844.677 1.349 1.56 1.516 2.648h-1.43c-.187-.73-.562-1.305-1.125-1.727-.562-.427-1.232-.64-2.008-.64-1.083 0-1.942.414-2.578 1.242-.63.828-.945 1.951-.945 3.367 0 1.417.318 2.539.953 3.367.636.823 1.495 1.235 2.578 1.235.787 0 1.459-.188 2.016-.563.562-.38.932-.896 1.109-1.547h1.43c-.188 1.037-.695 1.865-1.524 2.485-.822.614-1.833.922-3.031.922Zm9.178-4.414c-.041.692-.119 1.252-.234 1.679a2.78 2.78 0 0 1-.555 1.11v.093h5.469v-8.742h-4.312l-.368 5.86ZM548.008 108v2.227h-1.305v-3.493h.836c.391-.208.677-.549.859-1.023.188-.479.305-1.109.352-1.891l.43-7.093h6.976v10.007h1.406v3.493h-1.304V108h-8.25Zm20.762-2.281v-6.79c-1.088.042-1.955.365-2.601.97-.641.598-.961 1.406-.961 2.421 0 1.016.318 1.828.953 2.438.641.604 1.51.924 2.609.961Zm3.985-.961c.64-.604.961-1.414.961-2.43 0-1.016-.321-1.825-.961-2.43-.636-.609-1.5-.932-2.594-.968v6.789c1.088-.042 1.953-.362 2.594-.961Zm-3.985 2.219c-1.51-.037-2.718-.469-3.625-1.297-.906-.834-1.359-1.953-1.359-3.36 0-1.406.453-2.52 1.359-3.343.912-.829 2.12-1.264 3.625-1.305V96.57h1.391v1.102c1.51.036 2.716.471 3.617 1.305.906.828 1.36 1.945 1.36 3.351s-.456 2.524-1.368 3.352c-.906.823-2.109 1.255-3.609 1.297v1.179h-1.391v-1.179Zm11.374-.008c.692 0 1.265-.201 1.718-.602.459-.401.688-.903.688-1.508v-.773l-2.266.148c-.635.042-1.101.175-1.398.399-.297.224-.445.549-.445.976 0 .422.158.756.476 1 .318.24.727.36 1.227.36Zm-.25 1.179c-.828 0-1.511-.226-2.047-.679-.531-.459-.797-1.068-.797-1.828 0-.75.266-1.339.797-1.766.531-.427 1.289-.669 2.273-.727l2.43-.148v-.766c0-.52-.161-.919-.484-1.195-.323-.276-.797-.414-1.422-.414-.505 0-.925.091-1.258.273-.333.183-.547.441-.641.774h-1.359c.088-.672.435-1.214 1.039-1.625.609-.412 1.365-.617 2.266-.617 1.02 0 1.81.247 2.367.742.557.495.836 1.182.836 2.062V108h-1.282v-1.242h-.125c-.27.448-.63.791-1.078 1.031-.448.24-.953.359-1.515.359Zm10.834-8.718c1.073 0 1.93.395 2.57 1.187.646.792.969 1.849.969 3.172 0 1.318-.323 2.375-.969 3.172-.645.792-1.502 1.187-2.57 1.187-.599 0-1.13-.122-1.594-.367a2.436 2.436 0 0 1-1.039-1.047h-.125v4.078h-1.343V99.578h1.281v1.406h.125a2.979 2.979 0 0 1 1.117-1.14 3.104 3.104 0 0 1 1.578-.414Zm-.32 7.508c.771 0 1.375-.279 1.812-.836.438-.558.657-1.329.657-2.313 0-.984-.219-1.755-.657-2.312-.432-.558-1.034-.836-1.804-.836-.761 0-1.365.283-1.813.851-.448.563-.672 1.328-.672 2.297 0 .964.222 1.729.664 2.297.448.568 1.052.852 1.813.852Zm7.569 1.062h-1.344v-8.422h1.633l3.015 6.531h.125l3.024-6.53H606V108h-1.352v-5.992h-.148l-2.664 5.758h-1.047l-2.664-5.758h-.148V108Zm13.404-1.031c.693 0 1.266-.201 1.719-.602a1.92 1.92 0 0 0 .687-1.508v-.773l-2.265.148c-.636.042-1.102.175-1.399.399-.296.224-.445.549-.445.976 0 .422.159.756.477 1 .317.24.726.36 1.226.36Zm-.25 1.179c-.828 0-1.51-.226-2.047-.679-.531-.459-.797-1.068-.797-1.828 0-.75.266-1.339.797-1.766.532-.427 1.289-.669 2.274-.727l2.429-.148v-.766c0-.52-.161-.919-.484-1.195-.323-.276-.797-.414-1.422-.414-.505 0-.924.091-1.258.273-.333.183-.546.441-.64.774h-1.36c.089-.672.435-1.214 1.039-1.625.61-.412 1.365-.617 2.266-.617 1.021 0 1.81.247 2.367.742.558.495.836 1.182.836 2.062V108h-1.281v-1.242h-.125c-.271.448-.63.791-1.078 1.031-.448.24-.953.359-1.516.359Zm13.71-5.992h-1.36a1.919 1.919 0 0 0-.742-1.086c-.375-.286-.851-.429-1.43-.429-.755 0-1.356.281-1.804.843-.443.563-.664 1.321-.664 2.274 0 .969.224 1.742.672 2.32.447.573 1.046.86 1.796.86.568 0 1.039-.128 1.414-.383.381-.256.633-.62.758-1.094h1.36a3.015 3.015 0 0 1-1.118 1.945c-.619.495-1.421.742-2.406.742-1.182 0-2.122-.395-2.82-1.187-.698-.797-1.047-1.865-1.047-3.203 0-1.313.349-2.362 1.047-3.149.698-.786 1.635-1.18 2.812-1.18.985 0 1.787.258 2.407.774.625.516 1 1.167 1.125 1.953Zm5.24 1.25h-1.664v3.469h1.664c.552 0 .992-.156 1.321-.469.333-.317.5-.739.5-1.265 0-.526-.167-.946-.5-1.258-.329-.318-.769-.477-1.321-.477ZM627.073 108v-8.422h1.344v2.703h1.664c.964 0 1.732.258 2.305.774.573.515.859 1.211.859 2.086 0 .875-.286 1.57-.859 2.086-.573.515-1.341.773-2.305.773h-3.008Zm15.038.148c-1.115 0-2.008-.351-2.68-1.054-.672-.703-1.044-1.672-1.117-2.906h-1.531V108h-1.344v-8.422h1.344v3.484h1.562c.12-1.14.511-2.031 1.172-2.671.667-.641 1.531-.961 2.594-.961 1.177 0 2.104.388 2.781 1.164.683.776 1.024 1.841 1.024 3.195 0 1.349-.341 2.414-1.024 3.195-.677.776-1.604 1.164-2.781 1.164Zm-1.789-2.031c.422.547 1.018.821 1.789.821.771 0 1.365-.274 1.781-.821.422-.552.633-1.328.633-2.328 0-1-.211-1.773-.633-2.32-.416-.552-1.01-.828-1.781-.828-.771 0-1.367.276-1.789.828-.417.547-.625 1.32-.625 2.32 0 1 .208 1.776.625 2.328Zm13.506-6.539v1.125h-2.734V108h-1.344v-7.297h-2.734v-1.125h6.812Zm3.405 8.422h-1.344v-8.422h1.344v6.281h.125l4.195-6.28h1.344V108h-1.344v-6.281h-.125L657.233 108Zm10.155-3.836h-.368V108h-1.343v-8.422h1.343v3.524h.368l3.335-3.524h1.633l-3.859 3.969 4.008 4.453h-1.742l-3.375-3.836Zm9.459 2.805c.693 0 1.265-.201 1.719-.602a1.92 1.92 0 0 0 .687-1.508v-.773l-2.266.148c-.635.042-1.101.175-1.398.399-.297.224-.445.549-.445.976 0 .422.159.756.476 1 .318.24.727.36 1.227.36Zm-.25 1.179c-.828 0-1.511-.226-2.047-.679-.531-.459-.797-1.068-.797-1.828 0-.75.266-1.339.797-1.766.531-.427 1.289-.669 2.273-.727l2.43-.148v-.766c0-.52-.161-.919-.484-1.195-.323-.276-.797-.414-1.422-.414-.505 0-.925.091-1.258.273-.333.183-.547.441-.641.774h-1.359c.089-.672.435-1.214 1.039-1.625.609-.412 1.365-.617 2.266-.617 1.021 0 1.81.247 2.367.742.557.495.836 1.182.836 2.062V108h-1.281v-1.242h-.125a2.774 2.774 0 0 1-1.079 1.031c-.447.24-.953.359-1.515.359Zm8.756-3.843c-.036.484-.088.911-.156 1.281-.068.37-.164.716-.289 1.039-.12.323-.271.589-.453.797a1.823 1.823 0 0 1-.664.476 2.285 2.285 0 0 1-.914.172c-.193 0-.357-.028-.493-.086v-1.234c.125.042.266.062.422.062.396 0 .69-.213.883-.64.198-.432.326-1.065.383-1.899l.328-4.695h5.508V108h-1.344v-7.297h-2.945l-.266 3.602Zm14.303-2.149h-1.359a1.924 1.924 0 0 0-.742-1.086c-.375-.286-.852-.429-1.43-.429-.755 0-1.357.281-1.805.843-.442.563-.664 1.321-.664 2.274 0 .969.224 1.742.672 2.32.448.573 1.047.86 1.797.86.568 0 1.039-.128 1.414-.383.38-.256.633-.62.758-1.094h1.359a3.014 3.014 0 0 1-1.117 1.945c-.62.495-1.422.742-2.406.742-1.182 0-2.123-.395-2.821-1.187-.697-.797-1.046-1.865-1.046-3.203 0-1.313.349-2.362 1.046-3.149.698-.786 1.636-1.18 2.813-1.18.984 0 1.786.258 2.406.774.625.516 1 1.167 1.125 1.953Zm5.038 1.367-2.742-3.218h1.593l2.742 3.25v.062l-2.734 3.25h-1.601l2.742-3.219v-.125Zm3.742 0-2.742-3.218h1.593l2.735 3.25v.062l-2.735 3.25h-1.593l2.742-3.219v-.125Z" fill="#fff"/></svg>