<svg width="21" height="20" viewBox="0 0 21 20" fill="none" xmlns="http://www.w3.org/2000/svg">
<path d="M0.326412 18.0842C-0.102474 18.5131 -0.115088 19.2447 0.326412 19.6736C0.767913 20.1025 1.49954 20.1025 1.92843 19.6736L10.0016 11.6004L18.0747 19.6736C18.5036 20.1025 19.2479 20.1151 19.6767 19.6736C20.1056 19.2321 20.1056 18.5131 19.6767 18.0842L11.6036 9.99842L19.6767 1.92527C20.1056 1.49639 20.1182 0.764758 19.6767 0.335872C19.2352 -0.105628 18.5036 -0.105628 18.0747 0.335872L10.0016 8.40902L1.92843 0.335872C1.49954 -0.105628 0.755298 -0.118242 0.326412 0.335872C-0.102474 0.777373 -0.102474 1.49639 0.326412 1.92527L8.39956 9.99842L0.326412 18.0842Z" fill="white" fill-opacity="0.5"/>
</svg>
