<svg width="775" height="46" viewBox="0 0 775 46" fill="none" xmlns="http://www.w3.org/2000/svg">
<path d="M0.142975 44V38.8438L22.3793 8.75586V8.25781H0.758209V1.72461H31.725V6.88086L9.57657 36.9688V37.4668H32.2816V44H0.142975ZM69.132 37.4668V44H41.7688V1.72461H69.132V8.25781H49.3274V19.4785H68.0481V25.6309H49.3274V37.4668H69.132ZM86.002 44H78.707V1.72461H85.2695L106.012 30.4648H106.51V1.72461H113.775V44H107.242L86.5 15.2305H86.002V44ZM142.511 44H134.952V8.25781H121.944V1.72461H155.548V8.25781H142.511V44ZM171.216 44H163.658V1.72461H171.216V44ZM202.178 44H193.477L178.711 1.72461H187.061L197.696 35.1816H198.194L208.741 1.72461H216.797L202.178 44ZM247.759 44L244.185 33.1895H228.628L224.995 44H217.349L232.349 1.72461H240.845L255.874 44H247.759ZM236.187 9.78125L230.386 27.2129H242.427L236.685 9.78125H236.187ZM303.911 14.0586L295.356 44H288.237L276.899 1.72461H284.78L292.016 33.1895H292.456L300.776 1.72461H307.485L315.923 33.1895H316.333L323.569 1.72461H331.391L320.054 44H312.964L304.35 14.0586H303.911ZM356.054 0.669922C362.187 0.669922 367.041 2.66211 370.615 6.64648C374.209 10.6309 376.005 16.0312 376.005 22.8477C376.005 29.6641 374.218 35.0742 370.644 39.0781C367.07 43.0625 362.207 45.0547 356.054 45.0547C349.863 45.0547 344.97 43.0625 341.377 39.0781C337.802 35.0938 336.015 29.6836 336.015 22.8477C336.015 16.0312 337.812 10.6309 341.406 6.64648C345.019 2.66211 349.902 0.669922 356.054 0.669922ZM356.054 7.37891C352.285 7.37891 349.287 8.77539 347.06 11.5684C344.853 14.3613 343.75 18.1211 343.75 22.8477C343.75 27.5938 344.843 31.3633 347.031 34.1562C349.238 36.9492 352.246 38.3457 356.054 38.3457C359.804 38.3457 362.773 36.9492 364.961 34.1562C367.168 31.3438 368.271 27.5742 368.271 22.8477C368.271 18.1211 367.168 14.3613 364.961 11.5684C362.773 8.77539 359.804 7.37891 356.054 7.37891ZM428.53 44H421.498V14.2637H421.088L409.399 42.3594H404.008L392.319 14.2637H391.909V44H384.877V1.72461H393.725L406.44 32.5156H406.967L419.682 1.72461H428.53V44ZM466.435 44L462.861 33.1895H447.304L443.671 44H436.025L451.025 1.72461H459.521L474.55 44H466.435ZM454.863 9.78125L449.062 27.2129H461.103L455.361 9.78125H454.863ZM489.311 44H482.016V1.72461H488.578L509.32 30.4648H509.818V1.72461H517.084V44H510.551L489.809 15.2305H489.311V44ZM579.593 44H572.064V25.748H551.498V44H543.939V1.72461H551.498V19.2148H572.064V1.72461H579.593V44ZM617.616 37.4668V44H590.252V1.72461H617.616V8.25781H597.811V19.4785H616.532V25.6309H597.811V37.4668H617.616ZM654.466 44L650.892 33.1895H635.335L631.702 44H624.056L639.056 1.72461H647.552L662.581 44H654.466ZM642.894 9.78125L637.093 27.2129H649.134L643.392 9.78125H642.894ZM697 37.3789V44H670.047V1.72461H677.605V37.3789H697ZM717.854 44H710.296V8.25781H697.288V1.72461H730.891V8.25781H717.854V44ZM774.656 44H767.127V25.748H746.56V44H739.002V1.72461H746.56V19.2148H767.127V1.72461H774.656V44Z" fill="#F0E9E7"/>
</svg>
