<svg id="Illustration" width="100px" xmlns="http://www.w3.org/2000/svg" xmlns:xlink="http://www.w3.org/1999/xlink" viewBox="0 0 2435.96 1556.7">
    <defs>
        <linearGradient id="linear-gradient" x1="310.86" y1="1305.5" x2="757.42" y2="1305.5" gradientTransform="rotate(19.91 410.09 905.342)" gradientUnits="userSpaceOnUse">
            <stop offset="0" stop-color="#dae3fe"/>
            <stop offset="1" stop-color="#e9effd"/>
        </linearGradient>
        <linearGradient id="linear-gradient-2" x1="349.51" y1="1249.41" x2="393.22" y2="1249.41" xlink:href="#linear-gradient"/>
        <linearGradient id="linear-gradient-3" x1="325.63" y1="1300.27" x2="392.25" y2="1300.27" xlink:href="#linear-gradient"/>
        <linearGradient id="linear-gradient-4" x1="468.38" y1="1278.55" x2="522.67" y2="1278.55" xlink:href="#linear-gradient"/>
        <linearGradient id="linear-gradient-5" x1="440.96" y1="1341.82" x2="522.97" y2="1341.82" xlink:href="#linear-gradient"/>
        <linearGradient id="linear-gradient-6" x1="606.21" y1="1374.49" x2="684.46" y2="1374.49" xlink:href="#linear-gradient"/>
        <linearGradient id="linear-gradient-7" x1="632.62" y1="1308.17" x2="684.88" y2="1308.17" xlink:href="#linear-gradient"/>
        <linearGradient id="linear-gradient-8" x1="495.7" y1="948.79" x2="949.89" y2="948.79" gradientUnits="userSpaceOnUse">
            <stop offset="0" stop-color="#fe7062"/>
            <stop offset="1" stop-color="#ff928e"/>
        </linearGradient>
        <linearGradient id="linear-gradient-9" x1="546.09" y1="893.38" x2="864.67" y2="893.38" xlink:href="#linear-gradient"/>
        <linearGradient id="linear-gradient-10" x1="480.02" y1="618.82" x2="622.94" y2="618.82" xlink:href="#linear-gradient"/>
        <linearGradient id="linear-gradient-11" x1="620.14" y1="578.66" x2="654.61" y2="578.66" xlink:href="#linear-gradient"/>
        <linearGradient id="linear-gradient-12" x1="563.59" y1="832.84" x2="725.85" y2="832.84" xlink:href="#linear-gradient"/>
        <linearGradient id="linear-gradient-13" x1="722.95" y1="786.69" x2="781.43" y2="786.69" xlink:href="#linear-gradient"/>
        <linearGradient id="linear-gradient-14" x1="827.25" y1="1070.64" x2="902.37" y2="1070.64" xlink:href="#linear-gradient"/>
        <linearGradient id="linear-gradient-15" x1="674.11" y1="1117.59" x2="829.68" y2="1117.59" xlink:href="#linear-gradient"/>
        <linearGradient id="linear-gradient-16" x1="1615.45" y1="1220.47" x2="1910.82" y2="1220.47" xlink:href="#linear-gradient"/>
        <linearGradient id="linear-gradient-17" x1="1834" y1="1027.93" x2="1867.83" y2="1027.93" xlink:href="#linear-gradient"/>
        <linearGradient id="linear-gradient-18" x1="1865.55" y1="1059.93" x2="1947.86" y2="1059.93" xlink:href="#linear-gradient"/>
        <linearGradient id="linear-gradient-19" x1="1755.4" y1="1163.24" x2="1788.23" y2="1163.24" xlink:href="#linear-gradient"/>
        <linearGradient id="linear-gradient-20" x1="1784.6" y1="1205.03" x2="1894.61" y2="1205.03" xlink:href="#linear-gradient"/>
        <linearGradient id="linear-gradient-21" x1="1673.2" y1="1378.69" x2="1787.75" y2="1378.69" xlink:href="#linear-gradient"/>
        <linearGradient id="linear-gradient-22" x1="1643.96" y1="1333.76" x2="1675.85" y2="1333.76" xlink:href="#linear-gradient"/>
        <linearGradient id="linear-gradient-23" x1="-209.98" y1="1290.55" x2="-239" y2="1347.63" gradientTransform="matrix(-.98 -.22 -.22 .98 1924.35 128.83)" gradientUnits="userSpaceOnUse">
            <stop offset="0" stop-color="#09005d"/>
            <stop offset="1" stop-color="#1a0f91"/>
        </linearGradient>
        <linearGradient id="linear-gradient-24" x1="-265.16" y1="1313.27" x2="-236.26" y2="1313.27" gradientTransform="matrix(-.98 -.22 -.22 .98 1924.35 128.83)" gradientUnits="userSpaceOnUse">
            <stop offset="0" stop-color="#ff928e"/>
            <stop offset="1" stop-color="#feb3b1"/>
        </linearGradient>
        <linearGradient id="linear-gradient-25" x1="1876.06" y1="1270.47" x2="1973.32" y2="1416.36" xlink:href="#linear-gradient-23"/>
        <linearGradient id="linear-gradient-26" x1="1881.44" y1="1463.23" x2="1860.02" y2="1526.34" xlink:href="#linear-gradient-23"/>
        <linearGradient id="linear-gradient-27" x1="-286.07" y1="1339.94" x2="-258.94" y2="1339.94" xlink:href="#linear-gradient-24"/>
        <linearGradient id="linear-gradient-28" x1="1998.99" y1="1292.77" x2="1999.57" y2="1382.51" xlink:href="#linear-gradient-23"/>
        <linearGradient id="linear-gradient-29" x1="-188.42" y1="1054.36" x2="-93.78" y2="1054.36" xlink:href="#linear-gradient-24"/>
        <linearGradient id="linear-gradient-30" x1="1975.73" y1="1001.88" x2="2005.84" y2="1106.09" xlink:href="#linear-gradient-24"/>
        <linearGradient id="linear-gradient-31" x1="2274.59" y1="1018.25" x2="2147.22" y2="1157.19" xlink:href="#linear-gradient-24"/>
        <linearGradient id="linear-gradient-32" x1="7333.68" y1="2535.93" x2="7351.05" y2="2443.88" gradientTransform="matrix(-.99 -.13 -.13 .99 9596.74 -151.62)" xlink:href="#linear-gradient-24"/>
        <linearGradient id="linear-gradient-33" x1="7375.14" y1="2088.74" x2="7443.77" y2="2177.11" gradientTransform="matrix(-.99 -.13 -.13 .99 9596.74 -151.62)" xlink:href="#linear-gradient-23"/>
        <linearGradient id="linear-gradient-34" x1="7309.46" y1="2531.37" x2="7326.83" y2="2439.31" gradientTransform="matrix(-.99 -.13 -.13 .99 9596.74 -151.62)" xlink:href="#linear-gradient-24"/>
        <linearGradient id="linear-gradient-35" x1="12383.7" y1="1888.95" x2="12260.59" y2="1922.69" gradientTransform="rotate(-2.83 -6996.105 211980.708)" xlink:href="#linear-gradient-23"/>
        <linearGradient id="linear-gradient-36" x1="1699.2" y1="1255.18" x2="1786.04" y2="1141.71" xlink:href="#linear-gradient-23"/>
        <linearGradient id="linear-gradient-37" x1="11396.64" y1="1481.69" x2="11447.04" y2="1481.69" gradientTransform="translate(-10859.94)" xlink:href="#linear-gradient-23"/>
        <linearGradient id="linear-gradient-38" x1="11401.75" y1="1458.27" x2="11422.19" y2="1458.27" gradientTransform="translate(-10859.94)" xlink:href="#linear-gradient-24"/>
        <linearGradient id="linear-gradient-39" x1="11503.82" y1="1480.88" x2="11582.9" y2="1480.88" gradientTransform="translate(-10859.94)" xlink:href="#linear-gradient-23"/>
        <linearGradient id="linear-gradient-40" x1="11505.02" y1="1449.19" x2="11525.35" y2="1449.19" gradientTransform="translate(-10859.94)" xlink:href="#linear-gradient-24"/>
        <linearGradient id="linear-gradient-41" x1="553.43" y1="1353.64" x2="744.48" y2="1044.48" xlink:href="#linear-gradient-23"/>
        <linearGradient id="linear-gradient-42" x1="489.83" y1="1221.21" x2="302.25" y2="1335.84" xlink:href="#linear-gradient-23"/>
        <linearGradient id="linear-gradient-43" x1="11830.44" y1="850.17" x2="11645.69" y2="1080.02" gradientTransform="translate(-10859.94)" xlink:href="#linear-gradient-24"/>
        <linearGradient id="linear-gradient-44" x1="11628.45" y1="747.71" x2="11470.35" y2="1038.2" gradientTransform="translate(-10859.94)" xlink:href="#linear-gradient-24"/>
        <linearGradient id="linear-gradient-45" x1="9074.22" y1="9818.84" x2="9004.35" y2="9911.27" gradientTransform="rotate(-35.22 -9309.793 18472.238)" xlink:href="#linear-gradient-24"/>
        <linearGradient id="linear-gradient-46" x1="8971.89" y1="9892.04" x2="9027.93" y2="9834.54" gradientTransform="rotate(-35.22 -9309.793 18472.238)" xlink:href="#linear-gradient-24"/>
        <linearGradient id="linear-gradient-47" x1="655.8" y1="817.21" x2="732.16" y2="817.21" xlink:href="#linear-gradient-23"/>
        <linearGradient id="linear-gradient-48" x1="971.26" y1="907.44" x2="839.27" y2="1071.66" xlink:href="#linear-gradient-24"/>
        <style>
            .cls-3{fill:#7d97f4}.cls-4{fill:#bdd0fb}.cls-28{fill:#91b3fa}.cls-30{fill:#fff}.cls-32{fill:#4abfdb}.cls-34{fill:#007b9a}.cls-35{fill:#d7f7ff}.cls-41{fill:none;stroke:#fff;stroke-width:6px;stroke-linecap:round;stroke-linejoin:round}.cls-49{fill:#f2ffbb}
        </style>
    </defs>
    <path d="M1205.92 1536.31s-827.11 9.51-1057.5-204.43S4.75 904.65 181.16 844.23 387.65 721 292.73 636.22s-215.47-258.74-15.3-433.58S706 278.93 884.89 245.58s108.05-145.66 343.32-68.09S1411.6 29.22 1600.74 8.75s169.75 234.89 364.3 138.5 353.68-83.09 437.32 70 47.3 359.26-136.19 482.14-163.8 114.5-95.22 235.24 130.07 517.81-182.12 574.52-782.91 27.16-782.91 27.16z" transform="translate(-9.04 -7.58)" fill="#ffd7da"/>
    <g opacity=".37">
        <path class="cls-3" d="M262.3 972.4a108.85 108.85 0 11214.5-37.19 116.68 116.68 0 0053.73 79.43 138.63 138.63 0 0164 94.61 130.3 130.3 0 0067.78 93.11 157.49 157.49 0 0182.15 112.82c14.87 85.87-42.63 167.53-128.41 182.41s-167.38-42.69-182.25-128.56q-1.19-6.88-1.77-13.72a162.84 162.84 0 00-60.83-113.62 139.25 139.25 0 01-50.77-130.14 91.26 91.26 0 00-26.66-79.55 108.52 108.52 0 01-31.47-59.6z" transform="translate(-9.04 -7.58)"/>
        <path class="cls-4" d="M656.17 1432.15a2.21 2.21 0 01-1.8-.79c-200.52-239.84-291-471-291.94-473.27a2.2 2.2 0 114.1-1.58c.89 2.3 91.18 232.77 291.21 472a2.2 2.2 0 01-.28 3.1 2.14 2.14 0 01-1.29.54z" transform="translate(-9.04 -7.58)"/>
        <path class="cls-4" d="M407.69 1050.74A2.19 2.19 0 01406 1047c21.79-22.79 28.65-92.68 28.72-93.38a2.19 2.19 0 114.37.41c-.27 2.94-7.07 72.11-29.92 96a2.14 2.14 0 01-1.48.71z" transform="translate(-9.04 -7.58)"/>
        <path class="cls-4" d="M405.58 1051.11a2.13 2.13 0 01-.5 0c-1.93-.35-47.76-8.75-78.87-31.69a2.2 2.2 0 112.61-3.54c30.26 22.32 76.57 30.81 77 30.9a2.2 2.2 0 01-.27 4.36zM487.47 1194.44a2.15 2.15 0 01-1.35-.37 2.21 2.21 0 01-.58-3.06c29.1-42.84 27.92-109.72 27.91-110.39a2.16 2.16 0 012.14-2.25 2.2 2.2 0 012.25 2.15c0 .69 1.24 69-28.66 113a2.18 2.18 0 01-1.71.92z" transform="translate(-9.04 -7.58)"/>
        <path class="cls-4" d="M481.25 1196.17c-14.59.75-55.24-.59-101.53-31.87a2.2 2.2 0 012.46-3.65c55.33 37.4 103.61 30.75 104.09 30.67a2.2 2.2 0 01.65 4.35c-.37.05-2.35.33-5.67.5zM585.14 1364.67c-20.33 1-60.52-.34-98.2-21.84a2.2 2.2 0 012.18-3.82c51.68 29.49 108.15 20.15 108.72 20a2.2 2.2 0 11.75 4.33 127.35 127.35 0 01-13.45 1.33z" transform="translate(-9.04 -7.58)"/>
        <path class="cls-4" d="M600.07 1362.49a2.23 2.23 0 01-1.49-.49 2.2 2.2 0 01-.34-3.09c.31-.38 30.6-38.89 26.5-105.48a2.21 2.21 0 012.06-2.34 2.21 2.21 0 012.31 2.06c4.21 68.4-26.17 106.91-27.46 108.52a2.23 2.23 0 01-1.58.82z" transform="translate(-9.04 -7.58)"/>
        <path class="cls-4" d="M129.55 1252.76a88.64 88.64 0 11142.86-105 94.94 94.94 0 0068 38.33 112.75 112.75 0 0181 45.65 106 106 0 0083.12 43.26 128.37 128.37 0 11-106.1 204.35q-3.36-4.57-6.27-9.35a132.42 132.42 0 00-85.55-60.65 113.23 113.23 0 01-84.2-76.34 74.2 74.2 0 00-48.3-48.25 88.16 88.16 0 01-44.56-32z" transform="translate(-9.04 -7.58)"/>
        <path d="M582.67 1445.18a2.15 2.15 0 01-1-.18c-233.21-101.88-383.07-237.36-384.56-238.71a2.21 2.21 0 013-3.26c1.48 1.36 150.85 136.37 383.35 237.94a2.2 2.2 0 011.13 2.9 2.17 2.17 0 01-1.92 1.31z" transform="translate(-9.04 -7.58)" fill="url(#linear-gradient)"/>
        <path d="M263.23 1257.65a2.17 2.17 0 01-.83-.09 2.2 2.2 0 01-1.45-2.75c7.58-24.39-12.72-77.63-12.92-78.16a2.2 2.2 0 114.1-1.58c.87 2.24 21.05 55.22 13 81a2.2 2.2 0 01-1.9 1.58z" transform="translate(-9.04 -7.58)" fill="url(#linear-gradient-2)"/>
        <path d="M225.36 1265.18c-10.31.84-21.6.86-32.26-1a2.2 2.2 0 01.76-4.34c30.09 5.25 66.8-5.35 67.17-5.46a2.2 2.2 0 111.24 4.22 202.91 202.91 0 01-36.91 6.58z" transform="translate(-9.04 -7.58)" fill="url(#linear-gradient-3)"/>
        <path d="M373.51 1333.33a2.57 2.57 0 01-.48 0 2.2 2.2 0 01-1.88-2.48c5.65-41.63-19.4-89.79-19.66-90.27a2.2 2.2 0 013.9-2c1.06 2 26 49.87 20.12 92.91a2.22 2.22 0 01-2 1.84z" transform="translate(-9.04 -7.58)" fill="url(#linear-gradient-4)"/>
        <path d="M319.22 1351.24a161.81 161.81 0 01-34.54-1 2.2 2.2 0 11.58-4.36c53.83 7.14 86.37-15.16 86.7-15.39a2.2 2.2 0 012.52 3.6c-1.05.78-20.84 14.33-55.26 17.15z" transform="translate(-9.04 -7.58)" fill="url(#linear-gradient-5)"/>
        <path d="M445.13 1441.12a127.13 127.13 0 01-17.51.24 2.2 2.2 0 11.24-4.39c48.16 2.69 85.88-24.53 86.25-24.8a2.2 2.2 0 112.61 3.54c-.35.29-30.49 22.04-71.59 25.41z" transform="translate(-9.04 -7.58)" fill="url(#linear-gradient-6)"/>
        <path d="M516.52 1414.82a2.41 2.41 0 01-.65 0 2.2 2.2 0 01-1.68-2.62c.09-.38 8.16-39.29-18.9-86.14a2.2 2.2 0 113.82-2.2c27.95 48.41 19.74 87.64 19.38 89.29a2.21 2.21 0 01-1.97 1.67z" transform="translate(-9.04 -7.58)" fill="url(#linear-gradient-7)"/>
        <path d="M811.94 512.16a157.49 157.49 0 00-211.72-78.75c-80.64 37.92-116.59 134.64-80.3 216.05a162.3 162.3 0 017.83 138.29c-24.92 61.89-25.35 136.59-8.06 175.37 24.4 54.72 58.75 88.17 30.6 141.71-32.95 62.69-74.59 169.43-43.81 238.46 52.56 117.9 189.84 169 306.63 114s168.86-195 116.29-312.89a89.56 89.56 0 00-5.48-8.77c-39.25-58.29-51.15-131.44-32.64-200.2 15.52-57.65 13.63-119.18 1-147.53-4.87-10.92-20.68-33.12-41-54.66-29.46-31.23-42.22-75.1-34.38-118 7.43-40.71 3.89-83.24-4.96-103.08z" transform="translate(-9.04 -7.58)" fill="url(#linear-gradient-8)"/>
        <path d="M708.63 1411.08h-.19a2.51 2.51 0 01-2.25-2.78C753 944.45 673.35 585 672.54 581.37a2.59 2.59 0 011.89-3.1 2.48 2.48 0 013 1.89c.82 3.58 80.7 363.86 33.76 828.59a2.58 2.58 0 01-2.56 2.33z" transform="translate(-9.04 -7.58)" fill="url(#linear-gradient-9)"/>
        <path d="M697.51 731.88a2.4 2.4 0 01-.46 0c-47.27-9.76-112.35-88.55-115.09-91.9a2.59 2.59 0 01.34-3.61 2.49 2.49 0 013.55.3c.66.81 66.7 80.78 112.26 90.19a2.53 2.53 0 011.94 3 2.59 2.59 0 01-2.54 2.02z" transform="translate(-9.04 -7.58)" fill="url(#linear-gradient-10)"/>
        <path d="M700.38 730.53a2.49 2.49 0 01-1.74-.75 2.59 2.59 0 01.05-3.62c.5-.5 50-50.49 68.63-103.82a2.52 2.52 0 114.75 1.66c-19 54.47-69.36 105.28-69.86 105.78a2.52 2.52 0 01-1.83.75z" transform="translate(-9.04 -7.58)" fill="url(#linear-gradient-11)"/>
        <path d="M718.56 976a2.64 2.64 0 01-.87-.17c-72.46-28.37-127-112.86-127.58-113.71a2.61 2.61 0 01.76-3.55 2.49 2.49 0 013.49.72c.53.84 54.25 84 125.2 111.75a2.58 2.58 0 01-1 5z" transform="translate(-9.04 -7.58)" fill="url(#linear-gradient-12)"/>
        <path d="M720.52 976.87a2.49 2.49 0 01-2.21-1.43 2.62 2.62 0 011.18-3.44c.65-.32 65.2-33.4 102-126.7a2.52 2.52 0 114.68 1.85c-37.57 95.26-103.84 129.12-104.5 129.45a2.52 2.52 0 01-1.15.27z" transform="translate(-9.04 -7.58)" fill="url(#linear-gradient-13)"/>
        <path d="M722.55 1277.56a2.48 2.48 0 01-2.23-1.48 2.6 2.6 0 011.26-3.41c.77-.36 77.55-37.23 116.34-117.59a2.54 2.54 0 013.38-1.21 2.57 2.57 0 011.15 3.42c-39.62 82.07-118 119.66-118.8 120a2.7 2.7 0 01-1.1.27z" transform="translate(-9.04 -7.58)" fill="url(#linear-gradient-14)"/>
        <path d="M719.65 1277.89a2.27 2.27 0 01-.67-.1c-.71-.21-71.36-22.08-122.38-109.24a2.6 2.6 0 01.89-3.52 2.48 2.48 0 013.46.86c50 85.48 118.82 106.78 119.51 107a2.57 2.57 0 01-.81 5z" transform="translate(-9.04 -7.58)" fill="url(#linear-gradient-15)"/>
    </g>
    <g opacity=".55">
        <path class="cls-4" d="M2010.81 998.92A108.85 108.85 0 101796.26 962a116.72 116.72 0 01-53.63 79.49 138.61 138.61 0 00-63.89 94.69 130.33 130.33 0 01-67.66 93.2 157.5 157.5 0 00-82 112.93c-14.75 85.88 42.84 167.47 128.65 182.23s167.33-42.89 182.08-128.78q1.18-6.88 1.75-13.73a162.87 162.87 0 0160.69-113.69 139.24 139.24 0 0050.6-130.21 91.28 91.28 0 0126.58-79.6 108.47 108.47 0 0031.38-59.61z" transform="translate(-9.04 -7.58)"/>
        <path d="M1617.54 1459.18a2.22 2.22 0 001.8-.79c200.2-240.1 290.44-471.33 291.33-473.64a2.22 2.22 0 00-1.26-2.85 2.19 2.19 0 00-2.84 1.27c-.89 2.3-90.89 232.89-290.61 472.4a2.2 2.2 0 00.28 3.1 2.16 2.16 0 001.3.51z" transform="translate(-9.04 -7.58)" fill="url(#linear-gradient-16)"/>
        <path d="M1865.53 1077.46a2.2 2.2 0 001.69-3.72c-21.82-22.77-28.77-92.64-28.84-93.35a2.2 2.2 0 10-4.37.43c.28 2.93 7.17 72.1 30 96a2.22 2.22 0 001.52.64z" transform="translate(-9.04 -7.58)" fill="url(#linear-gradient-17)"/>
        <path d="M1867.63 1077.82a2.1 2.1 0 00.5 0c1.94-.35 47.76-8.81 78.83-31.79a2.2 2.2 0 10-2.61-3.54c-30.24 22.36-76.53 30.91-77 31a2.2 2.2 0 00.28 4.36z" transform="translate(-9.04 -7.58)" fill="url(#linear-gradient-18)"/>
        <path d="M1785.93 1221.26a2.24 2.24 0 001.35-.38 2.2 2.2 0 00.57-3.06c-29.15-42.8-28.06-109.68-28-110.35a2.16 2.16 0 00-2.15-2.25 2.21 2.21 0 00-2.24 2.16c0 .68-1.15 68.94 28.81 112.92a2.18 2.18 0 001.66.96z" transform="translate(-9.04 -7.58)" fill="url(#linear-gradient-19)"/>
        <path d="M1792.15 1223c14.59.73 55.24-.66 101.49-32a2.2 2.2 0 00-2.46-3.64c-55.29 37.47-103.57 30.88-104.06 30.8a2.2 2.2 0 00-.64 4.35c.37.03 2.35.3 5.67.49z" transform="translate(-9.04 -7.58)" fill="url(#linear-gradient-20)"/>
        <path d="M1688.47 1391.61c20.33 1 60.53-.42 98.17-22a2.2 2.2 0 10-2.18-3.82c-51.64 29.55-108.12 20.28-108.69 20.18a2.2 2.2 0 00-.74 4.34 127.56 127.56 0 0013.44 1.3z" transform="translate(-9.04 -7.58)" fill="url(#linear-gradient-21)"/>
        <path d="M1673.55 1389.44a2.19 2.19 0 001.49-.48 2.22 2.22 0 00.33-3.1c-.31-.38-30.65-38.85-26.64-105.44a2.19 2.19 0 00-2.06-2.33 2.2 2.2 0 00-2.31 2.06c-4.12 68.4 26.31 106.88 27.61 108.48a2.16 2.16 0 001.58.81z" transform="translate(-9.04 -7.58)" fill="url(#linear-gradient-22)"/>
        <path class="cls-28" d="M2143.92 1279.11a88.64 88.64 0 10-143-104.78 94.91 94.91 0 01-67.92 38.41 112.79 112.79 0 00-80.91 45.76 106 106 0 01-83.11 43.3 128.37 128.37 0 10106.35 204.2q3.36-4.59 6.26-9.36a132.41 132.41 0 0185.47-60.76 113.19 113.19 0 0084.1-76.45 74.24 74.24 0 0148.25-48.31 88.15 88.15 0 0044.51-32.01z" transform="translate(-9.04 -7.58)"/>
        <path class="cls-4" d="M1691.05 1472.12a2.15 2.15 0 001-.18c233.08-102.18 382.76-237.85 384.25-239.21a2.2 2.2 0 00-3-3.25c-1.48 1.36-150.67 136.56-383 238.43a2.2 2.2 0 00.71 4.21z" transform="translate(-9.04 -7.58)"/>
        <path class="cls-4" d="M2010.25 1284.18a2.38 2.38 0 00.83-.09 2.2 2.2 0 001.44-2.76c-7.61-24.37 12.62-77.64 12.83-78.17a2.2 2.2 0 10-4.11-1.58c-.86 2.24-21 55.25-12.92 81.06a2.2 2.2 0 001.93 1.54z" transform="translate(-9.04 -7.58)"/>
        <path class="cls-4" d="M2048.13 1291.65a128.67 128.67 0 0032.25-1 2.2 2.2 0 10-.76-4.33c-30.08 5.29-66.81-5.27-67.18-5.38a2.2 2.2 0 10-1.23 4.23 203.77 203.77 0 0036.92 6.48zM1900.07 1360a2 2 0 00.48 0 2.2 2.2 0 001.88-2.47c-5.71-41.63 19.28-89.82 19.53-90.3a2.2 2.2 0 10-3.89-2c-1.06 2-25.91 49.91-20 92.94a2.2 2.2 0 002 1.83z" transform="translate(-9.04 -7.58)"/>
        <path class="cls-4" d="M1954.38 1377.84a162.67 162.67 0 0034.54-1 2.2 2.2 0 10-.58-4.36c-53.83 7.2-86.4-15.06-86.73-15.28a2.2 2.2 0 00-2.52 3.6c1.06.73 20.91 14.26 55.29 17.04zM1828.59 1467.88a128.76 128.76 0 0017.51.22 2.2 2.2 0 00-.25-4.4c-48.15 2.76-85.91-24.41-86.28-24.68a2.2 2.2 0 10-2.6 3.55c.34.24 30.51 22 71.62 25.31z" transform="translate(-9.04 -7.58)"/>
        <path class="cls-4" d="M1757.16 1441.67a2.06 2.06 0 00.65-.05 2.19 2.19 0 001.67-2.62c-.08-.39-8.2-39.28 18.79-86.16a2.2 2.2 0 10-3.81-2.2c-27.9 48.45-19.64 87.67-19.27 89.31a2.2 2.2 0 001.97 1.72z" transform="translate(-9.04 -7.58)"/>
        <path d="M1460.57 530.13a157.49 157.49 0 01211.62-79c80.69 37.81 116.76 134.49 80.58 215.94a162.34 162.34 0 00-7.66 138.31c25 61.85 25.53 136.55 8.29 175.35-24.33 54.76-58.64 88.25-30.42 141.75 33 62.65 74.81 169.34 44.12 238.41-52.41 118-189.63 169.2-306.49 114.44s-169.1-194.78-116.69-312.74a91.64 91.64 0 015.47-8.78c39.18-58.34 51-131.51 32.38-200.24-15.59-57.65-13.77-119.18-1.17-147.57 4.85-10.93 20.63-33.15 40.93-54.72 29.43-31.26 42.13-75.15 34.23-118-7.5-40.76-4.01-83.28 4.81-103.15z" transform="translate(-9.04 -7.58)" fill="#f7b5d9"/>
        <path class="cls-30" d="M1565 1428.92h.19a2.5 2.5 0 002.25-2.78c-47.44-463.79 31.79-823.39 32.59-827a2.59 2.59 0 00-1.9-3.09 2.48 2.48 0 00-3 1.88c-.8 3.59-80.22 364-32.69 828.64a2.58 2.58 0 002.56 2.35z" transform="translate(-9.04 -7.58)"/>
        <path class="cls-30" d="M1575.28 749.7a2.59 2.59 0 00.47-.05c47.25-9.82 112.23-88.69 115-92a2.61 2.61 0 00-.35-3.62 2.5 2.5 0 00-3.55.31c-.66.81-66.6 80.87-112.15 90.33a2.53 2.53 0 00-1.93 3 2.58 2.58 0 002.51 2.03z" transform="translate(-9.04 -7.58)"/>
        <path class="cls-30" d="M1572.41 748.36a2.48 2.48 0 001.74-.76 2.59 2.59 0 00-.05-3.62c-.5-.5-50.12-50.43-68.76-103.72a2.52 2.52 0 10-4.76 1.66c19.05 54.44 69.5 105.19 70 105.69a2.52 2.52 0 001.83.75zM1554.55 993.84a2.46 2.46 0 00.87-.18c72.42-28.45 126.89-113 127.43-113.87a2.6 2.6 0 00-.77-3.55 2.49 2.49 0 00-3.48.73c-.54.84-54.15 84-125.06 111.91a2.58 2.58 0 001 5z" transform="translate(-9.04 -7.58)"/>
        <path class="cls-30" d="M1552.59 994.72a2.49 2.49 0 002.21-1.43 2.62 2.62 0 00-1.19-3.44c-.65-.32-65.24-33.32-102.13-126.57a2.52 2.52 0 10-4.68 1.86c37.66 95.21 104 129 104.64 129.31a2.49 2.49 0 001.15.27zM1550.94 1295.41a2.48 2.48 0 002.24-1.48 2.61 2.61 0 00-1.27-3.41c-.77-.36-77.6-37.13-116.49-117.43a2.54 2.54 0 00-3.39-1.21 2.57 2.57 0 00-1.14 3.42c39.72 82 118.16 119.5 118.95 119.87a2.54 2.54 0 001.1.24z" transform="translate(-9.04 -7.58)"/>
        <path class="cls-30" d="M1553.84 1295.74a2.22 2.22 0 00.67-.1c.71-.21 71.34-22.17 122.25-109.4a2.61 2.61 0 00-.9-3.52 2.49 2.49 0 00-3.46.86c-49.92 85.55-118.68 106.94-119.37 107.14a2.53 2.53 0 00-1.67 3.18 2.56 2.56 0 002.48 1.84z" transform="translate(-9.04 -7.58)"/>
    </g>
    <rect x="235.88" y="1470.3" width="2017.36" height="86.4" rx="7.51" fill="#fcb9c1"/>
    <path class="cls-32" d="M750.62 1193.07s-24.31 63.68-23.16 113.47l1.16 49.79 59 3.47 51-155.16z" transform="translate(-9.04 -7.58)"/>
    <path d="M1329.23 590.28s68.65 173.63 161.65 282.15 171.88 172.38 171.88 172.38l-122.88 88.33s-127.83-30.2-217.56-143.63-161.89-299.78-161.89-299.78 52-77.49 101.41-90.93 67.39-8.52 67.39-8.52z" transform="translate(-9.04 -7.58)" fill="#fcffff"/>
    <path class="cls-34" d="M989.15 580.54s9.26 83.37 9.26 78.74 191.36-36.69 191.36-36.69l-2.62-76.78z" transform="translate(-9.04 -7.58)"/>
    <path class="cls-35" d="M1175.57 968.43c6.94 4.64 48.63 3.48 77.58 74.11s27.78 258.21 15 312.63-123.9 55.58-123.9 50.95-39.36-193.37-69.47-242a584.71 584.71 0 00-61.37-82.21z" transform="translate(-9.04 -7.58)"/>
    <ellipse class="cls-32" cx="1019.33" cy="1319.06" rx="19.68" ry="36.5" transform="rotate(-52.37 1007.19 1324.507)"/>
    <path class="cls-35" d="M1546.63 1125.9c-128.12-62.9-313.92-319.9-303.22-394.42 6-41.92 52.63-90.89 92.24-125.7-4.19-9.85-6.42-15.5-6.42-15.5s-13.35-3.63-48.5 3.9l-32.56 9.82c-44.86 21.82-87.74 85.7-87.74 85.7s72.17 186.35 161.89 299.78 217.56 143.63 217.56 143.63l8.71-6.26z" transform="translate(-9.04 -7.58)"/>
    <ellipse class="cls-32" cx="1607.54" cy="1174.32" rx="19.68" ry="36.5" transform="rotate(-16.7 1577.221 1201.325)"/>
    <path class="cls-30" d="M949.2 661s98.14-53.18 189.89-52.11c99.58 1.16 125.06 9.26 125.06 9.26s12.73 167.9-20.85 238.53l-33.58 70.63-246.63 10.44z" transform="translate(-9.04 -7.58)"/>
    <ellipse class="cls-32" cx="1649.22" cy="1175.48" rx="19.68" ry="36.5" transform="rotate(-16.7 1618.878 1202.497)"/>
    <ellipse class="cls-32" cx="1685.12" cy="1173.17" rx="19.68" ry="36.5" transform="rotate(-45 1671.45 1180.283)"/>
    <ellipse class="cls-32" cx="1723.33" cy="1165.06" rx="19.68" ry="36.5" transform="rotate(-45 1709.664 1172.184)"/>
    <ellipse class="cls-34" cx="893.27" cy="1298.38" rx="108.26" ry="97.26"/>
    <path class="cls-32" d="M1191.2 1331.43c-1.85-105-43.9-198.13-82.74-262.18l-75.16 52.61-.3 4.14a599.44 599.44 0 0159.18 79.79c30.1 48.63 69.47 237.37 69.47 242 0 1.61 13.49 2.52 31.59.72-.47-28.01-1.14-65.89-2.04-117.08z" transform="translate(-9.04 -7.58)"/>
    <path d="M1210.88 938.91s33.58 97.26-23.16 142.42-104.21 55.58-170.21 51-67.15-2.32-67.15-2.32 13.89-188.74 13.89-189.89 246.63-1.21 246.63-1.21z" transform="translate(-9.04 -7.58)" fill="#fffdff"/>
    <path d="M787.67 580.54s103.06-8.1 151.69 60.21S988 716 988 716s-22 282.53-5.79 385.58 23.16 170.21 23.16 170.21-34.74 40.53-110 45.16-117-12.74-117-12.74-125-217.68-93.79-418 103.09-305.67 103.09-305.67z" transform="translate(-9.04 -7.58)" fill="#feffff"/>
    <path d="M1653.75 1025.92c-2.84 3.84-67.46 14.75-92.81 51.89s-57.86 61.3 43.21 80.46 116 31.57 130.68 5.07-81.08-137.42-81.08-137.42z" transform="translate(-9.04 -7.58)" fill="#00799a"/>
    <path d="M878 507.93c-1.21-3.81-77.36-139.18 144-200.67 221.54-61.54 250-5.14 264.2 39.45s52.21 161.22-33.22 195.52S909.7 660 890.7 568C878 506.44 878 507.93 878 507.93z" transform="translate(-9.04 -7.58)" fill="#f8fffa"/>
    <path class="cls-35" d="M704.88 1473.85s303.37-2.31 294.11-5.79-129.68-104.21-206.11-70.63-88 76.42-88 76.42zM1129.83 1477.33s303.37-2.32 294.1-5.79-129.68-104.21-206.1-70.63-88 76.42-88 76.42z" transform="translate(-9.04 -7.58)"/>
    <path d="M954.86 496.5a86 86 0 00-5.31-15.94c-9-20-31.68-94.54 107.91-130.44 162.11-41.68 183-3.47 193.37 26.63s38.21 108.85-24.32 132-252 79.58-265.15 17.37c-3.04-14.33-5.11-23.62-6.5-29.62z" transform="translate(-9.04 -7.58)" fill="#00789c"/>
    <path class="cls-32" d="M1035 629.26A526 526 0 00936.46 668l13.9 276.74 77.09-3.26c8.31-19.11 16.66-40.34 24.8-63.9 31.39-90.87 8.46-183.58-17.25-248.32z" transform="translate(-9.04 -7.58)"/>
    <path class="cls-32" d="M948 940.07c0 1.15-13.89 189.89-13.89 189.89s.73-1.44 33.42.22c21-46.25 43.26-109.72 57.52-191-42.85.19-77.05.46-77.05.89z" transform="translate(-9.04 -7.58)"/>
    <circle class="cls-34" cx="1199.53" cy="1382.91" r="68.32"/>
    <path class="cls-41" d="M1004.79 466.49s-1.07-26.36 21.4-32.36 35.32 12 35.32 12M1150.76 422.59s3-26.22 26.1-28.7 33.08 17.24 33.08 17.24" transform="translate(-9.04 -7.58)"/>
    <circle class="cls-34" cx="764.74" cy="1371.91" r="64.26"/>
    <path class="cls-35" d="M985.67 1105.07c-16.21-103.06 5.79-385.58 5.79-385.58s0-7-48.63-75.26a123.52 123.52 0 00-32.34-31.12c-3 80.82-6.82 218.52-3 345.48 5.78 191.05 48.63 245.48-54.43 269.79-35.2 8.31-72.16 9.86-105.57 8.3 18.79 43.9 34.36 71 34.36 71s41.69 17.36 117 12.73 110-45.15 110-45.15-6.97-67.14-23.18-170.19z" transform="translate(-9.04 -7.58)"/>
    <ellipse cx="1130.41" cy="483.28" rx="17.95" ry="7.53" transform="rotate(-12.91 1092.64 519.512)" stroke-miterlimit="10" fill="none" stroke="#fff" stroke-width="6"/>
    <ellipse class="cls-32" cx="828.28" cy="1381.59" rx="19.68" ry="36.5" transform="rotate(-16.7 797.948 1408.598)"/>
    <ellipse class="cls-32" cx="885.01" cy="1400.11" rx="19.68" ry="36.5" transform="rotate(-16.7 854.701 1427.124)"/>
    <ellipse class="cls-32" cx="940.59" cy="1398.95" rx="19.68" ry="36.5" transform="rotate(-16.7 910.274 1425.955)"/>
    <ellipse class="cls-32" cx="985.75" cy="1371.17" rx="19.68" ry="36.5" transform="rotate(-16.7 955.416 1398.164)"/>
    <ellipse class="cls-32" cx="1702.39" cy="1072.07" rx="45.28" ry="24.18" transform="rotate(-2.44 1521.341 1281.308)"/>
    <path class="cls-3" d="M2007.18 1335.61h16.44v185.32h-16.44z"/>
    <path class="cls-3" d="M2096.44 1532.08h-144v-7.85a3.31 3.31 0 013.31-3.31h137.11a3.57 3.57 0 013.57 3.57z" transform="translate(-9.04 -7.58)"/>
    <rect class="cls-3" x="1922.23" y="1293.28" width="192.4" height="54.57" rx="18.79"/>
    <path d="M1882.19 1476.25s-53.15 22.89-50.11 46.85c0 0 54.94-10.54 64.77-26.24s4.42-24.8 4.42-24.8z" transform="translate(-9.04 -7.58)" fill="url(#linear-gradient-23)"/>
    <path d="M1895.2 1450.08l2.7 23.33a7.71 7.71 0 01-4.88 8.19 20.06 20.06 0 01-6.73 1 9 9 0 01-8.73-6.55l-5.23-18.87z" transform="translate(-9.04 -7.58)" fill="url(#linear-gradient-24)"/>
    <path d="M2011.31 1271.21s-97.76-4.52-146.4 23.84 2.47 164.52 2.47 164.52 12.7 2.73 31-7c0 0-26.11-99.66 19.24-117 51-19.5 103.73-14.75 103.73-14.75l-9.77-46.48z" transform="translate(-9.04 -7.58)" fill="url(#linear-gradient-25)"/>
    <path d="M1842.76 1512.58c11.12-2.43 44.08-16.09 49.09-15.91s12.1 7.69 12.1 7.69 1.22 4.1-2.36 10c-8.49 6.63-26.79 18.79-48.06 20.12-15.65 1-25.06-5.25-30.44-11.29a43.54 43.54 0 0119.67-10.61z" transform="translate(-9.04 -7.58)" fill="url(#linear-gradient-26)"/>
    <path class="cls-28" d="M1853.53 1534.46c21.27-1.33 39.57-13.49 48.06-20.12-2.42 4-7 8.77-15.7 13.67-21.49 12.15-57 10.38-64.06 7.64-5.65-2.19-3.9-7.46 1.26-12.48 5.38 6.04 14.79 12.27 30.44 11.29z" transform="translate(-9.04 -7.58)"/>
    <path d="M1915.62 1492.15c-.73 2.75-8.52 11-13 15.63a8.86 8.86 0 01-8.23 2.48 23.35 23.35 0 01-5.9-2.07 5.75 5.75 0 01-2.22-7.82l11.38-20.7z" transform="translate(-9.04 -7.58)" fill="url(#linear-gradient-27)"/>
    <path d="M2108.18 1263s8.54 60.54-16.13 72.91-78.79 20.47-97.43 51.87-52.11 93-82.57 110.72c0 0-17.4-5.65-22.48-14.21 0 0 36.15-95 51.24-118.16 13.06-20 32.16-48.83 59.3-61.3 7.77-3.57 8.38-11.81 7-20.25l-2.49-15.37z" transform="translate(-9.04 -7.58)" fill="url(#linear-gradient-28)"/>
    <path class="cls-49" d="M1879.52 1194.39c34.59 9.88 50.07-87.47 49.94-89.83l53 62s-31.6 55.6-79.31 61.52a56.26 56.26 0 01-31-4.54 49.48 49.48 0 007.37-29.15z" transform="translate(-9.04 -7.58)"/>
    <path d="M1815.47 1162.53c15.08-6.19 27.87 6.17 27.87 6.17 14.93 15.29 26.78 23 36.18 25.69a49.48 49.48 0 01-7.3 29.15c-18.63-8.53-29.5-25.79-34-34.41a6.48 6.48 0 00-8.54-2.89c-3.19 1.54-6.49 3.9-6.69 7.1-.41 6.32-7.92 6.69-8 4.36s5.82-14.81 5.82-14.81-17.32 11.12-24.06 15.37-12.49-2.77-12.49-2.77 16.14-26.76 31.21-32.96z" transform="translate(-9.04 -7.58)" fill="url(#linear-gradient-29)"/>
    <path class="cls-49" d="M2094.86 1064.5s-46.48-31.71-158.74 25.64c0 0-11.56 14.65-6.15 31.18s72.07 105.93 74.66 147.9c0 0 45.57 26.82 104.71.23 0 0 19.84-110.83-14.48-204.95z" transform="translate(-9.04 -7.58)"/>
    <path d="M1998.07 1024l18.37 36a10.26 10.26 0 01-1.06 11c-5.06 6.33-15.62 14.85-33.64 9.36a15.76 15.76 0 01-10.75-11.44l-9.53-40.18z" transform="translate(-9.04 -7.58)" fill="url(#linear-gradient-30)"/>
    <path class="cls-49" d="M2129.28 1190.19c3.15-21.88-54.67-64.29-54.67-64.29l20.25-61.4s110.33 78.73 87.12 143c-3.32 9.22-8.28 15.93-14.33 20.69-11.65-23.93-27.53-33.89-38.37-38z" transform="translate(-9.04 -7.58)"/>
    <path d="M2048.62 1196.26s65.4 18.26 79-1.64a10.4 10.4 0 001.69-4.43c10.84 4.11 26.69 14.07 38.37 38-31.05 24.43-90.93-3-107.2-11.16a11.44 11.44 0 00-8.61-.72c-5.79 1.8-15.81 4.61-21.4 4.3-8.17-.45-16.94 29.08-30.85 21.61-.03.03 6.29-50.43 49-45.96z" transform="translate(-9.04 -7.58)" fill="url(#linear-gradient-31)"/>
    <path d="M1959.73 968.18s-17.13 28.46-20.1 44.19-7.74 25.57 10.17 31.17 34.54-1.48 45-16.17c0 0 16.31-22.6 14.68-32.95s-49.75-26.24-49.75-26.24z" transform="translate(-9.04 -7.58)" fill="url(#linear-gradient-32)"/>
    <path d="M1990 1015.2l-2.32-.31s12.12-18.32 4.19-22.86-40.26-15.7-45.88-28.43c-5.41-12.28 2.69-26.14 12.45-29a1.25 1.25 0 011.49.79l.58 1.55a1.25 1.25 0 002.32.06 1.25 1.25 0 012.28-.05c1.73 3.82 6.91 10.33 22.46 15.37 22.06 7.16 35.8 18.28 34.11 34a1.25 1.25 0 001.79 1.27c1.81-.79 4.54-.92 7.72 2.55 5.52 6 1.19 19.25-13.89 28.59a1.26 1.26 0 00-.2 2c2.26 1.93 5.43 6.23-4.77 10.07-10.44 3.93-16.13 2.6-18.23 1.76a1.27 1.27 0 01-.78-1.41l2.68-13.74a1.25 1.25 0 00-1.07-1.48z" transform="translate(-9.04 -7.58)" fill="url(#linear-gradient-33)"/>
    <path d="M1989.07 1018s7.55-18.63 15.49-12.08-7.34 21-14.39 20.82z" transform="translate(-9.04 -7.58)" fill="url(#linear-gradient-34)"/>
    <path d="M1961.64 1228.64h-.36l-152.79-.16a6.84 6.84 0 010-13.68l152.79.17a6.84 6.84 0 01.34 13.67z" transform="translate(-9.04 -7.58)" fill="url(#linear-gradient-35)"/>
    <path d="M1671.14 1089.91h127.24a24.27 24.27 0 0121.94 13.91l58.82 124.73H1721a14.74 14.74 0 01-13.71-9.32l-45.61-115.42a10.16 10.16 0 019.46-13.9z" transform="translate(-9.04 -7.58)" fill="url(#linear-gradient-36)"/>
    <path class="cls-28" d="M1760.78 1153.87c2.76 8.56.72 16.88-4.55 18.58s-11.77-3.87-14.53-12.44-.72-16.89 4.55-18.58 11.75 3.87 14.53 12.44z" transform="translate(-9.04 -7.58)"/>
    <path class="cls-3" d="M1691.77 1532.08a7 7 0 01-2.54-.47c-3.26-1.25-4.76-4.62-3.36-7.53l134.66-279.39a6.74 6.74 0 018.44-3c3.25 1.25 4.76 4.62 3.36 7.53l-134.66 279.39a6.5 6.5 0 01-5.9 3.47z" transform="translate(-9.04 -7.58)"/>
    <path class="cls-3" d="M1843.47 1532.08a6.51 6.51 0 01-5.91-3.47l-134.65-279.39c-1.41-2.91.1-6.28 3.36-7.53a6.73 6.73 0 018.43 3l134.66 279.39c1.4 2.91-.1 6.28-3.36 7.53a7 7 0 01-2.53.47zM2108.59 1532.08a7 7 0 01-2.53-.47c-3.26-1.25-4.76-4.62-3.36-7.53l134.66-279.39a6.72 6.72 0 018.43-3c3.26 1.25 4.77 4.62 3.36 7.53l-134.65 279.39a6.51 6.51 0 01-5.91 3.47z" transform="translate(-9.04 -7.58)"/>
    <path class="cls-3" d="M2260.29 1532.08a6.49 6.49 0 01-5.9-3.47l-134.66-279.39c-1.4-2.91.11-6.28 3.36-7.53a6.74 6.74 0 018.44 3l134.66 279.39c1.4 2.91-.11 6.28-3.36 7.53a7 7 0 01-2.54.47z" transform="translate(-9.04 -7.58)"/>
    <path class="cls-3" d="M2276.09 1235.47a7.75 7.75 0 00-1.28-5.75 5.77 5.77 0 00-4.67-2.54h-612.6a6.83 6.83 0 00-5.88 3.7 9.08 9.08 0 00-.45 7.69l6.64 16.52a9.31 9.31 0 008.44 6.2h599.65c3.37 0 6.26-2.74 6.9-6.55z" transform="translate(-9.04 -7.58)"/>
    <path d="M543.71 1463.93s-5.6 8.83-7 33.54a4 4 0 004 4.27h43.81a2.58 2.58 0 002.45-3.4c-2.57-7.6-10.33-26.12-27.64-36.7z" transform="translate(-9.04 -7.58)" fill="url(#linear-gradient-37)"/>
    <path d="M541.81 1447.18l2.48 20.77a3.91 3.91 0 003.41 3.44 34.77 34.77 0 009.26-.09 6.42 6.42 0 005.29-6.37v-20z" transform="translate(-9.04 -7.58)" fill="url(#linear-gradient-38)"/>
    <path d="M652.09 1461.64a61.13 61.13 0 00-8.21 30.92 7.74 7.74 0 007.78 7.57h68a3.26 3.26 0 001.87-5.93c-12.87-9-38.17-25.92-56.47-32.56z" transform="translate(-9.04 -7.58)" fill="url(#linear-gradient-39)"/>
    <path d="M645.08 1439.2l5.28 25.66a5.29 5.29 0 006.26 4.16 19.14 19.14 0 006-2.5 6.07 6.07 0 002.71-6.2l-5.46-31.08z" transform="translate(-9.04 -7.58)" fill="url(#linear-gradient-40)"/>
    <path d="M551.52 1082.51s-18.38 16.2-21.83 35.69 9.79 336.24 9.79 336.24 18.38 3 27.85-2.68c0 0 11.23-205.58 19.77-253.08 0 0 44.78 213 57.18 251.42 0 0 17.7 2.16 23.41-1.21 0 0-11.73-276-26.47-325.11z" transform="translate(-9.04 -7.58)" fill="url(#linear-gradient-41)"/>
    <path d="M586.56 1191.85a1.89 1.89 0 00.47-.06 1.85 1.85 0 001.32-2.25l-7.81-29.94a1.78 1.78 0 00-.78-1.08l-16.87-10.82a1.84 1.84 0 00-2 3.1l16.26 10.43 7.62 29.24a1.84 1.84 0 001.79 1.38z" transform="translate(-9.04 -7.58)" fill="url(#linear-gradient-42)"/>
    <path class="cls-49" d="M758.29 933.5c-27.23-29.34-79.09-42.59-109.12-48a27.56 27.56 0 00-30.79 17.47C604.87 939.25 568.12 1033.76 561 1050c-5.85 13.33-12 26.34-15.83 34.48a9.77 9.77 0 004.56 13c25.26 12.18 70.72 26 89.15 31.33a6.32 6.32 0 008.09-6.08 19.8 19.8 0 012.82-10.17l69.8-116.31c43.5 48.24 81.6 52.65 110.87 42.09a220.66 220.66 0 01-9.69-45.71c-43.24-7.4-62.48-59.13-62.48-59.13z" transform="translate(-9.04 -7.58)"/>
    <path d="M904.41 976l-14.14-8.26c-25.26 17.35-52.21 27.85-69.5 24.89a220.66 220.66 0 009.69 45.71C869 1024.44 904.41 976 904.41 976z" transform="translate(-9.04 -7.58)" fill="url(#linear-gradient-43)"/>
    <path d="M690.47 831.58l-23.19 56.6s26.65 18.44 48.09 16.69L726.94 854z" transform="translate(-9.04 -7.58)" fill="url(#linear-gradient-44)"/>
    <path d="M729.65 793c.53.76 16.78 59.46 16.78 59.46L712.72 861l-23.67-53.35s31.71-27.26 40.6-14.65z" transform="translate(-9.04 -7.58)" fill="url(#linear-gradient-45)"/>
    <path d="M699.7 850.56s-2.38-18.43-10-19.34-15.13 5.4-7.51 15.75c9.44 12.86 17.51 3.59 17.51 3.59z" transform="translate(-9.04 -7.58)" fill="url(#linear-gradient-46)"/>
    <path d="M708 830.46l-7.38-22.13 31.57-6.91s-4.53-47.17-53.69-32.42-3 99.28-3 99.28z" transform="translate(-9.04 -7.58)" fill="url(#linear-gradient-47)"/>
    <path d="M889.87 968.11s12.29-24.58 36.88-22.12 24.58 7.37 27 22.12-55.47 15.63-55.47 15.63z" transform="translate(-9.04 -7.58)" fill="url(#linear-gradient-48)"/>
</svg>