<svg width="90px" xmlns="http://www.w3.org/2000/svg" xmlns:xlink="http://www.w3.org/1999/xlink" viewBox="0 0 855 750.88">
    <defs>
        <linearGradient id="linear-gradient" x1="571.94" y1="-233.27" x2="598" y2="-233.27"
                        gradientTransform="rotate(14.49 -2292.645 782.643)" gradientUnits="userSpaceOnUse">
            <stop offset="0" stop-color="#dae3fe"/>
            <stop offset="1" stop-color="#e9effd"/>
        </linearGradient>
        <linearGradient id="linear-gradient-2" x1="417.62" y1="467.74" x2="408.17" y2="850.37"
                        gradientUnits="userSpaceOnUse">
            <stop offset="0" stop-color="#09005d"/>
            <stop offset="1" stop-color="#1a0f91"/>
        </linearGradient>
        <linearGradient id="linear-gradient-3" x1="587.02" y1="593.92" x2="612.7" y2="342.29"
                        gradientTransform="rotate(.44 -6812.568 -212.142)" xlink:href="#linear-gradient-2"/>
        <linearGradient id="linear-gradient-4" x1="-14193.82" y1="-618.92" x2="-14168.14" y2="-870.55"
                        gradientTransform="matrix(-1 -.02 -.02 1 -14062.58 -143.33)" xlink:href="#linear-gradient-2"/>
        <linearGradient id="linear-gradient-5" x1="416.56" y1="438.36" x2="410.44" y2="730.88"
                        gradientUnits="userSpaceOnUse">
            <stop offset="0" stop-color="#53d8ff"/>
            <stop offset="1" stop-color="#3840f7"/>
        </linearGradient>
        <style>
            .cls-3{fill:#7d97f4}.cls-7{fill:#fff}.cls-8{fill:#002cab}.cls-9{fill:#f9bd55}.cls-10{fill:#f9c0b2}.cls-16{fill:#fdccbb}.cls-18{fill:#ced1d2}.cls-19{fill:#e5e5e6}.cls-20{fill:#919395}.cls-22{fill:#ce417a}.cls-25{fill:#59595b}
        </style>
    </defs>
    <g id="Слой_2">
        <g id="Слой_3">
            <path d="M249.28 194.21C341.65 138.6 384.6 45.26 380.91 0 611.07 63.05 532.74 256.69 586 258.16c33.26.92 63-28.7 61.56-113.16C939.2 320 722.71 476.45 806 478.68c27.64.75 49-32.3 49-32.3-2.27 189.89-195.4 304.31-417.62 304.5C218 750.88 3.83 663.8 0 451.08c0 0 50.05 55.23 90.44 40.55 53.93-19.54-85.26-150.41 158.84-297.42z"
                  fill="#fc928d"/>
            <path d="M552.87 698.33c25.07 5 57.08-22.32 67.4-52.18 10.61-30.72-8.85-43.59-8.7-86.23.17-48.43 25.37-55.73 42-121 3.76-14.73 25.52-100-1.45-115.94-24.93-14.77-95 27.62-107.25 81.89-8.75 38.69 18.31 54.93 8 100-9.06 39.54-32.89 40.11-42 78.26-11.14 46.42 9.13 108.62 42 115.2z"
                  fill="#91b3fa"/>
            <path class="cls-3"
                  d="M554.69 710.06c-6.75-52.18 6.43-132.69 18.68-191 13.26-63.18 28.31-114.7 28.46-115.22l2.09.62c-.15.51-15.18 52-28.43 115.06-12.21 58.18-25.36 138.42-18.64 190.29z"/>
            <path d="M581.05 685.74c-27.54-24.82-23.72-84.6-.84-98.43 15.46-9.35 29.6 8.34 49.86-.26 25.88-11 18-46.26 45.48-82.31 23.35-30.67 66.42-54.28 85-42.36 19.4 12.47 17.16 67.25-9 93.8-17 17.27-35.31 13.61-44.1 31.48-10.2 20.75 9.14 36.41 3.76 57.69-9.72 38.23-93.71 73.22-130.16 40.39z"
                  fill="#f0aaa0"/>
            <path class="cls-3"
                  d="M594.46 704.76a1.27 1.27 0 01-.53-.27 1.34 1.34 0 01-.15-1.89c64.68-76.06 103.13-173.76 103.51-174.74a1.34 1.34 0 012.5 1c-.38 1-39 99.09-104 175.49a1.32 1.32 0 01-1.33.41z"/>
            <path d="M723.6 562.53a.62.62 0 01-.35-.22.64.64 0 01.12-.9c17.74-13.66 39.14-35.53 40.36-62.19.73-15.87-6.15-26-6.22-26.13a.64.64 0 011-.73c.29.43 7.19 10.62 6.45 26.92-.69 15-8.33 38.1-40.86 63.14a.62.62 0 01-.5.11z"
                  fill="url(#linear-gradient)"/>
            <path d="M580.15 677.4a.63.63 0 01-.44-.4c-12.76-35.17-13.77-60.06-3-74 9.56-12.37 25.28-11.07 25.43-11.06a.65.65 0 01.58.7.64.64 0 01-.69.58c-.15 0-15.2-1.24-24.32 10.58-10.45 13.55-9.37 38 3.22 72.75a.64.64 0 01-.38.82.62.62 0 01-.4.03z"
                  fill="#f0f0f0"/>
            <path class="cls-7"
                  d="M685.69 230l-2.2 1.81a1 1 0 11-1.31-1.59l2.24-1.83a1 1 0 011.3 1.6zM678.56 236.26l-2 2a1 1 0 11-1.46-1.49l2.08-2a1 1 0 011.45 1.5zM672 243.06l-1.86 2.15a1.06 1.06 0 01-1.6-1.39l1.9-2.18a1 1 0 011.48-.1 1.06 1.06 0 01.11 1.49zM666 250.38l-1.68 2.29a1.07 1.07 0 01-1.72-1.26l1.72-2.33a1.07 1.07 0 011.49-.22 1.05 1.05 0 01.22 1.48zM660.63 258.17l-1.49 2.41a1.08 1.08 0 11-1.84-1.14l1.53-2.46a1.07 1.07 0 011.48-.34 1.08 1.08 0 01.35 1.48zM655.89 266.36l-1.29 2.53a1.09 1.09 0 01-2-1l1.32-2.57a1.09 1.09 0 111.93 1zM651.81 274.9l-1.09 2.62a1.1 1.1 0 01-2-.85l1.11-2.67a1.1 1.1 0 112 .85zM648.42 283.74l-.88 2.7a1.11 1.11 0 11-2.12-.69l.91-2.75a1.11 1.11 0 112.11.7zM645.74 292.81l-.66 2.76a1.12 1.12 0 01-1.35.83 1.13 1.13 0 01-.84-1.36l.68-2.81a1.13 1.13 0 012.19.53zM643.8 302.07l-.44 2.8a1.14 1.14 0 01-2.25-.35l.45-2.85a1.15 1.15 0 011.3-.95 1.13 1.13 0 01.94 1.3zM642.62 311.44l-.2 2.83a1.15 1.15 0 01-2.3-.17l.21-2.88a1.15 1.15 0 011.23-1.06 1.14 1.14 0 011.06 1.23zM642.23 320.88v2.83a1.17 1.17 0 11-2.33 0v-2.89a1.15 1.15 0 011.14-1.17 1.16 1.16 0 011.18 1.14zM642.65 330.31l.29 2.82a1.18 1.18 0 01-1.05 1.29 1.17 1.17 0 01-1.29-1.05l-.29-2.88a1.17 1.17 0 011-1.29 1.18 1.18 0 011.29 1zM643.94 339.65l.58 2.77a1.18 1.18 0 01-2.32.48l-.58-2.84a1.18 1.18 0 012.32-.47zM646.2 348.79l.88 2.68a1.2 1.2 0 11-2.27.75l-.9-2.77a1.18 1.18 0 01.76-1.5 1.2 1.2 0 011.51.76zM649.52 357.58l1.22 2.53v.05a1.21 1.21 0 01-2.18 1l-1.26-2.64a1.21 1.21 0 112.18-1zM654 365.79l1.58 2.32v.05a1.22 1.22 0 11-2 1.38l-1.58-2.42a1.22 1.22 0 012-1.37zM659.71 373.18c.63.69 1.3 1.34 1.95 2a1.23 1.23 0 01-1.77 1.72c-.67-.71-1.38-1.39-2-2.11a1.24 1.24 0 01.09-1.74 1.22 1.22 0 011.73.13zM666.6 379.46l2.26 1.64a1.23 1.23 0 11-1.44 2l-2.36-1.72a1.24 1.24 0 111.45-2zM674.46 384.49l2.51 1.26a1.24 1.24 0 01-1.11 2.22l-2.61-1.31a1.24 1.24 0 011.11-2.22zM683 388.24l2.67.88a1.25 1.25 0 01-.78 2.37l-2.77-.92a1.24 1.24 0 01.78-2.36zM692.06 390.74l2.77.51a1.25 1.25 0 11-.46 2.45l-2.86-.53a1.25 1.25 0 11.45-2.45zM701.36 392l2.81.16h.05a1.27 1.27 0 011.18 1.33 1.25 1.25 0 01-1.33 1.17l-2.9-.17a1.25 1.25 0 11.14-2.5zM710.75 392.18l2.81-.18h.05a1.26 1.26 0 01.16 2.51l-2.91.18a1.26 1.26 0 11-.15-2.51zM720.09 391.19c.93-.15 1.85-.33 2.78-.51a1.26 1.26 0 11.48 2.47c-1 .18-1.9.37-2.85.53a1.26 1.26 0 01-.42-2.49zM729.28 389.14l2.71-.8a1.27 1.27 0 01.72 2.43l-2.79.81a1.25 1.25 0 01-1.56-.85 1.26 1.26 0 01.85-1.57zM738.22 386.18l2.63-1.05a1.27 1.27 0 11.94 2.35l-2.69 1.07a1.27 1.27 0 01-.94-2.35zM746.88 382.42l2.54-1.26a1.27 1.27 0 011.13 2.28l-2.55 1.27a1.27 1.27 0 01-1.13-2.28zM755.23 378l2.44-1.44a1.27 1.27 0 111.3 2.19l-2.48 1.47a1.27 1.27 0 11-1.3-2.19zM763.26 373l2.35-1.6a1.28 1.28 0 111.44 2.11l-2.39 1.63a1.28 1.28 0 11-1.44-2.12zM771 367.49l2.26-1.72a1.28 1.28 0 111.56 2l-2.29 1.75a1.29 1.29 0 11-1.53-2.02zM778.44 361.61l2.18-1.83a1.29 1.29 0 111.66 2l-2.21 1.86a1.29 1.29 0 01-1.65-2zM785.59 355.39l2.07-1.94a1.29 1.29 0 111.77 1.89l-2.11 2a1.29 1.29 0 01-1.76-1.88zM792.31 348.75l1.89-2.1a1.3 1.3 0 111.92 1.74l-1.95 2.15a1.3 1.3 0 01-1.92-1.74zM798.35 341.54l1.64-2.29a1.3 1.3 0 012.11 1.51l-1.7 2.37a1.3 1.3 0 01-2.11-1.51zM803.43 333.68l1.3-2.49v-.05a1.31 1.31 0 012.32 1.2l-1.35 2.59a1.3 1.3 0 11-2.31-1.2zM807.22 325.17l.82-2.66v-.08a1.31 1.31 0 112.5.78l-.87 2.81a1.3 1.3 0 11-2.49-.78zM809.37 316.14l.29-2.77v-.08a1.31 1.31 0 112.61.28l-.27 2.93a1.31 1.31 0 11-2.6-.28zM809.65 306.89l-.31-2.75v-.1a1.32 1.32 0 012.62-.3l.34 2.95a1.31 1.31 0 01-1.16 1.45 1.3 1.3 0 01-1.45-1.15zM807.79 297.89l-1-2.56v-.1a1.32 1.32 0 112.45-1l1.1 2.76a1.32 1.32 0 01-2.46 1zM803.59 289.78l-1.7-2.16-.07-.09a1.32 1.32 0 112.07-1.64l1.84 2.34a1.32 1.32 0 01-2.08 1.64zM797.25 283.16l-2.25-1.64-.08-.06a1.33 1.33 0 111.58-2.13l2.38 1.76a1.33 1.33 0 11-1.58 2.13zM789.41 278.33l-2.55-1.08h-.08a1.33 1.33 0 111-2.45l2.71 1.16a1.33 1.33 0 11-1 2.45zM780.66 275.38l-2.73-.52h-.09a1.34 1.34 0 11.49-2.63l2.89.55a1.33 1.33 0 11-.49 2.62zM771.47 274.36l-2.79.08h-.07a1.34 1.34 0 11-.08-2.68l2.94-.08a1.34 1.34 0 01.08 2.68zM762.23 275.24l-2.74.58h-.06a1.35 1.35 0 11-.57-2.63l2.87-.62a1.34 1.34 0 11.56 2.63zM753.25 277.72l-2.62 1a1.35 1.35 0 01-1-2.52l2.72-1.06a1.35 1.35 0 111 2.51zM744.72 281.55l-2.46 1.38a1.35 1.35 0 11-1.32-2.36l2.55-1.42a1.35 1.35 0 111.32 2.36zM736.74 286.49l-2.27 1.66a1.36 1.36 0 11-1.6-2.19l2.35-1.72a1.36 1.36 0 011.6 2.19zM729.37 292.32l-2.09 1.9a1.36 1.36 0 01-1.83-2l2.15-2a1.36 1.36 0 111.83 2zM722.62 298.88l-1.9 2.09a1.35 1.35 0 01-1.92.09 1.37 1.37 0 01-.1-1.93l2-2.14a1.36 1.36 0 012 1.83zM716.5 306.05l-1.71 2.25a1.37 1.37 0 01-2.18-1.66l1.76-2.3a1.36 1.36 0 012.17 1.65zM711 313.72l-1.53 2.38a1.37 1.37 0 01-2.31-1.49l1.57-2.43a1.37 1.37 0 012.3 1.48zM706.1 321.79l-1.36 2.49a1.38 1.38 0 11-2.41-1.33l1.39-2.53a1.37 1.37 0 112.41 1.32zM701.74 330.19l-1.21 2.57a1.38 1.38 0 11-2.5-1.17l1.23-2.62a1.38 1.38 0 012.5 1.18zM697.88 338.84l-1.06 2.64a1.39 1.39 0 01-2.57-1l1.09-2.68a1.38 1.38 0 112.56 1zM694.49 347.69l-.94 2.69a1.39 1.39 0 01-2.63-.91l1-2.73a1.39 1.39 0 012.62.91zM691.51 356.7l-.83 2.73a1.4 1.4 0 11-2.67-.81l.84-2.75a1.39 1.39 0 112.66.81zM688.87 365.83l-.74 2.75a1.4 1.4 0 11-2.7-.72l.74-2.78a1.4 1.4 0 112.7.73zM686.49 375l-.67 2.78a1.4 1.4 0 11-2.72-.66l.67-2.79a1.4 1.4 0 012.72.66z"/>
            <path class="cls-7"
                  d="M684.32 384.3l-.63 2.79a1.4 1.4 0 11-2.74-.61l.63-2.8a1.4 1.4 0 012.74.61zM682.26 393.61l-.6 2.8a1.41 1.41 0 01-2.76-.59l.61-2.8a1.41 1.41 0 112.75.6zM680.26 402.94l-.6 2.81a1.41 1.41 0 11-2.76-.6l.6-2.8a1.41 1.41 0 012.76.59zM678.24 412.29l-.62 2.8a1.42 1.42 0 11-2.77-.62l.62-2.79a1.42 1.42 0 012.77.61zM676.12 421.62l-.67 2.8a1.42 1.42 0 11-2.76-.66l.66-2.78a1.42 1.42 0 012.77.66zM673.83 430.92l-.73 2.79a1.43 1.43 0 11-2.76-.73l.72-2.76a1.42 1.42 0 112.75.72zM671.31 440.18l-.81 2.76a1.43 1.43 0 11-2.74-.8l.8-2.73a1.43 1.43 0 112.74.81zM668.53 449.35l-.88 2.74a1.43 1.43 0 01-2.72-.88l.88-2.71a1.43 1.43 0 112.73.87zM665.51 458.45l-1 2.71a1.43 1.43 0 11-2.69-1l.94-2.69a1.43 1.43 0 012.69.95zM662.23 467.46l-1 2.68a1.42 1.42 0 01-2.65-1l1-2.67a1.42 1.42 0 112.65 1zM658.72 476.38l-1.11 2.62a1.41 1.41 0 11-2.61-1l1.09-2.64a1.42 1.42 0 012.62 1.08zM655 485.2l-1.18 2.62a1.4 1.4 0 11-2.56-1.15l1.16-2.6a1.41 1.41 0 112.57 1.14zM651 493.91l-1.25 2.59a1.4 1.4 0 11-2.52-1.21l1.24-2.57a1.4 1.4 0 012.53 1.21zM646.72 502.51l-1.31 2.56a1.41 1.41 0 01-1.88.6 1.39 1.39 0 01-.6-1.88l1.3-2.54a1.4 1.4 0 012.48 1.28zM642.25 511l-1.39 2.52a1.39 1.39 0 01-2.43-1.34l1.38-2.5a1.39 1.39 0 012.44 1.34zM637.54 519.34l-1.46 2.48a1.39 1.39 0 01-2.39-1.41l1.44-2.46a1.39 1.39 0 112.39 1.41zM632.59 527.55l-1.53 2.45a1.38 1.38 0 01-2.33-1.47l1.51-2.41a1.37 1.37 0 112.33 1.46zM627.41 535.62l-1.6 2.39a1.37 1.37 0 11-2.28-1.53l1.58-2.38a1.37 1.37 0 112.28 1.53zM622 543.53l-1.67 2.35a1.37 1.37 0 11-2.23-1.59l1.65-2.32a1.37 1.37 0 112.23 1.58zM616.35 551.28l-1.74 2.3a1.36 1.36 0 11-2.16-1.65l1.72-2.27a1.36 1.36 0 112.17 1.64zM610.48 558.86l-1.81 2.24a1.35 1.35 0 01-2.11-1.7l1.79-2.22a1.36 1.36 0 112.12 1.7zM604.37 566.25l-1.88 2.19a1.36 1.36 0 01-1.9.14 1.34 1.34 0 01-.14-1.9l1.86-2.17a1.35 1.35 0 012 1.76zM598 573.45l-1.94 2.13a1.35 1.35 0 01-1.9.08 1.33 1.33 0 01-.08-1.9l1.93-2.1a1.34 1.34 0 112 1.81zM591.47 580.45l-2 2.06a1.34 1.34 0 01-1.92-1.87l2-2a1.34 1.34 0 011.92 1.87zM584.68 587.23l-2.07 2a1.33 1.33 0 11-1.85-1.92l2.06-2a1.33 1.33 0 111.84 1.92zM577.68 593.78l-2.14 1.92a1.32 1.32 0 11-1.77-2l2.12-1.9a1.32 1.32 0 011.77 2zM570.46 600.1l-2.21 1.84a1.32 1.32 0 11-1.69-2l2.18-1.83a1.32 1.32 0 011.7 2zM563 606.16l-2.27 1.77a1.32 1.32 0 01-1.61-2.08l2.24-1.75a1.32 1.32 0 011.61 2.08zM555.38 612l-2.33 1.68a1.31 1.31 0 11-1.54-2.12l2.31-1.67a1.31 1.31 0 011.54 2.13zM547.53 617.48l-2.39 1.6a1.3 1.3 0 01-1.45-2.16l2.37-1.59a1.31 1.31 0 011.46 2.17zM539.49 622.72l-2.44 1.51a1.3 1.3 0 11-1.37-2.21l2.43-1.5a1.3 1.3 0 011.37 2.21zM531.27 627.65l-2.5 1.42a1.29 1.29 0 11-1.28-2.24l2.48-1.41a1.29 1.29 0 011.28 2.24zM522.86 632.28l-2.55 1.33a1.29 1.29 0 01-1.19-2.28l2.52-1.32a1.29 1.29 0 011.19 2.28zM514.28 636.58l-2.61 1.22a1.28 1.28 0 11-1.08-2.31l2.58-1.21a1.28 1.28 0 111.08 2.32zM505.51 640.51l-2.66 1.1a1.28 1.28 0 11-1-2.36l2.63-1.08a1.28 1.28 0 011 2.36zM496.55 644l-2.73.94a1.27 1.27 0 01-.83-2.39l2.69-.94a1.26 1.26 0 011.61.78 1.25 1.25 0 01-.78 1.61zM487.39 647l-2.78.77a1.26 1.26 0 11-.68-2.43l2.73-.76a1.27 1.27 0 11.68 2.44zM478.05 649.31l-2.84.57a1.26 1.26 0 01-.5-2.46l2.78-.57a1.27 1.27 0 011.48 1 1.25 1.25 0 01-1 1.48zM468.55 651l-2.88.35a1.25 1.25 0 11-.29-2.48l2.8-.34a1.25 1.25 0 11.3 2.48zM458.93 651.83l-2.89.09a1.26 1.26 0 01-1.29-1.21 1.24 1.24 0 011.21-1.28l2.83-.1a1.25 1.25 0 01.08 2.5zM449.27 651.8l-2.9-.2a1.24 1.24 0 01.17-2.48l2.82.19a1.24 1.24 0 01-.17 2.48zM439.65 650.78l-2.86-.51a1.25 1.25 0 01-1-1.43 1.23 1.23 0 011.43-1l2.78.48a1.24 1.24 0 01-.42 2.44zM430.18 648.74l-2.78-.81a1.22 1.22 0 11.68-2.35l2.72.78a1.23 1.23 0 01-.68 2.36zM421 645.66l-2.68-1.12a1.21 1.21 0 01.94-2.23l2.61 1.08a1.2 1.2 0 01.65 1.58 1.22 1.22 0 01-1.58.66zM412.24 641.53l-2.53-1.46a1.19 1.19 0 011.19-2.07l2.45 1.4a1.2 1.2 0 01-1.19 2.08zM404.06 636.3l-2.3-1.78a1.18 1.18 0 01-.21-1.65 1.16 1.16 0 011.64-.21l2.23 1.71a1.18 1.18 0 11-1.43 1.87zM396.69 630l-2-2.1a1.16 1.16 0 011.67-1.6l2 2a1.16 1.16 0 01-1.67 1.61zM390.34 622.62l-1.66-2.41a1.14 1.14 0 111.87-1.29v.05l1.59 2.3v.05a1.14 1.14 0 01-1.88 1.3zM385.3 614.29l-1.23-2.64a1.13 1.13 0 112-.95l1.19 2.54v.05a1.13 1.13 0 01-2.05 1zM381.71 605.26l-.79-2.81a1.1 1.1 0 01.76-1.36 1.11 1.11 0 011.37.76l.77 2.71a1.12 1.12 0 01-.77 1.37 1.11 1.11 0 01-1.37-.76zM379.61 595.77l-.32-2.9a1.08 1.08 0 011-1.2 1.09 1.09 0 011.21 1l.32 2.79v.06a1.1 1.1 0 01-2.18.25zM379.11 586.06l.18-2.91a1.06 1.06 0 011.13-1 1.07 1.07 0 011 1.14v.05l-.16 2.8v.06a1.08 1.08 0 01-2.15-.12zM380.33 576.4l.72-2.83a1.05 1.05 0 011.28-.77 1.07 1.07 0 01.76 1.29l-.68 2.72v.06a1.06 1.06 0 01-2.05-.51zM383.38 567.15l1.29-2.64a1 1 0 011.87.92v.05l-1.25 2.52v.06a1 1 0 01-1.39.49 1.05 1.05 0 01-.49-1.4z"/>
            <path class="cls-8"
                  d="M376.45 210.91c-.44.84-28.17 21.25-28.17 21.25s6.12 43.82 31 61.12c27.34 19 66-15.67 66-15.67s30.73 7.31 47.08-56.67c3.75-14.68-17.9-15.92-44-13.22-33.75 3.49-71.91 3.19-71.91 3.19z"/>
            <path class="cls-9"
                  d="M324.61 360.41a117.26 117.26 0 0135.57-16.55c4.77-1.3 30.57 6.2 46.51 5.83 21.89-.5 44.17-10.46 62.21-6S501.49 354 510 360.05c25.35 18 40.23 51.65 49.3 84.95-17.17 17.63-38.78 25.47-38.78 25.47l-4 161.86-95.71 49-109.29-54.87 3.91-158.19s-34.69-16.15-37.24-22 15.81-64.81 46.42-85.86z"/>
            <path class="cls-10"
                  d="M279.81 445.53s-46.49 128.89 59.52 181.86c22-2.92 13.55-39.48 13.55-39.48s-46.06-10.19-32.23-117.71c-12.74-10.48-40.84-24.67-40.84-24.67zM557 445.53s32 134.54-59.53 181.86c-22-2.92-13.54-39.48-13.54-39.48s37.12-18.28 32.23-117.71c12.76-10.48 40.84-24.67 40.84-24.67z"/>
            <rect x="310.26" y="494.69" width="209.89" height="141.75" rx="8.33" fill="url(#linear-gradient-2)"/>
            <path d="M612.21 678.47c-24-5.52-79.53-2.55-79.53-2.55l-2.26 6.08-3.74 30.4s52.87 9.53 78.93 9.5a24.48 24.48 0 007.31-1.09c.8-.71 1.57-1.45 2.31-2.25 11.05-12.05 7.86-29.79-3.02-40.09z"
                  fill="url(#linear-gradient-3)"/>
            <path class="cls-9"
                  d="M516.72 674.21l9.4.4a18.07 18.07 0 0113.21 6.83 22.29 22.29 0 014.85 15.24 17.55 17.55 0 01-5.09 11.59 14.24 14.24 0 01-11 4.18l-14.39-1z"/>
            <path d="M200.62 675.54c24.15-4.77 79.57-.11 79.57-.11l2.1 6.19 3 30.5s-53.09 7.9-79.14 7.08a24.79 24.79 0 01-7.28-1.32c-.78-.74-1.53-1.5-2.25-2.32-10.77-12.41-7.13-30.05 4-40.02z"
                  fill="url(#linear-gradient-4)"/>
            <path class="cls-9"
                  d="M296.18 674.21l-9.41.12a18 18 0 00-13.37 6.42 22.19 22.19 0 00-5.23 15.08 17.65 17.65 0 004.8 11.75 14.29 14.29 0 0010.89 4.51l14.4-.58z"/>
            <path d="M618.93 583.18C608 558.11 581.39 554 558.72 565.76c-.4.52-144 74.12-270.66 106.38a137.59 137.59 0 015.9 36.15c.07 2.71 0 5.38-.13 8 97.12-5 202.52-37.38 293.1-65.85 28.07-9.04 44.07-39.44 32-67.26z"
                  fill="#6771b7"/>
            <path d="M517.41 710.19a83.49 83.49 0 018.18-39.13c.16-.55.36-1.08.54-1.63-7.23-2.24-16.58-5.27-28.85-9.44-89.93-30.78-158.54-61.85-224-97.63-25.44-13.9-54.36-4.58-62.51 25.52-7.27 26.87 8.7 49.81 32.92 57.87 72.49 24.12 34.75 17.42 58.42 25 63.58 19.66 142.69 37.57 215.47 42.45-.07-.97-.13-1.99-.17-3.01z"
                  fill="#535891"/>
            <path class="cls-10"
                  d="M360.18 343.86s9.67 41.92 56.63 41.05c47.83-.87 52.09-41.18 52.09-41.18L437.66 337l-2.61-34.81-47 3.48-.87 33.07z"/>
            <path class="cls-16"
                  d="M394.65 203.6s-53.86 104.32 10 129.63c45.09 17.85 73.35-69.23 64.92-92.88-13-36.49-21.61-32.16-21.61-32.16z"/>
            <path class="cls-8"
                  d="M482.53 194.1c26.61 7.32 3.87 65-36.19 51.37s-55.8-13.44-62-2.44-7.59 50.06-21.13 30.75c-14.85-21.17-23.13-63.65-4.92-77.35 16.27-12.24 20.07-31.22 39.58-30.56 25.91.87 45.94-10.61 57.63-2.33 13.39 9.51 7.5 25.18 27.03 30.56z"/>
            <path class="cls-16" d="M381.83 252s-11.48-12.36-13.32 2.53 4.06 34.09 11 23.57 2.32-26.1 2.32-26.1z"/>
            <path d="M427.58 533.08c1.12 7.52-2.91 14.35-10.43 15.46a13.76 13.76 0 01-15.63-11.6c-1.12-7.52 2.33-15 9.85-16.1s15.1 4.72 16.21 12.24z"
                  fill="url(#linear-gradient-5)"/>
            <path class="cls-18" transform="rotate(-11.07 79.78 245.69)" d="M73.43 230.63h12.76v30.31H73.43z"/>
            <path class="cls-18"
                  d="M53.87 226.73a8.52 8.52 0 016.73-10l26-5.1a8.55 8.55 0 0110 6.74 8.54 8.54 0 01-6.73 10l-26 5.09a8.53 8.53 0 01-10-6.73z"/>
            <path class="cls-19" transform="rotate(-75.67 59.943 260.564)" d="M53.58 245.42h12.76v30.3H53.58z"/>
            <path class="cls-19"
                  d="M31.62 275.82a8.53 8.53 0 01-6.15-10.37L32 239.73a8.54 8.54 0 0110.38-6.15A8.54 8.54 0 0148.57 244L42 269.67a8.52 8.52 0 01-10.38 6.15z"/>
            <path class="cls-20" transform="rotate(-40.52 67.73 250.792)" d="M61.34 233.25H74.1v35.05H61.34z"/>
            <path class="cls-20"
                  d="M36.21 247.46a8.54 8.54 0 01.94-12l20.17-17.24a8.54 8.54 0 0112 .94 8.54 8.54 0 01-.94 12L48.23 248.4a8.52 8.52 0 01-12.02-.94z"/>
            <ellipse cx="138.43" cy="333.53" rx="103.39" ry="103.42" transform="rotate(-24.13 138.462 333.552)"
                     fill="#ef616b"/>
            <ellipse class="cls-22" cx="138.43" cy="333.53" rx="103.39" ry="103.42"
                     transform="rotate(-24.13 138.462 333.552)"/>
            <ellipse cx="138.43" cy="333.53" rx="98.75" ry="98.78" transform="rotate(-24.18 138.456 333.584)"
                     fill="#d3668d"/>
            <path class="cls-7" d="M153.21 252.42A82.46 82.46 0 10201.09 280a82.26 82.26 0 00-47.88-27.58z"/>
            <path d="M153.21 252.42a82.45 82.45 0 01-44.58 158 82.45 82.45 0 1044.58-158z" fill="#eff0f0"/>
            <path class="cls-25"
                  d="M137.42 342.23l-36.18-42.34 9.05-7.74 28.44 33.29 26.67-22.8 7.73 9.06-35.71 30.53z"/>
            <circle class="cls-22" cx="138.47" cy="333.49" r="11.41" transform="rotate(-24.24 138.5 333.547)"/>
            <path class="cls-25" d="M92.5 372.78a5.85 5.85 0 11-8.25-.64 5.86 5.86 0 018.25.64z"/>
            <circle class="cls-25" cx="190.55" cy="288.97" r="5.85" transform="rotate(-23.84 190.543 288.971)"/>
            <path class="cls-25"
                  d="M99.3 286a5.85 5.85 0 11.64-8.25 5.86 5.86 0 01-.64 8.25zM186.92 388.5a5.85 5.85 0 11.64-8.26 5.85 5.85 0 01-.64 8.26z"/>
            <path class="cls-18"
                  d="M205.45 237.25a56.45 56.45 0 016.37 3.18c2.07 1.16 4.07 2.44 6 3.77a105 105 0 0111.21 8.87 106.83 106.83 0 0110 10.34c.77.93 1.54 1.85 2.28 2.8l2.17 2.88c1.39 2 2.76 4 4 6l.95 1.54c.31.52.59 1.05.89 1.58.58 1.06 1.2 2.09 1.75 3.17l1.6 3.26c.53 1.08 1 2.2 1.47 3.31a79.84 79.84 0 014.44 13.8l.4 1.76c.14.59.21 1.19.32 1.79.19 1.19.39 2.38.57 3.56s.24 2.4.34 3.6l.14 1.79v5.39c0 1.19-.12 2.39-.21 3.58-.05.59-.07 1.18-.14 1.77l-.26 1.77c-.19 1.18-.36 2.35-.58 3.51-.24-1.17-.41-2.33-.62-3.49l-.27-1.73-.34-1.72c-.24-1.14-.45-2.28-.67-3.41l-.8-3.36-.39-1.67-.47-1.66-.91-3.29c-.74-2.16-1.34-4.34-2.17-6.45s-1.63-4.21-2.47-6.29c-.43-1-.95-2-1.39-3.08l-.69-1.54-.76-1.51c-.52-1-1-2-1.51-3l-1.61-3c-.53-1-1.12-2-1.67-2.93-.29-.49-.56-1-.86-1.46l-.9-1.43c-1.14-1.94-2.43-3.8-3.67-5.68l-1.94-2.78-2-2.75c-2.7-3.64-5.55-7.18-8.52-10.67a276.07 276.07 0 00-19.08-20.12zM234.53 233a34.32 34.32 0 014.68 2c1.52.75 3 1.59 4.42 2.47a67.47 67.47 0 018.17 6 69.32 69.32 0 017.21 7.23 64.31 64.31 0 016.08 8.28 58.6 58.6 0 014.7 9.2 52.8 52.8 0 013 9.9c.18.85.34 1.69.44 2.55s.23 1.7.33 2.56.11 1.71.15 2.57l.05 1.28v1.28c0 .86 0 1.71-.09 2.56s-.17 1.7-.29 2.54c-.05.42-.09.84-.17 1.25l-.25 1.26c-.18.83-.37 1.65-.59 2.46-.86-3.29-1.5-6.48-2.47-9.56l-.32-1.16-.38-1.14-.73-2.27c-.57-1.48-1-3-1.66-4.43-1.14-2.92-2.45-5.75-3.86-8.53s-2.95-5.48-4.58-8.13a151 151 0 00-11-15.36c-4.04-4.95-8.32-9.81-12.84-14.81zM30.07 387.16A275.21 275.21 0 0047 409.23q4.47 5.22 9.21 10.08l2.4 2.41 2.39 2.35c1.67 1.53 3.3 3.08 5 4.52l1.27 1.11c.43.37.87.71 1.31 1.07.88.7 1.74 1.43 2.63 2.12l2.79 2.05c.89.68 1.84 1.29 2.74 2l1.37 1 1.42.92c1 .6 1.86 1.27 2.82 1.85 1.93 1.16 3.84 2.36 5.84 3.42s4 2.09 6 3.15l3.11 1.42 1.56.72 1.59.64 3.2 1.32c1.08.39 2.17.77 3.26 1.19l1.64.6 1.67.54c1.11.39 2.23.74 3.35 1.15-1.18.05-2.36 0-3.55 0h-1.79c-.6 0-1.18-.09-1.78-.14-1.19-.09-2.37-.22-3.57-.34s-2.35-.39-3.53-.59l-1.78-.32-1.74-.47c-1.17-.29-2.33-.59-3.5-.9s-2.33-.74-3.44-1.1c-.57-.2-1.15-.36-1.71-.59l-1.68-.67a79.56 79.56 0 01-12.93-6.53c-1-.65-2.06-1.28-3-2l-3-2.09c-1-.71-1.9-1.48-2.86-2.22-.47-.38-1-.74-1.42-1.13l-1.39-1.17c-1.84-1.57-3.58-3.24-5.31-4.91l-2.5-2.6c-.83-.88-1.62-1.78-2.41-2.68A106.57 106.57 0 0142 413a104.4 104.4 0 01-7-12.45c-1-2.15-2-4.33-2.79-6.56a57.5 57.5 0 01-2.14-6.83zM21.38 415.24c4.23 5.24 8.33 10.22 12.64 15a151.46 151.46 0 0013.44 13.27c2.37 2 4.79 4 7.32 5.79a92.56 92.56 0 007.83 5.14c1.33.85 2.74 1.54 4.12 2.34l2.13 1.07 1.06.55 1.1.5c2.89 1.44 5.94 2.56 9.06 3.93-.84.09-1.68.14-2.53.2l-1.28.05H75c-.84 0-1.69-.08-2.55-.12s-1.69-.2-2.54-.3l-1.27-.18-1.26-.25-2.51-.56c-.83-.22-1.65-.48-2.48-.72s-1.64-.53-2.44-.83a52.9 52.9 0 01-9.31-4.5 59.7 59.7 0 01-8.36-6.08A67.78 67.78 0 0129 433.93a66.92 66.92 0 01-4.68-9c-.65-1.56-1.25-3.14-1.75-4.75a33.18 33.18 0 01-1.19-4.94z"/>
        </g>
    </g>
</svg>