<svg xmlns="http://www.w3.org/2000/svg" viewBox="0 0 635.32 436.22" width="90">
    <defs>
        <style>
            .cls-2{fill:#fff}.cls-3{fill:#e0e0e0}.cls-4{fill:#ebebeb}.cls-5{fill:#f5f5f5}.cls-6{fill:#263238}.cls-10,.cls-8{fill:none;stroke-miterlimit:10}.cls-8{stroke:#8182da}.cls-9{fill:#71cad3}.cls-10{stroke:#8a7ae2}.cls-11{fill:#eed467}.cls-12{fill:#455a64}.cls-13{fill:#ffd0c0}.cls-14{fill:#e8bcb1}.cls-15{fill:#ff725e}.cls-16{fill:#ffc3b6}.cls-17{fill:#c1b2d3}.cls-18{opacity:.3}.cls-20{fill:#002aa7}
        </style>
    </defs>
    <g id="Слой_2">
        <g id="Background_Complete">
            <g opacity=".36">
                <circle class="cls-2" cx="217.21" cy="66.46" r="58.82"/>
                <path class="cls-3"
                      d="M276 66.46v-.95c0-.63 0-1.57-.13-2.8a59.6 59.6 0 00-1.69-10.6 58.89 58.89 0 00-21.44-32.3A58.42 58.42 0 00228 8.87a58.6 58.6 0 00-30.79 112.67 62.45 62.45 0 007.83 2.24 59.5 59.5 0 007.85 1.1 58.16 58.16 0 0015.12-.83 58.57 58.57 0 0024.69-10.94 58.75 58.75 0 0023.12-42.9c.11-1.23.09-2.17.13-2.8s0-1 0-1 0 1.3-.07 3.76a58.35 58.35 0 01-1.6 10.64 59 59 0 01-6.38 15.79 59.66 59.66 0 01-14.9 16.8 58.68 58.68 0 01-24.83 11.08 59 59 0 01-15.23.86 60.77 60.77 0 01-7.92-1.1 62.31 62.31 0 01-7.9-2.25 59.08 59.08 0 010-111.06A64 64 0 01205 8.68a58.62 58.62 0 017.92-1.09A58.77 58.77 0 01253 19.52a58.92 58.92 0 0121.41 32.54A58.31 58.31 0 01276 62.71c.07 2.46 0 3.75 0 3.75z"/>
                <path class="cls-3"
                      d="M235 88.24l-9-2.59s.81 5.59-7.14 6.19-15-7.64-15-7.64l-9.44 1.61c-2.29.39-6.35 1.25-8.65 2.6-7.48 4.4-9.88 20-9.88 20a63.81 63.81 0 0016.37 11.22l2.25 1.15c13 5.09 31.7 7.36 50.38-2.46a77.53 77.53 0 009.24-6.15l-6.06-12.75A21 21 0 00235 88.24z"/>
                <path class="cls-4"
                      d="M194.61 120.78a12.2 12.2 0 01-.1-2.37v-5.7-5.7a13.17 13.17 0 01.07-2.37 9.46 9.46 0 01.29 2.36c.1 1.46.16 3.48.15 5.71s-.08 4.25-.17 5.71a9.57 9.57 0 01-.24 2.36z"/>
                <path class="cls-3"
                      d="M250.88 50c-1.91-1.15-4.33-1.49-5.87-3.11s-1.75-4.15-2-6.42a18.16 18.16 0 00-2.08-7.12 8.39 8.39 0 00-5.86-4.22c-1.84-.24-3.78.31-5.54-.3-2-.69-3.18-2.67-4.66-4.19a12.45 12.45 0 00-10.71-3.55 8.79 8.79 0 00-6.53 4.3c-1.24 2.4-.69 5.76 1.59 7.21l-7.35 15a17.17 17.17 0 009.7 24.06c2.1.72 4.43 1.08 6.09 2.56 1.27 1.13 2 2.75 3 4.12s2.57 2.61 4.23 2.28c1.27-.24 2.29-1.34 3.58-1.43s2.4.85 3.56 1.43a6.81 6.81 0 008.28-2.14c.9-1.29 1.42-3 2.83-3.7s3.12-.09 4.71-.18a5.43 5.43 0 004.64-6.74c-.37-1.16-1.16-2.25-1.08-3.46s1.17-2.35 1.93-3.45A8 8 0 00250.88 50z"/>
                <path class="cls-4"
                      d="M233.35 62.45a4.61 4.61 0 011.85-1.22h-.14l.39-.06a1.83 1.83 0 011.45.18 3.41 3.41 0 011.86 1.65 4 4 0 01-.48 4.17 3.09 3.09 0 01-5.68-1.06 3.84 3.84 0 01.75-3.66z"/>
                <path class="cls-5"
                      d="M202.57 84.44l-1.76-42.23a3.79 3.79 0 013.27-3.93L224 32.65c6.4-.86 10.89 6.92 11.48 13.35.66 7.14 1.17 15.89.48 21.25-1.4 10.79-9.59 12.39-9.59 12.39l.12 6.15-1.54 24.56z"/>
                <path class="cls-3"
                      d="M232.69 55.33a1.37 1.37 0 01-1.29 1.43 1.32 1.32 0 01-1.45-1.2 1.37 1.37 0 011.28-1.43 1.32 1.32 0 011.46 1.2zM233.69 50.61c-.16.18-1.23-.56-2.71-.51s-2.55.81-2.71.64.08-.41.54-.77a3.85 3.85 0 012.17-.73 3.64 3.64 0 012.17.63c.46.33.62.66.54.74zM219 55.33a1.37 1.37 0 01-1.29 1.43 1.32 1.32 0 01-1.45-1.2 1.37 1.37 0 011.29-1.43 1.31 1.31 0 011.45 1.2zM219.14 51.3c-.17.18-1.24-.56-2.72-.51s-2.54.81-2.71.64.08-.41.55-.77a3.78 3.78 0 012.16-.73 3.64 3.64 0 012.17.63c.46.34.63.66.55.74zM224.82 62.13a10.81 10.81 0 012.4-.5c.38-.05.73-.13.79-.39a1.94 1.94 0 00-.29-1.12l-1.2-2.85c-1.67-4.05-2.89-7.4-2.72-7.46s1.65 3.19 3.32 7.19c.4 1 .79 2 1.15 2.86a2.16 2.16 0 01.24 1.48.91.91 0 01-.61.57 2 2 0 01-.64.11 8.89 8.89 0 01-2.44.11z"/>
                <path class="cls-4"
                      d="M226.35 79.64a27.33 27.33 0 01-14.49-3.43s3.82 7.55 14.54 6.24zM224.71 65.66a3.65 3.65 0 00-3.05-1.5 2.38 2.38 0 00-1.92 1.11 2.31 2.31 0 00.1 2.4 2.27 2.27 0 002.43.79 5.4 5.4 0 002.15-1.41 1.7 1.7 0 00.45-.57.75.75 0 00-.08-.75"/>
                <path class="cls-3"
                      d="M220.49 63.28c.24 0 .29 1.59 1.7 2.69s3.12.88 3.14 1.11-.38.32-1.1.36a4 4 0 01-2.61-.83 3.48 3.48 0 01-1.32-2.26c-.09-.67.08-1.07.19-1.07zM219.62 45.18c-.14.41-1.62.26-3.36.52s-3.12.77-3.36.41c-.11-.17.12-.55.68-1a5.65 5.65 0 012.48-.94 5.55 5.55 0 012.64.23c.64.28.97.6.92.78zM233 45.52c-.26.35-1.29 0-2.51 0s-2.26.29-2.51-.06c-.11-.17 0-.51.49-.84a3.62 3.62 0 014 0c.53.38.67.74.53.9z"/>
                <path class="cls-3"
                      d="M242.7 43.74a7.37 7.37 0 00-2.83-4.06 27 27 0 01-2.39-1.39c-1.55-1.25-1.91-3.43-2.87-5.18a8.1 8.1 0 00-6.18-4.1c-2.13-.22-4.32.42-6.39-.1-1.54-.39-2.87-1.38-4.43-1.68-3-.57-5.83 1.6-8 3.76 0 2.16 1.72 3.61 3.38 5a7.5 7.5 0 006.08 1.6c1.65-.3 3.46-1.13 4.89-.25s1.57 3.19 2.9 4.35c1.91 1.65 4.94.1 7.36.82 1.87.55 3 2.34 4.28 3.84s3.1 2.94 5 2.38a22 22 0 00-.8-4.99z"/>
                <path class="cls-3"
                      d="M220.18 34c-1.42-.41-4.31-1.32-5.07-2.55a8.66 8.66 0 00-7.52-4.32 7.14 7.14 0 00-6.43 5.64 10.27 10.27 0 00-8.82 5.68 11.72 11.72 0 00-.56 1.31 7.82 7.82 0 00-.52 6.56c.49 1.28 1.32 2.7.67 3.9s-2.36 1.26-3.68 1.71a5.2 5.2 0 00-3.25 5.81 6.33 6.33 0 01.42 2.55 5.69 5.69 0 01-1.53 2.21 6.45 6.45 0 003.77 10.5 8.16 8.16 0 013 .68c1 .61 1.44 1.81 2.14 2.75a5.59 5.59 0 006 1.89 5.5 5.5 0 001.21-.61 4 4 0 003.54 1.57l-.42-23.63a2 2 0 001.43 1.13c3.8.85 4.35-7 3.5-9.08a21.57 21.57 0 003.81-4 15.85 15.85 0 001.74-7.7c1.39.12 7.19-1.8 6.57-2z"/>
                <path class="cls-5"
                      d="M204.65 57.17c-.11-2.3-2.93-2.79-4.92-1.64-1.1.63-1.94 1.91-1.84 4.35.27 6.51 6.76 4.9 6.76 4.71s.14-4.72 0-7.42z"/>
                <path class="cls-4"
                      d="M202.56 62.21s-.11.08-.3.18a1.17 1.17 0 01-.85 0A2.8 2.8 0 01200 60a3.73 3.73 0 01.25-1.63 1.31 1.31 0 01.82-.91.58.58 0 01.68.28c.1.18.06.31.1.32s.13-.11.07-.38a.72.72 0 00-.28-.4.88.88 0 00-.63-.14 1.61 1.61 0 00-1.14 1.06 3.79 3.79 0 00-.32 1.83 2.94 2.94 0 001.77 2.75 1.19 1.19 0 001-.22c.23-.19.26-.34.24-.35z"/>
                <path class="cls-4"
                      d="M211 32.83a3.94 3.94 0 00-1.3 1.09 6 6 0 00-.48 4.51v.16h-.17a6.28 6.28 0 00-4.19 3.7 5.08 5.08 0 00-.34 1.59 10.57 10.57 0 00.2 1.72 12 12 0 01.25 1.85 3 3 0 01-.51 1.93 7.85 7.85 0 01-3.24 2.42 11.08 11.08 0 00-3 2 8.09 8.09 0 00-2.43 5.46 8.5 8.5 0 00.85 4c.44.89.8 1.32.76 1.34s-.1-.09-.28-.29a6.84 6.84 0 01-.63-1 8.19 8.19 0 01-1-4.11 8.37 8.37 0 012.51-5.67 11.15 11.15 0 013.12-2.09 7.58 7.58 0 003-2.27c.72-1 .4-2.28.21-3.45a9.93 9.93 0 01-.2-1.81 5.25 5.25 0 01.38-1.74A6.62 6.62 0 01209 38.3l-.12.2a6 6 0 01.66-4.69 2.61 2.61 0 011-.83 2.18 2.18 0 01.46-.15zM200.13 64.65a4.61 4.61 0 011.87-1.22h-.14a2.66 2.66 0 01.39-.07 1.87 1.87 0 011.45.18 3.41 3.41 0 011.87 1.63 4.06 4.06 0 01-.48 4.18 3.09 3.09 0 01-5.68-1.07 3.81 3.81 0 01.72-3.63zM245.12 118.42c-.15 0-.77-2.27-1.83-5s-2.12-4.86-2-4.94a16.6 16.6 0 012.48 4.76 16.78 16.78 0 011.35 5.18z"/>
            </g>
            <circle class="cls-2" cx="60.45" cy="348.27" r="60.19" transform="rotate(-45 60.449 348.271)"/>
            <path class="cls-5"
                  d="M46 322.93l-.49 39.86c-.09 6.78 1.17 16.75 11.9 16.4 9.28-1 11.74-9.8 11.81-16.12 0-3 .07-5.51.09-5.81 0 0 10.16-.83 11-10.87.42-4.85.46-14.9.39-24a18.76 18.76 0 00-17.4-18.56l-1-.07c-10.48-.15-16.48 8.67-16.3 19.17z"/>
            <path class="cls-4" d="M69.27 357.26a24.28 24.28 0 01-12.79-4.83s2.65 7.57 12.74 7.4z"/>
            <path class="cls-3"
                  d="M63.52 326.5c-.2.2-1.36-.73-3-.78s-2.93.78-3.11.57.12-.47.67-.85a4.13 4.13 0 012.5-.71 4 4 0 012.41.87c.46.4.63.81.53.9zM63.17 330a1.37 1.37 0 01-1.41 1.27 1.3 1.3 0 01-1.31-1.33 1.37 1.37 0 011.41-1.27 1.31 1.31 0 011.31 1.33zM67.73 338.19a11.05 11.05 0 012.54-.27c.4 0 .78-.06.86-.32a2 2 0 00-.17-1.19l-.96-3.09c-1.31-4.39-2.22-8-2-8s1.38 3.47 2.68 7.86c.32 1.08.61 2.11.9 3.1a2.35 2.35 0 01.09 1.56 1 1 0 01-.69.53 2.79 2.79 0 01-.68.05 9.69 9.69 0 01-2.57-.23zM62.81 320.18c-.17.37-1.51.09-3.12.17s-2.94.44-3.13.08c-.08-.17.17-.51.72-.84a5 5 0 012.36-.67 5 5 0 012.4.47c.56.29.84.61.77.79zM78.77 323.29c-.17.31-1.49 0-3.08-.08s-2.9.16-3.07-.16c-.08-.15.19-.43.74-.67a5.92 5.92 0 014.69.19c.55.29.8.58.72.72z"/>
            <path class="cls-5" d="M46.24 330.43c-.17-.09-6.75-2.55-7 4.33s6.69 5.75 6.71 5.55.29-9.88.29-9.88z"/>
            <path class="cls-4"
                  d="M43.91 337.62s-.12.08-.32.16a1.22 1.22 0 01-.9 0 3 3 0 01-1.27-2.71 4.06 4.06 0 01.41-1.71 1.39 1.39 0 01.94-.88.6.6 0 01.69.36c.09.19 0 .33.07.34s.16-.11.11-.39a.74.74 0 00-.25-.45.9.9 0 00-.66-.2 1.69 1.69 0 00-1.29 1 4 4 0 00-.5 1.9 3.12 3.12 0 001.63 3 1.3 1.3 0 001.11-.13c.22-.13.26-.28.23-.29z"/>
            <path class="cls-3"
                  d="M66.11 343c.07-.17-1.27-.58-2.22-1.84a7.36 7.36 0 01-1-1.8c-.21-.5-.36-.81-.43-.79s0 .36.06.9a5.1 5.1 0 00.88 2 4.11 4.11 0 001.76 1.34c.58.19.93.19.95.19zM94 313.38a1.63 1.63 0 00-.76-.95 5.12 5.12 0 00-2.57-.42 14.44 14.44 0 01-7.54-2.29 34.84 34.84 0 00-3.51-4.26c-3.05-3.13-5.55-5.27-8.14-6.31a23.35 23.35 0 00-12.44-1c-3.49.92-6.62 3.75-7.11 7.33-2-1.66-4.9-1.64-7.28-.68h-.06c-2.66.95-4.17 3.75-5 6.46s-1.12 5.61-2.55 8c-.3.51-.66 1.12-.4 1.65a1.14 1.14 0 001.18.51 3.35 3.35 0 001.23-.56c-.29.71-.59 1.42-.89 2.13a6.29 6.29 0 002.89-.2A63.21 63.21 0 0043 330a4 4 0 012.81.69c.93.83 1.35 2.41 2.89 1.81.79-.3 1.51-2 1.77-2.76a39.1 39.1 0 001.7-16.57 12.49 12.49 0 013.83-2.85l-.11.11c2.8-1 6-1.94 8.63-.62 2.07 1 3.28 3.16 4.82 4.87a15.78 15.78 0 0011.23 5.19c.15 2.83-.09 6.82.06 9.65l2.42-4.52a8.57 8.57 0 00.51-1l.06-.1a16 16 0 01.79-1.61A1.77 1.77 0 0087 320a4.08 4.08 0 00-.86-.85 2.82 2.82 0 002.66.69 2.2 2.2 0 001.55-2.17 1.87 1.87 0 00-1.11-1.5 6.21 6.21 0 003.58-.79c.73-.45 1.42-1.11 1.18-2z"/>
            <path class="cls-4"
                  d="M55.09 306.65a10.12 10.12 0 00-1 .92 7.23 7.23 0 00-1.54 3.33 12.6 12.6 0 00-.26 2.56c0 .92.07 1.91.15 3a27.38 27.38 0 01.07 3.29 10.38 10.38 0 01-.23 1.74 3.62 3.62 0 01-.7 1.69 1.53 1.53 0 01-1.42.47 2.26 2.26 0 01-1.28-.72 5.23 5.23 0 01-1-2.55h.21a8.88 8.88 0 01-1.22 2.1 3 3 0 01-2 1.06 1.9 1.9 0 01-1-.18 1.61 1.61 0 01-.7-.69 1.78 1.78 0 01-.22-.89 1.26 1.26 0 01.33-.78l.1.09a6.47 6.47 0 01-2.15 1.62 7 7 0 01-.67.26l-.24.06.22-.1a6.84 6.84 0 00.65-.29 6.69 6.69 0 002.12-1.64l.11.09a1.3 1.3 0 00-.07 1.5 1.57 1.57 0 00.64.61 1.75 1.75 0 00.94.15 2.78 2.78 0 001.81-1 8.4 8.4 0 001.18-2.06l.14-.32.07.35a5 5 0 00.92 2.44 2 2 0 001.14.64 1.26 1.26 0 001.2-.4 3.49 3.49 0 00.66-1.58 11.15 11.15 0 00.22-1.7 26.93 26.93 0 00-.06-3.26c-.07-1.05-.13-2-.12-3a12.8 12.8 0 01.29-2.58 7 7 0 011.62-3.37 4 4 0 011.09-.86zM86.14 316.42l-.08.07-.25.18a3.44 3.44 0 01-.42.27 5.88 5.88 0 01-.62.32 8.78 8.78 0 01-4.29.78 11.4 11.4 0 01-6.06-2.24 19.52 19.52 0 01-5.2-6c-.73-1.21-1.33-2.46-2-3.61a13.35 13.35 0 00-2.22-3.06 6.81 6.81 0 00-2.89-1.75 4.75 4.75 0 00-1.53-.18 5.62 5.62 0 00-1.39.27 5.82 5.82 0 00-2.1 1.26A6 6 0 0056 304.2a7 7 0 00-.52 1.5.82.82 0 010-.1l.05-.31a4.77 4.77 0 01.38-1.13 5.86 5.86 0 011.09-1.53 6 6 0 012.13-1.32 5.58 5.58 0 011.44-.29 5.14 5.14 0 011.59.17 7 7 0 013 1.79 13.34 13.34 0 012.29 3.09c.67 1.16 1.26 2.41 2 3.61a19.62 19.62 0 005.13 5.94 11.17 11.17 0 005.94 2.25 9.08 9.08 0 004.25-.69 15 15 0 001.37-.76z"/>
            <path class="cls-4"
                  d="M87.06 312a2.27 2.27 0 01-.36.25 8.63 8.63 0 01-1.07.54 10.84 10.84 0 01-1.69.55 11.63 11.63 0 01-2.16.29 11.5 11.5 0 01-2.17-.15 11.26 11.26 0 01-1.72-.44 8.73 8.73 0 01-1.1-.47 1.78 1.78 0 01-.37-.23s.57.24 1.52.54a13.52 13.52 0 001.7.39 13.27 13.27 0 002.14.12 11.38 11.38 0 002.11-.26 11.84 11.84 0 001.68-.49c.93-.35 1.43-.64 1.49-.64z"/>
            <path class="cls-3"
                  d="M78.85 327.13c-.2.21-1.36-.73-3-.77s-2.94.78-3.11.56.12-.47.66-.85a4.22 4.22 0 012.5-.71 4.11 4.11 0 012.42.88c.46.42.68.76.53.89zM77.13 330.46a1.36 1.36 0 01-1.4 1.28 1.31 1.31 0 01-1.31-1.33 1.34 1.34 0 011.4-1.27 1.3 1.3 0 011.31 1.32zM95.46 379.77c-3.7-7-13.4-11.07-13.4-11.07l4.61 33.76a60.15 60.15 0 0014-9.44 66.42 66.42 0 00-5.21-13.25z"/>
            <path class="cls-6" d="M82.73 403s-.1-3.64-.1-8.13.05-8.13.1-8.13.1 3.64.1 8.13-.04 8.13-.1 8.13z"/>
            <path class="cls-4"
                  d="M86.53 373.38a14.2 14.2 0 01-.48 1.34c-.3.82-.71 2-1.1 3.24s-.71 2.45-.92 3.3a13.67 13.67 0 01-.37 1.38 1.53 1.53 0 010-.38c0-.25.1-.6.19-1 .18-.86.47-2 .86-3.33s.83-2.42 1.17-3.23c.17-.41.32-.73.42-1s.21-.33.23-.32z"/>
            <path class="cls-3"
                  d="M82.06 368.7l-12.46-3.19c-8.29 3.31-16.48 1.39-24.6-3.72l-21.43 9.08c-6.93 4.18-7.89 9.9-8.64 12.67l-.8 3.17c4.55 5.72 11.21 10.79 18.86 15.54 17 7.67 34.75 8.8 53.68.21z"/>
            <path class="cls-4"
                  d="M33.09 395.94c-.06 0-.1-2-.1-4.37s0-4.37.1-4.37.1 2 .1 4.37-.04 4.37-.1 4.37zM30.6 382.79a2.26 2.26 0 01-.15-.48c-.09-.32-.22-.78-.41-1.33a21.22 21.22 0 00-1.88-4.15 21.81 21.81 0 00-2.72-3.67c-.39-.43-.72-.77-1-1a2.06 2.06 0 01-.35-.38 3.1 3.1 0 01.4.32 12.37 12.37 0 011 .95 20 20 0 012.79 3.66 19.5 19.5 0 011.84 4.22 12.57 12.57 0 01.34 1.35 2.3 2.3 0 01.14.51z"/>
            <path class="cls-3"
                  d="M120.64 348.27v-1c0-.67 0-1.6-.14-2.86a61.42 61.42 0 00-1.73-10.85 60.3 60.3 0 00-6.67-16 61 61 0 00-15.26-17.05 59.85 59.85 0 00-25.27-11.2 61.36 61.36 0 00-23.5.28 65.35 65.35 0 00-8 2.29 60 60 0 000 112.74 65.35 65.35 0 008 2.29 60.46 60.46 0 008 1.12 59.43 59.43 0 0015.46-.85 57.65 57.65 0 0013.8-4.35A58.68 58.68 0 0096.79 396a60.16 60.16 0 0021.93-33 61.42 61.42 0 001.73-10.85c.12-1.26.09-2.22.14-2.86s0-1 0-1 0 1.32-.08 3.84a59.41 59.41 0 01-8.25 27A61.05 61.05 0 0197 396.3a60.12 60.12 0 01-25.4 11.33 60.27 60.27 0 01-15.57.88 61.33 61.33 0 01-8.1-1.12 64.83 64.83 0 01-8.09-2.3 60.45 60.45 0 010-113.64 65.17 65.17 0 018.08-2.3A61.8 61.8 0 0156 288a60.32 60.32 0 0115.58.88A60.12 60.12 0 0197 300.24a60.29 60.29 0 0121.91 33.29 60 60 0 011.64 10.9c.13 2.57.09 3.84.09 3.84z"/>
            <g opacity=".47">
                <circle class="cls-2" cx="560.55" cy="151.75" r="60.47" transform="rotate(-45 560.54 151.757)"/>
                <path class="cls-3"
                      d="M526.29 183.4c3.72-7.08 13.46-11.13 13.46-11.13l-4.63 33.93a60.76 60.76 0 01-14.1-9.49 66.71 66.71 0 015.27-13.31z"/>
                <path class="cls-6"
                      d="M539.07 206.7c.06 0 .11-3.65.11-8.16s0-8.17-.11-8.17-.1 3.66-.1 8.17.03 8.16.1 8.16z"/>
                <path class="cls-4"
                      d="M535.26 177a11.78 11.78 0 00.48 1.35c.3.82.71 2 1.11 3.25s.71 2.47.92 3.32a12.75 12.75 0 00.37 1.38 1.53 1.53 0 000-.38c0-.25-.1-.6-.19-1-.18-.87-.47-2.06-.87-3.35s-.83-2.43-1.17-3.25c-.17-.4-.32-.73-.42-1a1.29 1.29 0 00-.23-.32z"/>
                <path class="cls-3"
                      d="M528.51 131.2a2.57 2.57 0 01.88-1.52 6.32 6.32 0 013.87-1.11 16.43 16.43 0 001.42-5.25 3.33 3.33 0 01-1.87-.45 1.71 1.71 0 01-.3-.09c-1.34-.55-1.54-2.51-.75-3.72a7.41 7.41 0 013.51-2.44 12.68 12.68 0 00-2.75 1.11c-.94.33-2.28 0-2.43-.93a2.26 2.26 0 01.12-.89c.16-.59.33-1.18.49-1.77a1.93 1.93 0 01.73-1.25 4.78 4.78 0 011-.28c1.09-.34 1.62-1.7 2.71-2a5 5 0 012.49.28c.83.16 1.91 0 2.13-.85a8 8 0 01-2.9-2.28 2.7 2.7 0 01.15-3.41 4 4 0 012.76-.67c1.08 0 2.44.2 2.76 1.24a2.82 2.82 0 013.54 2.08l2.78-.38c-.81-.81-1.94-1.28-2.64-2.18s-.64-2.57.47-2.85a7.38 7.38 0 001.24-.16c.27-.12.49-.38.8-.4a1.1 1.1 0 01.61.21l6 3.63-1.72-3.64c-.53-1.12-1-2.68 0-3.42s2.44.22 2.69 1.39a1.92 1.92 0 012.39 1.68 1.94 1.94 0 012.39 2.88 5.53 5.53 0 012.83.73 1.69 1.69 0 012.68-1.26 2.88 2.88 0 01.38-1.69 1 1 0 011.51-.23 2 2 0 013.12-2l.93-1.21a2.59 2.59 0 012.55 1.21c.44.89-.19 2.22-1.19 2.17.7 0 .58 1.08.19 1.67l-1.62 2.43a2.19 2.19 0 012.7-.34 1.69 1.69 0 012.44-.07 1.37 1.37 0 012.47.33c.16-.47.78-.52 1.27-.48a3.13 3.13 0 012 .6c.51.47.55 1.49-.1 1.76.58-.36 1.38.27 1.41 1a2.42 2.42 0 01-.92 1.76 6 6 0 00-1.35 1.53 2.88 2.88 0 012-.49 7.64 7.64 0 013.59.58c.19-.48.86-.53 1.38-.44a8.39 8.39 0 014.33 2.15c.56.53 1.07 1.34.73 2a2.11 2.11 0 01-.76.72l-3.69 2.47a10.27 10.27 0 015.3 3.48c.77.41 1.73.42 2.43.94s.71 2-.17 2a1.59 1.59 0 01.53 1.84 1.52 1.52 0 01-.56.67 2 2 0 01-.4.48 2.84 2.84 0 01-1 .57 2 2 0 01-1.67.84 8 8 0 011.88 2.07 3.37 3.37 0 01.12 3.46c0 .06-.09.1-.13.16a1.67 1.67 0 01-.69 1.07 1.34 1.34 0 01.17.92 3.68 3.68 0 011.06 6.43c-.84.65-2.46.59-2.58-.47a2.87 2.87 0 01-2.12 1.67 2.78 2.78 0 01-1.32 3.88 3 3 0 01-.76 4.88 2.27 2.27 0 11-4.23 1.65 4.86 4.86 0 01-1.63 2.19 1.67 1.67 0 01-2.37-.53 3.12 3.12 0 01-4.53 1.65 2 2 0 01-4 .5l-5.21.13a18.87 18.87 0 01-3.45-.12 9.33 9.33 0 01-4-1.69 3 3 0 00-1.23-.69 3.28 3.28 0 00-1.58.3 8.44 8.44 0 01-8.07-1.6 4.29 4.29 0 00-1.09-.81 3.79 3.79 0 00-1.54-.16 15.28 15.28 0 01-3.81-.4 4 4 0 01-2.73-1.66c-.53-1 0-2.49 1.09-2.51a2.33 2.33 0 00-.65-2 1.42 1.42 0 00-1.92 0 1 1 0 00.52 1.65c-1.14.85-3-.22-3.1-1.65a2.82 2.82 0 012.68-2.8 6.46 6.46 0 01-.19-3.15 2.31 2.31 0 01-3.14.47 4 4 0 01-2.52 1.95 2.39 2.39 0 01-2.69-1.34 1.72 1.72 0 011.55-2.28 2.06 2.06 0 011.73-3 3.19 3.19 0 011.83-3.47 1.68 1.68 0 01-2.43-.84c-.63 1.07-2.25.87-3.34.29a2.26 2.26 0 01-1.49-2.43z"/>
                <path class="cls-4"
                      d="M528.51 131.2a1.74 1.74 0 000 .43 1.83 1.83 0 00.44 1.18 4.08 4.08 0 001.78 1.13 3.46 3.46 0 001.35.18 1.68 1.68 0 001.35-.78h-.11a1.75 1.75 0 002.53.88l-.07-.13a3.3 3.3 0 00-1.89 3.56l.09-.11a2 2 0 00-1.76 1 2 2 0 000 2.16l.09-.16a1.72 1.72 0 00-1.69 1.38 1.88 1.88 0 001 2.12 2.76 2.76 0 002.52.14 4.44 4.44 0 002-1.8h-.18a2.45 2.45 0 003.32-.49l-.23-.1a6.57 6.57 0 00.19 3.21l.13-.18a3.22 3.22 0 00-1.92.79 2.7 2.7 0 00-.95 1.92 2.2 2.2 0 001.1 1.89 2 2 0 002.23 0l.33-.24h-.4a.84.84 0 01-.62-1 .91.91 0 011-.75 1.38 1.38 0 011.22.68 2.43 2.43 0 01.32 1.49l.15-.15a1.37 1.37 0 00-1 .52 2 2 0 00-.42 1.05 1.91 1.91 0 00.18 1.12 2.57 2.57 0 00.73.87 5.36 5.36 0 002 .91 16.18 16.18 0 002.21.37c1.48.26 3.16-.41 4.17.93a8.59 8.59 0 004.28 2 8.73 8.73 0 002.45 0 12.3 12.3 0 002.37-.61 1.51 1.51 0 011.07.08 8.18 8.18 0 011 .69 9.72 9.72 0 002.13 1.32 13.52 13.52 0 005.1.55l5.23-.14-.2-.16a2.22 2.22 0 004.39-.55l-.31.18a3.32 3.32 0 004.84-1.76h-.39a1.52 1.52 0 001.15.89 2.21 2.21 0 001.46-.22 4.81 4.81 0 001.73-2.29h-.38a2.58 2.58 0 003.11 1.46 2.56 2.56 0 001.52-3.25l-.13.27a2.94 2.94 0 001.81-2.32 3 3 0 00-1-2.93v.37a3 3 0 001.42-4.19l-.15.32a3.11 3.11 0 002.29-1.79l-.41-.06a1.07 1.07 0 00.36.71 1.47 1.47 0 00.69.33 2.49 2.49 0 001.45-.18 3.66 3.66 0 001.79-2.23 3.77 3.77 0 00-.26-2.9 4 4 0 00-2.23-1.93l.15.24a1.67 1.67 0 00-.19-1.06l-.08.29a1.85 1.85 0 00.79-1.21v.1a3.27 3.27 0 00.3-3.31 7.16 7.16 0 00-2.19-2.69l-.16.4a2.23 2.23 0 001.86-.94l-.11.08a2.79 2.79 0 001.51-1.14l-.06.06a1.66 1.66 0 00.76-1.39 1.82 1.82 0 00-.73-1.49l-.12.41a.85.85 0 00.69-.38 1.29 1.29 0 00.2-.72 1.58 1.58 0 00-.6-1.3 16.77 16.77 0 00-2.46-1l.07.06a10.47 10.47 0 00-5.41-3.55l.06.4 1.7-1.14 1.28-.85a12.55 12.55 0 001.29-.93 1.38 1.38 0 00.39-.81 1.64 1.64 0 00-.17-.86 3.72 3.72 0 00-1-1.25 8.38 8.38 0 00-2.69-1.57 8.08 8.08 0 00-1.52-.39 2.38 2.38 0 00-.84 0 1 1 0 00-.73.58l.31-.11a6.4 6.4 0 00-2.89-.61h-1.45a2.41 2.41 0 00-1.45.52l.35.26c.39-.85 1.4-1.33 2-2.29a1.69 1.69 0 00.14-1.66 1.48 1.48 0 00-.65-.61 1 1 0 00-.94 0l.2.39a1 1 0 00.57-.66 1.43 1.43 0 000-.82 1.49 1.49 0 00-.44-.69 2.28 2.28 0 00-.68-.38 5.27 5.27 0 00-1.44-.23 2.19 2.19 0 00-.76.06.91.91 0 00-.67.57h.43a1.59 1.59 0 00-2.89-.38l.36-.06a1.91 1.91 0 00-2.97.18h.29a2.39 2.39 0 00-3 .36l.33.28 1.38-2.06a2.92 2.92 0 00.56-1.19 1.57 1.57 0 000-.71.74.74 0 00-.24-.36.71.71 0 00-.43-.11v.43a1.47 1.47 0 001.36-.91 1.81 1.81 0 000-1.62 2.81 2.81 0 00-2.73-1.28h-.1l-.06.08-.93 1.21h.3a2.19 2.19 0 00-3.46 2.27l.37-.19a1 1 0 00-1-.3 1.42 1.42 0 00-.84.56 3.25 3.25 0 00-.4 1.79l.36-.15a1.89 1.89 0 00-3 1.42l.31-.19a5.81 5.81 0 00-2.94-.76l.18.32a2.15 2.15 0 00-2.64-3.18l.28.18a2.1 2.1 0 00-2.67-1.89l.25.15a2.4 2.4 0 00-.83-1.31 2 2 0 00-1.48-.47 1.53 1.53 0 00-1.21 1 2.66 2.66 0 00-.07 1.5 12.71 12.71 0 001.06 2.62l1.18 2.48.27-.24-3.72-2.24-1.82-1.09a5 5 0 00-1-.52.84.84 0 00-.63.12c-.17.1-.3.21-.43.27a2.74 2.74 0 01-1 .12 1.36 1.36 0 00-1 .53 2.25 2.25 0 00-.13 2.13 3.8 3.8 0 001.41 1.53 13.3 13.3 0 011.54 1.18l.1-.29-2.78.38.2.14a3 3 0 00-3.76-2.21l.21.11a1.92 1.92 0 00-1.46-1.19 7 7 0 00-1.8-.17 5.11 5.11 0 00-1.77.27 2.17 2.17 0 00-1.3 1.23 3.25 3.25 0 00.7 3.26 9.42 9.42 0 002.63 1.9l-.07-.17a1.13 1.13 0 01-.94.74 2.69 2.69 0 01-1.32-.06 8.76 8.76 0 00-1.37-.29 2.06 2.06 0 00-1.37.32c-.79.52-1.23 1.33-2 1.71a11.71 11.71 0 01-1.2.35 1.62 1.62 0 00-.79 1c-.22.79-.44 1.56-.65 2.32a1.39 1.39 0 00.14 1.22 1.58 1.58 0 001 .62 2.66 2.66 0 001.16 0 5 5 0 001-.43 5.52 5.52 0 011.9-.74l-.06-.21a12.84 12.84 0 00-2.07 1.13 4.26 4.26 0 00-1.54 1.76 3.1 3.1 0 00-.08 2.16 1.94 1.94 0 001.43 1.33 3.34 3.34 0 001.91.46l-.08-.08a16.61 16.61 0 01-1.39 5.23 9.84 9.84 0 00-2.6.41 3.63 3.63 0 00-1.55 1 2.64 2.64 0 00-.53.94 2.33 2.33 0 00-.07.35 2.8 2.8 0 01.64-1.25 3.69 3.69 0 011.54-.94 9.64 9.64 0 012.58-.38 16.23 16.23 0 001.44-5.27v-.09h-.09a3.19 3.19 0 01-1.81-.46 1.74 1.74 0 01-1.3-1.22 2.94 2.94 0 01.09-2 4.06 4.06 0 011.48-1.67 12.43 12.43 0 012.21-1.15l.64-.28-.69.07a5.74 5.74 0 00-2 .76 4.39 4.39 0 01-1 .4 2.47 2.47 0 01-1 0 1.38 1.38 0 01-.87-.52 1.16 1.16 0 01-.1-1c.22-.75.43-1.52.65-2.3a1.42 1.42 0 01.66-.89 8.35 8.35 0 001.21-.36c.82-.43 1.27-1.25 2-1.71s1.63-.21 2.52 0a3.21 3.21 0 001.45.07 1.45 1.45 0 001.17-1v-.12h-.1a9.13 9.13 0 01-2.55-1.84 3 3 0 01-.64-2.94 1.92 1.92 0 011.12-1.06 4.77 4.77 0 011.66-.23 6.2 6.2 0 011.72.16 1.56 1.56 0 011.22 1v.16h.17a2.65 2.65 0 013.31 2v.16h.16l2.78-.38h.35l-.25-.25a12.3 12.3 0 00-1.59-1.23 3.59 3.59 0 01-1.28-1.38 1.91 1.91 0 01.09-1.77 1 1 0 01.75-.39 2.94 2.94 0 001.09-.15c.36-.19.58-.43.82-.36a5.35 5.35 0 01.86.47l1.82 1.1 3.72 2.25.55.32-.28-.57c-.38-.82-.77-1.65-1.17-2.48a12.16 12.16 0 01-1-2.54 2.19 2.19 0 010-1.27 1.16 1.16 0 01.9-.73 1.91 1.91 0 011.87 1.47l.05.22.21-.07a1.72 1.72 0 012.13 1.49v.31l.27-.13a1.74 1.74 0 012.14 2.58l-.23.33h.4a5.43 5.43 0 012.73.71l.34.2v-.39a1.48 1.48 0 012.33-1.09l.35.32v-.47a2.83 2.83 0 01.33-1.56c.24-.39.92-.56 1.19-.23l.61.76-.25-1a1.84 1.84 0 01.74-1.9 1.81 1.81 0 012 .08l.17.13.13-.17.93-1.21-.15.08a2.41 2.41 0 012.32 1.06c.41.72-.13 1.94-1 1.9v.43c.14 0 .19 0 .24.18a1 1 0 010 .5 2.49 2.49 0 01-.49 1l-1.38 2.07.34.27a2 2 0 012.41-.31l.17.12.13-.16a1.47 1.47 0 012.11-.06l.23.26.13-.32c.32-.82 1.94-.61 2 .27l.14 1.1.29-1.06c.08-.29.56-.36 1-.33a5.06 5.06 0 011.31.21 1.22 1.22 0 01.85.78c.11.37 0 .83-.31.94l.2.4c.3-.2.77 0 1 .41a1.23 1.23 0 01-.14 1.23c-.46.82-1.48 1.29-2 2.32l-.49 1 .84-.72c.63-.55 1.67-.42 2.6-.43a5.93 5.93 0 012.69.55l.23.13.08-.24c.11-.32.65-.39 1.1-.32a8.72 8.72 0 011.42.37 8.23 8.23 0 012.56 1.49 3.29 3.29 0 01.91 1.1 1 1 0 01-.14 1.17 11.11 11.11 0 01-1.21.86l-1.28.86-1.7 1.14-.41.27.48.13a10.07 10.07 0 015.18 3.4 19.11 19.11 0 012.41.92 1.21 1.21 0 01.42.94c0 .36-.18.66-.46.65h-.71l.58.42a1.39 1.39 0 01.55 1.12 1.23 1.23 0 01-.58 1 2.27 2.27 0 01-1.28 1h-.07a1.75 1.75 0 01-1.47.75h-.67l.52.43a6.73 6.73 0 012.07 2.52 2.84 2.84 0 01-.23 2.86V135a1.39 1.39 0 01-.59.93l-.17.12.1.18a1.14 1.14 0 01.14.77v.18l.18.07a3.53 3.53 0 012 1.72 3.35 3.35 0 01.23 2.56 3.21 3.21 0 01-1.55 2 2 2 0 01-1.18.15.78.78 0 01-.71-.66l-.08-.85-.3.83a2.67 2.67 0 01-2 1.54h-.32l.17.27a2.57 2.57 0 01-1.21 3.57l-.37.13.32.24a2.58 2.58 0 01.83 2.52 2.54 2.54 0 01-1.53 2l-.21.07.09.2A2.06 2.06 0 11586 155l-.17-.46-.21.45a4.54 4.54 0 01-1.59 2.13 1.47 1.47 0 01-2-.46l-.22-.58-.16.6a2.78 2.78 0 01-1.83 1.78 2.72 2.72 0 01-2.39-.24l-.34-.23v.41a1.89 1.89 0 01-1.67 1.92 1.91 1.91 0 01-1.93-1.47v-.17h-.17l-5.23.14a13.08 13.08 0 01-5-.52 9.33 9.33 0 01-2.18-1.11 7.69 7.69 0 00-1-.71 1.83 1.83 0 00-1.32-.1 12.11 12.11 0 01-2.33.6 8 8 0 01-2.34-.05 8.16 8.16 0 01-4.11-1.92 4.39 4.39 0 00-1-.72 2.76 2.76 0 00-1.18-.23 18.48 18.48 0 01-2.24 0 15.45 15.45 0 01-2.16-.36 5 5 0 01-1.92-.84 1.82 1.82 0 01-.79-1.7 1.31 1.31 0 011.13-1.28h.14v-.15a2.68 2.68 0 00-.37-1.68 1.7 1.7 0 00-1.48-.82 1.21 1.21 0 00-1.26 1 1.12 1.12 0 00.89 1.29l-.07-.27a1.73 1.73 0 01-1.91-.05 1.91 1.91 0 01-1-1.64 2.72 2.72 0 012.59-2.43h.18l-.06-.17a6.29 6.29 0 01-.19-3.08l.1-.57-.34.47a2.21 2.21 0 01-3 .45l-.11-.09-.07.12a4.2 4.2 0 01-1.85 1.72 2.54 2.54 0 01-2.31-.12 1.68 1.68 0 01-.87-1.88 1.53 1.53 0 011.48-1.23h.2l-.11-.18a2 2 0 011.63-2.89h.14v-.12a3.14 3.14 0 011.78-3.38l-.08-.13a1.62 1.62 0 01-2.32-.8v-.14l-.07.13a1.57 1.57 0 01-1.31.76 3.55 3.55 0 01-1.32-.16 4 4 0 01-1.75-1.08 1.84 1.84 0 01-.46-1.14c.02-.28.06-.42.04-.42z"/>
                <path class="cls-5"
                      d="M575.7 168.4l-.06-36.35c.38-9.76-5-18.11-14.76-18.22h-.9a17.47 17.47 0 00-16.63 16.88c-.28 8.46-.48 17.81-.2 22.33.56 9.35 10 10.36 10 10.36s0 2.18.05 4.93-1.44 8.72 5.68 9 16.82-8.93 16.82-8.93z"/>
                <path class="cls-4" d="M553.09 163.44a22.61 22.61 0 0012-4.18s-2.55 7.27-11.93 6.87z"/>
                <path class="cls-3"
                      d="M545.92 138a1.33 1.33 0 001.35 1.29 1.27 1.27 0 001.32-1.27 1.34 1.34 0 00-1.35-1.29 1.28 1.28 0 00-1.32 1.27zM545.48 134.53c.18.17 1.15-.63 2.59-.69s2.53.6 2.68.42-.11-.39-.59-.71A3.72 3.72 0 00548 133a3.59 3.59 0 00-2 .77c-.47.36-.6.69-.52.76zM559 138.3a1.34 1.34 0 001.35 1.29 1.27 1.27 0 001.32-1.27 1.33 1.33 0 00-1.35-1.29 1.28 1.28 0 00-1.32 1.27zM559.6 134.44c.18.17 1.16-.63 2.59-.69s2.53.6 2.68.42-.11-.39-.59-.7a3.65 3.65 0 00-4.2.21c-.43.37-.56.69-.48.76zM555 145.74a10 10 0 00-2.36-.31c-.37 0-.72-.07-.79-.32A1.83 1.83 0 01552 144c.31-.91.62-1.86 1-2.85 1.31-4.06 2.25-7.38 2.09-7.44s-1.37 3.2-2.69 7.25c-.31 1-.62 2-.9 2.87a2.14 2.14 0 00-.13 1.45 1 1 0 00.63.51 2.41 2.41 0 00.63 0 8.88 8.88 0 002.37-.05zM559 129.6c.16.38 1.59.13 3.29.26s3.08.52 3.29.16c.09-.17-.16-.53-.73-.89a5.43 5.43 0 00-2.47-.73 5.37 5.37 0 00-2.54.41c-.58.28-.84.6-.84.79zM545.83 129.67c.26.32 1.25 0 2.44-.09s2.21.16 2.43-.19c.1-.17-.07-.49-.52-.79a3.3 3.3 0 00-2-.48 3.38 3.38 0 00-1.93.7c-.4.35-.53.69-.42.85z"/>
                <path class="cls-4"
                      d="M553.71 149.5a6 6 0 00.77 1.54 2.06 2.06 0 001.44.87 1.85 1.85 0 001.56-.83 2.92 2.92 0 00.45-1.76c0-.55-.26-1.22-.81-1.29a1.31 1.31 0 00-.67.14l-2.92 1.14"/>
                <path class="cls-3"
                      d="M554.84 151.9a4.09 4.09 0 001.55-.17 2.22 2.22 0 001.19-1 2.36 2.36 0 00.06-1.9 2.38 2.38 0 00-.25-.44c-.11-.12-.09-.11-.22-.1l-.46.18-.48.19c-.63.24-1.19.46-1.67.63a5.14 5.14 0 01-1.59.45 5.57 5.57 0 011.45-.79c.46-.22 1-.46 1.62-.73l.48-.21c.17-.06.3-.14.53-.21a.72.72 0 01.43 0 .78.78 0 01.32.26 2.33 2.33 0 01.32.55 2.74 2.74 0 01-.12 2.32 2.52 2.52 0 01-1.49 1.18 2.36 2.36 0 01-1.26 0c-.25-.11-.42-.18-.41-.21zM540.61 123.05a9.36 9.36 0 01.16-1.41 4.23 4.23 0 011.18-1.8c1.73-1.82 3.55-3.7 5.78-4.36 1.36-.41 2.79-.33 4.16-.72a23.48 23.48 0 002.46-1 20.58 20.58 0 0110.6-1 17 17 0 015.76 1.64 20.46 20.46 0 015.28 4.47 31.07 31.07 0 016 9 15.23 15.23 0 011.13 8.62c-.57 2.91-2.52 5.58-5 6.07l-.92-1.16-1.45-1.7c.26.69 0 .64-.55 1a1.19 1.19 0 01-1.67-.56c-.48.59-1.49-.08-1.31-.87-.58.29-1.28-.5-1.06-1.19-.66.22-1-.85-1.31-1.57a10.81 10.81 0 00-.61-1.11 7.21 7.21 0 01-.88-4 7.09 7.09 0 01-1-3.88c-.07-.87-.13-1.73-.2-2.6l-.45-.62a1.4 1.4 0 01-1 1.29 3 3 0 01-1.56-.09l-1.53-.37-1 .23a4 4 0 01-.4 2.5 2.49 2.49 0 01-1 1.36.73.73 0 01-1-.83.8.8 0 01-1.24-.25 2.65 2.65 0 01-.28-1.61 6.84 6.84 0 011.41-3.68l-2.79 2.39a1.35 1.35 0 01-.68.37.71.71 0 01-.79.75 1.89 1.89 0 01-1-.72c-.62-.72-1.25-1.91-.64-2.66a.58.58 0 01-.22-.86l-2.99 2.24c.31-.17.62.32.54.71a1.6 1.6 0 01-.68.87 2.36 2.36 0 01.29 1.46c.57-.47 1.35.48 1.13 1.26a1.71 1.71 0 01-1.66 1.18 1.18 1.18 0 01-1.31-1c-.68.11-1.28-.83-1-1.58-.49.3-.88-.58-.87-1.24a9.33 9.33 0 01.64-3.36c-.07.08-.18.12-.25.06a.16.16 0 01-.06-.13c-.6 1.27-1.19 2.55-1.78 3.83a9.65 9.65 0 00-1.1 3.43c0 .5-.12 1.18-.54 1.21a.64.64 0 01-.33-.1 6.25 6.25 0 01-2.59-3.32 4.65 4.65 0 01-.36-1.48 20.39 20.39 0 01.54-3.11z"/>
                <path class="cls-4"
                      d="M553.91 121.26a1.4 1.4 0 01-.35-.76 1 1 0 01.3-.86 1.09 1.09 0 011.12-.23l.24.09-.1-.24a1.14 1.14 0 01.37-1.26 1.13 1.13 0 011.44.12l.2-.17a.53.53 0 01-.08-.15.66.66 0 01.12-.54.75.75 0 01.49-.27 1.22 1.22 0 01.57.05 1.51 1.51 0 00.65.18c.28 0 .41-.24.55-.32a2.5 2.5 0 012.73 0c.29.18.41.32.43.31s-.09-.18-.37-.4a2.44 2.44 0 00-1.38-.49 2.51 2.51 0 00-1 .15 2.15 2.15 0 00-.52.27c-.17.11-.31.26-.45.27a1.87 1.87 0 01-.53-.17 1.5 1.5 0 00-.7-.08 1 1 0 00-.66.38.91.91 0 00-.16.76.68.68 0 00.12.24l.2-.17a1.33 1.33 0 00-2.2 1.41l.14-.15a1.29 1.29 0 00-1.33.31 1.14 1.14 0 00-.3 1 1.12 1.12 0 00.29.61c.09.08.16.12.17.11zM547.37 122.61a1.69 1.69 0 01-.46-.75 1.31 1.31 0 01.11-1 1.34 1.34 0 011.05-.69h.19l-.12-.14a1.64 1.64 0 01-.37-1.44.87.87 0 01.55-.56.72.72 0 01.76.14l.7.82-.5-1a1.35 1.35 0 010-1.13 1.22 1.22 0 01.93-.72 1.33 1.33 0 01.86.13l.3.16-.11-.32c-.16-.45.32-1 .77-1a2.21 2.21 0 011.36.41l.24.14-.07-.27a1 1 0 01.36-.91 1.83 1.83 0 01.91-.35 4.81 4.81 0 011.66.12 8.19 8.19 0 011.37.57 1.48 1.48 0 00-.32-.24 4.06 4.06 0 00-1-.46 4.37 4.37 0 00-1.73-.18 2 2 0 00-1 .37 1.2 1.2 0 00-.45 1.13l.18-.12a2.38 2.38 0 00-1.51-.46 1.22 1.22 0 00-.78.41.93.93 0 00-.21.91l.19-.16a1.61 1.61 0 00-1-.16 1.49 1.49 0 00-1.12.88 1.59 1.59 0 000 1.35l.21-.14a.93.93 0 00-1-.2 1.09 1.09 0 00-.68.71 1.8 1.8 0 00.44 1.63l.06-.16a1.51 1.51 0 00-1.17.81 1.41 1.41 0 00-.08 1.09 1.48 1.48 0 00.37.58c.03.17.1.21.11.2zM533.39 123.12a1 1 0 01.37-.69 1.28 1.28 0 01.87-.27 3.78 3.78 0 011.22.36l.15.06v-.16a1.13 1.13 0 011-1 3.18 3.18 0 011.82.38l.8.34-.67-.54a.92.92 0 01.14-1.32 2.09 2.09 0 011.63-.31h.08l.51.07-.42-.31a1 1 0 01.19-1.56 1.51 1.51 0 011.66.25l.51.44-.33-.59A2.25 2.25 0 01543 116a2.08 2.08 0 011.58-.9 2.46 2.46 0 011.22.22c.26.13.38.23.39.22s0 0-.08-.09a1.73 1.73 0 00-.28-.2 2.27 2.27 0 00-1.26-.29 2.24 2.24 0 00-1.74.93 2.45 2.45 0 00-.16 2.51l.19-.15a1.75 1.75 0 00-2-.29 1.25 1.25 0 00-.6.92 1.09 1.09 0 00.39 1.07l.1-.23h-.08a2.35 2.35 0 00-1.84.37 1.36 1.36 0 00-.44.84 1 1 0 00.31.86l.13-.2a3.38 3.38 0 00-2-.38 1.31 1.31 0 00-1.1 1.28l.12-.1a3.85 3.85 0 00-1.28-.33 1.35 1.35 0 00-.95.34 1 1 0 00-.32.55c.05.1.08.18.09.17zM541.34 110.23a.86.86 0 00.34.14 4.16 4.16 0 001 .11 2.88 2.88 0 011.44.29.94.94 0 01.48.66.67.67 0 01-.31.75l.18.13c.07-.33.49-.52.88-.72a4.23 4.23 0 011.24-.47 1.58 1.58 0 011.23.25 1.06 1.06 0 01.49 1l-.06.32.26-.2a2.89 2.89 0 011.73-.62 3.44 3.44 0 011.45.28 4.64 4.64 0 011.08.77 1.34 1.34 0 00-.21-.29 2.77 2.77 0 00-.81-.61 3.21 3.21 0 00-1.51-.35 3 3 0 00-1.89.63l.2.11a1.28 1.28 0 00-.58-1.23 1.83 1.83 0 00-1.42-.31 4.52 4.52 0 00-1.32.5 4.91 4.91 0 00-.59.33 1 1 0 00-.41.57v.25l.22-.11a.91.91 0 00.42-1 1.12 1.12 0 00-.6-.79 2.91 2.91 0 00-1.54-.26 5.65 5.65 0 01-1 0c-.26-.1-.38-.14-.39-.13zM554.51 105.87a3.07 3.07 0 01.67.13 1.67 1.67 0 01.64.45 1.42 1.42 0 01.37.9v.14h.14a.87.87 0 01.93.58 2.62 2.62 0 010 1.44l-.1.51.34-.41v-.06a1.11 1.11 0 01.91-.32 1.23 1.23 0 01.84.41 2 2 0 01.45 1.56 4.24 4.24 0 01-.35 1.12c-.12.25-.2.38-.18.4a1.39 1.39 0 00.27-.36 3.26 3.26 0 00.44-1.13 2.13 2.13 0 00-.45-1.75 1.44 1.44 0 00-2.12-.1l-.07.08.23.1a2.87 2.87 0 000-1.59 1.08 1.08 0 00-1.22-.69l.14.1a1.59 1.59 0 00-.46-1 1.65 1.65 0 00-.72-.45 1.44 1.44 0 00-.54-.06c-.1-.03-.17-.01-.16 0zM565.5 114.35s.13 0 .35-.06a2.11 2.11 0 00.81-.51 2.31 2.31 0 00.66-1.28c0-.27 0-.54.21-.7s.48-.28.69-.57a1.31 1.31 0 00-.25-1.78v.19a4.09 4.09 0 001.18-1.49 1.72 1.72 0 00.22-.7 5.9 5.9 0 00-.34.63 4.67 4.67 0 01-1.21 1.37l-.13.1.13.09a1.09 1.09 0 01.18 1.43c-.14.22-.43.31-.67.55a1.39 1.39 0 00-.26.84 2.2 2.2 0 01-.55 1.19 3.22 3.22 0 01-1.02.7zM568.74 116.81h.22a2.25 2.25 0 00.62 0 3.44 3.44 0 002-1h-.17a2.27 2.27 0 001.49.89 2.33 2.33 0 001-.07 1.45 1.45 0 00.87-.61 3.09 3.09 0 00.12-.37.48.48 0 01.17-.23 1.55 1.55 0 01.62-.24 1.91 1.91 0 00.68-.24.73.73 0 00.4-.62l-.17.1a2.28 2.28 0 001.59.12 2.53 2.53 0 001.08-.6 2.32 2.32 0 00.47-.65.73.73 0 00.08-.28 3.34 3.34 0 01-.64.82 2.5 2.5 0 01-1 .52 2.15 2.15 0 01-1.44-.14l-.17-.08v.19a.51.51 0 01-.3.41 1.75 1.75 0 01-.61.2 2 2 0 00-.72.28.83.83 0 00-.26.35 2.28 2.28 0 01-.11.34 1.19 1.19 0 01-.7.48 2 2 0 01-.87.07 2 2 0 01-1.35-.77l-.08-.1-.09.09a3.57 3.57 0 01-1.84 1c-.58.14-.89.11-.89.14zM588.94 125.86v-.09a1.19 1.19 0 000-.27 2.63 2.63 0 00-.07-1 6.21 6.21 0 00-.63-1.5 5.44 5.44 0 00-.54-.85 1.59 1.59 0 00-.43-.38.72.72 0 00-.64 0l.16.12a1.74 1.74 0 00-2.76-1.65l.21.11a1.18 1.18 0 00-.44-1 1.14 1.14 0 00-1.11-.19 1.2 1.2 0 00-.53.36l.23.1a.72.72 0 00-.24-.63 1 1 0 00-.58-.27 2.31 2.31 0 00-1.13.23l.16.05a1.88 1.88 0 00-1.09-.84 2.55 2.55 0 00-1.28-.06 6.59 6.59 0 00-2 .88l.13.12a.43.43 0 000-.45.73.73 0 00-.31-.27 1.43 1.43 0 00-.69-.14 4.09 4.09 0 00-1 .27 3.7 3.7 0 00-.61.31c-.13.09-.19.15-.18.15s.28-.17.82-.36a4 4 0 011-.22 1.12 1.12 0 01.6.15c.2.09.36.29.25.48l-.15.28.29-.16a6.46 6.46 0 012-.82 2.42 2.42 0 011.16.07 1.6 1.6 0 011 .74v.09h.1a2.29 2.29 0 011-.21c.31 0 .63.32.59.62l-.06.45.29-.36a1.11 1.11 0 01.42-.28.86.86 0 01.85.15.93.93 0 01.35.78v.28l.23-.17a1.52 1.52 0 011.72 0 1.56 1.56 0 01.66 1.46v.21l.19-.1c.28-.15.61.09.82.34a6.71 6.71 0 01.54.81 6.57 6.57 0 01.66 1.44 3.35 3.35 0 01.04 1.22zM587.1 133.43s.06-.05.14-.16a3.47 3.47 0 00.34-.5 2 2 0 00.25-1 1.4 1.4 0 00-.17-.61 1 1 0 00-.55-.47v.15A1.23 1.23 0 00586 129l.11.19a1 1 0 000-1.16 1.41 1.41 0 00-1.09-.57h-.58a.56.56 0 01-.35-.34 2.06 2.06 0 00-.31-.58 1.11 1.11 0 00-.59-.36 6.19 6.19 0 00-1.39-.11 1.5 1.5 0 01-1.11-.38 4.7 4.7 0 01-.34-.52 1.22 1.22 0 00-.5-.43 1.37 1.37 0 00-1.23 0l.15.16a1 1 0 00-.09-1.2 1.43 1.43 0 00-.95-.54 4.62 4.62 0 00-1.72.13 5.26 5.26 0 00-1 .36 1.29 1.29 0 00-.34.19 12.19 12.19 0 011.41-.42 4.68 4.68 0 011.66-.07 1.24 1.24 0 01.81.47.81.81 0 01.07 1l-.3.39.45-.22a1.14 1.14 0 011.42.36 5.42 5.42 0 00.35.55 1.38 1.38 0 00.6.37 2.74 2.74 0 00.69.1 6.46 6.46 0 011.33.1.78.78 0 01.46.28 2 2 0 01.28.53.77.77 0 00.52.47 4.72 4.72 0 00.62 0 1.23 1.23 0 01.91.46.75.75 0 010 .87l-.21.26.33-.07a1 1 0 011 1.6l-.08.1h.13a1 1 0 01.63.91 2 2 0 01-.2.89c-.29.41-.47.65-.45.66zM588.42 147.54s.1 0 .26-.07a1.66 1.66 0 00.62-.44 1.85 1.85 0 00.5-1.08 2 2 0 00-.47-1.48v.14a3.58 3.58 0 00.74-1.27 1.5 1.5 0 000-.84 1.07 1.07 0 00-.58-.67v.23a1.53 1.53 0 00.72-1.33 1.64 1.64 0 00-.23-.87 1.37 1.37 0 00-.65-.57.49.49 0 01-.34-.5 2 2 0 00-.14-.77 2.63 2.63 0 00-.92-1.09l-.95-.76a4.37 4.37 0 00-1.56-.82 1.66 1.66 0 00-.48-.07h-.16s.23 0 .61.14a4.87 4.87 0 011.48.88l.92.77a2.48 2.48 0 01.83 1 1.78 1.78 0 01.12.7.75.75 0 00.12.44 1 1 0 00.35.27 1.27 1.27 0 01.74 1.21 1.26 1.26 0 01-.59 1.11l-.23.13.25.1a1 1 0 01.47 1.22 3.44 3.44 0 01-.69 1.19v.07l.06.07a1.79 1.79 0 010 2.34 2.48 2.48 0 01-.8.62zM565.76 125.35a1.9 1.9 0 00.79-.27 2.19 2.19 0 00.73-.58 1.45 1.45 0 00.31-1.12 1.31 1.31 0 00-.09-.28l-.07.18a1.25 1.25 0 00.69-.83 1.12 1.12 0 00-.13-.85c-.26-.44-.6-.49-.6-.47s.26.16.45.55a1 1 0 01-.51 1.36l-.12.06v.12a.86.86 0 01.07.21 1.26 1.26 0 01-.25.93 2.18 2.18 0 01-.63.56c-.4.26-.66.39-.64.43zM559.82 122.23a1.58 1.58 0 01-.13-1 1.1 1.1 0 01.65-.79 1.17 1.17 0 011.24.26l.16.16v-.22a2 2 0 01.34-.75 1 1 0 01.67-.44c.42 0 .87.38.74.72l.24.06a2 2 0 01.78-1.27 2 2 0 011.14-.37 2.89 2.89 0 011.09.25.62.62 0 00-.25-.18 1.92 1.92 0 00-.83-.23 2 2 0 00-1.27.36 2.15 2.15 0 00-.91 1.4l.25.06a.74.74 0 00-.22-.77 1.08 1.08 0 00-.78-.29 1.25 1.25 0 00-.86.54 2.16 2.16 0 00-.37.86l.21-.06a1.38 1.38 0 00-1.5-.28 1.2 1.2 0 00-.72.95 1.27 1.27 0 00.11.78c.14.2.22.26.22.25z"/>
                <path class="cls-5" d="M575.15 139c.16-.08 6.34-2.21 6.45 4.2s-6.36 5.19-6.37 5-.08-9.2-.08-9.2z"/>
                <path class="cls-4"
                      d="M577.15 145.77s.11.07.3.16a1.11 1.11 0 00.83 0 2.74 2.74 0 001.24-2.5 3.68 3.68 0 00-.33-1.59 1.33 1.33 0 00-.86-.85.57.57 0 00-.65.32c-.09.18 0 .31-.08.32s-.14-.11-.09-.37a.76.76 0 01.25-.41.87.87 0 01.61-.17 1.55 1.55 0 011.18 1 3.66 3.66 0 01.42 1.78 2.88 2.88 0 01-1.59 2.79 1.17 1.17 0 01-1-.15c-.22-.18-.26-.32-.23-.33z"/>
                <path class="cls-3"
                      d="M539.75 172.27l13.38-3.27c8.33 3.32 14.6 2.19 22.76-2.94l22.63 8.45c7 4.2 7.92 9.94 8.67 12.73l.8 3.18c-4.56 5.75-11.25 10.84-18.94 15.61-17.07 7.71-34.92 8.84-53.93.22z"/>
                <path class="cls-4"
                      d="M589 199.64s.1-2 .1-4.39 0-4.39-.1-4.39-.11 2-.11 4.39 0 4.39.11 4.39zM591.45 186.44a2.53 2.53 0 00.15-.49c.09-.32.22-.78.41-1.34a21.71 21.71 0 011.89-4.17 21.93 21.93 0 012.73-3.68c.4-.43.73-.77 1-1a2.89 2.89 0 00.35-.37 2.73 2.73 0 00-.41.31c-.25.21-.6.54-1 1a19.45 19.45 0 00-4.65 7.91 13.25 13.25 0 00-.34 1.36 1.71 1.71 0 00-.13.47z"/>
                <path class="cls-3"
                      d="M500.08 151.75s0-1.33.08-3.86A59.67 59.67 0 01501.8 137a60.31 60.31 0 016.65-16.18 61.27 61.27 0 0115.36-17.27 60.51 60.51 0 0125.53-11.38 60.41 60.41 0 0115.66-.94 62.19 62.19 0 018.14 1.13 65.32 65.32 0 018.12 2.31 60.73 60.73 0 010 114.17 65.26 65.26 0 01-8.12 2.3 61.67 61.67 0 01-23.79.25A60.51 60.51 0 01523.81 200a61.3 61.3 0 01-15.36-17.28 59.29 59.29 0 01-8.29-27.12c-.12-2.53-.08-3.86-.08-3.86s0 .33.05 1 0 1.62.13 2.88a62 62 0 001.74 10.9 60.3 60.3 0 006.7 16.07 61.06 61.06 0 0015.3 17.12A60.1 60.1 0 00549.42 211a60.05 60.05 0 0015.54.85 58 58 0 008.07-1.13 62.15 62.15 0 008.05-2.3 60.26 60.26 0 000-113.26 63.77 63.77 0 00-8.05-2.3 60.93 60.93 0 00-8.03-1.17 60.05 60.05 0 00-15.54.85A60.13 60.13 0 00524 103.79 60.52 60.52 0 00502 137a62 62 0 00-1.74 10.9c-.11 1.26-.09 2.23-.13 2.87s-.05.98-.05.98z"/>
            </g>
            <path class="cls-5"
                  d="M54.7 52.38a10.6 10.6 0 006.3-9.82c0-5.86-4.41-10.64-9.91-10.67s-10 4.71-10 10.58a10.59 10.59 0 006.34 9.91c-15.32 2.31-14.62 19-14.62 19l36.23.17s.85-16.87-14.34-19.17z"/>
            <path class="cls-5"
                  d="M51 92.85A39.88 39.88 0 1190.83 53 39.93 39.93 0 0151 92.85zm0-78.63A38.75 38.75 0 1089.69 53 38.79 38.79 0 0051 14.22zM221.88 211.13a7 7 0 004.16-6.45 6.56 6.56 0 10-13.09-.07 7 7 0 004.17 6.52c-10.07 1.52-9.62 12.47-9.62 12.47l23.82.11s.55-11.07-9.44-12.58z"/>
            <path class="cls-5"
                  d="M219.42 237.74a26.22 26.22 0 1126.21-26.22 26.25 26.25 0 01-26.21 26.22zm0-51.69a25.47 25.47 0 1025.47 25.47 25.5 25.5 0 00-25.47-25.47zM522 46.4a7 7 0 004.18-6.4 6.56 6.56 0 10-13.09-.06 6.94 6.94 0 004.17 6.51c-10.08 1.52-9.62 12.47-9.62 12.47l23.82.11S532 47.91 522 46.4z"/>
            <path class="cls-5"
                  d="M519.55 73a26.22 26.22 0 1126.22-26.22A26.25 26.25 0 01519.55 73zm0-51.69A25.47 25.47 0 10545 46.79a25.5 25.5 0 00-25.45-25.47zM613.67 242.68a6.38 6.38 0 003.79-5.89 6 6 0 10-11.94-.06 6.37 6.37 0 003.8 6c-9.18 1.38-8.76 11.36-8.76 11.36l21.72.1s.49-10.14-8.61-11.51z"/>
            <path class="cls-5"
                  d="M611.42 266.94a23.91 23.91 0 1123.9-23.94 23.94 23.94 0 01-23.9 23.94zm0-47.14a23.23 23.23 0 1023.22 23.2 23.26 23.26 0 00-23.22-23.2z"/>
        </g>
        <g id="Speech_Bubble">
            <path class="cls-8" d="M389 200.46l12.47 4.92a42.14 42.14 0 10-2.23-14.91z"/>
            <path class="cls-8"
                  d="M389 200.46l.64-.64 1.92-1.92 7.59-7.54.14-.14.05.2h-.23a42.14 42.14 0 015.69-20 41.28 41.28 0 013.73-5.38 47.88 47.88 0 014.88-5 42.13 42.13 0 0161.68 6.5 41.53 41.53 0 017.8 18.45c.13.86.25 1.72.38 2.58s.09 1.73.13 2.59a40 40 0 01-.09 5.14c0 .86-.22 1.69-.32 2.54s-.19 1.69-.41 2.51l-.6 2.45c-.11.41-.18.82-.32 1.22l-.42 1.18A42.92 42.92 0 01471 221.69a42.32 42.32 0 01-47.06 8.57l-1.63-.77-.81-.38c-.26-.14-.51-.3-.76-.45l-3-1.78a60.43 60.43 0 01-5.15-4.08 41.81 41.81 0 01-11.29-17.39l.06.07-9.29-3.74-2.36-1-.78-.33s.3.1.84.31l2.41.92 9.26 3.59h.05v.05a41.69 41.69 0 0011.32 17.21 56.55 56.55 0 005.12 4l2.95 1.76c.25.14.5.3.76.44l.8.37 1.62.76a41.86 41.86 0 0031.35 1.18 41.36 41.36 0 0015.23-9.65 42.46 42.46 0 0010.07-16.29l.42-1.17c.13-.39.2-.8.31-1.2l.6-2.43c.21-.81.26-1.65.4-2.48s.29-1.66.31-2.5a39.13 39.13 0 00.09-5.08c0-.85-.07-1.71-.13-2.56s-.25-1.7-.37-2.55a41.88 41.88 0 00-22.13-30.47 41.75 41.75 0 00-46.57 5.74 45.32 45.32 0 00-4.86 5 41 41 0 00-3.72 5.32 42 42 0 00-5.76 19.84v.87l-.2-.85.19.06-7.63 7.37-2 1.91c-.46.36-.66.58-.66.58z"/>
            <path class="cls-9" d="M422.73 192.41l5.64-5.64 10.88 9.67 17.81-18.49 5.24 5.64-23.86 23.73-15.71-14.91z"/>
        </g>
        <g id="Character_4">
            <ellipse class="cls-10" cx="517.01" cy="324.18" rx="64.02" ry="63.88"/>
            <path class="cls-10"
                  d="M581 324.18s0-.35-.06-1 0-1.71-.14-3a63.34 63.34 0 00-1.8-11.6 63.94 63.94 0 00-23.35-35.1 64 64 0 00-26.86-11.86 63.41 63.41 0 00-16.44-.9 64.92 64.92 0 00-8.54 1.19 68.28 68.28 0 00-8.52 2.42 64.05 64.05 0 00-29.65 22.18 63.1 63.1 0 00-5.2 8.35 59.5 59.5 0 00-3.91 9.21 63.44 63.44 0 000 40.21 59 59 0 003.9 9.21 62.63 62.63 0 005.21 8.36A63.94 63.94 0 00495.28 384a70.09 70.09 0 008.52 2.43 64.92 64.92 0 008.54 1.19 63.85 63.85 0 0016.44-.9 63.68 63.68 0 0026.86-11.87 64.52 64.52 0 0016.25-18.1 63.5 63.5 0 008.94-28.52c.12-1.33.1-2.36.14-3s.06-1 .06-1 0 1.41-.09 4.08a62.76 62.76 0 01-8.8 28.67 64.71 64.71 0 01-16.27 18.24 62.86 62.86 0 01-12.26 7.33 62.19 62.19 0 01-14.75 4.67 63.77 63.77 0 01-16.55.93 62.57 62.57 0 01-8.6-1.19 67.19 67.19 0 01-8.59-2.43 64.34 64.34 0 01-29.9-22.33 62.53 62.53 0 01-5.25-8.42 58.11 58.11 0 01-3.94-9.28 63.9 63.9 0 010-40.54 60 60 0 013.94-9.28 63.55 63.55 0 015.25-8.42 64.41 64.41 0 0129.9-22.33 69.2 69.2 0 018.58-2.43 66 66 0 018.61-1.19 63.77 63.77 0 0116.55.93 64.09 64.09 0 0127 12 64.6 64.6 0 0116.28 18.24 62.84 62.84 0 018.8 28.67c.13 2.63.06 4.03.06 4.03z"/>
            <path class="cls-11"
                  d="M490.66 345.84l14.77-1.26 36.09 6.08 4.26 27.16-.58 3.75a64.23 64.23 0 01-53.51 1.19l-1-36.92"/>
            <path class="cls-11"
                  d="M533.8 350.23a19.31 19.31 0 0118.72 8.23 133.75 133.75 0 017.78 12.6 62.78 62.78 0 01-21.51 13.21zM490.66 345.84s-9.77 1.19-13.56 9.52a90 90 0 00-5.24 14.12c5.92 5.69 12.37 10.39 19.83 13.28 0 0 1.9-21.47 2.14-27.4.26-6.5.51-9.71-3.17-9.52z"/>
            <path class="cls-6"
                  d="M499.6 292.49a26.69 26.69 0 0120.68-10.27c4.7-.08 6.64.89 10 1.8a14.89 14.89 0 018.45 5.59c2.4 3.39 4.41 7.19 4.87 11.32a70 70 0 01.61 12.77 23.28 23.28 0 01-4 12l-10.85 1.88c-6 .21-12.07.4-17.9-1s-11.51-4.5-14.64-9.6c-4.3-7.07-2.5-18.06 2.78-24.49z"/>
            <path class="cls-3"
                  d="M537 331.79s.17.27.64.57a5.39 5.39 0 002.24.75 5.79 5.79 0 003.45-.7 5.77 5.77 0 002.09-7.7 5.83 5.83 0 00-2.63-2.34 5.31 5.31 0 00-2.31-.47 1.73 1.73 0 00-.85.16 8.12 8.12 0 013 .72 5.61 5.61 0 012.31 2.22 5.31 5.31 0 01-1.87 6.9 5.59 5.59 0 01-3.11.75 8.21 8.21 0 01-2.96-.86z"/>
            <path class="cls-6"
                  d="M489.08 323.92a8.08 8.08 0 013.67-6.09 5.85 5.85 0 016.85.59l1.71 2a7 7 0 014 7 7.67 7.67 0 01-5.32 6.27 8.53 8.53 0 01-8.08-1.95 9.48 9.48 0 01-2.83-7.82z"/>
            <path class="cls-12"
                  d="M491.23 331.22a3.68 3.68 0 01-.58-2.15 9.77 9.77 0 012.48-4.87 14.61 14.61 0 014.35-3.48c1.27-.68 2.14-.93 2.12-1a6 6 0 00-2.29.68 13.25 13.25 0 00-4.59 3.48 12.69 12.69 0 00-1.75 2.66 5.73 5.73 0 00-.7 2.53 3.06 3.06 0 00.49 1.72c.24.33.45.45.47.43zM496.48 334.42a23.93 23.93 0 01.48-7.15 23.57 23.57 0 013.09-6.47 5.83 5.83 0 00-1.43 1.6 15.06 15.06 0 00-2.6 9.92 6 6 0 00.46 2.1z"/>
            <path class="cls-13"
                  d="M529.3 348.29l-.06-10c0 .06 8.85-1 11.29-12.29 1.22-5.63 1.44-14.95 1.38-22.58 0-6.87-5.92-16.23-14.42-16.26l-3.78-.44-14.46 5.74a4 4 0 00-3.82 3.87l-.43 48.29 24.17 33.87.14-30.2z"/>
            <path class="cls-14" d="M529.24 338.25a29.2 29.2 0 01-15.09-4.92s3.64 8.14 15.15 7.69z"/>
            <path class="cls-13"
                  d="M507.39 315.47c.05-.85-.83-2.9-1.66-3.08-2.23-.47-6.29-.51-6.64 5.18-.48 7.77 7.45 6.65 7.47 6.43s.68-5.59.83-8.53z"/>
            <path class="cls-13"
                  d="M504.59 321s-.14.09-.38.18a1.35 1.35 0 01-1 0c-.8-.35-1.41-1.7-1.36-3.1a4.5 4.5 0 01.49-1.92 1.58 1.58 0 011.09-1 .7.7 0 01.78.42c.09.23 0 .38.07.39s.18-.12.13-.44a.86.86 0 00-.27-.51 1.07 1.07 0 00-.74-.24 1.88 1.88 0 00-1.49 1.12 4.58 4.58 0 00-.61 2.14c0 1.57.67 3.08 1.78 3.48a1.48 1.48 0 001.25-.13c.23-.18.28-.39.26-.39z"/>
            <path class="cls-6"
                  d="M505.41 312.41l2 2c8.55-8.17 25.27-28.62 24.34-27.4a24.93 24.93 0 00-12.22-1.33c-6.36 1.08-18.43 4.26-18.24 11.74s4.12 14.99 4.12 14.99z"/>
            <path class="cls-3"
                  d="M505.59 331.79s-.18.27-.65.57a5.28 5.28 0 01-2.23.75 5.79 5.79 0 01-3.45-.7 5.77 5.77 0 01-2.09-7.7 5.83 5.83 0 012.63-2.34 5.29 5.29 0 012.31-.47 1.73 1.73 0 01.85.16 8.08 8.08 0 00-3 .72 5.61 5.61 0 00-2.31 2.22 5.31 5.31 0 001.87 6.9 5.57 5.57 0 003.11.75 8.31 8.31 0 002.96-.86z"/>
            <path class="cls-12"
                  d="M494.08 310.69a2.78 2.78 0 01.12-.45 7.45 7.45 0 01.53-1.22 11.27 11.27 0 013.26-3.66 21.32 21.32 0 016.56-3.15c2.61-.85 5.55-1.5 8.43-2.74a37.85 37.85 0 007.7-4.31 39 39 0 005.44-4.74 40.76 40.76 0 003.14-3.72l.79-1.07a2.78 2.78 0 01.29-.37 2.19 2.19 0 01-.23.41c-.16.26-.39.64-.72 1.12a35.45 35.45 0 01-3.06 3.82 37.7 37.7 0 01-13.19 9.23 86.43 86.43 0 01-8.48 2.72 21.59 21.59 0 00-6.5 3 11.59 11.59 0 00-3.29 3.5c-.57 1.03-.75 1.65-.79 1.63z"/>
            <path class="cls-12"
                  d="M496.35 311.92a4.07 4.07 0 01.3-1.7 8 8 0 012.93-3.66 17.52 17.52 0 016.51-2.55 38.54 38.54 0 008.08-2.56 34 34 0 007.21-4.44 35.65 35.65 0 004.94-4.84 36.72 36.72 0 002.75-3.78l.66-1.09a1.93 1.93 0 01.26-.37 1.7 1.7 0 01-.19.41l-.59 1.13a32.21 32.21 0 01-2.67 3.87 34.2 34.2 0 01-4.93 5 33.37 33.37 0 01-7.27 4.51 37.5 37.5 0 01-8.17 2.56 17.76 17.76 0 00-6.42 2.42 8 8 0 00-2.95 3.48 8.77 8.77 0 00-.45 1.61z"/>
            <path class="cls-6"
                  d="M491.79 382.76a58.21 58.21 0 01-.26-7.71 58.18 58.18 0 01.26-7.72 56.21 56.21 0 01.26 7.72 56.23 56.23 0 01-.26 7.71zM545.2 381.57a16.73 16.73 0 01.09-2.7 31.22 31.22 0 00-.22-6.45 32.36 32.36 0 00-1.81-6.2 16.5 16.5 0 01-.91-2.55 12.19 12.19 0 011.25 2.41 26.32 26.32 0 012 6.25 25.51 25.51 0 01.07 6.57 11.7 11.7 0 01-.47 2.67z"/>
            <path class="cls-10"
                  d="M586.05 324.18s0-.38-.06-1.12 0-1.84-.15-3.28a69 69 0 00-27.13-50.38 69 69 0 00-29-12.85 70.06 70.06 0 00-27 .32 72 72 0 00-9.2 2.63 68.91 68.91 0 00-32 24 66.55 66.55 0 00-5.61 9 63.75 63.75 0 00-4.21 9.94 68.74 68.74 0 000 43.43 65.22 65.22 0 004.2 9.95 69 69 0 0037.6 33 73.65 73.65 0 009.2 2.63 70.23 70.23 0 009.22 1.29 69 69 0 0017.75-1 68.66 68.66 0 0029-12.85 69.65 69.65 0 0017.51-19.57 67 67 0 004.81-9.7 68.21 68.21 0 002.83-8.66 69.79 69.79 0 002-12.45c.13-1.44.1-2.54.15-3.28s.06-1.12.06-1.12 0 1.52-.11 4.41a67.47 67.47 0 01-1.88 12.49 68.19 68.19 0 01-2.8 8.7 66.78 66.78 0 01-4.79 9.76 69.71 69.71 0 01-17.54 19.71 69.1 69.1 0 01-29.13 13 68.94 68.94 0 01-17.86 1 68 68 0 01-9.29-1.29 73.44 73.44 0 01-9.27-2.63 69.4 69.4 0 01-32.23-24.15 68.09 68.09 0 01-5.65-9.09 63.92 63.92 0 01-4.24-10 69.17 69.17 0 010-43.75 64.77 64.77 0 014.24-10 67.9 67.9 0 015.66-9.09A69.44 69.44 0 01493.38 259a75.15 75.15 0 019.27-2.63 69.6 69.6 0 019.29-1.29 68.83 68.83 0 0117.85 1 67 67 0 0115.92 5.05 67.92 67.92 0 0113.22 7.93 70 70 0 0117.54 19.71 69.19 69.19 0 017.59 18.46 67.55 67.55 0 011.88 12.5c.15 2.93.11 4.45.11 4.45z"/>
            <circle class="cls-9" cx="579.26" cy="301.04" r="13.65" transform="rotate(-80.74 579.28 301.029)"/>
            <path class="cls-2" d="M573.21 300.96l1.93-1.93 3.73 3.31 6.1-6.33 1.8 1.93-8.17 8.13-5.39-5.11z"/>
        </g>
        <g id="Character_3">
            <circle class="cls-10" cx="383.43" cy="65.08" r="59.33"/>
            <path class="cls-10"
                  d="M324.1 65.08s0-1.31.08-3.79a57.73 57.73 0 011.61-10.74 59.55 59.55 0 016.52-15.88 60.24 60.24 0 0115.08-17 59.25 59.25 0 0125-11.16 60.29 60.29 0 0123.34.24 64.59 64.59 0 018 2.26 59.59 59.59 0 010 112 64.59 64.59 0 01-8 2.26 60.29 60.29 0 01-23.34.24 59.39 59.39 0 01-25.05-11.17 60.06 60.06 0 01-15.07-17 59.36 59.36 0 01-6.52-15.87 57.73 57.73 0 01-1.61-10.74c-.12-2.48-.08-3.78-.08-3.78v1c0 .68 0 1.58.13 2.82A60.09 60.09 0 00326 79.55a59.27 59.27 0 006.57 15.77 59.89 59.89 0 0015.05 16.81 59 59 0 0024.9 11 60.26 60.26 0 0023.17-.28 65.81 65.81 0 007.9-2.25 59.13 59.13 0 000-111.13 65.81 65.81 0 00-7.9-2.25A60.21 60.21 0 00372.51 7a59 59 0 00-24.9 11A59.3 59.3 0 00326 50.6a61 61 0 00-1.71 10.69c-.11 1.24-.09 2.19-.13 2.82s-.06.97-.06.97z"/>
            <path class="cls-6"
                  d="M402.37 36.66a14.17 14.17 0 00-7-8.38 17.88 17.88 0 00-12-1.11 37.83 37.83 0 00-11.22 5 18.45 18.45 0 00-5.3 4.38c-2.53 3.38-5 8.86-5.1 13.08-.11 3.4 1.44 11.87 3 14.92a7.76 7.76 0 003.25 2.87 28.82 28.82 0 006.39 8l2.16-6.92z"/>
            <path class="cls-6"
                  d="M400.29 32.52l-6.73-1c3.91 8.61 5.47 28.53 7.83 37.69 2.37-3.65 7.79-14.73 7.36-19.06s-.52-18.59-8.46-17.63z"/>
            <path class="cls-13"
                  d="M368.94 48a11.47 11.47 0 018.31-10.79l15.32-4.37c6.64-.91 11.33 7.16 12 13.84.69 7.42 1.22 15.26.51 20.84-1.43 11.21-9.94 12.89-9.94 12.89s.15 5.31.24 8.56l-2.5 14.61-20.23-17.29-3.74-38.21c-.01-.19.02.12.03-.08z"/>
            <path class="cls-14" d="M380.19 76.81s3.85 7.56 15 6.17l-.07-2.62a28.13 28.13 0 01-14.93-3.55z"/>
            <path class="cls-6"
                  d="M401.2 36.53a4.91 4.91 0 00-4.41-2.66 9.54 9.54 0 00-5.1 1.65c-6.54 4-9.69 13.41-16.14 17.57-1.59 1-3.71.19-5.05 1.52s-2.17 3.43-1.36 5.13a15.77 15.77 0 01-2.39-3.74 5.3 5.3 0 01.06-4.36c.54-1 1.53-1.78 1.77-2.89s-.2-2-.18-3a6.45 6.45 0 01.94-2.88 29 29 0 0110.34-11.52 18.86 18.86 0 019.72-2.81 14.41 14.41 0 019.42 3.46c1.51 1.33 3.09 2.7 2.38 4.58"/>
            <path class="cls-13" d="M370.7 56c-.13-.32-6-2.25-5.91 3.93.1 6 6.13 4.66 6.14 4.49S370.7 56 370.7 56z"/>
            <path class="cls-14"
                  d="M369 62.17s-.1.07-.28.16a1.06 1.06 0 01-.78 0 2.59 2.59 0 01-1.24-2.31 3.32 3.32 0 01.26-1.5 1.2 1.2 0 01.77-.82.54.54 0 01.63.28c.08.16 0 .28.08.29s.12-.1.07-.35a.68.68 0 00-.24-.37.82.82 0 00-.59-.14 1.45 1.45 0 00-1.07 1 3.54 3.54 0 00-.33 1.68 2.72 2.72 0 001.57 2.57 1.12 1.12 0 001-.18c.15-.17.2-.3.15-.31z"/>
            <path class="cls-2"
                  d="M368.22 53a2.1 2.1 0 00.36-.22c.22-.15.57-.35 1-.66a21.26 21.26 0 003.15-3.12 58 58 0 003.82-5.27 46.63 46.63 0 014.78-6.31 18.6 18.6 0 013.13-2.62 15.36 15.36 0 013.41-1.67 17.22 17.22 0 016.35-1 16.73 16.73 0 014.28.72c.5.13.87.29 1.13.38l.39.13a1.77 1.77 0 00-.37-.18 9.36 9.36 0 00-1.11-.43 15.56 15.56 0 00-4.32-.81 17 17 0 00-6.43.92 15.88 15.88 0 00-3.48 1.68 18.79 18.79 0 00-3.18 2.66 45.84 45.84 0 00-4.79 6.36 61.44 61.44 0 01-3.76 5.28A21.61 21.61 0 01369.5 52c-.4.32-.74.54-.95.71a2.49 2.49 0 00-.33.29z"/>
            <path class="cls-6"
                  d="M369.78 54.62a9.25 9.25 0 00.73 4.82c.8 1.44 2.74 2.37 4.14 1.52 1.15-.7 1.45-2.2 1.61-3.53.46-3.85.61-7.72 1.11-11.56z"/>
            <path class="cls-12"
                  d="M399.64 33.71s-.53-.08-1.49-.09a10.35 10.35 0 00-4 .85 13.14 13.14 0 00-2.46 1.35 27.13 27.13 0 00-2.51 2 30.78 30.78 0 00-4.88 5.56c-.73 1.1-1.37 2.22-2.08 3.26a15.13 15.13 0 01-2.33 2.78A26.52 26.52 0 01375 53c-1.51.86-2.78 1.46-3.66 1.88l-1 .47a1.87 1.87 0 01-.37.14 1.83 1.83 0 01.34-.2l1-.53c.86-.45 2.11-1.09 3.6-2a27.44 27.44 0 004.89-3.56 15.39 15.39 0 002.2-2.7c.69-1 1.33-2.16 2.07-3.26a30.5 30.5 0 014.93-5.62 26.48 26.48 0 012.57-2 13 13 0 012.52-1.35 10 10 0 014-.75 7 7 0 011.11.13 1.59 1.59 0 01.44.06z"/>
            <path class="cls-2"
                  d="M369.51 50.92a2.76 2.76 0 01-.52.37l-1.5.94-.5.31a1.68 1.68 0 01-.65.23.61.61 0 01-.41-.08.53.53 0 01-.24-.39 1.37 1.37 0 01.26-.77l1.69-2.88.24.22a6.37 6.37 0 01-4 1.33 1.75 1.75 0 01-.55-.08.74.74 0 01-.48-.39.67.67 0 01.08-.61 2.21 2.21 0 01.34-.39 13 13 0 002-2.64 20.23 20.23 0 001.22-2.8 2.86 2.86 0 01-.17.81 11 11 0 01-.84 2.11 12.15 12.15 0 01-2 2.74c-.22.22-.43.47-.34.65s.42.28.74.27a6 6 0 002-.31 6.12 6.12 0 001.81-1l.7-.55-.46.76-1.72 2.86a1.19 1.19 0 00-.24.59.3.3 0 00.36.25 3 3 0 001.06-.48l1.55-.85a2.72 2.72 0 01.57-.22z"/>
            <path class="cls-15"
                  d="M361.75 85.5l10.69-.89s5.89 7.77 13.91 7.17 8.9-6 8.9-6 14.3 2.76 22.07 11l.18.23 6.5 11.4c-4.87 4.37-9.85 8-15.06 10.19-14.28 7.11-34.56 8.42-51.42-.16z"/>
            <path class="cls-15"
                  d="M362 85.43s-5.59.92-8.94 2.89c-7.6 4.44-11.61 18.68-11.61 18.68A57.07 57.07 0 00360 119.48s5.81-7.78 8.24-15.32c.57-1.76-.73-10.61-.73-10.53S362 85.6 362 85.43z"/>
            <path class="cls-6"
                  d="M412.84 116.61c-.16 0-.17-1.71-.66-3.73s-1.21-3.58-1.07-3.65a8.18 8.18 0 011.58 3.52 7.65 7.65 0 01.15 3.86zM359.94 119.35a22.23 22.23 0 01.52-2.9 70.67 70.67 0 001-7c.24-2.76.29-5.27.3-7.09a18.57 18.57 0 01.07-3 14.58 14.58 0 01.3 2.94 54.53 54.53 0 01-.15 7.15 48 48 0 01-1.16 7 13.44 13.44 0 01-.88 2.9z"/>
            <path class="cls-10"
                  d="M317.79 65.68s0-1.43.09-4.15a63.73 63.73 0 011.77-11.75 64.84 64.84 0 017.14-17.38 65.65 65.65 0 0116.51-18.55 64.66 64.66 0 0127.42-12.22 64.79 64.79 0 0116.8-.95 66 66 0 018.74 1.21A71 71 0 01405 4.37a65.26 65.26 0 0135.66 31.28 60.9 60.9 0 014 9.43 65.26 65.26 0 010 41.19 61.93 61.93 0 01-4 9.43 62.87 62.87 0 01-5.32 8.56A65.28 65.28 0 01405 127a69.31 69.31 0 01-8.72 2.48 66 66 0 01-8.74 1.21 64.87 64.87 0 01-16.81-1 65.14 65.14 0 01-27.42-12.22A65.89 65.89 0 01326.79 99a64.84 64.84 0 01-7.14-17.38 63.73 63.73 0 01-1.77-11.75c-.13-2.72-.09-4.15-.09-4.15v1c0 .64 0 1.74.14 3.09a65.94 65.94 0 001.87 11.71 65 65 0 0023.67 35.69 64.61 64.61 0 0027.27 12.09 64.5 64.5 0 0016.7.91 65.38 65.38 0 008.68-1.21 69.21 69.21 0 008.65-2.47A65 65 0 00434.91 104a64 64 0 005.28-8.5 60.93 60.93 0 003.95-9.36 64.67 64.67 0 000-40.85 60 60 0 00-4-9.36 63.53 63.53 0 00-5.27-8.5 65 65 0 00-30.05-22.61 71 71 0 00-8.65-2.47 65.38 65.38 0 00-8.68-1.21 64.4 64.4 0 00-16.69.91 64.72 64.72 0 00-27.28 12.09A65 65 0 00318 61.54c-.12 1.35-.1 2.39-.14 3.09s-.07 1.05-.07 1.05z"/>
            <circle class="cls-9" cx="434.9" cy="36.13" r="12.84" transform="rotate(-50.83 434.92 36.122)"/>
            <path class="cls-2" d="M429.21 36.06l1.82-1.82 3.51 3.12 5.74-5.96 1.69 1.82-7.69 7.65-5.07-4.81z"/>
        </g>
        <g id="Character_2">
            <path class="cls-16"
                  d="M165.26 280.84a8.62 8.62 0 00-4.9 2.22c-1.33 1.17-1.58 3.72-1.59 4.8 0 4.31.76 7.95 3.52 11.25l10.45 15.32v5.71l24.12-1-1.44-13.73s.85-4.7 1.25-6.54 0-7.15 0-7.15-3.37-12.56-3.16-18.48-4.09-21.75-5.72-26.25-5.62-1.43-5.72 2.45 2.55 12.26 1.84 19.61c0 0-.41 2.45-1.84.92-.8-.86-5.16-2-7.85 1.59a6.12 6.12 0 00-1.08 2.54c-.18.89-.54 2.06-1.18 2a6 6 0 00-3.84.4c-1.83.78-2.86 4.34-2.86 4.34z"/>
            <path class="cls-16"
                  d="M173.63 277l.9 16.46a10 10 0 001.09 4.81c.88 1.42 2.78 2.42 4.37 1.77a3.53 3.53 0 002-2.46 10.09 10.09 0 00.13-3.2 207.57 207.57 0 01-.2-21"/>
            <path class="cls-16"
                  d="M181.9 273.36a3.93 3.93 0 010 .55v7.37c0 2.39.07 5.36.21 8.58q.1 2.43.27 5.07a8.6 8.6 0 01-.18 2.75 4 4 0 01-1.65 2.37 3.28 3.28 0 01-2.89.21 4.61 4.61 0 01-2.19-1.74 9.81 9.81 0 01-1.18-5c-.16-3.22-.3-6.12-.42-8.59s-.18-4.35-.24-5.79v-1.57a2.13 2.13 0 010-.56 3.56 3.56 0 01.08.55l.13 1.57c.1 1.44.24 3.4.41 5.78s.33 5.37.52 8.58a9.52 9.52 0 001.13 4.75 4 4 0 001.95 1.54 2.7 2.7 0 002.43-.17 3.42 3.42 0 001.43-2.06 8.57 8.57 0 00.17-2.58c-.1-1.76-.19-3.46-.24-5.08-.11-3.23-.13-6.15-.1-8.6s.11-4.43.18-5.8c0-.68.07-1.21.1-1.57a1.9 1.9 0 01.08-.56z"/>
            <path class="cls-16"
                  d="M193.1 290c-1.87-.47-5.11-2.19-7-2.92-1.4-.55-3.11-.87-4.31 0a3.68 3.68 0 00-1.14 3.45 8.36 8.36 0 002.09 4.31 8.6 8.6 0 001.34 1.29 6.21 6.21 0 001.67.83 1 1 0 01.49.3 5 5 0 01.45 1.34 7.53 7.53 0 002 3 6.66 6.66 0 00.66.53"/>
            <path class="cls-16"
                  d="M189.42 302.19s-.1 0-.28-.16a5.77 5.77 0 01-.72-.55 7.46 7.46 0 01-1.88-2.79c-.13-.36-.18-.72-.32-1a.62.62 0 00-.28-.35 4.3 4.3 0 00-.53-.2 5.73 5.73 0 01-2.28-1.46 8.81 8.81 0 01-2.76-5.42 4 4 0 011-3.08 3.42 3.42 0 012.92-.79 9.49 9.49 0 012.56.81c.76.34 1.45.68 2.08 1 1.27.61 2.29 1.09 3 1.39a9.62 9.62 0 011.13.47 3.77 3.77 0 01-1.2-.28c-.75-.25-1.81-.68-3.09-1.24l-2.1-.92a8.73 8.73 0 00-2.45-.73 3 3 0 00-2.51.67 3.48 3.48 0 00-.86 2.69 8.46 8.46 0 002.58 5.11 5.22 5.22 0 002.1 1.39 4.66 4.66 0 01.59.26 1 1 0 01.43.55c.16.39.19.77.29 1.07a7.91 7.91 0 001.68 2.76 9.06 9.06 0 01.9.8zM191.08 275.44a14.65 14.65 0 01-8.2 7.32c-.07-.15 2.2-1.21 4.47-3.25s3.59-4.16 3.73-4.07zM177.89 300.24s.08.09.2.28a6 6 0 01.39.87 2.85 2.85 0 01.15 1.54 2 2 0 01-1.46 1.44 5.72 5.72 0 01-5-1.42 14.58 14.58 0 01-3.63-5.23 37.05 37.05 0 01-2.31-5.91 19.76 19.76 0 01-.78-5.13 13.83 13.83 0 01.37-3.48 4.25 4.25 0 01.41-1.21 21.41 21.41 0 00-.41 4.68 20.7 20.7 0 00.87 5 40.69 40.69 0 002.32 5.82 14.44 14.44 0 003.46 5.08 5.41 5.41 0 004.56 1.43 1.74 1.74 0 001.28-1.16 2.69 2.69 0 00-.07-1.4c-.17-.77-.39-1.18-.35-1.2zM172.74 280.84a41.05 41.05 0 01.75 4.16 38.43 38.43 0 01.83 4.15 11.43 11.43 0 01-1.34-4 11.09 11.09 0 01-.24-4.31z"/>
            <path class="cls-16"
                  d="M171.42 301.86c0 .05-.32.36-1 .63a4.9 4.9 0 01-2.94 0 5.49 5.49 0 01-2.51-1.51c-.52-.55-.68-1-.63-1s.34.31.88.76a6.73 6.73 0 002.4 1.28 5.58 5.58 0 002.69.11c.69-.13 1.07-.35 1.11-.27z"/>
            <path class="cls-17"
                  d="M287.29 248.55l-11.2 10.65L242 273.88v62.77L260.42 411l-5.86 25.18h123l-6.4-22.34s3.33-43.74 7.94-72.52c4.14-25.83-3.65-71.81-3.65-71.81l-27.28-9.61-11.15-12z"/>
            <path class="cls-17"
                  d="M251.84 269.63s-19.28 6.66-24.06 17.75c-.83 1.91-19.95 50.79-19.95 50.79L176.23 384s8.21 27.12 35.87 25.95c0 0 9.07 0 19.64-16.44 9.37-14.54 15.09-40.93 15.09-40.93z"/>
            <path class="cls-17"
                  d="M176.23 384l-10.8-65.78 38.87-6.6 15.12 73.3-43.19-.92zM375.49 269.55a45.55 45.55 0 0120.66 12.84c9.74 10.45 33.47 153.83 33.47 153.83H387.1l-13.65-71.73z"/>
            <path d="M381.55 308.55c-3.22 20.78-4.12 42.8-6.7 64.12h.29a116.94 116.94 0 006.41-64.12z"/>
            <path d="M208.45 334.06c2.36 13.61 7.18 27 10.27 40.71l.26-.12c2.25-15.19-1.44-29.44-10.53-40.59z"
                  fill="#4f4f4f"/>
            <path class="cls-20"
                  d="M345.42 205.75c5.35-.57 10.75 2.22 14 6.53a22.55 22.55 0 014 15.26c-.54 6.89-3.81 13.7-9.42 17.75s-13.57 4.92-19.56 1.46c-5.43-3.14-8.63-9.42-8.9-15.68s2.14-12.45 5.84-17.51c3.43-4.72 9.13-8.89 14.72-7.22"/>
            <path class="cls-20"
                  d="M353 169.93c-3.44-12.75-8.74 3.66-13.08 5-2.58.8-4.39 3.24-5.17 5.83a24.69 24.69 0 00-.59 8.05l1.72 49.36c9.81-4.63 17.51-15.63 20.38-26.1s-.46-31.66-3.26-42.14zM310.78 134.18c-16.41-8.82-29.56-3.61-36 1.39S264.56 148.2 262.21 156s-3.38 15.88-5.28 23.78c-1.6 6.64-3.83 13.14-4.77 19.91s-.48 14 3 19.87c3.32 5.66 9 9.45 14.49 13.05 2 1.3 4.31 2.65 6.56 1.93 1.64-.51 2.74-2 3.73-3.4a316.69 316.69 0 0041.46-82.9z"/>
            <path class="cls-13"
                  d="M329 153.12l-28.41-11.45-7.44.83c-16.73 0-28.36 18.38-28.53 31.93-.19 15 .16 33.44 2.5 44.55 4.71 22.33 22.11 24.33 22.11 24.33s-.21 6.1-.39 13.59A23.65 23.65 0 00313 281.1a23.64 23.64 0 0023.17-23.55l.36-96.75a7.94 7.94 0 00-7.53-7.68z"/>
            <path class="cls-14" d="M289.27 243.31a57.35 57.35 0 0029.73-9.55s-7.25 16-29.89 15z"/>
            <path class="cls-6"
                  d="M303.91 139.28c7.19-2.9 18.19-1.92 24.37 2.77s10 12 11.44 19.65-.48 18.93-2.49 26.42c-11.65-15-23.63-32.3-34.87-47.61z"/>
            <path class="cls-20"
                  d="M298.4 132.46c-39.46-5.56-35.81 54.12-35.81 54.12 3.94-22 38-44.91 38-44.91l2.73-1.14z"/>
            <path d="M334.08 198.84c-.08-1.68 1.66-5.73 3.3-6.07 4.39-.91 12.38-1 13 10.27.87 15.35-14.71 13.06-14.76 12.62s-1.26-11.03-1.54-16.82z"
                  fill="#db8a76"/>
            <path d="M337.94 209.58c.07-.06.28.17.74.35a2.68 2.68 0 002-.07c1.59-.69 2.81-3.34 2.73-6.11a8.85 8.85 0 00-1-3.79 3.09 3.09 0 00-2.12-1.93 1.36 1.36 0 00-1.54.82c-.18.44-.07.74-.15.77s-.34-.24-.25-.88a1.61 1.61 0 01.55-1 2 2 0 011.45-.48 3.79 3.79 0 012.93 2.22 9.15 9.15 0 011.17 4.23c.08 3.1-1.34 6.08-3.52 6.85a2.89 2.89 0 01-2.47-.27c-.46-.29-.57-.68-.52-.71z"
                  fill="#a45b4a"/>
            <path class="cls-20"
                  d="M352.12 162.13c-3.92-10.52-11.85-19.21-21.11-25.57-5-3.41-10.49-6.27-16.46-7s-12.49 1-16.47 5.53l-1.08 1.15c6.79 15 11.57 27.76 20.31 41.77 3.21 5.14 9.68 14.49 11.67 20.22 5.05 14.55 9 27.51 9 27.51 24.27.02 18.07-53.09 14.14-63.61z"/>
            <path class="cls-12"
                  d="M357.41 199.36a10 10 0 01.09 1.73 34.45 34.45 0 01-.26 4.72 40.17 40.17 0 01-1.45 6.86c-.33 1.28-.86 2.57-1.35 3.92s-1.16 2.7-1.92 4a34.82 34.82 0 01-4.91 7.06l-.64.74c-.23.22-.46.45-.69.66-.45.44-.88.87-1.32 1.26a27.41 27.41 0 01-2.6 2l-1.2.78c-.38.24-.78.41-1.13.59a12.23 12.23 0 01-1.85.84 12.83 12.83 0 01-1.65.53 33.49 33.49 0 005.62-3 30.75 30.75 0 002.53-2c.42-.39.84-.83 1.28-1.26l.67-.66.62-.74a36 36 0 004.81-7c.75-1.31 1.31-2.68 1.9-4s1-2.6 1.38-3.87a45.7 45.7 0 001.54-6.77 44.15 44.15 0 00.42-4.67 13 13 0 01.11-1.72z"/>
            <path class="cls-12"
                  d="M350.66 224.14a.75.75 0 01.1-.25l.34-.7c.15-.31.36-.68.56-1.15s.42-1 .66-1.6a30.16 30.16 0 001.87-10.82 40 40 0 00-3.58-15.86 60.23 60.23 0 00-11.45-16.36 179.49 179.49 0 00-14.89-13.54c-4.75-4-9-7.6-12.38-10.85a84.89 84.89 0 01-7.55-8.15c-.82-1-1.43-1.84-1.82-2.41-.19-.26-.33-.48-.45-.65a1 1 0 01-.14-.22s.07.06.18.19l.49.62c.42.54 1.06 1.33 1.89 2.34a95 95 0 007.65 8c3.4 3.21 7.67 6.8 12.44 10.76a171.31 171.31 0 0115 13.54 59.8 59.8 0 0111.51 16.53 39.69 39.69 0 013.5 16.05 29.4 29.4 0 01-2 10.89c-.26.6-.5 1.13-.71 1.6s-.44.82-.6 1.13l-.39.68c-.17.16-.22.24-.23.23zM351 179s-.17-.13-.45-.42l-1.24-1.3c-1.05-1.14-2.6-2.76-4.56-4.73a185.45 185.45 0 00-33.75-27c-2.35-1.47-4.28-2.63-5.62-3.41l-1.53-.92a2.32 2.32 0 01-.52-.35 2.38 2.38 0 01.57.26l1.58.83c1.37.73 3.33 1.84 5.71 3.27A166.87 166.87 0 01345 172.25c1.92 2 3.43 3.67 4.44 4.85l1.16 1.37a2.6 2.6 0 01.4.53zM262.21 156a2.14 2.14 0 01.18-.51c.13-.32.35-.78.64-1.38.58-1.2 1.48-2.9 2.69-4.94a70.87 70.87 0 014.64-6.92 35.64 35.64 0 017.15-7.31 16.19 16.19 0 019.62-3.29 10.63 10.63 0 014.37 1.09 13.61 13.61 0 013.21 2.24 20.72 20.72 0 013.52 4.4c.34.57.59 1 .74 1.34a2.75 2.75 0 01.22.48s-.4-.61-1.14-1.71a22.57 22.57 0 00-3.58-4.24 13.83 13.83 0 00-3.16-2.12 10.34 10.34 0 00-4.19-1 15.87 15.87 0 00-9.31 3.24 36 36 0 00-7.07 7.17 82.63 82.63 0 00-4.71 6.82c-1.24 2-2.18 3.68-2.82 4.84l-.72 1.34a2.27 2.27 0 01-.28.46zM289.83 129.22h.71a4 4 0 01.83.11 6.58 6.58 0 011.08.25 11.83 11.83 0 012.64 1.15 13.86 13.86 0 012.77 2.2 13.67 13.67 0 012.07 2.88 11.6 11.6 0 011 2.69 7.5 7.5 0 01.2 1.09 4.41 4.41 0 01.07.83v.72c0 .01-.13-1-.59-2.54a13 13 0 00-1.09-2.56 14.86 14.86 0 00-2-2.75 15.39 15.39 0 00-2.64-2.15 13.56 13.56 0 00-2.52-1.21c-1.53-.54-2.54-.62-2.53-.71z"/>
            <path class="cls-2" d="M287.29 257.08l27.16 13.93 23.21-17.4-21.11 102.96-29.26-99.49z"/>
            <path class="cls-6"
                  d="M332.2 281.12a4.61 4.61 0 01-.65.45l-1.94 1.21c-1.74 1.06-4.15 2.52-7.08 4.28l-.18.11-.1-.18c-2.29-4.07-5.16-9.16-8.27-14.7h.46l-.45 1-7.15 15-.09.19-.2-.09-8.26-4-2.29-1.18a4.78 4.78 0 01-.78-.44 4.3 4.3 0 01.84.33l2.33 1 8.34 3.85-.29.1 7.07-15.05.46-1 .22-.46.24.44 8.18 14.76-.29-.08 7.18-4.13 2-1.11a3.66 3.66 0 01.7-.3z"/>
            <path class="cls-6"
                  d="M316.55 356.57a4.6 4.6 0 01-.06-.84c0-.61-.06-1.41-.09-2.43-.07-2.16-.16-5.19-.27-8.92-.26-7.58-.62-18-1-29.44s-.73-21.92-.86-29.46c-.07-3.77-.1-6.82-.1-8.93v-2.42a7 7 0 010-.85 5.06 5.06 0 01.07.84c0 .61.05 1.41.09 2.43.06 2.16.16 5.19.27 8.92.26 7.58.61 18 1 29.45s.72 21.91.86 29.45c.06 3.77.1 6.82.1 8.93v2.42a5 5 0 01-.01.85z"/>
        </g>
        <g id="Character_1">
            <circle class="cls-10" cx="95.14" cy="177.95" r="69.17"/>
            <path class="cls-3"
                  d="M92.53 128.41a5.3 5.3 0 015.47-2.77 7.24 7.24 0 018.91 0 6.44 6.44 0 019.78 5.12 5.38 5.38 0 014.83 9 5.17 5.17 0 01-2 10.09l-25.9-15.44a5.29 5.29 0 01-1.09-6z"/>
            <path class="cls-13"
                  d="M120.24 150.59a21.93 21.93 0 00-22.15-19.85h-1.13c-12.24.89-18.31 11.78-17.08 24l2.36 40.74.14 2 28.33 5.25-.19-10.39s11.75-2 11.72-13.77c-.01-5.69-.99-17.4-2-27.98z"/>
            <path class="cls-14" d="M110.62 192.31A28.53 28.53 0 0195.14 188s3.74 8.42 15.47 7.19z"/>
            <path class="cls-3"
                  d="M119 145.21s-3.21-7.33-6.79-9c-4.33-2-6.11 2.73-10.23 1.64s-8.25-3-12.4.21c-4.53 3.53-2.35 5.93-2.56 11.16-.84 21.19-4.62 27.23-5.86 17.27-.14-1.09-3.18-1.91-3.7-6.52-.67-6-1-13.24.27-17.51 1.08-3.6 3.08-6.1 6.7-8.88 5.72-4.39 13.65-4.6 19.05-4.13S119.39 136 119 145.21z"/>
            <path class="cls-13"
                  d="M81.94 166.17a3.21 3.21 0 00-3.5-3c-2.19.24-4.61 1.53-4.4 6.06.37 8 8.37 6 8.37 5.78s-.29-5.47-.47-8.84z"/>
            <path class="cls-14"
                  d="M80.52 172s-.14.11-.37.23a1.46 1.46 0 01-1 .07c-.87-.28-1.65-1.59-1.75-3a4.44 4.44 0 01.3-2 1.63 1.63 0 011-1.13.7.7 0 01.84.35c.12.22.08.38.12.39s.17-.14.09-.47a.88.88 0 00-.34-.49 1.09 1.09 0 00-.79-.17 2 2 0 00-1.4 1.32 4.75 4.75 0 00-.38 2.26c.12 1.62 1 3.1 2.2 3.38a1.5 1.5 0 001.27-.27c.2-.24.24-.47.21-.47z"/>
            <path class="cls-3"
                  d="M81.87 150.58a7.65 7.65 0 003.43 1.53 2.63 2.63 0 002.88-1.89c.09-.56-.06-1.21.3-1.65s1.25-.37 1.92-.31a5.14 5.14 0 005.28-3.76 2.17 2.17 0 002.9.23 11.64 11.64 0 002.15-2.38 3.33 3.33 0 012.74-1.42 7.87 7.87 0 001.76.36c1.06-.11 1.55-1.35 1.7-2.4s.25-2.28 1.14-2.86 1.9-.25 2.87-.12 2.23-.12 2.46-1.08a1.88 1.88 0 00-.38-1.45 5.21 5.21 0 00-6.18-1.88 7.06 7.06 0 00-13-1.18 7.16 7.16 0 00-11.42 2.78 5.2 5.2 0 00-5.75 7.64 4.94 4.94 0 00-2.66 4c0 1.66 1.64 3.3 3.24 2.84a2.88 2.88 0 005 2.79"/>
            <path class="cls-2"
                  d="M76.67 147.54a1.91 1.91 0 00.53 1.54 2.56 2.56 0 001.62.94 2.81 2.81 0 002.29-.7h-.34a7.84 7.84 0 001.63 2 4.61 4.61 0 001.48.89 3 3 0 001.62.13 3.16 3.16 0 002.3-1.37 4.6 4.6 0 00.63-1.68 1.42 1.42 0 000-.65s-.1.21-.22.61a5.64 5.64 0 01-.72 1.54 3.29 3.29 0 01-4.84.18 8 8 0 01-1.51-1.97l-.14-.23-.2.19a2.45 2.45 0 01-1.93.64 2.38 2.38 0 01-1.47-.74 4.08 4.08 0 01-.73-1.32zM91.61 128.94s.21.05.57.2a2.82 2.82 0 011.27 1.05l.09.15.11-.15A10 10 0 0197.5 127a7.64 7.64 0 013.15-.74 6.6 6.6 0 015.48 2.82 5.35 5.35 0 01.92 2.41v.25l.24-.07a4.52 4.52 0 013.35.36 4.35 4.35 0 011.86 1.94 6 6 0 01.54 2.37 1.64 1.64 0 00.09-.66 4.61 4.61 0 00-2.31-4 4.85 4.85 0 00-3.64-.46l.27.19a5.86 5.86 0 00-1-2.63 7.18 7.18 0 00-2.2-2 7 7 0 00-3.66-1 8.25 8.25 0 00-3.33.82 9.73 9.73 0 00-3.87 3.44h.2a2.67 2.67 0 00-1.43-1 1.11 1.11 0 00-.55-.1z"/>
            <path class="cls-11"
                  d="M140 215.12c-4.25-8.1-15.4-12.73-15.4-12.73l3.4 36.42c6.57-3.92 12.48-8 16.52-12.47.04 0-.32-3.11-4.52-11.22z"/>
            <path class="cls-11"
                  d="M129.68 207.77a11.38 11.38 0 01-.54 1.55c-.35.94-.82 2.25-1.27 3.72s-.81 2.82-1.06 3.8a14.42 14.42 0 01-.42 1.58 1.45 1.45 0 010-.44c0-.28.12-.68.22-1.18.21-1 .54-2.35 1-3.83s.95-2.78 1.34-3.71c.19-.47.36-.84.48-1.1a2.38 2.38 0 01.25-.39zM124.55 202.39l-14.32-3.66c-9.53 3.8-18.94 1.6-28.28-4.27l-24.63 10.43c-8 4.81-9.06 11.38-9.92 14.56l-1.95 6.46a57.63 57.63 0 0021 15c18.11 7.92 38.93 9.63 61.54-2.05z"/>
            <path class="cls-11"
                  d="M68.27 233.7c-.06 0-.12-2.24-.12-5s.06-5 .12-5 .12 2.25.12 5-.06 5-.12 5zM65.41 218.6a2.66 2.66 0 01-.18-.56c-.1-.37-.25-.89-.46-1.53a25.66 25.66 0 00-2.16-4.77 25.35 25.35 0 00-3.13-4.21c-.45-.5-.84-.89-1.11-1.15A2.17 2.17 0 0158 206a3.6 3.6 0 01.46.36c.3.25.7.62 1.17 1.1a22.05 22.05 0 015.32 9.05 15 15 0 01.4 1.55 4 4 0 01.06.54z"/>
            <path class="cls-10"
                  d="M164.31 178s0-.38-.06-1.12 0-1.85-.15-3.29a70.3 70.3 0 00-2-12.48 69.2 69.2 0 00-25.21-38 69 69 0 00-29-12.88 70.4 70.4 0 00-27 .32 74.28 74.28 0 00-9.21 2.63A69.05 69.05 0 0034 146.22a64.39 64.39 0 00-4.21 10 68.93 68.93 0 000 43.52 64.13 64.13 0 004.22 10 67.46 67.46 0 005.62 9.05 69.12 69.12 0 0032.05 24.05 73.94 73.94 0 009.22 2.63 70.16 70.16 0 0027 .31 68.78 68.78 0 0029-12.87 70.09 70.09 0 0017.55-19.61 66.76 66.76 0 004.81-9.73 68 68 0 002.84-8.67 70.09 70.09 0 002-12.47c.13-1.44.11-2.55.15-3.29l.06-1.12s0 1.52-.1 4.41a67.47 67.47 0 01-4.7 21.24 67 67 0 01-4.79 9.78 70.3 70.3 0 01-17.58 19.75 69.37 69.37 0 01-29.19 13 70.48 70.48 0 01-27.2-.28 75.5 75.5 0 01-9.29-2.64A69.61 69.61 0 0139.17 219a67.8 67.8 0 01-5.67-9.11 65.14 65.14 0 01-4.25-10 69.36 69.36 0 010-43.84 64.07 64.07 0 014.25-10 67.74 67.74 0 015.66-9.11 69.52 69.52 0 0132.29-24.19 73.78 73.78 0 019.3-2.75 70.48 70.48 0 0127.2-.28 69 69 0 0129.19 13 69.93 69.93 0 0117.57 19.74 67.14 67.14 0 014.8 9.79 67.49 67.49 0 014.7 21.23c.14 2.95.1 4.52.1 4.52z"/>
            <path class="cls-10"
                  d="M170.88 178s0-.42-.06-1.23 0-2-.16-3.6a77.57 77.57 0 00-2.17-13.66 74 74 0 00-3.11-9.5 72.81 72.81 0 00-5.27-10.65 76.48 76.48 0 00-19.22-21.48 75.48 75.48 0 00-31.81-14.1 74.69 74.69 0 00-19.48-1.07 75.74 75.74 0 00-10.12 1.41A81.1 81.1 0 0069.39 107a75.67 75.67 0 00-35.1 26.33 74.61 74.61 0 00-6.16 9.9c-.93 1.73-1.72 3.54-2.53 5.34s-1.48 3.68-2.08 5.58a76.11 76.11 0 00-3.87 23.83 81.83 81.83 0 001 12.15 72.71 72.71 0 002.87 11.68c.6 1.9 1.36 3.74 2.08 5.58s1.61 3.61 2.54 5.34a73 73 0 006.15 9.91 75.66 75.66 0 0035.11 26.34 79.36 79.36 0 0010.09 2.88 76.71 76.71 0 0029.6.35 75.3 75.3 0 0031.82-14.11 76.7 76.7 0 0019.21-21.47 73.31 73.31 0 005.27-10.65 74.13 74.13 0 003.11-9.51 77.49 77.49 0 002.17-13.65c.14-1.58.11-2.79.16-3.6s.06-1.23.06-1.23v1.23c0 .82 0 2-.11 3.6a75.26 75.26 0 01-10.4 33.95 76.65 76.65 0 01-19.24 21.62 75.56 75.56 0 01-32 14.24 76.75 76.75 0 01-29.77-.31 80.55 80.55 0 01-10.17-2.89 76.13 76.13 0 01-35.35-26.48 74.72 74.72 0 01-6.2-10c-.94-1.74-1.73-3.56-2.55-5.38s-1.49-3.7-2.1-5.61a74.12 74.12 0 01-2.9-11.77 82.91 82.91 0 01-1-12.23A76.79 76.79 0 0123 154c.61-1.92 1.37-3.77 2.1-5.62s1.62-3.63 2.56-5.37a73.71 73.71 0 016.2-10 76.19 76.19 0 0135.36-26.51 80.5 80.5 0 0110.17-2.88 75.84 75.84 0 0161.73 13.92 76.65 76.65 0 0119.24 21.62 73.11 73.11 0 015.25 10.71 73.64 73.64 0 015.15 23.24c.13 1.59.08 2.8.11 3.61s.01 1.28.01 1.28z"/>
        </g>
    </g>
</svg>