<svg xmlns="http://www.w3.org/2000/svg" viewBox="0 0 759 617.5">
    <defs>
        <style>
            .cls-2{fill:#354794}.cls-18,.cls-3,.cls-4{fill:none;stroke-miterlimit:10}.cls-3{stroke:#5532c4}.cls-4{stroke:#c0803d}.cls-5{fill:#fffeff}.cls-7{fill:#e0beaf}.cls-8{opacity:.02}.cls-9{opacity:.05}.cls-11{fill:#d1b3a7}.cls-13{fill:#e7eaef}.cls-14{fill:#3f494b}.cls-18{stroke:#2f1e7a;stroke-linecap:round;stroke-width:4px}
        </style>
    </defs>
    <g>
        <g>
            <path d="M759 231a64 64 0 00-64-64h-99.11A26 26 0 01570 140.82v-7.37A133.45 133.45 0 00436.55 0h-303.1A133.45 133.45 0 000 133.45v7.1A133.45 133.45 0 00133.45 274S165 272 162 302.5a2.43 2.43 0 000 .27A22.63 22.63 0 01139.26 325H65a65 65 0 00-65 65 65 65 0 0065 65 57 57 0 0157 57v9.72A95.28 95.28 0 00217.28 617h405.9A132.83 132.83 0 00756 484.18v-2.45a130.25 130.25 0 00-126.49-130.2c-13.81-.4-22.86-.78-22.51-1.11a29.49 29.49 0 01-17.44-26.92c0-11.71 9.56-21.73 19.44-26.5-.77-.67 86-2 86-2a64 64 0 0064-64z"
                  fill="#c7b7fa"/>
            <path class="cls-2" d="M414.5 161.5h28v90h-28z"/>
            <path class="cls-3" transform="rotate(-12.01 211.201 264.188)" d="M59 59h304.5v410.5H59z"/>
            <path class="cls-3" transform="rotate(-12.01 212.817 265.271)" d="M74.78 72.87h276.14v384.84H74.78z"/>
            <path class="cls-3" transform="rotate(-12.01 144.533 319.122)" d="M99.35 311.05h90.47v16.2H99.35z"/>
            <path class="cls-3" transform="rotate(-12.01 149.163 340.899)" d="M103.98 332.85h90.47v16.2h-90.47z"/>
            <path class="cls-3" transform="rotate(-12.01 153.667 362.037)" d="M108.48 353.98h90.47v16.2h-90.47z"/>
            <path class="cls-3" transform="rotate(-12.01 157.879 381.848)" d="M112.69 373.79h90.47v16.2h-90.47z"/>
            <path class="cls-3" transform="rotate(-12.01 162.09 401.658)" d="M116.91 393.6h90.47v16.2h-90.47z"/>
            <path class="cls-3" transform="rotate(-12.01 166.302 421.468)" d="M121.12 413.41h90.47v16.2h-90.47z"/>
            <path class="cls-3" transform="rotate(-12.01 171.225 444.573)" d="M126.04 436.53h90.47v16.2h-90.47z"/>
            <path class="cls-3" transform="rotate(-12.01 266.664 137.142)" d="M221.47 129.08h90.47v16.2h-90.47z"/>
            <path class="cls-3" transform="rotate(-12.01 271.289 158.967)" d="M226.11 150.87h90.47v16.2h-90.47z"/>
            <path class="cls-3" transform="rotate(-12.01 275.798 180.058)" d="M230.6 172h90.47v16.2H230.6z"/>
            <path class="cls-3" transform="rotate(-12.01 280.01 199.868)" d="M234.82 191.81h90.47v16.2h-90.47z"/>
            <path class="cls-3" transform="rotate(-11.5 284.038 215.099)" d="M239.03 211.63h90.47v16.2h-90.47z"/>
            <path class="cls-3" transform="rotate(-12.01 288.433 239.489)" d="M243.24 231.44h90.47v16.2h-90.47z"/>
            <path class="cls-3" transform="rotate(-12.01 293.356 262.594)" d="M248.16 254.55h90.47v16.2h-90.47z"/>
            <path class="cls-3" transform="rotate(-12.01 286.39 354.853)" d="M215.89 284.35H357v141.11H215.89z"/>
            <path class="cls-3" transform="rotate(-11.5 237.479 378.474)" d="M232.98 357.66h5.4v52.66h-5.4z"/>
            <path class="cls-3" transform="rotate(-12.01 245.767 371.437)" d="M241.41 335.03h8.78v72.92h-8.78z"/>
            <path class="cls-3" transform="rotate(-12.01 338.187 351.748)" d="M333.86 315.36h8.78v72.92h-8.78z"/>
            <path class="cls-3" transform="rotate(-12.01 259.401 378.879)" d="M256.08 352.6h6.75v52.66h-6.75z"/>
            <path class="cls-3" transform="rotate(-12.01 269.333 376.751)" d="M266.66 350.5h5.4v52.66h-5.4z"/>
            <path class="cls-3" transform="rotate(-12.01 279.441 364.262)" d="M275.09 327.86h8.78v72.92h-8.78z"/>
            <path class="cls-3" transform="rotate(-12.01 293.076 371.704)" d="M289.76 345.44h6.75v52.66h-6.75z"/>
            <path class="cls-3" transform="rotate(-12.01 303.645 369.452)" d="M301 343.19h5.4v52.66H301z"/>
            <path class="cls-3" transform="rotate(-12.01 313.753 356.963)" d="M309.43 320.56h8.78v72.92h-8.78z"/>
            <path class="cls-3" transform="rotate(-12.01 327.435 364.41)" d="M324.1 338.14h6.75v52.66h-6.75z"/>
            <path class="cls-3" transform="rotate(-12.01 148.712 225.032)" d="M79.87 155.54H217.6v139.08H79.87z"/>
            <ellipse class="cls-3" cx="148.4" cy="225.16" rx="47.26" ry="50.3"
                     transform="rotate(-12.01 148.364 225.14)"/>
            <rect class="cls-3" x="109.75" y="99.99" width="141.11" height="31.06" rx="14"
                  transform="rotate(-12.01 180.273 115.512)"/>
            <rect class="cls-4" x="491" y="446" width="197" height="113" rx="21.13"
                  transform="rotate(14.45 589.427 502.39)"/>
            <path class="cls-4" transform="rotate(14.45 540.845 496.607)" d="M515.91 471.69h50v50h-50z"/>
            <path class="cls-4"
                  d="M502.97 443.55l190.77 49.15M592.6 492.46l73.6 18.96M590.34 503.23l73.6 18.97M587.6 513.89l73.6 18.96M583.89 524.29l73.59 18.96"/>
            <path class="cls-5"
                  d="M535 423c-4.83-10.08-7.18-36-12.18-52s-6-43-11-61-42-30-42-30c-3.82-1.53-10.73-2.85-13.79-3.4l-55.53-14.1-50-7.41s1 11.41-10 14.41c-6.62 1.81-24.31 1.87-36.18 5.84S294 277 289 279c0 0-37 12-42 30s-6 45-11 61-16 47-18 58 0 34.05 2 38 25.73 12.23 37 8c16-6 26.39-75.5 35-91 .35 11 16.05 67.37 16.5 70.5 2 14-9 35-13 44s-14 36-4 56c6.65 13.3 17 18 78 14s97-10 100-14 12-28 0-52-21.55-33.73-20-47c.33-2.83 20.38-55.57 20.5-61.5-2 28 12.7 77.85 16 85 6 13 23.61 20.61 28 20 36-5 28.18-60 21-75z"/>
            <ellipse cx="318" cy="187" rx="10" ry="13" stroke="#000" fill="none" stroke-miterlimit="10"/>
            <path class="cls-2"
                  d="M332.9 96c-7.61-.8-30.4 4.51-41.4 30.51-8.19 19.36 21 73 12 99s-22.66 27.18-17 47c2 7 48-.5 48-.5l22-11.5-9-163z"/>
            <ellipse class="cls-7" cx="378.5" cy="187.5" rx="58.5" ry="67.5"/>
            <path class="cls-2"
                  d="M338 96s21.5 30.5 29.5 34.5 39-2 39-2-51 10.62-58.75 10.06-13 1.15-12.87 9.29-4.38 18.65-9.38 17.65c-2.16-.43 2.5 16.5-1.5 17.5l-4 1s-6-35-5-39 23-49 23-49z"/>
            <path class="cls-8"
                  d="M248.5 403.5c30 24 24 57.47 13.05 62.13s-27.39-9.42-36.77-31.43-8.14-43.64 2.78-48.3 2.25 2.65 20.94 17.6z"/>
            <path class="cls-9"
                  d="M438.5 187c0-31.09-18.89-57.26-44.59-65.09L382 130.77a245.54 245.54 0 0023.33 27.73c14.51 15 17.6 19.34 20.17 25 5 11 5 16 3.67 32-1.9 22.9-17.62 27-17.62 27l2.07-1c15.08-12.28 24.88-32.11 24.88-54.5z"/>
            <path d="M334.66 96c1.34-1 11.84-22.5 44.84-22.5s52 10 67 35 25 58 4 100c-20.6 41.21 12 76 12 76s-48.06-23.85-54-23c-28 4 27-5 29-81-32-7-37-51-37-51-29.29 17.27-56.5 6.5-61.5-7.5a73.59 73.59 0 01-4.34-26z"
                  fill="#4764bf"/>
            <path class="cls-2"
                  d="M434.5 208.5s-8 39 1 48 31 21 37 44c3.21 12.3-12.47 24.89-27.74 33.94a19 19 0 01-28.5-18.2 66.91 66.91 0 018.24-26.74c12.29-21.31-35.38-22.64-57-35a57.16 57.16 0 0028-3c18-7 31-20 34-29 3.22-9.67 5-14 5-14z"/>
            <path class="cls-11"
                  d="M347.5 244.75s3 8.75 1 14.75c-1.53 4.58-9.21 9.63-12.5 11.62a1.14 1.14 0 000 1.93c2.85 1.81 10.16 5.62 24.72 8.51 19.81 3.94 32.34 2.06 40.08 0 6-1.61 13.43-6.21 16.4-8.17a1.09 1.09 0 000-1.8c-3.28-2.35-11.78-8.77-13.09-12.92-1.62-5.17 3.38-13.17 3.38-13.17s-15 9.28-29 9-30.99-9.75-30.99-9.75z"/>
            <path class="cls-2"
                  d="M400.77 129.52s-27.55 12.89-36.78 5.75-20.47-16.7-5.43-26.32 28.55-5.23 31.87-2.23 10.34 22.8 10.34 22.8z"/>
            <path class="cls-5"
                  d="M218.53 369.74a26.08 26.08 0 00-23.2 46.61l.62.34a14.53 14.53 0 017.5 12.22 60.07 60.07 0 007 24.64c11 21 30.83 32.32 44.36 25.26S270.39 449 259.42 428a59.91 59.91 0 00-16.48-20 22.21 22.21 0 01-8.63-16.15 26.05 26.05 0 00-15.78-22.11z"/>
            <path fill="#2d3f77" d="M291 570.11v47.39h184.04L471 566.55l-180 3.56z"/>
            <path class="cls-13"
                  d="M465.83 571.87l-61.33 9.61a179.88 179.88 0 01-50.87.69l-57.46-7.39a5.24 5.24 0 01-5.17-5.32v-9.74a5.24 5.24 0 015.17-5.32l57.46 7.4a180.25 180.25 0 0050.87-.7l61.33-9.61a5.24 5.24 0 015.17 5.32v9.74a5.24 5.24 0 01-5.17 5.32z"/>
            <path class="cls-4"
                  d="M607.28 160.75c-.45-.59-1.15-1.5-1.83-2.43a5.14 5.14 0 01-.19-6.3 10.54 10.54 0 012.17-2c1.29-1 2.66-2 4-3a5.34 5.34 0 017.37.78c.69.89 1.4 1.77 2.08 2.67a5.06 5.06 0 005.51 1.9 5 5 0 003.68-4.15c.13-1 .26-2.07.43-3.1a5.41 5.41 0 016.22-4.57l6.39.85a5.27 5.27 0 014.59 6.2c-.18 1.11-.39 2.23-.47 3.35a5.09 5.09 0 008.16 4.23c1-.74 2-1.48 3-2.19a4.64 4.64 0 016 .75c1.63 2 3.24 4.06 4.76 6.15a4.9 4.9 0 01-1.2 7.11 25.75 25.75 0 00-2.87 2.32 4.8 4.8 0 00-1.09 5.33 4.64 4.64 0 004 3.16c1 .15 2.07.27 3.11.4a5.28 5.28 0 014.57 5.66c-.25 2.41-.57 4.81-1 7.2-.49 2.89-3.23 5-6.75 4.3a23.8 23.8 0 00-2.8-.35 5 5 0 00-5.08 6.26 9.69 9.69 0 001.23 2.42 21.44 21.44 0 001.59 2.1 5.21 5.21 0 01.14 6.13 15.75 15.75 0 01-2.29 2.18c-1.25 1-2.57 1.94-3.86 2.89a5.31 5.31 0 01-7.51-.86c-.7-.83-1.35-1.71-2-2.58a5 5 0 00-5.27-1.92 4.91 4.91 0 00-3.87 4.32c-.11.95-.25 1.91-.39 2.86a5.42 5.42 0 01-6.27 4.65c-2.07-.29-4.13-.6-6.21-.83a5.33 5.33 0 01-4.74-6.26 18.88 18.88 0 00.38-4 4.51 4.51 0 00-2.95-4.08 4.88 4.88 0 00-5.11.54c-1 .7-1.93 1.47-2.92 2.16a5.36 5.36 0 01-7.53-1.57c-1-1.47-2.15-2.88-3.24-4.31a5.22 5.22 0 010-7 17.15 17.15 0 012.65-2.19 6.73 6.73 0 002.22-2.4 5 5 0 00-3.78-7.25c-1-.17-2.11-.27-3.16-.44a5.23 5.23 0 01-4.52-6.08q.45-3.19.91-6.39a5.45 5.45 0 016.17-4.73c1 .12 2 .26 3 .39a4.78 4.78 0 004.62-1.9 5.19 5.19 0 00-.05-6.38zm12.14 30.58a17.39 17.39 0 105.31-24 17.35 17.35 0 00-5.31 24z"/>
            <path class="cls-3"
                  d="M621.38 245.91l-.91-1.21a2.54 2.54 0 01-.09-3.12 5.24 5.24 0 011.08-1c.63-.51 1.31-1 1.95-1.47a2.66 2.66 0 013.66.38c.34.44.69.88 1 1.33a2.54 2.54 0 002.73.94 2.47 2.47 0 001.83-2.06c.06-.51.13-1 .21-1.54a2.68 2.68 0 013.08-2.26l3.17.42a2.61 2.61 0 012.28 3.07c-.09.55-.2 1.11-.24 1.66a2.43 2.43 0 002 2.56 2.46 2.46 0 002-.46c.49-.37 1-.74 1.47-1.09a2.3 2.3 0 013 .38c.81 1 1.61 2 2.36 3a2.44 2.44 0 01-.59 3.53 13.24 13.24 0 00-1.43 1.14 2.38 2.38 0 00-.53 2.65 2.28 2.28 0 002 1.56c.51.08 1 .14 1.54.2a2.62 2.62 0 012.26 2.81 48.56 48.56 0 01-.49 3.57 2.71 2.71 0 01-3.34 2.13 10.78 10.78 0 00-1.39-.18 2.48 2.48 0 00-2.52 3.1 4.74 4.74 0 00.61 1.21 9.71 9.71 0 00.79 1 2.6 2.6 0 01.07 3.05 8.36 8.36 0 01-1.14 1.08c-.62.49-1.27 1-1.91 1.43a2.63 2.63 0 01-3.72-.43c-.35-.41-.67-.85-1-1.28a2.52 2.52 0 00-4.53 1.19c0 .47-.12.94-.19 1.42a2.69 2.69 0 01-3.11 2.3c-1-.14-2-.3-3.07-.41a2.65 2.65 0 01-2.36-3.1 9.05 9.05 0 00.2-2 2.24 2.24 0 00-1.47-2 2.44 2.44 0 00-2.53.27c-.49.35-.95.73-1.45 1.07A2.65 2.65 0 01619 270c-.51-.73-1.06-1.43-1.61-2.14a2.6 2.6 0 010-3.47 7.61 7.61 0 011.31-1.08 3.45 3.45 0 001.11-1.2 2.5 2.5 0 00-1.88-3.59c-.52-.08-1-.13-1.57-.21a2.6 2.6 0 01-2.23-3c.14-1 .29-2.11.44-3.17a2.71 2.71 0 013.06-2.34l1.48.19a2.38 2.38 0 002.3-.94 2.56 2.56 0 00-.03-3.14zm6 15.15a8.62 8.62 0 102.62-11.91 8.6 8.6 0 00-2.6 11.91zM685 200.32c-.22-.29-.57-.74-.91-1.2A2.54 2.54 0 01684 196a5.19 5.19 0 011.07-1c.64-.51 1.32-1 2-1.48a2.64 2.64 0 013.65.38c.34.45.7.88 1 1.33a2.5 2.5 0 002.73.94 2.47 2.47 0 001.83-2.05c.06-.52.13-1 .21-1.54a2.69 2.69 0 013.08-2.27l3.17.43a2.62 2.62 0 012.28 3.07c-.09.55-.2 1.1-.24 1.66a2.52 2.52 0 004 2.09c.49-.36 1-.73 1.47-1.08a2.3 2.3 0 013 .37c.81 1 1.6 2 2.36 3a2.42 2.42 0 01-.6 3.52 12.09 12.09 0 00-1.42 1.15 2.4 2.4 0 00-.54 2.65 2.33 2.33 0 002 1.56l1.54.2a2.61 2.61 0 012.27 2.8c-.12 1.2-.28 2.39-.49 3.57a2.72 2.72 0 01-3.35 2.13 12.68 12.68 0 00-1.38-.17 2.47 2.47 0 00-2.52 3.1 4.68 4.68 0 00.61 1.2 9.82 9.82 0 00.79 1 2.6 2.6 0 01.07 3 7.79 7.79 0 01-1.14 1.08c-.62.5-1.27 1-1.91 1.43a2.63 2.63 0 01-3.72-.43c-.35-.41-.67-.84-1-1.27a2.48 2.48 0 00-2.61-1 2.44 2.44 0 00-1.92 2.15c-.06.47-.12.94-.19 1.41a2.69 2.69 0 01-3.11 2.31c-1-.14-2.05-.3-3.08-.41a2.65 2.65 0 01-2.35-3.11 8.93 8.93 0 00.19-2 2.22 2.22 0 00-1.46-2 2.42 2.42 0 00-2.53.27c-.49.35-1 .72-1.45 1.07a2.65 2.65 0 01-3.73-.78c-.51-.73-1.06-1.43-1.61-2.13a2.59 2.59 0 010-3.47 8.15 8.15 0 011.31-1.09 3.3 3.3 0 001.1-1.19 2.5 2.5 0 00-1.87-3.59l-1.57-.22a2.6 2.6 0 01-2.24-3l.45-3.17a2.69 2.69 0 013.06-2.34l1.48.19a2.38 2.38 0 002.29-.94 2.57 2.57 0 00.02-3.01zm6 15.16a8.62 8.62 0 102.64-11.92 8.61 8.61 0 00-2.64 11.92z"/>
            <ellipse class="cls-13" cx="200.51" cy="379.27" rx="17.75" ry="11.5"
                     transform="rotate(-23.09 200.532 379.305)"/>
            <path class="cls-14" transform="rotate(-55.6 173.603 282.135)" d="M171.61 275.64h4v13h-4z"/>
            <rect x="160.72" y="270.91" width="52" height="101" rx="4.97" transform="rotate(-55.6 186.702 321.4)"
                  fill="#1b2a54"/>
            <rect x="137.18" y="306.78" width="12" height="6" rx="1.5" transform="rotate(-55.6 143.17 309.768)"
                  fill="#fff"/>
            <circle class="cls-14" cx="141.48" cy="312.25" r="2"/>
            <circle class="cls-14" cx="144.44" cy="308.82" r="1.5"/>
            <path class="cls-7"
                  d="M198.63 380.72a9.56 9.56 0 01-8.73-3c-7.49-8.16-24.23-26.47-24.61-27.38-.49-1.18-6.36-15.37-6.65-19.4s.51-27.2 1.55-29.71 2.83-11.55 5.13-7.66-.62 26.92.48 29.56c2.93 7.1 3.77 7.44 5.93 9.32 2.46 2.13 2.64 3.05 2.07-5s-.22-8.9 2.2-14.75a54.88 54.88 0 017.62-12.17c.78-1 3.43 2.06.66 8.75s-3.53 13.23-2.58 18 7.38 16.21 7.44 10.88.46-11 3-14.86 6.4-9.75 8.16-12.12 4.27-1.33 3.72 2.35-6 12.19-7.41 15.53a16.65 16.65 0 000 11.76c1.46 3.54 4.11 6.6 5.93 9.31s3.22 11.13 4 16.34a23.07 23.07 0 01-.08 6 9.55 9.55 0 01-7.86 8.18z"/>
            <path class="cls-9"
                  d="M404.07 253.91a29.51 29.51 0 013.43-8.41s-15 9.28-29 9-31-9.75-31-9.75a36.31 36.31 0 011.66 8.81c6.5 3 16.55 4.94 27.84 4.94 10.85 0 20.56-1.78 27.07-4.59z"/>
            <path class="cls-8"
                  d="M528.5 397.5s-1-10.09-2-10c-3.56.32-4.68 17.46-15 33-8 12-21.12 29.05-24 13-6.59-36.7-10.93-120.64-13-147.59a6.78 6.78 0 00-4.66-5.91c-.4-.16-.85-.32-1.32-.48v-.13a99.51 99.51 0 00-12.52-2.92l-27.43-7c-.06 0-11 4-11.1 4l-17 8c-16.65 4-31 2-48-2-7.85-1.85-17.95-8-18-8l-14 4c-1 .32-.31 4.71.47 5.4 0 0 71.87 99.74 56.53 117.6-19.4 22.59-69.49 19.14-76.39 26.08 3.71 14.48 7.15 27.33 7.39 28.77 2 12.14-9.62 37.28-9 36.14 6.29-11.61 24.8-49.8 35.66-53.14 13-4 66.16-7 82.58 0s50.76 66 50.76 66v-3c-11.52-22.57-20.51-32.13-19-45 .28-2.36 14.32-39.58 19-55.21 0 0 1.49-5.74 1.5-6.15-1.51 21.21 6.55 54.94 12 73.17 3.51 11.33 5.73 15.2 9.51 20.33a85 85 0 0013.41 8.92c2.74-1.81 3.81-8.51 3.41-18.8 8.92-4.28 18.51-15.53 24.87-30.42 9.4-21.98 6.25-44-4.67-48.66z"/>
            <path class="cls-5"
                  d="M537.17 386.74a26.08 26.08 0 0123.2 46.61l-.61.34a14.51 14.51 0 00-7.51 12.22 59.91 59.91 0 01-7 24.64c-11 21-30.83 32.32-44.35 25.26S485.31 466 496.29 445a59.67 59.67 0 0116.48-20 22.2 22.2 0 008.62-16.15 26.09 26.09 0 0115.78-22.11z"/>
            <ellipse class="cls-13" cx="555.19" cy="396.27" rx="11.5" ry="17.75"
                     transform="rotate(-66.91 555.172 396.272)"/>
            <path class="cls-7"
                  d="M546.31 390.29c-2.07-2.57-6.64-9-5.85-15.35 1-8.12-4-9.71 1.46-13.38s14.28-9.06 18.16-16.62 11.38-36.39 15.83-40.86 9.6-6.42 9.49-2.88-8.3 29.87-9.67 33.76-1.69 11.56 4.93 2.17 13-17.5 15.45-19.46 8.3-1.4 5.8 5.24-15.41 20.73-16.55 23.47-1.09 5.36 1.81 5.83 6.21 1.71 5.42 5.71.48 5.15 1 7.78 1.43 1-3.37 7.21-11.14 18.82-18.83 23c-8.89 6.59-23.27-3.35-25.08-5.62z"/>
            <path class="cls-11"
                  d="M573 362.5l12.56-9.57a4.76 4.76 0 115.77 7.56 4.94 4.94 0 01-.93.55l-14.4 6.49a2.95 2.95 0 01-3-5z"/>
            <path class="cls-11"
                  d="M577.47 366.79l12.17-4.46a3.9 3.9 0 112.69 7.32 3.82 3.82 0 01-.86.2l-12.87 1.6a2.41 2.41 0 01-1.13-4.66zM541.3 362l6.07-5.63c1-.93 2.06-1.85 3.13-2.78a39.76 39.76 0 013.63-2.79 11.79 11.79 0 011.33-.74 7.33 7.33 0 011-.4 4.59 4.59 0 012.06-.12 4.22 4.22 0 011.17.39l.27.17a5 5 0 01.5.31l.89.61 3.3 2.34c2.17 1.54 4.36 3 6.61 4.41a2.69 2.69 0 11-2.82 4.59c-2.19-1.43-4.47-2.75-6.78-4-1.17-.59-2.33-1.19-3.48-1.7-.29-.14-.57-.26-.84-.37l-.37-.15-.17-.05.15.07a3.28 3.28 0 00.56.16 2.7 2.7 0 001.09 0h.13c-.03 0-.17.16-.32.31a22.46 22.46 0 00-2.22 2.51c-.77 1-1.5 2-2.22 3a69.9 69.9 0 00-4 6.55 5.55 5.55 0 11-9.79-5.23 5.65 5.65 0 011.11-1.44z"/>
            <path d="M357.5 226.5a58.77 58.77 0 017.12-2.64c1.88-.36 5.05-1.52 8-.44s4.92 2.08 4.92 2.08a26.61 26.61 0 013-2c2-1 7.63-.68 9 0 2 1 7.22 3 7.22 3s-7.18 13-19.22 13-20.04-13-20.04-13z"
                  fill="#2f1e7a"/>
            <path class="cls-7" d="M362.5 228.5s11-1 15-1 13.75 1 13.75 1-8.75 5.13-13.75 5.07-15-5.07-15-5.07z"/>
            <path class="cls-18"
                  d="M392.5 182.5A24.32 24.32 0 01407 178c7 0 12.73 4.75 12.73 4.75M339.5 181.5A24.32 24.32 0 01354 177c7 0 12.73 4.75 12.73 4.75"/>
        </g>
    </g>
</svg>