<svg viewBox="0 0 498.02 498.02" xmlns="http://www.w3.org/2000/svg"><path d="M489.435 400.001A31.612 31.612 0 00497 379.443c0-17.532-14.212-31.744-31.745-31.744-16.504 0-30.061 12.595-31.595 28.697a26.798 26.798 0 00-4.898-.457c-10.716 0-19.951 6.319-24.198 15.43-3.563-4.091-8.796-6.689-14.647-6.689-5.914 0-11.2 2.651-14.764 6.818-4.723-7.509-13.077-12.503-22.603-12.503-12.12 0-22.344 8.082-25.598 19.149-34.218-27.315-45.752-183.153-45.752-183.153h-56.939s-13.192 162.21-53.216 188.577c-1.081-13.749-12.568-24.572-26.594-24.572-9.526 0-17.88 4.994-22.603 12.503-3.564-4.168-8.851-6.818-14.764-6.818-5.851 0-11.084 2.598-14.647 6.689-4.247-9.112-13.482-15.43-24.198-15.43-1.674 0-3.309.162-4.898.457-1.534-16.102-15.092-28.697-31.596-28.697C14.212 347.699 0 361.912 0 379.444a31.614 31.614 0 007.565 20.558C2.931 404.056 0 410.009 0 416.651c0 12.216 9.903 22.12 22.12 22.12h452.76c12.217 0 22.12-9.903 22.12-22.12 0-6.642-2.931-12.595-7.565-16.65z" fill="#ec9257"/><path d="M313.87 380.449l.247-.084c-24.33-49.383-32.916-165.375-32.916-165.375h-30s6.865 92.753 25.714 147.687c5.218 15.208 21.752 23.005 36.955 17.772zM489.435 400.001c5.153-6.055 8.08-14.064 7.49-22.766-1.077-15.888-14.12-28.687-30.024-29.494a31.63 31.63 0 00-16.639 3.725C460.225 356.822 467 367.34 467 379.444c0 3.579-.594 7.019-1.687 10.228-2.095 6.147-2.214 12.856.163 18.899a22.034 22.034 0 011.524 8.08c0 12.216-9.903 22.12-22.12 22.12h29.491c12.03 0 22.245-9.392 22.618-21.417.215-6.924-2.757-13.156-7.554-17.353z" fill="#eb8949"/><path d="M455.468 145.771c.01-.429.033-.855.033-1.286 0-29.981-24.304-54.285-54.285-54.285a54.009 54.009 0 00-28.795 8.274c-5.702-17.812-22.388-30.711-42.092-30.711-13.378 0-25.359 5.953-33.464 15.345-10.853-14.484-28.154-23.858-47.647-23.858-19.492 0-36.794 9.374-47.647 23.858-8.104-9.392-20.085-15.345-33.463-15.345-18.529 0-34.385 11.408-40.953 27.579a54.065 54.065 0 00-23.066-5.141c-29.981 0-54.285 24.304-54.285 54.285 0 .431.022.857.033 1.286-24.338 5.364-42.552 27.048-42.552 52.998 0 .474.024.956.036 1.427.752 29.325 24.742 52.858 54.249 52.858 8.017 0 15.62-1.752 22.469-4.872 8.072 13.609 22.903 22.738 39.874 22.738 19.175 0 35.629-11.648 42.674-28.255a46.256 46.256 0 0014.83 2.439c13.388 0 25.442-5.685 33.9-14.764a47.543 47.543 0 006.773 5.986s16.245-1.066 26.409-1.066c9.457 0 19.501-1.194 26.832-6.058 2.754 2.959 8.794 15.917 8.794 15.917a46.081 46.081 0 0024.593 7.066 46.1 46.1 0 0024.526-7.029c9.135 17.113 27.161 28.764 47.915 28.764 18.686 0 35.164-9.443 44.93-23.815a54.174 54.174 0 0017.645 2.949c29.981 0 54.285-24.304 54.285-54.285a53.937 53.937 0 00-10.031-31.418c-7.669-10.769-19.174-18.639-32.52-21.581z" fill="#efc277"/><path d="M447.613 116.293a54.46 54.46 0 00-2.149-3.235c.012.476.036.949.036 1.427 0 .431-.023.857-.033 1.286.722.159 1.437.335 2.146.522zM487.989 167.352c.012.472.031.943.031 1.418 0 29.981-24.304 54.285-54.285 54.285-1.583 0-3.149-.069-4.697-.203-7.812-.677-15.647 1.776-21.46 7.038-9.63 8.719-22.403 14.031-36.417 14.031-14.603 0-27.855-5.768-37.609-15.148-6.805-6.544-16.382-9.372-25.636-7.503-2.972.6-6.047.915-9.196.915a46.084 46.084 0 01-23.048-6.137c-6.949-3.996-15.202-5.322-22.866-2.972a46.256 46.256 0 01-13.587 2.028 46.092 46.092 0 01-20.826-4.939 29 29 0 00-26.15 0 46.092 46.092 0 01-20.826 4.939l-.242-.001a29.645 29.645 0 00-22.47 10.084c-8.491 9.646-20.93 15.732-34.79 15.732-11.707 0-22.395-4.344-30.549-11.506-6.552-5.755-15.27-8.2-23.899-6.934a54.375 54.375 0 01-7.895.574c-18.265 0-34.41-9.029-44.249-22.858.759 29.319 24.747 52.858 54.249 52.858a54.06 54.06 0 0022.47-4.872c8.072 13.609 22.903 22.738 39.874 22.738 19.175 0 35.629-11.648 42.674-28.255a46.25 46.25 0 0014.829 2.439c13.388 0 25.442-5.685 33.9-14.764 8.459 9.079 20.513 14.764 33.901 14.764 9.458 0 18.248-2.84 25.58-7.704 8.46 9.091 20.523 14.785 33.921 14.785a46.1 46.1 0 0024.526-7.029c9.134 17.114 27.161 28.764 47.915 28.764 18.685 0 35.164-9.443 44.93-23.815a54.28 54.28 0 0022.282 2.753c26.8-2.26 48.125-24.246 49.568-51.102.688-12.854-3.11-24.787-9.953-34.403z" fill="#f2aa62"/></svg>