<svg viewBox="0 0 64 64" xmlns="http://www.w3.org/2000/svg" data-name="Layer 3"><circle cx="32" cy="32" fill="#8f6af4" r="30"/><circle cx="32" cy="32" fill="#f0ae42" r="22"/><path d="M51 31a22 22 0 00-13.566-20.322 22 22 0 00-13.868 41.644A22.013 22.013 0 0051 31z" fill="#f9d266"/><path d="M50 32l-4.343 4.343A19.315 19.315 0 0132 42a19.315 19.315 0 01-13.657-5.657L14 32l4.343-4.343A19.315 19.315 0 0132 22a19.315 19.315 0 0113.657 5.657z" fill="#f2f2f2"/><path d="M37.435 26.588a7 7 0 11-10.87 0A25.386 25.386 0 0132 26a25.386 25.386 0 015.435.588z" fill="#686868"/><path d="M50 32l-6.633-3.317A25.428 25.428 0 0032 26a25.428 25.428 0 00-11.367 2.683L14 32l4.343-4.343A19.315 19.315 0 0132 22a19.315 19.315 0 0113.657 5.657z" fill="#f2b9a1"/><circle cx="32" cy="31" fill="#474747" r="3"/><g fill="#fce797"><path d="M31 14h2v5h-2zM38.287 20.295l3.535-3.535 1.414 1.414-3.535 3.535zM20.753 18.175l1.414-1.414 3.535 3.535-1.414 1.414z"/></g></svg>