<svg viewBox="0 0 497 497" xmlns="http://www.w3.org/2000/svg"><path d="M125.384 365.547C76.534 328.376 45 269.62 45 203.5 45 91.11 136.11 0 248.5 0S452 91.11 452 203.5c0 66.02-31.439 124.697-80.162 161.877L249 375.462z" fill="#e592d0"/><path d="M406.62 331.62a205.045 205.045 0 01-34.78 33.76L249 375.46l-123.62-9.91C76.53 328.38 45 269.62 45 203.5c0-63.83 29.39-120.8 75.38-158.12C92.01 80.36 75 124.94 75 173.5c0 61.175 26.99 116.05 69.717 153.354 6.443 5.625 14.541 9.007 23.067 9.69l6.918.555a1290.035 1290.035 0 00208.581-.196l18.557-1.523c1.61-1.23 3.2-2.48 4.78-3.76z" fill="#e172c1"/><path d="M130 365h238c11.046 0 20 8.954 20 20v46l-137.436 10L110 431v-46c0-11.046 8.954-20 20-20z" fill="#365f7e"/><path d="M100 431h298c11.046 0 20 8.954 20 20v36c0 5.523-4.477 10-10 10H90c-5.523 0-10-4.477-10-10v-36c0-11.046 8.954-20 20-20z" fill="#365f7e"/><path d="M100 487v-31a5 5 0 015-5h313c0-11.05-8.95-20-20-20H100c-11.046 0-20 8.954-20 20v36c0 5.523 4.477 10 10 10h20c-5.52 0-10-4.48-10-10z" fill="#2c4d66"/><path d="M302.603 67.618l13.371 22.429a4.997 4.997 0 003.288 2.337l25.577 5.257c3.754.772 5.28 5.307 2.755 8.191l-17.2 19.647a5.002 5.002 0 00-1.207 3.85l2.904 25.95c.426 3.809-3.416 6.662-6.939 5.152l-24.001-10.286a5 5 0 00-4.034.042l-23.783 10.781c-3.491 1.583-7.391-1.19-7.044-5.007l2.366-26.005a5.005 5.005 0 00-1.286-3.824l-17.603-19.287c-2.584-2.831-1.152-7.397 2.585-8.246l25.463-5.785a4.998 4.998 0 003.239-2.405l12.904-22.701c1.897-3.333 6.682-3.382 8.645-.09z" fill="#f8e837"/><path d="M284.14 124.73l-2.74 32.59-8.06 3.65c-3.49 1.58-7.39-1.19-7.05-5.01l2.37-26c.13-1.4-.34-2.79-1.29-3.83l-17.6-19.28c-2.58-2.84-1.15-7.4 2.59-8.25l8.64-1.96 21.81 24.12a5.213 5.213 0 011.33 3.97z" fill="#f3d332"/><path d="M214.243 166.173l9.216 15.46a3.449 3.449 0 002.266 1.611l17.63 3.623c2.588.532 3.639 3.658 1.899 5.646l-11.855 13.542a3.443 3.443 0 00-.832 2.653l2.002 17.886c.294 2.626-2.354 4.592-4.783 3.551l-16.543-7.09a3.448 3.448 0 00-2.781.029l-16.392 7.431c-2.406 1.091-5.094-.82-4.855-3.451l1.631-17.924a3.445 3.445 0 00-.887-2.636l-12.133-13.294c-1.781-1.951-.794-5.099 1.782-5.684l17.551-3.988a3.446 3.446 0 002.233-1.658l8.894-15.647c1.306-2.295 4.604-2.329 5.957-.06z" fill="#f8e837"/><path d="M202.5 204.58l-1.75 22.91-6.68 3.03c-2.41 1.09-5.09-.82-4.85-3.46l1.63-17.92c.08-.96-.24-1.92-.89-2.64l-12.13-13.29c-1.78-1.95-.8-5.1 1.78-5.68l7.56-1.72 14.36 15.9c.71.78 1.06 1.82.97 2.87z" fill="#f3d332"/><path d="M150 365c-11.05 0-20 8.95-20 20v46h-20v-46c0-11.05 8.95-20 20-20z" fill="#2c4d66"/></svg>